M48
;DRILL file {KiCad 4.0.2+dfsg1-stable} date Di 23 Mai 2017 03:16:39 CEST
;FORMAT={-:-/ absolute / inch / decimal}
FMAT,2
INCH,TZ
T1C0.012
T2C0.016
T3C0.020
%
G90
G05
M72
T1
X1.8858Y-4.6949
X1.8878Y-4.063
X1.8878Y-4.1969
X1.8878Y-4.3386
X1.8976Y-3.8071
X1.8976Y-3.8701
X1.8976Y-3.9331
X1.8976Y-3.9961
X1.9094Y-4.4803
X1.937Y-4.4803
X1.9528Y-4.872
X1.9626Y-4.8228
X1.9803Y-4.3661
X1.9803Y-4.5669
X2.0138Y-4.6949
X2.0138Y-4.7461
X2.0315Y-4.4134
X2.0325Y-4.2805
X2.0325Y-4.3297
X2.0512Y-4.5669
X2.0571Y-4.4134
X2.065Y-4.6949
X2.065Y-4.7461
X2.0709Y-4.437
X2.073Y-4.4625
X2.0748Y-4.1831
X2.0817Y-4.2805
X2.0817Y-4.3297
X2.0827Y-4.4134
X2.0906Y-4.5669
X2.0906Y-4.8228
X2.1043Y-3.937
X2.1122Y-4.4626
X2.122Y-4.3701
X2.1339Y-3.811
X2.1378Y-4.8228
X2.1417Y-4.5669
X2.1634Y-4.5965
X2.189Y-4.2323
X2.189Y-4.6693
X2.189Y-4.6949
X2.189Y-4.7205
X2.1949Y-4.5787
X2.1969Y-4.4528
X2.1969Y-4.4803
X2.2224Y-3.8465
X2.2224Y-3.9764
X2.2224Y-4.0856
X2.2362Y-4.2165
X2.2559Y-4.0551
X2.2697Y-4.5098
X2.2776Y-4.2756
X2.2795Y-4.3465
X2.2795Y-4.3858
X2.2795Y-4.4252
X2.2795Y-4.4508
X2.2835Y-4.0197
X2.2933Y-4.3071
X2.2933Y-4.3071
X2.2953Y-4.5098
X2.2972Y-4.3661
X2.2972Y-4.4055
X2.2992Y-4.5709
X2.3071Y-4.2461
X2.3189Y-3.8346
X2.3189Y-4.1102
X2.3209Y-4.6673
X2.3209Y-4.7244
X2.3307Y-4.0551
X2.3524Y-4.2126
X2.3583Y-4.1398
X2.3642Y-4.6142
X2.3701Y-4.5492
X2.3898Y-3.7953
X2.3898Y-4.5886
X2.3898Y-4.6142
X2.3917Y-4.7146
X2.3996Y-4.2343
X2.4154Y-4.2874
X2.4173Y-4.3917
X2.4173Y-4.4232
X2.4173Y-4.5039
X2.4252Y-3.8622
X2.4252Y-3.8917
X2.439Y-4.2402
X2.4409Y-4.2874
X2.4449Y-4.7146
X2.4469Y-4.372
X2.4528Y-4.5945
X2.4606Y-4.5118
X2.4646Y-4.2402
X2.4665Y-4.3543
X2.4705Y-4.7146
X2.4803Y-4.2874
X2.4823Y-4.6831
X2.4902Y-4.2402
X2.4902Y-4.4094
X2.4902Y-4.4902
X2.4921Y-4.5512
X2.5Y-4.0157
X2.5177Y-4.5512
X2.5295Y-3.8917
X2.5295Y-4.2323
X2.5295Y-4.7146
X2.5433Y-3.8012
X2.5433Y-4.5512
X2.5453Y-4.2579
X2.5453Y-4.3051
X2.5492Y-4.7894
X2.5531Y-4.3819
X2.5551Y-4.7146
X2.5591Y-4.0157
X2.563Y-4.687
X2.5689Y-4.5531
X2.5689Y-4.8287
X2.5728Y-4.2579
X2.5748Y-4.1004
X2.5748Y-4.4764
X2.5787Y-3.8012
X2.5787Y-3.8366
X2.5787Y-3.8622
X2.5827Y-4.2323
X2.5886Y-4.6102
X2.5886Y-4.7894
X2.6004Y-4.4764
X2.6043Y-3.8386
X2.6063Y-4.8091
X2.6083Y-4.2323
X2.628Y-4.6102
X2.6299Y-3.8465
X2.6299Y-3.872
X2.6299Y-3.8976
X2.6299Y-3.9449
X2.6476Y-4.2795
X2.6476Y-4.4843
X2.6476Y-4.7894
X2.6535Y-4.0551
X2.6575Y-4.6102
X2.6634Y-3.6457
X2.6752Y-4.7894
X2.687Y-4.6102
X2.6949Y-3.6457
X2.6949Y-4.3524
X2.6949Y-4.378
X2.6949Y-4.4035
X2.6949Y-4.4291
X2.7008Y-3.9331
X2.7008Y-4.0669
X2.7008Y-4.7894
X2.7008Y-4.8504
X2.7205Y-4.254
X2.7205Y-4.2933
X2.721Y-3.8024
X2.721Y-3.8512
X2.7264Y-4.5512
X2.7264Y-4.7894
X2.7264Y-4.8504
X2.7362Y-3.6457
X2.7362Y-3.7323
X2.7402Y-3.9685
X2.7402Y-4.0079
X2.7461Y-4.3957
X2.7461Y-4.4291
X2.7461Y-4.6102
X2.748Y-4.2539
X2.748Y-4.313
X2.748Y-4.6713
X2.7515Y-3.8024
X2.7515Y-3.8512
X2.752Y-4.0945
X2.7697Y-4.7894
X2.7795Y-3.9685
X2.7795Y-4.0079
X2.7972Y-4.7894
X2.7992Y-4.5906
X2.7992Y-4.6161
X2.8012Y-4.2441
X2.8051Y-4.6909
X2.8051Y-4.7165
X2.8228Y-4.0512
X2.8248Y-4.502
X2.8307Y-4.8642
X2.8346Y-4.8169
X2.8366Y-4.4114
X2.8386Y-3.9134
X2.8465Y-4.8406
X2.8583Y-3.8583
X2.8583Y-3.7598
X2.8799Y-4.4114
X2.8799Y-4.502
X2.8957Y-4.0079
X2.8957Y-4.0925
X2.9055Y-4.2008
X2.9094Y-4.2992
X2.9252Y-4.6063
X2.9449Y-4.7047
X2.9567Y-4.2496
X2.9567Y-4.3496
X2.9567Y-4.6122
X2.9646Y-4.6378
X2.9961Y-4.7638
X2.9961Y-4.8504
X3.Y-4.3917
T2
X2.9016Y-3.7677
T3
X2.6339Y-4.0945
X2.872Y-3.9232
T0
M30
