G04 #@! TF.FileFunction,Copper,L2,Bot,Signal*
%FSLAX46Y46*%
G04 Gerber Fmt 4.6, Leading zero omitted, Abs format (unit mm)*
G04 Created by KiCad (PCBNEW 4.0.2+dfsg1-stable) date Di 23 Mai 2017 03:16:38 CEST*
%MOMM*%
G01*
G04 APERTURE LIST*
%ADD10C,0.100000*%
%ADD11R,0.400000X1.350000*%
%ADD12R,2.100000X1.600000*%
%ADD13R,1.900000X1.900000*%
%ADD14R,1.800000X1.900000*%
%ADD15R,6.000000X3.000000*%
%ADD16R,0.500000X0.600000*%
%ADD17R,3.000000X3.000000*%
%ADD18R,2.032000X2.032000*%
%ADD19O,2.032000X2.032000*%
%ADD20R,1.050000X2.200000*%
%ADD21R,1.000000X1.050000*%
%ADD22R,1.500000X3.000000*%
%ADD23R,3.000000X1.500000*%
%ADD24C,1.000000*%
%ADD25C,0.500000*%
%ADD26C,0.800000*%
%ADD27C,0.400000*%
%ADD28C,0.200000*%
%ADD29C,1.000000*%
%ADD30C,0.500000*%
%ADD31C,0.800000*%
%ADD32C,0.450000*%
%ADD33C,0.140000*%
G04 APERTURE END LIST*
D10*
D11*
X60700000Y-95350000D03*
X61350000Y-95350000D03*
X62000000Y-95350000D03*
X62650000Y-95350000D03*
X63300000Y-95350000D03*
D12*
X65100000Y-95225000D03*
X58900000Y-95225000D03*
D13*
X60800000Y-92675000D03*
X63200000Y-92675000D03*
D14*
X58000000Y-92675000D03*
X66000000Y-92675000D03*
D15*
X50400000Y-96300000D03*
X73600000Y-92700000D03*
D16*
X67250000Y-123550000D03*
X67250000Y-122450000D03*
X70550000Y-120250000D03*
X70550000Y-119150000D03*
X71950000Y-120250000D03*
X71950000Y-119150000D03*
D15*
X50400000Y-92700000D03*
D17*
X75100000Y-99900000D03*
D18*
X75100000Y-113060000D03*
D19*
X75100000Y-115600000D03*
D20*
X48125000Y-122075000D03*
X51075000Y-122075000D03*
D21*
X49600000Y-123600000D03*
D17*
X75100000Y-96300000D03*
D22*
X75950000Y-122900000D03*
D23*
X53800000Y-123650000D03*
D24*
X54750000Y-118350000D03*
X54750000Y-119500000D03*
D25*
X58400000Y-116100000D03*
X75100000Y-117150000D03*
X69250000Y-115600000D03*
X52600000Y-112700000D03*
X58900009Y-104400000D03*
X58900000Y-97400000D03*
X59750000Y-107000000D03*
X67250000Y-108700000D03*
X53100000Y-116000000D03*
X60950000Y-107550000D03*
X76200000Y-111550000D03*
X64650000Y-109350000D03*
X64650000Y-108150000D03*
X61400000Y-111550000D03*
X61350000Y-108900000D03*
X69750000Y-111650000D03*
X69100000Y-108050990D03*
X62500000Y-114600000D03*
X73150000Y-114350000D03*
X64750000Y-121650000D03*
X71100000Y-117250000D03*
X54200000Y-96800000D03*
X53450000Y-100000000D03*
X61600000Y-98850000D03*
X65500000Y-96550000D03*
X65500000Y-97450000D03*
X65000000Y-102000000D03*
X63500000Y-102000000D03*
X67400000Y-103000000D03*
X58950000Y-120000000D03*
X55750000Y-116300000D03*
X60200000Y-115549010D03*
X74800000Y-119500000D03*
X76100000Y-123200000D03*
X74300000Y-117000000D03*
X75300000Y-117800000D03*
X69800000Y-118650000D03*
X66750000Y-117100000D03*
X67950000Y-121650000D03*
X71250000Y-119800010D03*
X73150000Y-112050000D03*
X57300000Y-103000000D03*
X59200000Y-103000000D03*
X67650000Y-92600000D03*
X68450000Y-92600000D03*
X69100000Y-109050000D03*
X61600000Y-98100000D03*
X59900000Y-105150000D03*
X52700000Y-106250000D03*
X55600000Y-107500000D03*
X54300000Y-122500000D03*
X53100000Y-122500000D03*
X53650000Y-113350000D03*
X52653979Y-113347757D03*
X55800000Y-113800000D03*
X55800000Y-113100051D03*
X52875000Y-108725000D03*
X51625000Y-108725000D03*
X51625000Y-109975000D03*
X52875000Y-109975000D03*
X69887500Y-96580000D03*
X69887500Y-97820000D03*
X69112500Y-97820000D03*
X69112500Y-96580000D03*
X70600000Y-101800000D03*
X70600000Y-100800000D03*
X69600000Y-100800000D03*
X69600000Y-101800000D03*
X73550000Y-101800000D03*
X73550000Y-103950000D03*
X54950000Y-116750000D03*
X48200000Y-96700000D03*
X48200000Y-99900000D03*
X48200000Y-98300000D03*
X48200000Y-101500000D03*
X49850000Y-122500000D03*
X47950000Y-103200000D03*
X47950000Y-110200000D03*
X47950000Y-106600000D03*
X51150000Y-119250000D03*
X52450000Y-119250000D03*
X52450000Y-120550000D03*
X51150000Y-120550000D03*
X65400000Y-104150000D03*
X65500000Y-98100000D03*
D26*
X66900000Y-104000000D03*
D25*
X56450000Y-103775000D03*
X56450000Y-101000000D03*
X56450000Y-97700000D03*
X73900000Y-109200000D03*
D26*
X72950000Y-99650000D03*
D25*
X66800000Y-100200010D03*
X66800000Y-99000000D03*
X71250000Y-119150000D03*
X69900000Y-104000000D03*
X67250000Y-121650000D03*
X72000000Y-122350000D03*
X71700000Y-102900000D03*
X61400000Y-112350000D03*
X58600000Y-107850000D03*
X61400000Y-114400000D03*
X57850000Y-108600000D03*
X58250000Y-109400000D03*
X56800000Y-107100000D03*
X58250000Y-109400000D03*
X57900000Y-110400000D03*
X50300000Y-110900000D03*
X57900000Y-111400000D03*
X51599997Y-112100000D03*
X58350000Y-111900000D03*
X52250000Y-112100000D03*
X57900000Y-112400000D03*
X52900000Y-112100000D03*
X58350000Y-110900000D03*
X53900000Y-111000000D03*
X71050000Y-121650000D03*
X65400000Y-113700000D03*
X66800000Y-97700000D03*
X58300000Y-114550000D03*
X48500000Y-113800000D03*
X64600000Y-115600000D03*
X63050000Y-118950000D03*
X72300000Y-122950000D03*
X69750000Y-112500000D03*
X64900000Y-119750000D03*
X63300000Y-115600000D03*
X75100000Y-107940000D03*
X65750000Y-117100000D03*
X64850000Y-111300000D03*
X68450000Y-110550000D03*
X58950000Y-118550000D03*
X62300000Y-116700000D03*
X55600000Y-118600000D03*
X60700000Y-116550000D03*
X55600000Y-119250000D03*
X60050000Y-117200000D03*
X69800000Y-108049990D03*
X73800000Y-106700000D03*
X71150000Y-107800000D03*
X69800000Y-109550000D03*
X70350000Y-121650000D03*
X66050000Y-113700000D03*
X66800000Y-98350000D03*
X57650000Y-114550000D03*
X49200000Y-113800000D03*
X67250000Y-113900000D03*
X71100000Y-116600000D03*
X75100000Y-110480000D03*
X68450000Y-111200000D03*
X62650000Y-110600000D03*
X61950000Y-107700000D03*
X65350000Y-108150000D03*
X65750000Y-121650000D03*
X62100000Y-119750000D03*
X68250000Y-117100000D03*
X62750990Y-119750000D03*
X67500000Y-117100000D03*
X60750000Y-119750000D03*
X65250000Y-115650000D03*
X66200000Y-122150000D03*
X69750000Y-117100000D03*
X64250000Y-119750000D03*
X63950000Y-115600000D03*
X66150000Y-97500000D03*
X72599990Y-98000000D03*
X68600000Y-103300000D03*
X68600000Y-99900000D03*
X49600000Y-123750000D03*
X55600000Y-119900000D03*
X60700000Y-117200000D03*
X63250000Y-107700000D03*
X62600000Y-107700000D03*
X64600000Y-96550000D03*
X64250000Y-98850000D03*
X66250003Y-107500000D03*
X76100000Y-121000000D03*
X63250000Y-112000000D03*
X68450000Y-111850000D03*
X63250000Y-114050000D03*
X65600000Y-107500000D03*
X69500000Y-94800000D03*
X62000000Y-108900000D03*
X63000019Y-108900000D03*
X64250000Y-107500000D03*
X62150000Y-111050000D03*
X68450000Y-112500000D03*
X71750000Y-114350000D03*
X60700000Y-96400000D03*
D26*
X73700000Y-95700000D03*
D25*
X52100000Y-116000000D03*
X54400000Y-116000000D03*
X69500000Y-92600000D03*
X58000000Y-102100000D03*
X57900000Y-113050000D03*
X72100000Y-99400000D03*
X72600000Y-95500000D03*
X50300000Y-116000000D03*
X47900000Y-119250000D03*
X69250000Y-123200000D03*
X71900000Y-123550000D03*
X69250000Y-121650000D03*
X72050000Y-112050000D03*
X65250000Y-122650000D03*
X68600000Y-123200000D03*
X68600000Y-121650000D03*
X65100000Y-119050000D03*
D27*
X69250000Y-115600000D02*
X68550000Y-114900000D01*
X68550000Y-114900000D02*
X67363478Y-114900000D01*
X67363478Y-114900000D02*
X66650000Y-114186522D01*
X66650000Y-114186522D02*
X66650000Y-109300000D01*
X66650000Y-109300000D02*
X67250000Y-108700000D01*
X58899001Y-115400000D02*
X58899001Y-115600999D01*
X58899001Y-115600999D02*
X58400000Y-116100000D01*
X58899001Y-115400000D02*
X58899001Y-113651000D01*
D28*
X56249979Y-115400021D02*
X56250000Y-115400000D01*
X54233977Y-115400021D02*
X56249979Y-115400021D01*
X56250000Y-115400000D02*
X58899001Y-115400000D01*
D27*
X58900009Y-104400000D02*
X58900009Y-106150000D01*
X58900009Y-106150000D02*
X59750011Y-107000002D01*
X59750011Y-107000002D02*
X59750011Y-112276406D01*
X58900000Y-113126417D02*
X58900000Y-113650001D01*
X59750011Y-112276406D02*
X58900000Y-113126417D01*
X58900000Y-113650001D02*
X58500010Y-113650001D01*
X58899001Y-113651000D02*
X58900000Y-113650001D01*
D28*
X75100000Y-117150000D02*
X75100000Y-115600000D01*
D27*
X58900009Y-104400000D02*
X58900009Y-103688011D01*
X58900009Y-103688011D02*
X58599999Y-103388001D01*
X58599999Y-103388001D02*
X58599999Y-102500001D01*
X58599999Y-102500001D02*
X58900000Y-102200000D01*
X58900000Y-102200000D02*
X58900000Y-97400000D01*
X58500010Y-113650001D02*
X57611997Y-113649999D01*
X57611997Y-113649999D02*
X56462039Y-112500041D01*
X56462039Y-112500041D02*
X54836227Y-112500041D01*
X54836227Y-112500041D02*
X54636268Y-112700000D01*
X54636268Y-112700000D02*
X54566388Y-112700000D01*
X54566388Y-112700000D02*
X52600000Y-112700000D01*
D28*
X53100000Y-116000000D02*
X53633998Y-116000000D01*
X53633998Y-116000000D02*
X54233977Y-115400021D01*
X64650000Y-109350000D02*
X64650000Y-108150000D01*
X61350000Y-108900000D02*
X61350000Y-111500000D01*
X61350000Y-111500000D02*
X61400000Y-111550000D01*
X59900000Y-105150000D02*
X60249001Y-105499001D01*
X60249001Y-107799001D02*
X61350000Y-108900000D01*
X60249001Y-105499001D02*
X60249001Y-107799001D01*
X69100000Y-109050000D02*
X69100000Y-108050990D01*
X60200000Y-115549010D02*
X60250991Y-115600001D01*
X60250991Y-115600001D02*
X62040001Y-115600001D01*
X62040001Y-115600001D02*
X62500000Y-115140002D01*
X62500000Y-115140002D02*
X62500000Y-114600000D01*
X75300000Y-117800000D02*
X75300000Y-119000000D01*
X75300000Y-119000000D02*
X74800000Y-119500000D01*
X66000000Y-92600000D02*
X66000000Y-92375000D01*
D29*
X50400000Y-97100000D02*
X52537550Y-97100000D01*
D28*
X65400000Y-104150000D02*
X65550000Y-104000000D01*
X65550000Y-104000000D02*
X65550000Y-98150000D01*
X65550000Y-98150000D02*
X65500000Y-98100000D01*
D27*
X66900000Y-104000000D02*
X69013478Y-104000000D01*
X73164477Y-102300999D02*
X73262479Y-102399001D01*
X69013478Y-104000000D02*
X69613479Y-103399999D01*
X69613479Y-103399999D02*
X70313479Y-103399999D01*
X70313479Y-103399999D02*
X71412479Y-102300999D01*
X73262479Y-102399001D02*
X73837521Y-102399001D01*
X71412479Y-102300999D02*
X73164477Y-102300999D01*
X73837521Y-102399001D02*
X74149001Y-102087521D01*
X74149001Y-102087521D02*
X74149001Y-100850999D01*
X74149001Y-100850999D02*
X75100000Y-99900000D01*
D28*
X65500000Y-98100000D02*
X65399979Y-98200021D01*
D30*
X72950000Y-99650000D02*
X74850000Y-99650000D01*
X74850000Y-99650000D02*
X75100000Y-99900000D01*
D27*
X56450000Y-101000000D02*
X56450000Y-103775000D01*
X56450000Y-97700000D02*
X56450000Y-101000000D01*
D28*
X73900000Y-109200000D02*
X76000000Y-109200000D01*
X75850000Y-99900000D02*
X75100000Y-99900000D01*
X76000000Y-109200000D02*
X76500000Y-108700000D01*
X76500000Y-100550000D02*
X75850000Y-99900000D01*
X76500000Y-108700000D02*
X76500000Y-100550000D01*
X73700000Y-98900000D02*
X73900000Y-98900000D01*
X73900000Y-98900000D02*
X75100000Y-100100000D01*
D31*
X75100000Y-100500000D02*
X74900000Y-100500000D01*
D28*
X66800000Y-100200010D02*
X66800000Y-99000000D01*
D27*
X71250000Y-119150000D02*
X71699001Y-118700999D01*
X71699001Y-118700999D02*
X71699001Y-116312479D01*
X69023517Y-113999999D02*
X68284166Y-113999999D01*
X71699001Y-116312479D02*
X71386522Y-116000000D01*
X71386522Y-116000000D02*
X71023518Y-116000000D01*
X71023518Y-116000000D02*
X69023517Y-113999999D01*
X68284166Y-113999999D02*
X67300011Y-113015844D01*
X67300011Y-109587991D02*
X67900000Y-108988002D01*
X67300011Y-113015844D02*
X67300011Y-109587991D01*
X67900000Y-108988002D02*
X67900000Y-106000000D01*
X67900000Y-106000000D02*
X69900000Y-104000000D01*
X71250000Y-119150000D02*
X70550000Y-119150000D01*
X71950000Y-119150000D02*
X71250000Y-119150000D01*
X71100000Y-103500000D02*
X71700000Y-102900000D01*
X68450000Y-106300000D02*
X70600000Y-104150000D01*
X70600000Y-104150000D02*
X70600000Y-104000000D01*
X70600000Y-104000000D02*
X71100000Y-103500000D01*
X67850021Y-112788023D02*
X67850021Y-109815811D01*
X67850021Y-109815811D02*
X68450010Y-109215822D01*
X68450010Y-109215822D02*
X68450010Y-108050010D01*
X68450010Y-108050010D02*
X68450000Y-108050000D01*
X68450000Y-108050000D02*
X68450000Y-106300000D01*
X72549001Y-118700000D02*
X72549001Y-120100000D01*
X72549001Y-120100000D02*
X72549001Y-121800999D01*
X72549001Y-121800999D02*
X72000000Y-122350000D01*
X67850021Y-112788023D02*
X68511987Y-113449989D01*
X68511987Y-113449989D02*
X69249923Y-113449989D01*
X72248011Y-116085072D02*
X72248011Y-118399010D01*
X69249923Y-113449989D02*
X71250924Y-115450990D01*
X71250924Y-115450990D02*
X71613929Y-115450990D01*
X71613929Y-115450990D02*
X72248011Y-116085072D01*
X72248011Y-118399010D02*
X72549001Y-118700000D01*
X67250000Y-122450000D02*
X67250000Y-121650000D01*
X67850021Y-112788023D02*
X67850021Y-112738023D01*
D28*
X61400000Y-114400000D02*
X61400000Y-112350000D01*
X57850000Y-108600000D02*
X58600000Y-107850000D01*
X58250000Y-109400000D02*
X57911478Y-109400000D01*
X57911478Y-109400000D02*
X56800000Y-108288522D01*
X56800000Y-108288522D02*
X56800000Y-107100000D01*
X50300000Y-110900000D02*
X53261478Y-110900000D01*
X53261478Y-110900000D02*
X53661478Y-110500000D01*
X53950000Y-110500000D02*
X57800000Y-110500000D01*
X53661478Y-110500000D02*
X53950000Y-110500000D01*
X57800000Y-110500000D02*
X57900000Y-110400000D01*
X51599997Y-112100000D02*
X51599997Y-112010001D01*
X53284979Y-111249989D02*
X53534991Y-111500001D01*
X51599997Y-112010001D02*
X52360009Y-111249989D01*
X52360009Y-111249989D02*
X53284979Y-111249989D01*
X53534991Y-111500001D02*
X54140001Y-111500001D01*
X54140001Y-111500001D02*
X54289991Y-111350011D01*
X54289991Y-111350011D02*
X57850011Y-111350011D01*
X57850011Y-111350011D02*
X57900000Y-111400000D01*
X52250000Y-112100000D02*
X52250000Y-112009998D01*
X57350000Y-111700000D02*
X57550000Y-111900000D01*
X52250000Y-112009998D02*
X52659999Y-111599999D01*
X52659999Y-111599999D02*
X53140001Y-111599999D01*
X53390013Y-111850011D02*
X54349989Y-111850011D01*
X57550000Y-111900000D02*
X58350000Y-111900000D01*
X53140001Y-111599999D02*
X53390013Y-111850011D01*
X54349989Y-111850011D02*
X54500000Y-111700000D01*
X54500000Y-111700000D02*
X57350000Y-111700000D01*
X52900000Y-112100000D02*
X53145155Y-112100000D01*
X54494847Y-112200000D02*
X54594847Y-112100000D01*
X53145155Y-112100000D02*
X53245155Y-112200000D01*
X53245155Y-112200000D02*
X54494847Y-112200000D01*
X54594847Y-112100000D02*
X54600000Y-112100000D01*
X54600000Y-112100000D02*
X54650000Y-112050000D01*
X54650000Y-112050000D02*
X54650132Y-112050132D01*
X54650132Y-112050132D02*
X57205285Y-112050132D01*
X57205285Y-112050132D02*
X57555153Y-112400000D01*
X57656426Y-112400000D02*
X57900000Y-112400000D01*
X57555153Y-112400000D02*
X57656426Y-112400000D01*
X58350000Y-110900000D02*
X54000000Y-110900000D01*
X54000000Y-110900000D02*
X53900000Y-111000000D01*
X71050000Y-121650000D02*
X71050000Y-121690002D01*
X70110479Y-122149001D02*
X69850999Y-121889521D01*
X70249001Y-117339521D02*
X70249001Y-116860479D01*
X71050000Y-121690002D02*
X70591001Y-122149001D01*
X70591001Y-122149001D02*
X70110479Y-122149001D01*
X69850999Y-121889521D02*
X69850999Y-121512477D01*
X69850999Y-121512477D02*
X68951990Y-120613468D01*
X70249001Y-116860479D02*
X70051374Y-116662852D01*
X68951990Y-118123680D02*
X69476669Y-117599001D01*
X68951990Y-120613468D02*
X68951990Y-118123680D01*
X69476669Y-117599001D02*
X69989521Y-117599001D01*
X69849384Y-116448010D02*
X68830106Y-116448010D01*
X69989521Y-117599001D02*
X70249001Y-117339521D01*
X70051374Y-116662852D02*
X70051374Y-116650000D01*
X70051374Y-116650000D02*
X69849384Y-116448010D01*
X68830106Y-116448010D02*
X68083095Y-115700999D01*
X68083095Y-115700999D02*
X67035907Y-115700999D01*
X67035907Y-115700999D02*
X65400000Y-114065092D01*
X65400000Y-114065092D02*
X65400000Y-113700000D01*
X65400000Y-113700000D02*
X65400000Y-113600000D01*
X65700000Y-109017838D02*
X65949990Y-108767848D01*
X65400000Y-113600000D02*
X65700000Y-113300000D01*
X65700000Y-113300000D02*
X65700000Y-109017838D01*
X65949990Y-108767848D02*
X65949990Y-108766434D01*
X65949990Y-108766434D02*
X66750004Y-107966420D01*
X66750004Y-107966420D02*
X66750004Y-105306994D01*
X66750004Y-105306994D02*
X65899989Y-104456979D01*
X65899989Y-104456979D02*
X65899989Y-98510009D01*
X66709998Y-97700000D02*
X66800000Y-97700000D01*
X65899989Y-98510009D02*
X66709998Y-97700000D01*
X58300000Y-114550000D02*
X58300000Y-114638522D01*
X58300000Y-114638522D02*
X57888511Y-115050011D01*
X57888511Y-115050011D02*
X49711489Y-115050011D01*
X49711489Y-115050011D02*
X48500000Y-113838522D01*
X48500000Y-113838522D02*
X48500000Y-113800000D01*
X65499001Y-113799001D02*
X65400000Y-113700000D01*
X63050000Y-118950000D02*
X63050000Y-118556466D01*
X64300000Y-117306466D02*
X64300000Y-116000000D01*
X63050000Y-118556466D02*
X64300000Y-117306466D01*
X64300000Y-116000000D02*
X64600000Y-115700000D01*
X64600000Y-115700000D02*
X64600000Y-115600000D01*
X69750000Y-112500000D02*
X69750000Y-112821496D01*
X69750000Y-112821496D02*
X70779503Y-113850999D01*
X70779503Y-113850999D02*
X71989521Y-113850999D01*
X71989521Y-113850999D02*
X72250000Y-114111478D01*
X72998011Y-122251989D02*
X72300000Y-122950000D01*
X72250000Y-114111478D02*
X72250000Y-115452065D01*
X72250000Y-115452065D02*
X72697021Y-115899086D01*
X72697021Y-115899086D02*
X72697021Y-118213024D01*
X72697021Y-118213024D02*
X72998011Y-118514014D01*
X72998011Y-118514014D02*
X72998011Y-122251989D01*
X63841501Y-120947021D02*
X64900000Y-119888522D01*
X64900000Y-119888522D02*
X64900000Y-119750000D01*
X63300000Y-115600000D02*
X63300000Y-117317904D01*
X63300000Y-117317904D02*
X61249001Y-119368903D01*
X61249001Y-119368903D02*
X61249001Y-120131097D01*
X61249001Y-120131097D02*
X62064925Y-120947021D01*
X62064925Y-120947021D02*
X63841501Y-120947021D01*
X75100000Y-107940000D02*
X73260000Y-107940000D01*
X68900000Y-110550000D02*
X68450000Y-110550000D01*
X73260000Y-107940000D02*
X71001000Y-110199000D01*
X71001000Y-110199000D02*
X70800000Y-110199000D01*
X70800000Y-110199000D02*
X69250000Y-110200000D01*
X69250000Y-110200000D02*
X68900000Y-110550000D01*
X64850000Y-111300000D02*
X64850000Y-113017904D01*
X64850000Y-113017904D02*
X64450000Y-113417904D01*
X64450000Y-114102240D02*
X65750000Y-115402240D01*
X64450000Y-113417904D02*
X64450000Y-114102240D01*
X65750000Y-115402240D02*
X65750000Y-117100000D01*
X58950000Y-118550000D02*
X61080756Y-118550000D01*
X61080756Y-118550000D02*
X62300000Y-117330756D01*
X62300000Y-117330756D02*
X62300000Y-116700000D01*
X55600000Y-118600000D02*
X55000000Y-118600000D01*
X55000000Y-118600000D02*
X54750000Y-118350000D01*
X60700000Y-116550000D02*
X59972998Y-116550000D01*
X59972998Y-116550000D02*
X59172998Y-117350000D01*
X59172998Y-117350000D02*
X56885669Y-117350000D01*
X56885669Y-117350000D02*
X55635669Y-118600000D01*
X55635669Y-118600000D02*
X55600000Y-118600000D01*
X55600000Y-119250000D02*
X55000000Y-119250000D01*
X55000000Y-119250000D02*
X54750000Y-119500000D01*
X60050000Y-117200000D02*
X59550000Y-117700000D01*
X59550000Y-117700000D02*
X57238522Y-117700000D01*
X57238522Y-117700000D02*
X55688522Y-119250000D01*
X55688522Y-119250000D02*
X55600000Y-119250000D01*
X71150000Y-107800000D02*
X72250000Y-106700000D01*
X72250000Y-106700000D02*
X73800000Y-106700000D01*
X69800000Y-109050010D02*
X69800000Y-109550000D01*
X69800000Y-108049990D02*
X69800000Y-109050010D01*
X66450000Y-108761412D02*
X67100014Y-108111398D01*
X67100014Y-108111398D02*
X67100014Y-105162016D01*
X67100014Y-105162016D02*
X66249999Y-104312001D01*
X66249999Y-104312001D02*
X66249999Y-98809999D01*
X66249999Y-98809999D02*
X66709998Y-98350000D01*
X66709998Y-98350000D02*
X66800000Y-98350000D01*
X66050000Y-113700000D02*
X66050000Y-114221518D01*
X66050000Y-114221518D02*
X67180471Y-115351989D01*
X67180471Y-115351989D02*
X68227659Y-115351989D01*
X70134085Y-117948011D02*
X69651989Y-117948011D01*
X68227659Y-115351989D02*
X68974671Y-116099001D01*
X69650000Y-117950000D02*
X69619244Y-117950000D01*
X68974671Y-116099001D02*
X69993949Y-116099001D01*
X69993949Y-116099001D02*
X70598011Y-116703063D01*
X70598010Y-117484086D02*
X70134085Y-117948011D01*
X70598011Y-116703063D02*
X70598010Y-117484086D01*
X69651989Y-117948011D02*
X69650000Y-117950000D01*
X69619244Y-117950000D02*
X69300999Y-118268245D01*
X69300999Y-118268245D02*
X69300999Y-120468903D01*
X69300999Y-120468903D02*
X70350000Y-121517904D01*
X70350000Y-121517904D02*
X70350000Y-121650000D01*
X49200000Y-113800000D02*
X50100001Y-114700001D01*
X50100001Y-114700001D02*
X57499999Y-114700001D01*
X57499999Y-114700001D02*
X57650000Y-114550000D01*
X66450000Y-108761412D02*
X66300000Y-108911412D01*
X66050000Y-113700000D02*
X66050000Y-109161412D01*
X66050000Y-109161412D02*
X66450000Y-108761412D01*
X71100000Y-116600000D02*
X70988522Y-116600000D01*
X70988522Y-116600000D02*
X68838522Y-114450000D01*
X68838522Y-114450000D02*
X67800000Y-114450000D01*
X67800000Y-114450000D02*
X67250000Y-113900000D01*
X61950000Y-107700000D02*
X61950000Y-108111478D01*
X61950000Y-108111478D02*
X62501009Y-108662487D01*
X62501009Y-108662487D02*
X62501009Y-110451009D01*
X62501009Y-110451009D02*
X62650000Y-110600000D01*
X68450000Y-111200000D02*
X68743574Y-111200000D01*
X68743574Y-111200000D02*
X69394564Y-110549010D01*
X69394564Y-110549010D02*
X75030990Y-110549010D01*
X75030990Y-110549010D02*
X75100000Y-110480000D01*
X65350990Y-108700990D02*
X65350990Y-108150990D01*
X65350990Y-108150990D02*
X65350000Y-108150000D01*
X65750000Y-121650000D02*
X65750000Y-119500000D01*
X64900999Y-113460479D02*
X65350990Y-113010488D01*
X65750000Y-119500000D02*
X66950990Y-118299010D01*
X66950990Y-118299010D02*
X67789512Y-118299010D01*
X65350990Y-113010488D02*
X65350990Y-108700990D01*
X67789512Y-118299010D02*
X68749001Y-117339521D01*
X67938531Y-116050009D02*
X66891342Y-116050008D01*
X68749001Y-117339521D02*
X68749001Y-116860479D01*
X66891342Y-116050008D02*
X64900999Y-114059665D01*
X68749001Y-116860479D02*
X67938531Y-116050009D01*
X64900999Y-114059665D02*
X64900999Y-113460479D01*
X62100000Y-119750000D02*
X62100000Y-119949001D01*
X62100000Y-119949001D02*
X62400000Y-120249001D01*
X67400000Y-117950000D02*
X68250000Y-117100000D01*
X62400000Y-120249001D02*
X62983095Y-120249001D01*
X62983095Y-120249001D02*
X64632803Y-118600707D01*
X64632803Y-118600707D02*
X64683511Y-118549999D01*
X64683511Y-118549999D02*
X66205013Y-118549999D01*
X66800000Y-117955012D02*
X66800000Y-117950000D01*
X66205013Y-118549999D02*
X66800000Y-117955012D01*
X66800000Y-117950000D02*
X67400000Y-117950000D01*
X62750990Y-119750000D02*
X62988522Y-119750000D01*
X66655011Y-117600001D02*
X66750000Y-117600001D01*
X62988522Y-119750000D02*
X64538533Y-118199989D01*
X64538533Y-118199989D02*
X66055023Y-118199989D01*
X66055023Y-118199989D02*
X66655011Y-117600001D01*
X66750000Y-117600001D02*
X67000999Y-117599001D01*
X67000999Y-117599001D02*
X67500000Y-117100000D01*
X65250000Y-115650000D02*
X65250000Y-115511478D01*
X65250000Y-115511478D02*
X64839521Y-115100999D01*
X60750000Y-119750000D02*
X60750000Y-119374330D01*
X60750000Y-119374330D02*
X62800999Y-117323331D01*
X62800999Y-117323331D02*
X62800999Y-115360479D01*
X62800999Y-115360479D02*
X63060479Y-115100999D01*
X63060479Y-115100999D02*
X64839521Y-115100999D01*
X66300000Y-119443574D02*
X66300000Y-122050000D01*
X67934077Y-118648019D02*
X67095554Y-118648020D01*
X67095554Y-118648020D02*
X66300000Y-119443574D01*
X69482096Y-117100000D02*
X67934077Y-118648019D01*
X69750000Y-117100000D02*
X69482096Y-117100000D01*
X66300000Y-122050000D02*
X66200000Y-122150000D01*
X64250000Y-119750000D02*
X64250000Y-120044948D01*
X62209489Y-120598011D02*
X61600999Y-119989521D01*
X64250000Y-120044948D02*
X63696937Y-120598011D01*
X63696937Y-120598011D02*
X62209489Y-120598011D01*
X61600999Y-119989521D02*
X61600999Y-119510479D01*
X61600999Y-119510479D02*
X63950000Y-117161478D01*
X63950000Y-117161478D02*
X63950000Y-115600000D01*
D27*
X72600000Y-98000000D02*
X71780001Y-97180001D01*
X71780001Y-97180001D02*
X67168003Y-97180001D01*
X67168003Y-97180001D02*
X67088001Y-97099999D01*
X67088001Y-97099999D02*
X66550001Y-97099999D01*
X66550001Y-97099999D02*
X66400000Y-97250000D01*
X66400000Y-97250000D02*
X66150000Y-97500000D01*
D28*
X68600000Y-103300000D02*
X68600000Y-101300000D01*
X68600000Y-101300000D02*
X68600000Y-99900000D01*
X60700000Y-117200000D02*
X60700000Y-117288522D01*
X60700000Y-117288522D02*
X59938522Y-118050000D01*
X57538522Y-118050000D02*
X55688522Y-119900000D01*
X59938522Y-118050000D02*
X57538522Y-118050000D01*
X55688522Y-119900000D02*
X55600000Y-119900000D01*
X62650010Y-106811488D02*
X63250000Y-107411478D01*
X63250000Y-107411478D02*
X63250000Y-107700000D01*
X61350000Y-95350000D02*
X61350000Y-96215010D01*
X62451011Y-102501011D02*
X62451011Y-103916021D01*
X61350000Y-96215010D02*
X62450011Y-97315021D01*
X62450011Y-102500011D02*
X62451011Y-102501011D01*
X62450011Y-97315021D02*
X62450011Y-102500011D01*
X62451011Y-103916021D02*
X62650010Y-104115020D01*
X62650010Y-104115020D02*
X62650010Y-106811488D01*
X62000000Y-95350000D02*
X62000000Y-96370022D01*
X62800021Y-97170043D02*
X62800021Y-103770043D01*
X62000000Y-96370022D02*
X62800021Y-97170043D01*
X62800021Y-103770043D02*
X63000020Y-103970042D01*
X63749001Y-107416905D02*
X63749001Y-107939521D01*
X63000020Y-103970042D02*
X63000020Y-106667924D01*
X62600000Y-107788522D02*
X62600000Y-107700000D01*
X63000020Y-106667924D02*
X63749001Y-107416905D01*
X63489521Y-108199001D02*
X63010479Y-108199001D01*
X63749001Y-107939521D02*
X63489521Y-108199001D01*
X63010479Y-108199001D02*
X62600000Y-107788522D01*
X61999998Y-95050002D02*
X62000000Y-95050000D01*
X66250003Y-107500000D02*
X66250003Y-105737111D01*
X66250003Y-105737111D02*
X64349011Y-103836119D01*
X64348011Y-103001989D02*
X64359007Y-102990993D01*
X64349011Y-103836119D02*
X64348011Y-103835512D01*
X64348011Y-103835512D02*
X64348011Y-103001989D01*
X64359007Y-102990993D02*
X64359007Y-99205435D01*
X64359007Y-99205435D02*
X64250000Y-99096428D01*
X64250000Y-99096428D02*
X64250000Y-98850000D01*
X64250000Y-98850000D02*
X64250000Y-96900000D01*
X64250000Y-96900000D02*
X64600000Y-96550000D01*
D32*
X50400000Y-92700000D02*
X52049999Y-92700000D01*
X52049999Y-92700000D02*
X53400000Y-91349999D01*
X53400000Y-91349999D02*
X70449999Y-91349999D01*
X70449999Y-91349999D02*
X71800000Y-92700000D01*
X71800000Y-92700000D02*
X73600000Y-92700000D01*
X50400000Y-92700000D02*
X51449999Y-93749999D01*
D28*
X48150000Y-92600000D02*
X48150000Y-92050000D01*
X48150000Y-93150000D02*
X48150000Y-92600000D01*
X48150000Y-93700000D02*
X48150000Y-93150000D01*
X68450000Y-111850000D02*
X68587148Y-111850000D01*
X68587148Y-111850000D02*
X69539128Y-110898020D01*
X69539128Y-110898020D02*
X72938020Y-110898020D01*
X72938020Y-110898020D02*
X75100000Y-113060000D01*
X63250000Y-114050000D02*
X63250000Y-112000000D01*
X75100000Y-113060000D02*
X76400000Y-114360000D01*
X76400000Y-114360000D02*
X76400000Y-120700000D01*
X76400000Y-120700000D02*
X76100000Y-121000000D01*
X69500000Y-94800000D02*
X68800000Y-94100000D01*
X68800000Y-94100000D02*
X63100000Y-94100000D01*
X63100000Y-94100000D02*
X62650000Y-94550000D01*
X62650000Y-94550000D02*
X62650000Y-95350000D01*
X65600000Y-107500000D02*
X65600000Y-105582096D01*
X65600000Y-105582096D02*
X63999001Y-103981097D01*
X63999001Y-103981097D02*
X63999001Y-99349001D01*
X63999001Y-99349001D02*
X63149031Y-98499031D01*
X62650000Y-96526448D02*
X62650000Y-95350000D01*
X63149031Y-98499031D02*
X63149031Y-97025479D01*
X63149031Y-97025479D02*
X62650000Y-96526448D01*
X62650000Y-95350000D02*
X62650000Y-96025002D01*
X60700000Y-96400000D02*
X61040002Y-96400000D01*
X62100001Y-97459999D02*
X62100001Y-104059999D01*
X61040002Y-96400000D02*
X62100001Y-97459999D01*
X62300000Y-104259998D02*
X62300000Y-106611478D01*
X62100001Y-104059999D02*
X62300000Y-104259998D01*
X62300000Y-106611478D02*
X61449996Y-107461482D01*
X61449996Y-107461482D02*
X61449996Y-107600000D01*
X63000019Y-108900000D02*
X63282096Y-108900000D01*
X63282096Y-108900000D02*
X64098010Y-108084086D01*
X64098010Y-108084086D02*
X64098011Y-107651989D01*
X64098011Y-107651989D02*
X64250000Y-107500000D01*
X62150000Y-111050000D02*
X62150000Y-109500000D01*
X62150000Y-109500000D02*
X62151999Y-109498001D01*
X62151999Y-109498001D02*
X62151999Y-109051999D01*
X62151999Y-109051999D02*
X62000000Y-108900000D01*
X62000000Y-108900000D02*
X62000000Y-108809998D01*
X62000000Y-108809998D02*
X61449996Y-108259994D01*
X61449996Y-107600000D02*
X61449996Y-107738521D01*
X61449996Y-107600000D02*
X61449996Y-108259994D01*
X70784930Y-114350000D02*
X71750000Y-114350000D01*
X70784930Y-114350000D02*
X69434909Y-112999979D01*
X69434909Y-112999979D02*
X68949979Y-112999979D01*
X68949979Y-112999979D02*
X68450000Y-112500000D01*
X60700000Y-96400000D02*
X60700000Y-95350000D01*
X54400000Y-116000000D02*
X53899999Y-116500001D01*
X53899999Y-116500001D02*
X52600001Y-116500001D01*
X52600001Y-116500001D02*
X52100000Y-116000000D01*
D27*
X57900000Y-113050000D02*
X58200000Y-113050000D01*
X58200000Y-113050000D02*
X59200001Y-112049999D01*
X59200001Y-112049999D02*
X59200001Y-107337994D01*
X58300000Y-106437993D02*
X58300000Y-104000000D01*
X59200001Y-107337994D02*
X58300000Y-106437993D01*
X58300000Y-104000000D02*
X58000000Y-103700000D01*
X58000000Y-103700000D02*
X58000000Y-103000000D01*
X58000000Y-103000000D02*
X58000000Y-102100000D01*
X72600000Y-95500000D02*
X72600000Y-95950000D01*
X72600000Y-95950000D02*
X73200000Y-96550000D01*
X73200000Y-96550000D02*
X73200000Y-98300000D01*
X73200000Y-98300000D02*
X72100000Y-99400000D01*
X71700000Y-94600000D02*
X70369998Y-94600000D01*
X70369998Y-94600000D02*
X70100001Y-94330003D01*
X70100001Y-93200001D02*
X69500000Y-92600000D01*
X70100001Y-94330003D02*
X70100001Y-93200001D01*
X72600000Y-95500000D02*
X71700000Y-94600000D01*
D28*
X50300000Y-116000000D02*
X50300000Y-116850000D01*
X50300000Y-116850000D02*
X47900000Y-119250000D01*
X72050000Y-112050000D02*
X72050000Y-113417904D01*
X72599009Y-114799009D02*
X72600000Y-114800000D01*
X72600000Y-114800000D02*
X72600000Y-115308491D01*
X72050000Y-113417904D02*
X72599009Y-113966913D01*
X72599009Y-113966913D02*
X72599009Y-114799009D01*
X72600000Y-115308491D02*
X73050000Y-115758491D01*
X73050000Y-115758491D02*
X73050000Y-118050000D01*
X73050000Y-118050000D02*
X73350000Y-118350000D01*
X73350000Y-118350000D02*
X73350000Y-122638522D01*
X73350000Y-122638522D02*
X72438522Y-123550000D01*
X72438522Y-123550000D02*
X71900000Y-123550000D01*
X69250000Y-121650000D02*
X69250000Y-123200000D01*
X68600000Y-121650000D02*
X68600000Y-123200000D01*
X65100000Y-119050000D02*
X65399001Y-119349001D01*
X65399001Y-119349001D02*
X65399001Y-119649001D01*
X65399001Y-119649001D02*
X65400000Y-119650000D01*
X65400000Y-119650000D02*
X65400000Y-121259998D01*
X65400000Y-121259998D02*
X65250000Y-121409998D01*
X65250000Y-121409998D02*
X65250000Y-121450000D01*
X65250000Y-121450000D02*
X65250000Y-122650000D01*
D33*
G36*
X70375690Y-91905016D02*
X70375690Y-92881720D01*
X69948388Y-92454418D01*
X69898679Y-92334114D01*
X69766581Y-92201786D01*
X69593899Y-92130082D01*
X69406921Y-92129918D01*
X69234114Y-92201321D01*
X69101786Y-92333419D01*
X69030082Y-92506101D01*
X69029918Y-92693079D01*
X69101321Y-92865886D01*
X69233419Y-92998214D01*
X69354536Y-93048506D01*
X69680001Y-93373971D01*
X69680001Y-94330003D01*
X69687770Y-94369061D01*
X69593899Y-94330082D01*
X69482533Y-94329984D01*
X69026274Y-93873726D01*
X68922459Y-93804359D01*
X68800000Y-93780000D01*
X63100000Y-93780000D01*
X62977541Y-93804359D01*
X62873726Y-93873726D01*
X62423726Y-94323726D01*
X62354359Y-94427541D01*
X62343507Y-94482095D01*
X62324896Y-94494071D01*
X62287269Y-94468362D01*
X62200000Y-94450690D01*
X61800000Y-94450690D01*
X61718473Y-94466030D01*
X61674896Y-94494071D01*
X61637269Y-94468362D01*
X61550000Y-94450690D01*
X61150000Y-94450690D01*
X61068473Y-94466030D01*
X61024896Y-94494071D01*
X60987269Y-94468362D01*
X60900000Y-94450690D01*
X60500000Y-94450690D01*
X60418473Y-94466030D01*
X60343595Y-94514213D01*
X60293362Y-94587731D01*
X60275690Y-94675000D01*
X60275690Y-96025000D01*
X60291030Y-96106527D01*
X60305773Y-96129439D01*
X60301786Y-96133419D01*
X60230082Y-96306101D01*
X60229918Y-96493079D01*
X60301321Y-96665886D01*
X60433419Y-96798214D01*
X60606101Y-96869918D01*
X60793079Y-96870082D01*
X60965886Y-96798679D01*
X60976018Y-96788564D01*
X61780001Y-97592547D01*
X61780001Y-104059999D01*
X61804360Y-104182458D01*
X61846204Y-104245082D01*
X61873727Y-104286273D01*
X61980000Y-104392546D01*
X61980000Y-106478930D01*
X61223722Y-107235208D01*
X61154355Y-107339023D01*
X61129996Y-107461482D01*
X61129996Y-108259994D01*
X61154355Y-108382453D01*
X61223722Y-108486268D01*
X61534035Y-108796581D01*
X61530082Y-108806101D01*
X61529918Y-108993079D01*
X61601321Y-109165886D01*
X61733419Y-109298214D01*
X61831999Y-109339148D01*
X61831999Y-109489951D01*
X61830000Y-109500000D01*
X61830000Y-110705341D01*
X61751786Y-110783419D01*
X61680082Y-110956101D01*
X61679918Y-111143079D01*
X61751321Y-111315886D01*
X61883419Y-111448214D01*
X62056101Y-111519918D01*
X62243079Y-111520082D01*
X62415886Y-111448679D01*
X62548214Y-111316581D01*
X62619918Y-111143899D01*
X62619983Y-111069974D01*
X62743079Y-111070082D01*
X62915886Y-110998679D01*
X63048214Y-110866581D01*
X63119918Y-110693899D01*
X63120082Y-110506921D01*
X63048679Y-110334114D01*
X62916581Y-110201786D01*
X62821009Y-110162101D01*
X62821009Y-109334577D01*
X62906120Y-109369918D01*
X63093098Y-109370082D01*
X63265905Y-109298679D01*
X63360305Y-109204443D01*
X63404555Y-109195641D01*
X63508370Y-109126274D01*
X64324284Y-108310360D01*
X64374530Y-108235162D01*
X64393651Y-108206546D01*
X64393651Y-108206545D01*
X64393652Y-108206544D01*
X64411962Y-108114493D01*
X64418010Y-108084087D01*
X64418010Y-107939121D01*
X64515886Y-107898679D01*
X64648214Y-107766581D01*
X64719918Y-107593899D01*
X64720082Y-107406921D01*
X64648679Y-107234114D01*
X64516581Y-107101786D01*
X64343899Y-107030082D01*
X64156921Y-107029918D01*
X63984114Y-107101321D01*
X63934997Y-107150353D01*
X63320020Y-106535376D01*
X63320020Y-103970042D01*
X63295661Y-103847583D01*
X63226294Y-103743768D01*
X63120021Y-103637495D01*
X63120021Y-98922569D01*
X63679001Y-99481549D01*
X63679001Y-103981097D01*
X63703360Y-104103556D01*
X63741969Y-104161338D01*
X63772727Y-104207371D01*
X65280000Y-105714645D01*
X65280000Y-107155341D01*
X65201786Y-107233419D01*
X65130082Y-107406101D01*
X65129918Y-107593079D01*
X65179088Y-107712078D01*
X65084114Y-107751321D01*
X64951786Y-107883419D01*
X64880082Y-108056101D01*
X64879918Y-108243079D01*
X64951321Y-108415886D01*
X65030990Y-108495694D01*
X65030990Y-110866245D01*
X64943899Y-110830082D01*
X64756921Y-110829918D01*
X64584114Y-110901321D01*
X64451786Y-111033419D01*
X64380082Y-111206101D01*
X64379918Y-111393079D01*
X64451321Y-111565886D01*
X64530000Y-111644702D01*
X64530000Y-112885356D01*
X64223726Y-113191630D01*
X64154359Y-113295445D01*
X64130000Y-113417904D01*
X64130000Y-114102240D01*
X64154359Y-114224699D01*
X64203480Y-114298214D01*
X64223726Y-114328514D01*
X64676211Y-114780999D01*
X63060479Y-114780999D01*
X62938020Y-114805358D01*
X62849065Y-114864796D01*
X62834205Y-114874725D01*
X62574725Y-115134205D01*
X62505358Y-115238020D01*
X62480999Y-115360479D01*
X62480999Y-116266249D01*
X62393899Y-116230082D01*
X62206921Y-116229918D01*
X62034114Y-116301321D01*
X61901786Y-116433419D01*
X61830082Y-116606101D01*
X61829918Y-116793079D01*
X61901321Y-116965886D01*
X61980000Y-117044702D01*
X61980000Y-117198208D01*
X60948208Y-118230000D01*
X60211070Y-118230000D01*
X60771008Y-117670063D01*
X60793079Y-117670082D01*
X60965886Y-117598679D01*
X61098214Y-117466581D01*
X61169918Y-117293899D01*
X61170082Y-117106921D01*
X61098679Y-116934114D01*
X61039680Y-116875013D01*
X61098214Y-116816581D01*
X61169918Y-116643899D01*
X61170082Y-116456921D01*
X61098679Y-116284114D01*
X60966581Y-116151786D01*
X60793899Y-116080082D01*
X60606921Y-116079918D01*
X60434114Y-116151321D01*
X60355298Y-116230000D01*
X59972998Y-116230000D01*
X59850539Y-116254359D01*
X59779560Y-116301786D01*
X59746724Y-116323726D01*
X59040450Y-117030000D01*
X56885669Y-117030000D01*
X56763210Y-117054359D01*
X56675078Y-117113247D01*
X56659395Y-117123726D01*
X55653075Y-118130046D01*
X55506921Y-118129918D01*
X55448141Y-118154206D01*
X55360743Y-117942685D01*
X55158380Y-117739969D01*
X54893845Y-117630125D01*
X54607411Y-117629875D01*
X54342685Y-117739257D01*
X54139969Y-117941620D01*
X54030125Y-118206155D01*
X54029875Y-118492589D01*
X54139257Y-118757315D01*
X54306765Y-118925115D01*
X54139969Y-119091620D01*
X54030125Y-119356155D01*
X54029875Y-119642589D01*
X54139257Y-119907315D01*
X54341620Y-120110031D01*
X54606155Y-120219875D01*
X54892589Y-120220125D01*
X55157315Y-120110743D01*
X55172339Y-120095745D01*
X55201321Y-120165886D01*
X55333419Y-120298214D01*
X55506101Y-120369918D01*
X55693079Y-120370082D01*
X55865886Y-120298679D01*
X55998214Y-120166581D01*
X56069918Y-119993899D01*
X56069938Y-119971132D01*
X57671070Y-118370000D01*
X58515834Y-118370000D01*
X58480082Y-118456101D01*
X58479918Y-118643079D01*
X58551321Y-118815886D01*
X58683419Y-118948214D01*
X58856101Y-119019918D01*
X59043079Y-119020082D01*
X59215886Y-118948679D01*
X59294702Y-118870000D01*
X60801782Y-118870000D01*
X60523726Y-119148056D01*
X60454359Y-119251871D01*
X60430000Y-119374330D01*
X60430000Y-119405341D01*
X60351786Y-119483419D01*
X60280082Y-119656101D01*
X60279918Y-119843079D01*
X60351321Y-120015886D01*
X60483419Y-120148214D01*
X60656101Y-120219918D01*
X60843079Y-120220082D01*
X60938832Y-120180518D01*
X60953360Y-120253556D01*
X61022727Y-120357371D01*
X61838651Y-121173295D01*
X61942466Y-121242662D01*
X62064925Y-121267021D01*
X63841501Y-121267021D01*
X63963960Y-121242662D01*
X64067775Y-121173295D01*
X65040640Y-120200430D01*
X65080000Y-120184167D01*
X65080000Y-121127450D01*
X65023726Y-121183724D01*
X64954359Y-121287539D01*
X64930000Y-121409998D01*
X64930000Y-122305341D01*
X64851786Y-122383419D01*
X64780082Y-122556101D01*
X64779918Y-122743079D01*
X64851321Y-122915886D01*
X64983419Y-123048214D01*
X65156101Y-123119918D01*
X65343079Y-123120082D01*
X65515886Y-123048679D01*
X65648214Y-122916581D01*
X65719918Y-122743899D01*
X65720082Y-122556921D01*
X65648679Y-122384114D01*
X65570000Y-122305298D01*
X65570000Y-122084166D01*
X65656101Y-122119918D01*
X65730026Y-122119983D01*
X65729918Y-122243079D01*
X65801321Y-122415886D01*
X65933419Y-122548214D01*
X66106101Y-122619918D01*
X66293079Y-122620082D01*
X66465886Y-122548679D01*
X66598214Y-122416581D01*
X66669918Y-122243899D01*
X66670000Y-122150000D01*
X66775690Y-122150000D01*
X66775690Y-122750000D01*
X66791030Y-122831527D01*
X66839213Y-122906405D01*
X66912731Y-122956638D01*
X67000000Y-122974310D01*
X67500000Y-122974310D01*
X67581527Y-122958970D01*
X67656405Y-122910787D01*
X67706638Y-122837269D01*
X67724310Y-122750000D01*
X67724310Y-122150000D01*
X67708970Y-122068473D01*
X67670000Y-122007912D01*
X67670000Y-121864115D01*
X67719918Y-121743899D01*
X67720082Y-121556921D01*
X67648679Y-121384114D01*
X67516581Y-121251786D01*
X67343899Y-121180082D01*
X67156921Y-121179918D01*
X66984114Y-121251321D01*
X66851786Y-121383419D01*
X66780082Y-121556101D01*
X66779918Y-121743079D01*
X66830000Y-121864286D01*
X66830000Y-122009110D01*
X66793362Y-122062731D01*
X66775690Y-122150000D01*
X66670000Y-122150000D01*
X66670082Y-122056921D01*
X66620000Y-121935714D01*
X66620000Y-119576122D01*
X67228102Y-118968020D01*
X67934077Y-118968019D01*
X68056536Y-118943660D01*
X68160351Y-118874293D01*
X68631990Y-118402654D01*
X68631990Y-120613468D01*
X68656349Y-120735927D01*
X68714167Y-120822458D01*
X68725716Y-120839742D01*
X69092507Y-121206533D01*
X68984114Y-121251321D01*
X68925013Y-121310320D01*
X68866581Y-121251786D01*
X68693899Y-121180082D01*
X68506921Y-121179918D01*
X68334114Y-121251321D01*
X68201786Y-121383419D01*
X68130082Y-121556101D01*
X68129918Y-121743079D01*
X68201321Y-121915886D01*
X68280000Y-121994702D01*
X68280000Y-122855341D01*
X68201786Y-122933419D01*
X68130082Y-123106101D01*
X68129918Y-123293079D01*
X68201321Y-123465886D01*
X68333419Y-123598214D01*
X68506101Y-123669918D01*
X68693079Y-123670082D01*
X68865886Y-123598679D01*
X68924987Y-123539680D01*
X68983419Y-123598214D01*
X69156101Y-123669918D01*
X69343079Y-123670082D01*
X69515886Y-123598679D01*
X69648214Y-123466581D01*
X69719918Y-123293899D01*
X69720082Y-123106921D01*
X69648679Y-122934114D01*
X69570000Y-122855298D01*
X69570000Y-122033893D01*
X69612824Y-122097984D01*
X69624725Y-122115795D01*
X69884205Y-122375275D01*
X69988020Y-122444642D01*
X70110479Y-122469001D01*
X70591001Y-122469001D01*
X70713460Y-122444642D01*
X70817275Y-122375275D01*
X71072530Y-122120020D01*
X71143079Y-122120082D01*
X71315886Y-122048679D01*
X71448214Y-121916581D01*
X71519918Y-121743899D01*
X71520082Y-121556921D01*
X71448679Y-121384114D01*
X71316581Y-121251786D01*
X71143899Y-121180082D01*
X70956921Y-121179918D01*
X70784114Y-121251321D01*
X70699969Y-121335319D01*
X70616581Y-121251786D01*
X70479515Y-121194871D01*
X69620999Y-120336355D01*
X69620999Y-120310000D01*
X70080000Y-120310000D01*
X70080000Y-120593761D01*
X70113493Y-120674620D01*
X70175380Y-120736507D01*
X70256240Y-120770000D01*
X70490000Y-120770000D01*
X70545000Y-120715000D01*
X70545000Y-120255000D01*
X70555000Y-120255000D01*
X70555000Y-120715000D01*
X70610000Y-120770000D01*
X70843760Y-120770000D01*
X70924620Y-120736507D01*
X70986507Y-120674620D01*
X71020000Y-120593761D01*
X71020000Y-120310000D01*
X71480000Y-120310000D01*
X71480000Y-120593761D01*
X71513493Y-120674620D01*
X71575380Y-120736507D01*
X71656240Y-120770000D01*
X71890000Y-120770000D01*
X71945000Y-120715000D01*
X71945000Y-120255000D01*
X71535000Y-120255000D01*
X71480000Y-120310000D01*
X71020000Y-120310000D01*
X70965000Y-120255000D01*
X70555000Y-120255000D01*
X70545000Y-120255000D01*
X70135000Y-120255000D01*
X70080000Y-120310000D01*
X69620999Y-120310000D01*
X69620999Y-119906239D01*
X70080000Y-119906239D01*
X70080000Y-120190000D01*
X70135000Y-120245000D01*
X70545000Y-120245000D01*
X70545000Y-119785000D01*
X70555000Y-119785000D01*
X70555000Y-120245000D01*
X70965000Y-120245000D01*
X71020000Y-120190000D01*
X71020000Y-119906239D01*
X71480000Y-119906239D01*
X71480000Y-120190000D01*
X71535000Y-120245000D01*
X71945000Y-120245000D01*
X71945000Y-119785000D01*
X71890000Y-119730000D01*
X71656240Y-119730000D01*
X71575380Y-119763493D01*
X71513493Y-119825380D01*
X71480000Y-119906239D01*
X71020000Y-119906239D01*
X70986507Y-119825380D01*
X70924620Y-119763493D01*
X70843760Y-119730000D01*
X70610000Y-119730000D01*
X70555000Y-119785000D01*
X70545000Y-119785000D01*
X70490000Y-119730000D01*
X70256240Y-119730000D01*
X70175380Y-119763493D01*
X70113493Y-119825380D01*
X70080000Y-119906239D01*
X69620999Y-119906239D01*
X69620999Y-118400793D01*
X69753781Y-118268011D01*
X70134085Y-118268011D01*
X70256544Y-118243652D01*
X70360359Y-118174285D01*
X70824284Y-117710360D01*
X70851197Y-117670082D01*
X70893651Y-117606545D01*
X70918010Y-117484086D01*
X70918011Y-117033340D01*
X71006101Y-117069918D01*
X71193079Y-117070082D01*
X71279001Y-117034579D01*
X71279001Y-118527029D01*
X71104418Y-118701612D01*
X71035714Y-118730000D01*
X70984213Y-118730000D01*
X70960787Y-118693595D01*
X70887269Y-118643362D01*
X70800000Y-118625690D01*
X70300000Y-118625690D01*
X70218473Y-118641030D01*
X70143595Y-118689213D01*
X70093362Y-118762731D01*
X70075690Y-118850000D01*
X70075690Y-119450000D01*
X70091030Y-119531527D01*
X70139213Y-119606405D01*
X70212731Y-119656638D01*
X70300000Y-119674310D01*
X70800000Y-119674310D01*
X70881527Y-119658970D01*
X70956405Y-119610787D01*
X70984274Y-119570000D01*
X71035885Y-119570000D01*
X71156101Y-119619918D01*
X71343079Y-119620082D01*
X71464286Y-119570000D01*
X71515787Y-119570000D01*
X71539213Y-119606405D01*
X71612731Y-119656638D01*
X71700000Y-119674310D01*
X72129001Y-119674310D01*
X72129001Y-119730000D01*
X72010000Y-119730000D01*
X71955000Y-119785000D01*
X71955000Y-120245000D01*
X71975000Y-120245000D01*
X71975000Y-120255000D01*
X71955000Y-120255000D01*
X71955000Y-120715000D01*
X72010000Y-120770000D01*
X72129001Y-120770000D01*
X72129001Y-121627029D01*
X71854418Y-121901612D01*
X71734114Y-121951321D01*
X71601786Y-122083419D01*
X71530082Y-122256101D01*
X71529918Y-122443079D01*
X71601321Y-122615886D01*
X71733419Y-122748214D01*
X71854077Y-122798316D01*
X71830082Y-122856101D01*
X71829918Y-123043079D01*
X71845154Y-123079952D01*
X71806921Y-123079918D01*
X71634114Y-123151321D01*
X71501786Y-123283419D01*
X71430082Y-123456101D01*
X71429918Y-123643079D01*
X71501321Y-123815886D01*
X71633419Y-123948214D01*
X71806101Y-124019918D01*
X71993079Y-124020082D01*
X72165886Y-123948679D01*
X72244702Y-123870000D01*
X72438522Y-123870000D01*
X72560981Y-123845641D01*
X72664796Y-123776274D01*
X73576274Y-122864796D01*
X73645642Y-122760980D01*
X73670000Y-122638522D01*
X73670000Y-118350000D01*
X73645641Y-118227541D01*
X73576274Y-118123726D01*
X73370000Y-117917452D01*
X73370000Y-115758491D01*
X73345641Y-115636032D01*
X73276274Y-115532217D01*
X72920000Y-115175943D01*
X72920000Y-114800000D01*
X72919009Y-114795018D01*
X72919009Y-113966913D01*
X72894650Y-113844454D01*
X72825283Y-113740639D01*
X72370000Y-113285356D01*
X72370000Y-112394659D01*
X72448214Y-112316581D01*
X72519918Y-112143899D01*
X72520082Y-111956921D01*
X72448679Y-111784114D01*
X72316581Y-111651786D01*
X72143899Y-111580082D01*
X71956921Y-111579918D01*
X71784114Y-111651321D01*
X71651786Y-111783419D01*
X71580082Y-111956101D01*
X71579918Y-112143079D01*
X71651321Y-112315886D01*
X71730000Y-112394702D01*
X71730000Y-113417904D01*
X71752496Y-113530999D01*
X70912051Y-113530999D01*
X70147923Y-112766871D01*
X70148214Y-112766581D01*
X70219918Y-112593899D01*
X70220082Y-112406921D01*
X70148679Y-112234114D01*
X70016581Y-112101786D01*
X69843899Y-112030082D01*
X69656921Y-112029918D01*
X69484114Y-112101321D01*
X69351786Y-112233419D01*
X69280082Y-112406101D01*
X69279918Y-112593079D01*
X69315825Y-112679979D01*
X69082527Y-112679979D01*
X68919985Y-112517437D01*
X68920082Y-112406921D01*
X68848679Y-112234114D01*
X68789680Y-112175013D01*
X68848214Y-112116581D01*
X68901541Y-111988155D01*
X69671676Y-111218020D01*
X72805472Y-111218020D01*
X73859690Y-112272238D01*
X73859690Y-114076000D01*
X73875030Y-114157527D01*
X73923213Y-114232405D01*
X73996731Y-114282638D01*
X74084000Y-114300310D01*
X75887762Y-114300310D01*
X76080000Y-114492548D01*
X76080000Y-114848440D01*
X75998199Y-114726016D01*
X75597212Y-114458085D01*
X75124215Y-114364000D01*
X75075785Y-114364000D01*
X74602788Y-114458085D01*
X74201801Y-114726016D01*
X73933870Y-115127003D01*
X73839785Y-115600000D01*
X73933870Y-116072997D01*
X74201801Y-116473984D01*
X74602788Y-116741915D01*
X74780000Y-116777165D01*
X74780000Y-116805341D01*
X74701786Y-116883419D01*
X74630082Y-117056101D01*
X74629918Y-117243079D01*
X74701321Y-117415886D01*
X74833419Y-117548214D01*
X75006101Y-117619918D01*
X75193079Y-117620082D01*
X75365886Y-117548679D01*
X75498214Y-117416581D01*
X75569918Y-117243899D01*
X75570082Y-117056921D01*
X75498679Y-116884114D01*
X75420000Y-116805298D01*
X75420000Y-116777165D01*
X75597212Y-116741915D01*
X75998199Y-116473984D01*
X76080000Y-116351560D01*
X76080000Y-120529982D01*
X76006921Y-120529918D01*
X75834114Y-120601321D01*
X75701786Y-120733419D01*
X75630082Y-120906101D01*
X75629918Y-121093079D01*
X75665833Y-121180000D01*
X75156240Y-121180000D01*
X75075380Y-121213493D01*
X75013493Y-121275380D01*
X74980000Y-121356239D01*
X74980000Y-122840000D01*
X75035000Y-122895000D01*
X75945000Y-122895000D01*
X75945000Y-122875000D01*
X75955000Y-122875000D01*
X75955000Y-122895000D01*
X75975000Y-122895000D01*
X75975000Y-122905000D01*
X75955000Y-122905000D01*
X75955000Y-122925000D01*
X75945000Y-122925000D01*
X75945000Y-122905000D01*
X75035000Y-122905000D01*
X74980000Y-122960000D01*
X74980000Y-124330000D01*
X55520000Y-124330000D01*
X55520000Y-123710000D01*
X55465000Y-123655000D01*
X53805000Y-123655000D01*
X53805000Y-123675000D01*
X53795000Y-123675000D01*
X53795000Y-123655000D01*
X52135000Y-123655000D01*
X52080000Y-123710000D01*
X52080000Y-124330000D01*
X50187697Y-124330000D01*
X50256405Y-124285787D01*
X50306638Y-124212269D01*
X50324310Y-124125000D01*
X50324310Y-123075000D01*
X50308970Y-122993473D01*
X50260787Y-122918595D01*
X50187269Y-122868362D01*
X50127408Y-122856240D01*
X52080000Y-122856240D01*
X52080000Y-123590000D01*
X52135000Y-123645000D01*
X53795000Y-123645000D01*
X53795000Y-122735000D01*
X53805000Y-122735000D01*
X53805000Y-123645000D01*
X55465000Y-123645000D01*
X55500000Y-123610000D01*
X66780000Y-123610000D01*
X66780000Y-123893761D01*
X66813493Y-123974620D01*
X66875380Y-124036507D01*
X66956240Y-124070000D01*
X67190000Y-124070000D01*
X67245000Y-124015000D01*
X67245000Y-123555000D01*
X67255000Y-123555000D01*
X67255000Y-124015000D01*
X67310000Y-124070000D01*
X67543760Y-124070000D01*
X67624620Y-124036507D01*
X67686507Y-123974620D01*
X67720000Y-123893761D01*
X67720000Y-123610000D01*
X67665000Y-123555000D01*
X67255000Y-123555000D01*
X67245000Y-123555000D01*
X66835000Y-123555000D01*
X66780000Y-123610000D01*
X55500000Y-123610000D01*
X55520000Y-123590000D01*
X55520000Y-123206239D01*
X66780000Y-123206239D01*
X66780000Y-123490000D01*
X66835000Y-123545000D01*
X67245000Y-123545000D01*
X67245000Y-123085000D01*
X67255000Y-123085000D01*
X67255000Y-123545000D01*
X67665000Y-123545000D01*
X67720000Y-123490000D01*
X67720000Y-123206239D01*
X67686507Y-123125380D01*
X67624620Y-123063493D01*
X67543760Y-123030000D01*
X67310000Y-123030000D01*
X67255000Y-123085000D01*
X67245000Y-123085000D01*
X67190000Y-123030000D01*
X66956240Y-123030000D01*
X66875380Y-123063493D01*
X66813493Y-123125380D01*
X66780000Y-123206239D01*
X55520000Y-123206239D01*
X55520000Y-122856240D01*
X55486507Y-122775380D01*
X55424620Y-122713493D01*
X55343761Y-122680000D01*
X53860000Y-122680000D01*
X53805000Y-122735000D01*
X53795000Y-122735000D01*
X53740000Y-122680000D01*
X52256239Y-122680000D01*
X52175380Y-122713493D01*
X52113493Y-122775380D01*
X52080000Y-122856240D01*
X50127408Y-122856240D01*
X50100000Y-122850690D01*
X49100000Y-122850690D01*
X49018473Y-122866030D01*
X48943595Y-122914213D01*
X48893362Y-122987731D01*
X48875690Y-123075000D01*
X48875690Y-124125000D01*
X48891030Y-124206527D01*
X48939213Y-124281405D01*
X49010334Y-124330000D01*
X47370000Y-124330000D01*
X47370000Y-119343079D01*
X47429918Y-119343079D01*
X47501321Y-119515886D01*
X47633419Y-119648214D01*
X47806101Y-119719918D01*
X47993079Y-119720082D01*
X48165886Y-119648679D01*
X48298214Y-119516581D01*
X48369918Y-119343899D01*
X48370016Y-119232532D01*
X50526274Y-117076274D01*
X50595642Y-116972458D01*
X50620000Y-116850000D01*
X50620000Y-116344659D01*
X50698214Y-116266581D01*
X50769918Y-116093899D01*
X50770082Y-115906921D01*
X50698679Y-115734114D01*
X50566581Y-115601786D01*
X50393899Y-115530082D01*
X50206921Y-115529918D01*
X50034114Y-115601321D01*
X49901786Y-115733419D01*
X49830082Y-115906101D01*
X49829918Y-116093079D01*
X49901321Y-116265886D01*
X49980000Y-116344702D01*
X49980000Y-116717452D01*
X47917437Y-118780015D01*
X47806921Y-118779918D01*
X47634114Y-118851321D01*
X47501786Y-118983419D01*
X47430082Y-119156101D01*
X47429918Y-119343079D01*
X47370000Y-119343079D01*
X47370000Y-113893079D01*
X48029918Y-113893079D01*
X48101321Y-114065886D01*
X48233419Y-114198214D01*
X48406101Y-114269918D01*
X48478912Y-114269982D01*
X49485215Y-115276285D01*
X49589030Y-115345652D01*
X49711489Y-115370011D01*
X53811439Y-115370011D01*
X53501450Y-115680000D01*
X53444659Y-115680000D01*
X53366581Y-115601786D01*
X53193899Y-115530082D01*
X53006921Y-115529918D01*
X52834114Y-115601321D01*
X52701786Y-115733419D01*
X52630082Y-115906101D01*
X52629932Y-116077384D01*
X52569985Y-116017437D01*
X52570082Y-115906921D01*
X52498679Y-115734114D01*
X52366581Y-115601786D01*
X52193899Y-115530082D01*
X52006921Y-115529918D01*
X51834114Y-115601321D01*
X51701786Y-115733419D01*
X51630082Y-115906101D01*
X51629918Y-116093079D01*
X51701321Y-116265886D01*
X51833419Y-116398214D01*
X52006101Y-116469918D01*
X52117468Y-116470016D01*
X52373727Y-116726275D01*
X52477542Y-116795642D01*
X52600001Y-116820001D01*
X53899999Y-116820001D01*
X54022458Y-116795642D01*
X54126273Y-116726275D01*
X54382563Y-116469985D01*
X54493079Y-116470082D01*
X54665886Y-116398679D01*
X54798214Y-116266581D01*
X54869918Y-116093899D01*
X54870082Y-115906921D01*
X54798679Y-115734114D01*
X54784610Y-115720021D01*
X56249979Y-115720021D01*
X56250085Y-115720000D01*
X58115402Y-115720000D01*
X58001786Y-115833419D01*
X57930082Y-116006101D01*
X57929918Y-116193079D01*
X58001321Y-116365886D01*
X58133419Y-116498214D01*
X58306101Y-116569918D01*
X58493079Y-116570082D01*
X58665886Y-116498679D01*
X58798214Y-116366581D01*
X58848506Y-116245464D01*
X59195986Y-115897984D01*
X59287030Y-115761726D01*
X59319001Y-115600999D01*
X59319001Y-113655023D01*
X59320000Y-113650001D01*
X59320000Y-113300387D01*
X60046996Y-112573391D01*
X60134067Y-112443079D01*
X60929918Y-112443079D01*
X61001321Y-112615886D01*
X61080000Y-112694702D01*
X61080000Y-114055341D01*
X61001786Y-114133419D01*
X60930082Y-114306101D01*
X60929918Y-114493079D01*
X61001321Y-114665886D01*
X61133419Y-114798214D01*
X61306101Y-114869918D01*
X61493079Y-114870082D01*
X61665886Y-114798679D01*
X61798214Y-114666581D01*
X61869918Y-114493899D01*
X61870082Y-114306921D01*
X61798679Y-114134114D01*
X61720000Y-114055298D01*
X61720000Y-112694659D01*
X61798214Y-112616581D01*
X61869918Y-112443899D01*
X61870082Y-112256921D01*
X61802384Y-112093079D01*
X62779918Y-112093079D01*
X62851321Y-112265886D01*
X62930000Y-112344702D01*
X62930000Y-113705341D01*
X62851786Y-113783419D01*
X62780082Y-113956101D01*
X62779918Y-114143079D01*
X62851321Y-114315886D01*
X62983419Y-114448214D01*
X63156101Y-114519918D01*
X63343079Y-114520082D01*
X63515886Y-114448679D01*
X63648214Y-114316581D01*
X63719918Y-114143899D01*
X63720082Y-113956921D01*
X63648679Y-113784114D01*
X63570000Y-113705298D01*
X63570000Y-112344659D01*
X63648214Y-112266581D01*
X63719918Y-112093899D01*
X63720082Y-111906921D01*
X63648679Y-111734114D01*
X63516581Y-111601786D01*
X63343899Y-111530082D01*
X63156921Y-111529918D01*
X62984114Y-111601321D01*
X62851786Y-111733419D01*
X62780082Y-111906101D01*
X62779918Y-112093079D01*
X61802384Y-112093079D01*
X61798679Y-112084114D01*
X61666581Y-111951786D01*
X61493899Y-111880082D01*
X61306921Y-111879918D01*
X61134114Y-111951321D01*
X61001786Y-112083419D01*
X60930082Y-112256101D01*
X60929918Y-112443079D01*
X60134067Y-112443079D01*
X60138040Y-112437133D01*
X60170011Y-112276406D01*
X60170011Y-107214088D01*
X60219918Y-107093899D01*
X60220082Y-106906921D01*
X60148679Y-106734114D01*
X60016581Y-106601786D01*
X59895479Y-106551500D01*
X59320009Y-105976030D01*
X59320009Y-104614115D01*
X59369927Y-104493899D01*
X59370091Y-104306921D01*
X59320009Y-104185714D01*
X59320009Y-103688011D01*
X59288038Y-103527284D01*
X59196994Y-103391026D01*
X59019999Y-103214031D01*
X59019999Y-102673971D01*
X59196985Y-102496985D01*
X59288029Y-102360727D01*
X59320000Y-102200000D01*
X59320000Y-97614115D01*
X59369918Y-97493899D01*
X59370082Y-97306921D01*
X59298679Y-97134114D01*
X59166581Y-97001786D01*
X58993899Y-96930082D01*
X58806921Y-96929918D01*
X58634114Y-97001321D01*
X58501786Y-97133419D01*
X58430082Y-97306101D01*
X58429918Y-97493079D01*
X58480000Y-97614286D01*
X58480000Y-102026030D01*
X58470057Y-102035973D01*
X58470082Y-102006921D01*
X58398679Y-101834114D01*
X58266581Y-101701786D01*
X58093899Y-101630082D01*
X57906921Y-101629918D01*
X57734114Y-101701321D01*
X57601786Y-101833419D01*
X57530082Y-102006101D01*
X57529918Y-102193079D01*
X57580000Y-102314286D01*
X57580000Y-103700000D01*
X57611971Y-103860727D01*
X57703015Y-103996985D01*
X57880000Y-104173970D01*
X57880000Y-106437993D01*
X57911971Y-106598720D01*
X58003015Y-106734978D01*
X58648079Y-107380042D01*
X58506921Y-107379918D01*
X58334114Y-107451321D01*
X58201786Y-107583419D01*
X58130082Y-107756101D01*
X58129984Y-107867468D01*
X57867437Y-108130015D01*
X57756921Y-108129918D01*
X57584114Y-108201321D01*
X57451786Y-108333419D01*
X57406502Y-108442476D01*
X57120000Y-108155974D01*
X57120000Y-107444659D01*
X57198214Y-107366581D01*
X57269918Y-107193899D01*
X57270082Y-107006921D01*
X57198679Y-106834114D01*
X57066581Y-106701786D01*
X56893899Y-106630082D01*
X56706921Y-106629918D01*
X56534114Y-106701321D01*
X56401786Y-106833419D01*
X56330082Y-107006101D01*
X56329918Y-107193079D01*
X56401321Y-107365886D01*
X56480000Y-107444702D01*
X56480000Y-108288522D01*
X56504359Y-108410981D01*
X56560260Y-108494642D01*
X56573726Y-108514796D01*
X57685204Y-109626274D01*
X57789019Y-109695641D01*
X57903820Y-109718477D01*
X57983419Y-109798214D01*
X58156101Y-109869918D01*
X58343079Y-109870082D01*
X58515886Y-109798679D01*
X58648214Y-109666581D01*
X58719918Y-109493899D01*
X58720082Y-109306921D01*
X58648679Y-109134114D01*
X58516581Y-109001786D01*
X58343899Y-108930082D01*
X58184742Y-108929942D01*
X58248214Y-108866581D01*
X58319918Y-108693899D01*
X58320016Y-108582532D01*
X58582563Y-108319985D01*
X58693079Y-108320082D01*
X58780001Y-108284166D01*
X58780001Y-110709918D01*
X58748679Y-110634114D01*
X58616581Y-110501786D01*
X58443899Y-110430082D01*
X58369974Y-110430017D01*
X58370082Y-110306921D01*
X58298679Y-110134114D01*
X58166581Y-110001786D01*
X57993899Y-109930082D01*
X57806921Y-109929918D01*
X57634114Y-110001321D01*
X57501786Y-110133419D01*
X57482444Y-110180000D01*
X53661478Y-110180000D01*
X53539019Y-110204359D01*
X53465136Y-110253726D01*
X53435204Y-110273726D01*
X53128930Y-110580000D01*
X50644659Y-110580000D01*
X50566581Y-110501786D01*
X50393899Y-110430082D01*
X50206921Y-110429918D01*
X50034114Y-110501321D01*
X49901786Y-110633419D01*
X49830082Y-110806101D01*
X49829918Y-110993079D01*
X49901321Y-111165886D01*
X50033419Y-111298214D01*
X50206101Y-111369918D01*
X50393079Y-111370082D01*
X50565886Y-111298679D01*
X50644702Y-111220000D01*
X51937450Y-111220000D01*
X51527514Y-111629936D01*
X51506918Y-111629918D01*
X51334111Y-111701321D01*
X51201783Y-111833419D01*
X51130079Y-112006101D01*
X51129915Y-112193079D01*
X51201318Y-112365886D01*
X51333416Y-112498214D01*
X51506098Y-112569918D01*
X51693076Y-112570082D01*
X51865883Y-112498679D01*
X51924986Y-112439679D01*
X51983419Y-112498214D01*
X52146723Y-112566024D01*
X52130082Y-112606101D01*
X52129918Y-112793079D01*
X52201321Y-112965886D01*
X52333419Y-113098214D01*
X52506101Y-113169918D01*
X52693079Y-113170082D01*
X52814286Y-113120000D01*
X54636268Y-113120000D01*
X54796995Y-113088029D01*
X54933253Y-112996985D01*
X55010197Y-112920041D01*
X56288069Y-112920041D01*
X57315012Y-113946984D01*
X57360225Y-113977194D01*
X57451269Y-114038028D01*
X57611996Y-114069999D01*
X58479001Y-114070001D01*
X58479001Y-114115420D01*
X58393899Y-114080082D01*
X58206921Y-114079918D01*
X58034114Y-114151321D01*
X57975013Y-114210320D01*
X57916581Y-114151786D01*
X57743899Y-114080082D01*
X57556921Y-114079918D01*
X57384114Y-114151321D01*
X57251786Y-114283419D01*
X57211682Y-114380001D01*
X50232549Y-114380001D01*
X49669985Y-113817437D01*
X49670082Y-113706921D01*
X49598679Y-113534114D01*
X49466581Y-113401786D01*
X49293899Y-113330082D01*
X49106921Y-113329918D01*
X48934114Y-113401321D01*
X48849969Y-113485319D01*
X48766581Y-113401786D01*
X48593899Y-113330082D01*
X48406921Y-113329918D01*
X48234114Y-113401321D01*
X48101786Y-113533419D01*
X48030082Y-113706101D01*
X48029918Y-113893079D01*
X47370000Y-113893079D01*
X47370000Y-97793079D01*
X55979918Y-97793079D01*
X56030000Y-97914286D01*
X56030000Y-100785885D01*
X55980082Y-100906101D01*
X55979918Y-101093079D01*
X56030000Y-101214286D01*
X56030000Y-103560885D01*
X55980082Y-103681101D01*
X55979918Y-103868079D01*
X56051321Y-104040886D01*
X56183419Y-104173214D01*
X56356101Y-104244918D01*
X56543079Y-104245082D01*
X56715886Y-104173679D01*
X56848214Y-104041581D01*
X56919918Y-103868899D01*
X56920082Y-103681921D01*
X56870000Y-103560714D01*
X56870000Y-101214115D01*
X56919918Y-101093899D01*
X56920082Y-100906921D01*
X56870000Y-100785714D01*
X56870000Y-97914115D01*
X56919918Y-97793899D01*
X56920082Y-97606921D01*
X56848679Y-97434114D01*
X56716581Y-97301786D01*
X56543899Y-97230082D01*
X56356921Y-97229918D01*
X56184114Y-97301321D01*
X56051786Y-97433419D01*
X55980082Y-97606101D01*
X55979918Y-97793079D01*
X47370000Y-97793079D01*
X47370000Y-94418235D01*
X47400000Y-94424310D01*
X53400000Y-94424310D01*
X53481527Y-94408970D01*
X53556405Y-94360787D01*
X53606638Y-94287269D01*
X53624310Y-94200000D01*
X53624310Y-91794999D01*
X70265673Y-91794999D01*
X70375690Y-91905016D01*
X70375690Y-91905016D01*
G37*
X70375690Y-91905016D02*
X70375690Y-92881720D01*
X69948388Y-92454418D01*
X69898679Y-92334114D01*
X69766581Y-92201786D01*
X69593899Y-92130082D01*
X69406921Y-92129918D01*
X69234114Y-92201321D01*
X69101786Y-92333419D01*
X69030082Y-92506101D01*
X69029918Y-92693079D01*
X69101321Y-92865886D01*
X69233419Y-92998214D01*
X69354536Y-93048506D01*
X69680001Y-93373971D01*
X69680001Y-94330003D01*
X69687770Y-94369061D01*
X69593899Y-94330082D01*
X69482533Y-94329984D01*
X69026274Y-93873726D01*
X68922459Y-93804359D01*
X68800000Y-93780000D01*
X63100000Y-93780000D01*
X62977541Y-93804359D01*
X62873726Y-93873726D01*
X62423726Y-94323726D01*
X62354359Y-94427541D01*
X62343507Y-94482095D01*
X62324896Y-94494071D01*
X62287269Y-94468362D01*
X62200000Y-94450690D01*
X61800000Y-94450690D01*
X61718473Y-94466030D01*
X61674896Y-94494071D01*
X61637269Y-94468362D01*
X61550000Y-94450690D01*
X61150000Y-94450690D01*
X61068473Y-94466030D01*
X61024896Y-94494071D01*
X60987269Y-94468362D01*
X60900000Y-94450690D01*
X60500000Y-94450690D01*
X60418473Y-94466030D01*
X60343595Y-94514213D01*
X60293362Y-94587731D01*
X60275690Y-94675000D01*
X60275690Y-96025000D01*
X60291030Y-96106527D01*
X60305773Y-96129439D01*
X60301786Y-96133419D01*
X60230082Y-96306101D01*
X60229918Y-96493079D01*
X60301321Y-96665886D01*
X60433419Y-96798214D01*
X60606101Y-96869918D01*
X60793079Y-96870082D01*
X60965886Y-96798679D01*
X60976018Y-96788564D01*
X61780001Y-97592547D01*
X61780001Y-104059999D01*
X61804360Y-104182458D01*
X61846204Y-104245082D01*
X61873727Y-104286273D01*
X61980000Y-104392546D01*
X61980000Y-106478930D01*
X61223722Y-107235208D01*
X61154355Y-107339023D01*
X61129996Y-107461482D01*
X61129996Y-108259994D01*
X61154355Y-108382453D01*
X61223722Y-108486268D01*
X61534035Y-108796581D01*
X61530082Y-108806101D01*
X61529918Y-108993079D01*
X61601321Y-109165886D01*
X61733419Y-109298214D01*
X61831999Y-109339148D01*
X61831999Y-109489951D01*
X61830000Y-109500000D01*
X61830000Y-110705341D01*
X61751786Y-110783419D01*
X61680082Y-110956101D01*
X61679918Y-111143079D01*
X61751321Y-111315886D01*
X61883419Y-111448214D01*
X62056101Y-111519918D01*
X62243079Y-111520082D01*
X62415886Y-111448679D01*
X62548214Y-111316581D01*
X62619918Y-111143899D01*
X62619983Y-111069974D01*
X62743079Y-111070082D01*
X62915886Y-110998679D01*
X63048214Y-110866581D01*
X63119918Y-110693899D01*
X63120082Y-110506921D01*
X63048679Y-110334114D01*
X62916581Y-110201786D01*
X62821009Y-110162101D01*
X62821009Y-109334577D01*
X62906120Y-109369918D01*
X63093098Y-109370082D01*
X63265905Y-109298679D01*
X63360305Y-109204443D01*
X63404555Y-109195641D01*
X63508370Y-109126274D01*
X64324284Y-108310360D01*
X64374530Y-108235162D01*
X64393651Y-108206546D01*
X64393651Y-108206545D01*
X64393652Y-108206544D01*
X64411962Y-108114493D01*
X64418010Y-108084087D01*
X64418010Y-107939121D01*
X64515886Y-107898679D01*
X64648214Y-107766581D01*
X64719918Y-107593899D01*
X64720082Y-107406921D01*
X64648679Y-107234114D01*
X64516581Y-107101786D01*
X64343899Y-107030082D01*
X64156921Y-107029918D01*
X63984114Y-107101321D01*
X63934997Y-107150353D01*
X63320020Y-106535376D01*
X63320020Y-103970042D01*
X63295661Y-103847583D01*
X63226294Y-103743768D01*
X63120021Y-103637495D01*
X63120021Y-98922569D01*
X63679001Y-99481549D01*
X63679001Y-103981097D01*
X63703360Y-104103556D01*
X63741969Y-104161338D01*
X63772727Y-104207371D01*
X65280000Y-105714645D01*
X65280000Y-107155341D01*
X65201786Y-107233419D01*
X65130082Y-107406101D01*
X65129918Y-107593079D01*
X65179088Y-107712078D01*
X65084114Y-107751321D01*
X64951786Y-107883419D01*
X64880082Y-108056101D01*
X64879918Y-108243079D01*
X64951321Y-108415886D01*
X65030990Y-108495694D01*
X65030990Y-110866245D01*
X64943899Y-110830082D01*
X64756921Y-110829918D01*
X64584114Y-110901321D01*
X64451786Y-111033419D01*
X64380082Y-111206101D01*
X64379918Y-111393079D01*
X64451321Y-111565886D01*
X64530000Y-111644702D01*
X64530000Y-112885356D01*
X64223726Y-113191630D01*
X64154359Y-113295445D01*
X64130000Y-113417904D01*
X64130000Y-114102240D01*
X64154359Y-114224699D01*
X64203480Y-114298214D01*
X64223726Y-114328514D01*
X64676211Y-114780999D01*
X63060479Y-114780999D01*
X62938020Y-114805358D01*
X62849065Y-114864796D01*
X62834205Y-114874725D01*
X62574725Y-115134205D01*
X62505358Y-115238020D01*
X62480999Y-115360479D01*
X62480999Y-116266249D01*
X62393899Y-116230082D01*
X62206921Y-116229918D01*
X62034114Y-116301321D01*
X61901786Y-116433419D01*
X61830082Y-116606101D01*
X61829918Y-116793079D01*
X61901321Y-116965886D01*
X61980000Y-117044702D01*
X61980000Y-117198208D01*
X60948208Y-118230000D01*
X60211070Y-118230000D01*
X60771008Y-117670063D01*
X60793079Y-117670082D01*
X60965886Y-117598679D01*
X61098214Y-117466581D01*
X61169918Y-117293899D01*
X61170082Y-117106921D01*
X61098679Y-116934114D01*
X61039680Y-116875013D01*
X61098214Y-116816581D01*
X61169918Y-116643899D01*
X61170082Y-116456921D01*
X61098679Y-116284114D01*
X60966581Y-116151786D01*
X60793899Y-116080082D01*
X60606921Y-116079918D01*
X60434114Y-116151321D01*
X60355298Y-116230000D01*
X59972998Y-116230000D01*
X59850539Y-116254359D01*
X59779560Y-116301786D01*
X59746724Y-116323726D01*
X59040450Y-117030000D01*
X56885669Y-117030000D01*
X56763210Y-117054359D01*
X56675078Y-117113247D01*
X56659395Y-117123726D01*
X55653075Y-118130046D01*
X55506921Y-118129918D01*
X55448141Y-118154206D01*
X55360743Y-117942685D01*
X55158380Y-117739969D01*
X54893845Y-117630125D01*
X54607411Y-117629875D01*
X54342685Y-117739257D01*
X54139969Y-117941620D01*
X54030125Y-118206155D01*
X54029875Y-118492589D01*
X54139257Y-118757315D01*
X54306765Y-118925115D01*
X54139969Y-119091620D01*
X54030125Y-119356155D01*
X54029875Y-119642589D01*
X54139257Y-119907315D01*
X54341620Y-120110031D01*
X54606155Y-120219875D01*
X54892589Y-120220125D01*
X55157315Y-120110743D01*
X55172339Y-120095745D01*
X55201321Y-120165886D01*
X55333419Y-120298214D01*
X55506101Y-120369918D01*
X55693079Y-120370082D01*
X55865886Y-120298679D01*
X55998214Y-120166581D01*
X56069918Y-119993899D01*
X56069938Y-119971132D01*
X57671070Y-118370000D01*
X58515834Y-118370000D01*
X58480082Y-118456101D01*
X58479918Y-118643079D01*
X58551321Y-118815886D01*
X58683419Y-118948214D01*
X58856101Y-119019918D01*
X59043079Y-119020082D01*
X59215886Y-118948679D01*
X59294702Y-118870000D01*
X60801782Y-118870000D01*
X60523726Y-119148056D01*
X60454359Y-119251871D01*
X60430000Y-119374330D01*
X60430000Y-119405341D01*
X60351786Y-119483419D01*
X60280082Y-119656101D01*
X60279918Y-119843079D01*
X60351321Y-120015886D01*
X60483419Y-120148214D01*
X60656101Y-120219918D01*
X60843079Y-120220082D01*
X60938832Y-120180518D01*
X60953360Y-120253556D01*
X61022727Y-120357371D01*
X61838651Y-121173295D01*
X61942466Y-121242662D01*
X62064925Y-121267021D01*
X63841501Y-121267021D01*
X63963960Y-121242662D01*
X64067775Y-121173295D01*
X65040640Y-120200430D01*
X65080000Y-120184167D01*
X65080000Y-121127450D01*
X65023726Y-121183724D01*
X64954359Y-121287539D01*
X64930000Y-121409998D01*
X64930000Y-122305341D01*
X64851786Y-122383419D01*
X64780082Y-122556101D01*
X64779918Y-122743079D01*
X64851321Y-122915886D01*
X64983419Y-123048214D01*
X65156101Y-123119918D01*
X65343079Y-123120082D01*
X65515886Y-123048679D01*
X65648214Y-122916581D01*
X65719918Y-122743899D01*
X65720082Y-122556921D01*
X65648679Y-122384114D01*
X65570000Y-122305298D01*
X65570000Y-122084166D01*
X65656101Y-122119918D01*
X65730026Y-122119983D01*
X65729918Y-122243079D01*
X65801321Y-122415886D01*
X65933419Y-122548214D01*
X66106101Y-122619918D01*
X66293079Y-122620082D01*
X66465886Y-122548679D01*
X66598214Y-122416581D01*
X66669918Y-122243899D01*
X66670000Y-122150000D01*
X66775690Y-122150000D01*
X66775690Y-122750000D01*
X66791030Y-122831527D01*
X66839213Y-122906405D01*
X66912731Y-122956638D01*
X67000000Y-122974310D01*
X67500000Y-122974310D01*
X67581527Y-122958970D01*
X67656405Y-122910787D01*
X67706638Y-122837269D01*
X67724310Y-122750000D01*
X67724310Y-122150000D01*
X67708970Y-122068473D01*
X67670000Y-122007912D01*
X67670000Y-121864115D01*
X67719918Y-121743899D01*
X67720082Y-121556921D01*
X67648679Y-121384114D01*
X67516581Y-121251786D01*
X67343899Y-121180082D01*
X67156921Y-121179918D01*
X66984114Y-121251321D01*
X66851786Y-121383419D01*
X66780082Y-121556101D01*
X66779918Y-121743079D01*
X66830000Y-121864286D01*
X66830000Y-122009110D01*
X66793362Y-122062731D01*
X66775690Y-122150000D01*
X66670000Y-122150000D01*
X66670082Y-122056921D01*
X66620000Y-121935714D01*
X66620000Y-119576122D01*
X67228102Y-118968020D01*
X67934077Y-118968019D01*
X68056536Y-118943660D01*
X68160351Y-118874293D01*
X68631990Y-118402654D01*
X68631990Y-120613468D01*
X68656349Y-120735927D01*
X68714167Y-120822458D01*
X68725716Y-120839742D01*
X69092507Y-121206533D01*
X68984114Y-121251321D01*
X68925013Y-121310320D01*
X68866581Y-121251786D01*
X68693899Y-121180082D01*
X68506921Y-121179918D01*
X68334114Y-121251321D01*
X68201786Y-121383419D01*
X68130082Y-121556101D01*
X68129918Y-121743079D01*
X68201321Y-121915886D01*
X68280000Y-121994702D01*
X68280000Y-122855341D01*
X68201786Y-122933419D01*
X68130082Y-123106101D01*
X68129918Y-123293079D01*
X68201321Y-123465886D01*
X68333419Y-123598214D01*
X68506101Y-123669918D01*
X68693079Y-123670082D01*
X68865886Y-123598679D01*
X68924987Y-123539680D01*
X68983419Y-123598214D01*
X69156101Y-123669918D01*
X69343079Y-123670082D01*
X69515886Y-123598679D01*
X69648214Y-123466581D01*
X69719918Y-123293899D01*
X69720082Y-123106921D01*
X69648679Y-122934114D01*
X69570000Y-122855298D01*
X69570000Y-122033893D01*
X69612824Y-122097984D01*
X69624725Y-122115795D01*
X69884205Y-122375275D01*
X69988020Y-122444642D01*
X70110479Y-122469001D01*
X70591001Y-122469001D01*
X70713460Y-122444642D01*
X70817275Y-122375275D01*
X71072530Y-122120020D01*
X71143079Y-122120082D01*
X71315886Y-122048679D01*
X71448214Y-121916581D01*
X71519918Y-121743899D01*
X71520082Y-121556921D01*
X71448679Y-121384114D01*
X71316581Y-121251786D01*
X71143899Y-121180082D01*
X70956921Y-121179918D01*
X70784114Y-121251321D01*
X70699969Y-121335319D01*
X70616581Y-121251786D01*
X70479515Y-121194871D01*
X69620999Y-120336355D01*
X69620999Y-120310000D01*
X70080000Y-120310000D01*
X70080000Y-120593761D01*
X70113493Y-120674620D01*
X70175380Y-120736507D01*
X70256240Y-120770000D01*
X70490000Y-120770000D01*
X70545000Y-120715000D01*
X70545000Y-120255000D01*
X70555000Y-120255000D01*
X70555000Y-120715000D01*
X70610000Y-120770000D01*
X70843760Y-120770000D01*
X70924620Y-120736507D01*
X70986507Y-120674620D01*
X71020000Y-120593761D01*
X71020000Y-120310000D01*
X71480000Y-120310000D01*
X71480000Y-120593761D01*
X71513493Y-120674620D01*
X71575380Y-120736507D01*
X71656240Y-120770000D01*
X71890000Y-120770000D01*
X71945000Y-120715000D01*
X71945000Y-120255000D01*
X71535000Y-120255000D01*
X71480000Y-120310000D01*
X71020000Y-120310000D01*
X70965000Y-120255000D01*
X70555000Y-120255000D01*
X70545000Y-120255000D01*
X70135000Y-120255000D01*
X70080000Y-120310000D01*
X69620999Y-120310000D01*
X69620999Y-119906239D01*
X70080000Y-119906239D01*
X70080000Y-120190000D01*
X70135000Y-120245000D01*
X70545000Y-120245000D01*
X70545000Y-119785000D01*
X70555000Y-119785000D01*
X70555000Y-120245000D01*
X70965000Y-120245000D01*
X71020000Y-120190000D01*
X71020000Y-119906239D01*
X71480000Y-119906239D01*
X71480000Y-120190000D01*
X71535000Y-120245000D01*
X71945000Y-120245000D01*
X71945000Y-119785000D01*
X71890000Y-119730000D01*
X71656240Y-119730000D01*
X71575380Y-119763493D01*
X71513493Y-119825380D01*
X71480000Y-119906239D01*
X71020000Y-119906239D01*
X70986507Y-119825380D01*
X70924620Y-119763493D01*
X70843760Y-119730000D01*
X70610000Y-119730000D01*
X70555000Y-119785000D01*
X70545000Y-119785000D01*
X70490000Y-119730000D01*
X70256240Y-119730000D01*
X70175380Y-119763493D01*
X70113493Y-119825380D01*
X70080000Y-119906239D01*
X69620999Y-119906239D01*
X69620999Y-118400793D01*
X69753781Y-118268011D01*
X70134085Y-118268011D01*
X70256544Y-118243652D01*
X70360359Y-118174285D01*
X70824284Y-117710360D01*
X70851197Y-117670082D01*
X70893651Y-117606545D01*
X70918010Y-117484086D01*
X70918011Y-117033340D01*
X71006101Y-117069918D01*
X71193079Y-117070082D01*
X71279001Y-117034579D01*
X71279001Y-118527029D01*
X71104418Y-118701612D01*
X71035714Y-118730000D01*
X70984213Y-118730000D01*
X70960787Y-118693595D01*
X70887269Y-118643362D01*
X70800000Y-118625690D01*
X70300000Y-118625690D01*
X70218473Y-118641030D01*
X70143595Y-118689213D01*
X70093362Y-118762731D01*
X70075690Y-118850000D01*
X70075690Y-119450000D01*
X70091030Y-119531527D01*
X70139213Y-119606405D01*
X70212731Y-119656638D01*
X70300000Y-119674310D01*
X70800000Y-119674310D01*
X70881527Y-119658970D01*
X70956405Y-119610787D01*
X70984274Y-119570000D01*
X71035885Y-119570000D01*
X71156101Y-119619918D01*
X71343079Y-119620082D01*
X71464286Y-119570000D01*
X71515787Y-119570000D01*
X71539213Y-119606405D01*
X71612731Y-119656638D01*
X71700000Y-119674310D01*
X72129001Y-119674310D01*
X72129001Y-119730000D01*
X72010000Y-119730000D01*
X71955000Y-119785000D01*
X71955000Y-120245000D01*
X71975000Y-120245000D01*
X71975000Y-120255000D01*
X71955000Y-120255000D01*
X71955000Y-120715000D01*
X72010000Y-120770000D01*
X72129001Y-120770000D01*
X72129001Y-121627029D01*
X71854418Y-121901612D01*
X71734114Y-121951321D01*
X71601786Y-122083419D01*
X71530082Y-122256101D01*
X71529918Y-122443079D01*
X71601321Y-122615886D01*
X71733419Y-122748214D01*
X71854077Y-122798316D01*
X71830082Y-122856101D01*
X71829918Y-123043079D01*
X71845154Y-123079952D01*
X71806921Y-123079918D01*
X71634114Y-123151321D01*
X71501786Y-123283419D01*
X71430082Y-123456101D01*
X71429918Y-123643079D01*
X71501321Y-123815886D01*
X71633419Y-123948214D01*
X71806101Y-124019918D01*
X71993079Y-124020082D01*
X72165886Y-123948679D01*
X72244702Y-123870000D01*
X72438522Y-123870000D01*
X72560981Y-123845641D01*
X72664796Y-123776274D01*
X73576274Y-122864796D01*
X73645642Y-122760980D01*
X73670000Y-122638522D01*
X73670000Y-118350000D01*
X73645641Y-118227541D01*
X73576274Y-118123726D01*
X73370000Y-117917452D01*
X73370000Y-115758491D01*
X73345641Y-115636032D01*
X73276274Y-115532217D01*
X72920000Y-115175943D01*
X72920000Y-114800000D01*
X72919009Y-114795018D01*
X72919009Y-113966913D01*
X72894650Y-113844454D01*
X72825283Y-113740639D01*
X72370000Y-113285356D01*
X72370000Y-112394659D01*
X72448214Y-112316581D01*
X72519918Y-112143899D01*
X72520082Y-111956921D01*
X72448679Y-111784114D01*
X72316581Y-111651786D01*
X72143899Y-111580082D01*
X71956921Y-111579918D01*
X71784114Y-111651321D01*
X71651786Y-111783419D01*
X71580082Y-111956101D01*
X71579918Y-112143079D01*
X71651321Y-112315886D01*
X71730000Y-112394702D01*
X71730000Y-113417904D01*
X71752496Y-113530999D01*
X70912051Y-113530999D01*
X70147923Y-112766871D01*
X70148214Y-112766581D01*
X70219918Y-112593899D01*
X70220082Y-112406921D01*
X70148679Y-112234114D01*
X70016581Y-112101786D01*
X69843899Y-112030082D01*
X69656921Y-112029918D01*
X69484114Y-112101321D01*
X69351786Y-112233419D01*
X69280082Y-112406101D01*
X69279918Y-112593079D01*
X69315825Y-112679979D01*
X69082527Y-112679979D01*
X68919985Y-112517437D01*
X68920082Y-112406921D01*
X68848679Y-112234114D01*
X68789680Y-112175013D01*
X68848214Y-112116581D01*
X68901541Y-111988155D01*
X69671676Y-111218020D01*
X72805472Y-111218020D01*
X73859690Y-112272238D01*
X73859690Y-114076000D01*
X73875030Y-114157527D01*
X73923213Y-114232405D01*
X73996731Y-114282638D01*
X74084000Y-114300310D01*
X75887762Y-114300310D01*
X76080000Y-114492548D01*
X76080000Y-114848440D01*
X75998199Y-114726016D01*
X75597212Y-114458085D01*
X75124215Y-114364000D01*
X75075785Y-114364000D01*
X74602788Y-114458085D01*
X74201801Y-114726016D01*
X73933870Y-115127003D01*
X73839785Y-115600000D01*
X73933870Y-116072997D01*
X74201801Y-116473984D01*
X74602788Y-116741915D01*
X74780000Y-116777165D01*
X74780000Y-116805341D01*
X74701786Y-116883419D01*
X74630082Y-117056101D01*
X74629918Y-117243079D01*
X74701321Y-117415886D01*
X74833419Y-117548214D01*
X75006101Y-117619918D01*
X75193079Y-117620082D01*
X75365886Y-117548679D01*
X75498214Y-117416581D01*
X75569918Y-117243899D01*
X75570082Y-117056921D01*
X75498679Y-116884114D01*
X75420000Y-116805298D01*
X75420000Y-116777165D01*
X75597212Y-116741915D01*
X75998199Y-116473984D01*
X76080000Y-116351560D01*
X76080000Y-120529982D01*
X76006921Y-120529918D01*
X75834114Y-120601321D01*
X75701786Y-120733419D01*
X75630082Y-120906101D01*
X75629918Y-121093079D01*
X75665833Y-121180000D01*
X75156240Y-121180000D01*
X75075380Y-121213493D01*
X75013493Y-121275380D01*
X74980000Y-121356239D01*
X74980000Y-122840000D01*
X75035000Y-122895000D01*
X75945000Y-122895000D01*
X75945000Y-122875000D01*
X75955000Y-122875000D01*
X75955000Y-122895000D01*
X75975000Y-122895000D01*
X75975000Y-122905000D01*
X75955000Y-122905000D01*
X75955000Y-122925000D01*
X75945000Y-122925000D01*
X75945000Y-122905000D01*
X75035000Y-122905000D01*
X74980000Y-122960000D01*
X74980000Y-124330000D01*
X55520000Y-124330000D01*
X55520000Y-123710000D01*
X55465000Y-123655000D01*
X53805000Y-123655000D01*
X53805000Y-123675000D01*
X53795000Y-123675000D01*
X53795000Y-123655000D01*
X52135000Y-123655000D01*
X52080000Y-123710000D01*
X52080000Y-124330000D01*
X50187697Y-124330000D01*
X50256405Y-124285787D01*
X50306638Y-124212269D01*
X50324310Y-124125000D01*
X50324310Y-123075000D01*
X50308970Y-122993473D01*
X50260787Y-122918595D01*
X50187269Y-122868362D01*
X50127408Y-122856240D01*
X52080000Y-122856240D01*
X52080000Y-123590000D01*
X52135000Y-123645000D01*
X53795000Y-123645000D01*
X53795000Y-122735000D01*
X53805000Y-122735000D01*
X53805000Y-123645000D01*
X55465000Y-123645000D01*
X55500000Y-123610000D01*
X66780000Y-123610000D01*
X66780000Y-123893761D01*
X66813493Y-123974620D01*
X66875380Y-124036507D01*
X66956240Y-124070000D01*
X67190000Y-124070000D01*
X67245000Y-124015000D01*
X67245000Y-123555000D01*
X67255000Y-123555000D01*
X67255000Y-124015000D01*
X67310000Y-124070000D01*
X67543760Y-124070000D01*
X67624620Y-124036507D01*
X67686507Y-123974620D01*
X67720000Y-123893761D01*
X67720000Y-123610000D01*
X67665000Y-123555000D01*
X67255000Y-123555000D01*
X67245000Y-123555000D01*
X66835000Y-123555000D01*
X66780000Y-123610000D01*
X55500000Y-123610000D01*
X55520000Y-123590000D01*
X55520000Y-123206239D01*
X66780000Y-123206239D01*
X66780000Y-123490000D01*
X66835000Y-123545000D01*
X67245000Y-123545000D01*
X67245000Y-123085000D01*
X67255000Y-123085000D01*
X67255000Y-123545000D01*
X67665000Y-123545000D01*
X67720000Y-123490000D01*
X67720000Y-123206239D01*
X67686507Y-123125380D01*
X67624620Y-123063493D01*
X67543760Y-123030000D01*
X67310000Y-123030000D01*
X67255000Y-123085000D01*
X67245000Y-123085000D01*
X67190000Y-123030000D01*
X66956240Y-123030000D01*
X66875380Y-123063493D01*
X66813493Y-123125380D01*
X66780000Y-123206239D01*
X55520000Y-123206239D01*
X55520000Y-122856240D01*
X55486507Y-122775380D01*
X55424620Y-122713493D01*
X55343761Y-122680000D01*
X53860000Y-122680000D01*
X53805000Y-122735000D01*
X53795000Y-122735000D01*
X53740000Y-122680000D01*
X52256239Y-122680000D01*
X52175380Y-122713493D01*
X52113493Y-122775380D01*
X52080000Y-122856240D01*
X50127408Y-122856240D01*
X50100000Y-122850690D01*
X49100000Y-122850690D01*
X49018473Y-122866030D01*
X48943595Y-122914213D01*
X48893362Y-122987731D01*
X48875690Y-123075000D01*
X48875690Y-124125000D01*
X48891030Y-124206527D01*
X48939213Y-124281405D01*
X49010334Y-124330000D01*
X47370000Y-124330000D01*
X47370000Y-119343079D01*
X47429918Y-119343079D01*
X47501321Y-119515886D01*
X47633419Y-119648214D01*
X47806101Y-119719918D01*
X47993079Y-119720082D01*
X48165886Y-119648679D01*
X48298214Y-119516581D01*
X48369918Y-119343899D01*
X48370016Y-119232532D01*
X50526274Y-117076274D01*
X50595642Y-116972458D01*
X50620000Y-116850000D01*
X50620000Y-116344659D01*
X50698214Y-116266581D01*
X50769918Y-116093899D01*
X50770082Y-115906921D01*
X50698679Y-115734114D01*
X50566581Y-115601786D01*
X50393899Y-115530082D01*
X50206921Y-115529918D01*
X50034114Y-115601321D01*
X49901786Y-115733419D01*
X49830082Y-115906101D01*
X49829918Y-116093079D01*
X49901321Y-116265886D01*
X49980000Y-116344702D01*
X49980000Y-116717452D01*
X47917437Y-118780015D01*
X47806921Y-118779918D01*
X47634114Y-118851321D01*
X47501786Y-118983419D01*
X47430082Y-119156101D01*
X47429918Y-119343079D01*
X47370000Y-119343079D01*
X47370000Y-113893079D01*
X48029918Y-113893079D01*
X48101321Y-114065886D01*
X48233419Y-114198214D01*
X48406101Y-114269918D01*
X48478912Y-114269982D01*
X49485215Y-115276285D01*
X49589030Y-115345652D01*
X49711489Y-115370011D01*
X53811439Y-115370011D01*
X53501450Y-115680000D01*
X53444659Y-115680000D01*
X53366581Y-115601786D01*
X53193899Y-115530082D01*
X53006921Y-115529918D01*
X52834114Y-115601321D01*
X52701786Y-115733419D01*
X52630082Y-115906101D01*
X52629932Y-116077384D01*
X52569985Y-116017437D01*
X52570082Y-115906921D01*
X52498679Y-115734114D01*
X52366581Y-115601786D01*
X52193899Y-115530082D01*
X52006921Y-115529918D01*
X51834114Y-115601321D01*
X51701786Y-115733419D01*
X51630082Y-115906101D01*
X51629918Y-116093079D01*
X51701321Y-116265886D01*
X51833419Y-116398214D01*
X52006101Y-116469918D01*
X52117468Y-116470016D01*
X52373727Y-116726275D01*
X52477542Y-116795642D01*
X52600001Y-116820001D01*
X53899999Y-116820001D01*
X54022458Y-116795642D01*
X54126273Y-116726275D01*
X54382563Y-116469985D01*
X54493079Y-116470082D01*
X54665886Y-116398679D01*
X54798214Y-116266581D01*
X54869918Y-116093899D01*
X54870082Y-115906921D01*
X54798679Y-115734114D01*
X54784610Y-115720021D01*
X56249979Y-115720021D01*
X56250085Y-115720000D01*
X58115402Y-115720000D01*
X58001786Y-115833419D01*
X57930082Y-116006101D01*
X57929918Y-116193079D01*
X58001321Y-116365886D01*
X58133419Y-116498214D01*
X58306101Y-116569918D01*
X58493079Y-116570082D01*
X58665886Y-116498679D01*
X58798214Y-116366581D01*
X58848506Y-116245464D01*
X59195986Y-115897984D01*
X59287030Y-115761726D01*
X59319001Y-115600999D01*
X59319001Y-113655023D01*
X59320000Y-113650001D01*
X59320000Y-113300387D01*
X60046996Y-112573391D01*
X60134067Y-112443079D01*
X60929918Y-112443079D01*
X61001321Y-112615886D01*
X61080000Y-112694702D01*
X61080000Y-114055341D01*
X61001786Y-114133419D01*
X60930082Y-114306101D01*
X60929918Y-114493079D01*
X61001321Y-114665886D01*
X61133419Y-114798214D01*
X61306101Y-114869918D01*
X61493079Y-114870082D01*
X61665886Y-114798679D01*
X61798214Y-114666581D01*
X61869918Y-114493899D01*
X61870082Y-114306921D01*
X61798679Y-114134114D01*
X61720000Y-114055298D01*
X61720000Y-112694659D01*
X61798214Y-112616581D01*
X61869918Y-112443899D01*
X61870082Y-112256921D01*
X61802384Y-112093079D01*
X62779918Y-112093079D01*
X62851321Y-112265886D01*
X62930000Y-112344702D01*
X62930000Y-113705341D01*
X62851786Y-113783419D01*
X62780082Y-113956101D01*
X62779918Y-114143079D01*
X62851321Y-114315886D01*
X62983419Y-114448214D01*
X63156101Y-114519918D01*
X63343079Y-114520082D01*
X63515886Y-114448679D01*
X63648214Y-114316581D01*
X63719918Y-114143899D01*
X63720082Y-113956921D01*
X63648679Y-113784114D01*
X63570000Y-113705298D01*
X63570000Y-112344659D01*
X63648214Y-112266581D01*
X63719918Y-112093899D01*
X63720082Y-111906921D01*
X63648679Y-111734114D01*
X63516581Y-111601786D01*
X63343899Y-111530082D01*
X63156921Y-111529918D01*
X62984114Y-111601321D01*
X62851786Y-111733419D01*
X62780082Y-111906101D01*
X62779918Y-112093079D01*
X61802384Y-112093079D01*
X61798679Y-112084114D01*
X61666581Y-111951786D01*
X61493899Y-111880082D01*
X61306921Y-111879918D01*
X61134114Y-111951321D01*
X61001786Y-112083419D01*
X60930082Y-112256101D01*
X60929918Y-112443079D01*
X60134067Y-112443079D01*
X60138040Y-112437133D01*
X60170011Y-112276406D01*
X60170011Y-107214088D01*
X60219918Y-107093899D01*
X60220082Y-106906921D01*
X60148679Y-106734114D01*
X60016581Y-106601786D01*
X59895479Y-106551500D01*
X59320009Y-105976030D01*
X59320009Y-104614115D01*
X59369927Y-104493899D01*
X59370091Y-104306921D01*
X59320009Y-104185714D01*
X59320009Y-103688011D01*
X59288038Y-103527284D01*
X59196994Y-103391026D01*
X59019999Y-103214031D01*
X59019999Y-102673971D01*
X59196985Y-102496985D01*
X59288029Y-102360727D01*
X59320000Y-102200000D01*
X59320000Y-97614115D01*
X59369918Y-97493899D01*
X59370082Y-97306921D01*
X59298679Y-97134114D01*
X59166581Y-97001786D01*
X58993899Y-96930082D01*
X58806921Y-96929918D01*
X58634114Y-97001321D01*
X58501786Y-97133419D01*
X58430082Y-97306101D01*
X58429918Y-97493079D01*
X58480000Y-97614286D01*
X58480000Y-102026030D01*
X58470057Y-102035973D01*
X58470082Y-102006921D01*
X58398679Y-101834114D01*
X58266581Y-101701786D01*
X58093899Y-101630082D01*
X57906921Y-101629918D01*
X57734114Y-101701321D01*
X57601786Y-101833419D01*
X57530082Y-102006101D01*
X57529918Y-102193079D01*
X57580000Y-102314286D01*
X57580000Y-103700000D01*
X57611971Y-103860727D01*
X57703015Y-103996985D01*
X57880000Y-104173970D01*
X57880000Y-106437993D01*
X57911971Y-106598720D01*
X58003015Y-106734978D01*
X58648079Y-107380042D01*
X58506921Y-107379918D01*
X58334114Y-107451321D01*
X58201786Y-107583419D01*
X58130082Y-107756101D01*
X58129984Y-107867468D01*
X57867437Y-108130015D01*
X57756921Y-108129918D01*
X57584114Y-108201321D01*
X57451786Y-108333419D01*
X57406502Y-108442476D01*
X57120000Y-108155974D01*
X57120000Y-107444659D01*
X57198214Y-107366581D01*
X57269918Y-107193899D01*
X57270082Y-107006921D01*
X57198679Y-106834114D01*
X57066581Y-106701786D01*
X56893899Y-106630082D01*
X56706921Y-106629918D01*
X56534114Y-106701321D01*
X56401786Y-106833419D01*
X56330082Y-107006101D01*
X56329918Y-107193079D01*
X56401321Y-107365886D01*
X56480000Y-107444702D01*
X56480000Y-108288522D01*
X56504359Y-108410981D01*
X56560260Y-108494642D01*
X56573726Y-108514796D01*
X57685204Y-109626274D01*
X57789019Y-109695641D01*
X57903820Y-109718477D01*
X57983419Y-109798214D01*
X58156101Y-109869918D01*
X58343079Y-109870082D01*
X58515886Y-109798679D01*
X58648214Y-109666581D01*
X58719918Y-109493899D01*
X58720082Y-109306921D01*
X58648679Y-109134114D01*
X58516581Y-109001786D01*
X58343899Y-108930082D01*
X58184742Y-108929942D01*
X58248214Y-108866581D01*
X58319918Y-108693899D01*
X58320016Y-108582532D01*
X58582563Y-108319985D01*
X58693079Y-108320082D01*
X58780001Y-108284166D01*
X58780001Y-110709918D01*
X58748679Y-110634114D01*
X58616581Y-110501786D01*
X58443899Y-110430082D01*
X58369974Y-110430017D01*
X58370082Y-110306921D01*
X58298679Y-110134114D01*
X58166581Y-110001786D01*
X57993899Y-109930082D01*
X57806921Y-109929918D01*
X57634114Y-110001321D01*
X57501786Y-110133419D01*
X57482444Y-110180000D01*
X53661478Y-110180000D01*
X53539019Y-110204359D01*
X53465136Y-110253726D01*
X53435204Y-110273726D01*
X53128930Y-110580000D01*
X50644659Y-110580000D01*
X50566581Y-110501786D01*
X50393899Y-110430082D01*
X50206921Y-110429918D01*
X50034114Y-110501321D01*
X49901786Y-110633419D01*
X49830082Y-110806101D01*
X49829918Y-110993079D01*
X49901321Y-111165886D01*
X50033419Y-111298214D01*
X50206101Y-111369918D01*
X50393079Y-111370082D01*
X50565886Y-111298679D01*
X50644702Y-111220000D01*
X51937450Y-111220000D01*
X51527514Y-111629936D01*
X51506918Y-111629918D01*
X51334111Y-111701321D01*
X51201783Y-111833419D01*
X51130079Y-112006101D01*
X51129915Y-112193079D01*
X51201318Y-112365886D01*
X51333416Y-112498214D01*
X51506098Y-112569918D01*
X51693076Y-112570082D01*
X51865883Y-112498679D01*
X51924986Y-112439679D01*
X51983419Y-112498214D01*
X52146723Y-112566024D01*
X52130082Y-112606101D01*
X52129918Y-112793079D01*
X52201321Y-112965886D01*
X52333419Y-113098214D01*
X52506101Y-113169918D01*
X52693079Y-113170082D01*
X52814286Y-113120000D01*
X54636268Y-113120000D01*
X54796995Y-113088029D01*
X54933253Y-112996985D01*
X55010197Y-112920041D01*
X56288069Y-112920041D01*
X57315012Y-113946984D01*
X57360225Y-113977194D01*
X57451269Y-114038028D01*
X57611996Y-114069999D01*
X58479001Y-114070001D01*
X58479001Y-114115420D01*
X58393899Y-114080082D01*
X58206921Y-114079918D01*
X58034114Y-114151321D01*
X57975013Y-114210320D01*
X57916581Y-114151786D01*
X57743899Y-114080082D01*
X57556921Y-114079918D01*
X57384114Y-114151321D01*
X57251786Y-114283419D01*
X57211682Y-114380001D01*
X50232549Y-114380001D01*
X49669985Y-113817437D01*
X49670082Y-113706921D01*
X49598679Y-113534114D01*
X49466581Y-113401786D01*
X49293899Y-113330082D01*
X49106921Y-113329918D01*
X48934114Y-113401321D01*
X48849969Y-113485319D01*
X48766581Y-113401786D01*
X48593899Y-113330082D01*
X48406921Y-113329918D01*
X48234114Y-113401321D01*
X48101786Y-113533419D01*
X48030082Y-113706101D01*
X48029918Y-113893079D01*
X47370000Y-113893079D01*
X47370000Y-97793079D01*
X55979918Y-97793079D01*
X56030000Y-97914286D01*
X56030000Y-100785885D01*
X55980082Y-100906101D01*
X55979918Y-101093079D01*
X56030000Y-101214286D01*
X56030000Y-103560885D01*
X55980082Y-103681101D01*
X55979918Y-103868079D01*
X56051321Y-104040886D01*
X56183419Y-104173214D01*
X56356101Y-104244918D01*
X56543079Y-104245082D01*
X56715886Y-104173679D01*
X56848214Y-104041581D01*
X56919918Y-103868899D01*
X56920082Y-103681921D01*
X56870000Y-103560714D01*
X56870000Y-101214115D01*
X56919918Y-101093899D01*
X56920082Y-100906921D01*
X56870000Y-100785714D01*
X56870000Y-97914115D01*
X56919918Y-97793899D01*
X56920082Y-97606921D01*
X56848679Y-97434114D01*
X56716581Y-97301786D01*
X56543899Y-97230082D01*
X56356921Y-97229918D01*
X56184114Y-97301321D01*
X56051786Y-97433419D01*
X55980082Y-97606101D01*
X55979918Y-97793079D01*
X47370000Y-97793079D01*
X47370000Y-94418235D01*
X47400000Y-94424310D01*
X53400000Y-94424310D01*
X53481527Y-94408970D01*
X53556405Y-94360787D01*
X53606638Y-94287269D01*
X53624310Y-94200000D01*
X53624310Y-91794999D01*
X70265673Y-91794999D01*
X70375690Y-91905016D01*
G36*
X66665068Y-116276282D02*
X66768883Y-116345649D01*
X66891342Y-116370008D01*
X67805983Y-116370009D01*
X68092507Y-116656533D01*
X67984114Y-116701321D01*
X67874926Y-116810319D01*
X67766581Y-116701786D01*
X67593899Y-116630082D01*
X67406921Y-116629918D01*
X67234114Y-116701321D01*
X67101786Y-116833419D01*
X67030082Y-117006101D01*
X67029984Y-117117468D01*
X66867923Y-117279529D01*
X66749478Y-117280001D01*
X66655011Y-117280001D01*
X66532552Y-117304360D01*
X66440472Y-117365886D01*
X66428737Y-117373727D01*
X65922475Y-117879989D01*
X64538533Y-117879989D01*
X64416075Y-117904347D01*
X64312259Y-117973715D01*
X63493467Y-118792507D01*
X63448679Y-118684114D01*
X63411822Y-118647192D01*
X64526274Y-117532740D01*
X64549033Y-117498679D01*
X64595641Y-117428925D01*
X64620000Y-117306466D01*
X64620000Y-116132548D01*
X64682475Y-116070073D01*
X64693079Y-116070082D01*
X64865886Y-115998679D01*
X64899987Y-115964637D01*
X64983419Y-116048214D01*
X65156101Y-116119918D01*
X65343079Y-116120082D01*
X65430000Y-116084167D01*
X65430000Y-116755341D01*
X65351786Y-116833419D01*
X65280082Y-117006101D01*
X65279918Y-117193079D01*
X65351321Y-117365886D01*
X65483419Y-117498214D01*
X65656101Y-117569918D01*
X65843079Y-117570082D01*
X66015886Y-117498679D01*
X66148214Y-117366581D01*
X66219918Y-117193899D01*
X66220082Y-117006921D01*
X66148679Y-116834114D01*
X66070000Y-116755298D01*
X66070000Y-115681214D01*
X66665068Y-116276282D01*
X66665068Y-116276282D01*
G37*
X66665068Y-116276282D02*
X66768883Y-116345649D01*
X66891342Y-116370008D01*
X67805983Y-116370009D01*
X68092507Y-116656533D01*
X67984114Y-116701321D01*
X67874926Y-116810319D01*
X67766581Y-116701786D01*
X67593899Y-116630082D01*
X67406921Y-116629918D01*
X67234114Y-116701321D01*
X67101786Y-116833419D01*
X67030082Y-117006101D01*
X67029984Y-117117468D01*
X66867923Y-117279529D01*
X66749478Y-117280001D01*
X66655011Y-117280001D01*
X66532552Y-117304360D01*
X66440472Y-117365886D01*
X66428737Y-117373727D01*
X65922475Y-117879989D01*
X64538533Y-117879989D01*
X64416075Y-117904347D01*
X64312259Y-117973715D01*
X63493467Y-118792507D01*
X63448679Y-118684114D01*
X63411822Y-118647192D01*
X64526274Y-117532740D01*
X64549033Y-117498679D01*
X64595641Y-117428925D01*
X64620000Y-117306466D01*
X64620000Y-116132548D01*
X64682475Y-116070073D01*
X64693079Y-116070082D01*
X64865886Y-115998679D01*
X64899987Y-115964637D01*
X64983419Y-116048214D01*
X65156101Y-116119918D01*
X65343079Y-116120082D01*
X65430000Y-116084167D01*
X65430000Y-116755341D01*
X65351786Y-116833419D01*
X65280082Y-117006101D01*
X65279918Y-117193079D01*
X65351321Y-117365886D01*
X65483419Y-117498214D01*
X65656101Y-117569918D01*
X65843079Y-117570082D01*
X66015886Y-117498679D01*
X66148214Y-117366581D01*
X66219918Y-117193899D01*
X66220082Y-117006921D01*
X66148679Y-116834114D01*
X66070000Y-116755298D01*
X66070000Y-115681214D01*
X66665068Y-116276282D01*
G36*
X76180000Y-108567452D02*
X75867452Y-108880000D01*
X74244659Y-108880000D01*
X74166581Y-108801786D01*
X73993899Y-108730082D01*
X73806921Y-108729918D01*
X73634114Y-108801321D01*
X73501786Y-108933419D01*
X73430082Y-109106101D01*
X73429918Y-109293079D01*
X73501321Y-109465886D01*
X73633419Y-109598214D01*
X73806101Y-109669918D01*
X73993079Y-109670082D01*
X74165886Y-109598679D01*
X74244702Y-109520000D01*
X76000000Y-109520000D01*
X76122459Y-109495641D01*
X76226274Y-109426274D01*
X76630000Y-109022548D01*
X76630000Y-114139302D01*
X76626274Y-114133726D01*
X76340310Y-113847762D01*
X76340310Y-112044000D01*
X76324970Y-111962473D01*
X76276787Y-111887595D01*
X76203269Y-111837362D01*
X76116000Y-111819690D01*
X74312238Y-111819690D01*
X73361558Y-110869010D01*
X74824231Y-110869010D01*
X74833419Y-110878214D01*
X75006101Y-110949918D01*
X75193079Y-110950082D01*
X75365886Y-110878679D01*
X75498214Y-110746581D01*
X75569918Y-110573899D01*
X75570082Y-110386921D01*
X75498679Y-110214114D01*
X75366581Y-110081786D01*
X75193899Y-110010082D01*
X75006921Y-110009918D01*
X74834114Y-110081321D01*
X74701786Y-110213419D01*
X74695312Y-110229010D01*
X71423538Y-110229010D01*
X73392548Y-108260000D01*
X74755341Y-108260000D01*
X74833419Y-108338214D01*
X75006101Y-108409918D01*
X75193079Y-108410082D01*
X75365886Y-108338679D01*
X75498214Y-108206581D01*
X75569918Y-108033899D01*
X75570082Y-107846921D01*
X75498679Y-107674114D01*
X75366581Y-107541786D01*
X75193899Y-107470082D01*
X75006921Y-107469918D01*
X74834114Y-107541321D01*
X74755298Y-107620000D01*
X73260000Y-107620000D01*
X73137541Y-107644359D01*
X73045138Y-107706101D01*
X73033726Y-107713726D01*
X70868452Y-109879000D01*
X70800000Y-109879000D01*
X70799897Y-109879021D01*
X70799793Y-109879000D01*
X70135257Y-109879429D01*
X70198214Y-109816581D01*
X70269918Y-109643899D01*
X70270082Y-109456921D01*
X70198679Y-109284114D01*
X70120000Y-109205298D01*
X70120000Y-108394649D01*
X70198214Y-108316571D01*
X70269918Y-108143889D01*
X70270082Y-107956911D01*
X70243707Y-107893079D01*
X70679918Y-107893079D01*
X70751321Y-108065886D01*
X70883419Y-108198214D01*
X71056101Y-108269918D01*
X71243079Y-108270082D01*
X71415886Y-108198679D01*
X71548214Y-108066581D01*
X71619918Y-107893899D01*
X71620016Y-107782532D01*
X72382548Y-107020000D01*
X73455341Y-107020000D01*
X73533419Y-107098214D01*
X73706101Y-107169918D01*
X73893079Y-107170082D01*
X74065886Y-107098679D01*
X74198214Y-106966581D01*
X74269918Y-106793899D01*
X74270082Y-106606921D01*
X74198679Y-106434114D01*
X74066581Y-106301786D01*
X73893899Y-106230082D01*
X73706921Y-106229918D01*
X73534114Y-106301321D01*
X73455298Y-106380000D01*
X72250000Y-106380000D01*
X72127541Y-106404359D01*
X72023726Y-106473726D01*
X71167437Y-107330015D01*
X71056921Y-107329918D01*
X70884114Y-107401321D01*
X70751786Y-107533419D01*
X70680082Y-107706101D01*
X70679918Y-107893079D01*
X70243707Y-107893079D01*
X70198679Y-107784104D01*
X70066581Y-107651776D01*
X69893899Y-107580072D01*
X69706921Y-107579908D01*
X69534114Y-107651311D01*
X69401786Y-107783409D01*
X69330082Y-107956091D01*
X69329918Y-108143069D01*
X69401321Y-108315876D01*
X69480000Y-108394692D01*
X69480000Y-109205341D01*
X69401786Y-109283419D01*
X69330082Y-109456101D01*
X69329918Y-109643079D01*
X69401321Y-109815886D01*
X69465185Y-109879861D01*
X69249794Y-109880000D01*
X69189189Y-109892096D01*
X69127542Y-109904358D01*
X69127453Y-109904417D01*
X69127350Y-109904438D01*
X69075548Y-109939100D01*
X69023726Y-109973726D01*
X68781067Y-110216385D01*
X68716581Y-110151786D01*
X68543899Y-110080082D01*
X68356921Y-110079918D01*
X68270021Y-110115825D01*
X68270021Y-109989781D01*
X68746995Y-109512807D01*
X68784248Y-109457053D01*
X68838039Y-109376549D01*
X68845739Y-109337838D01*
X68870011Y-109215822D01*
X68870010Y-109215817D01*
X68870010Y-108050010D01*
X68870000Y-108049960D01*
X68870000Y-106473970D01*
X70896985Y-104446985D01*
X70988029Y-104310727D01*
X71014048Y-104179922D01*
X71845582Y-103348388D01*
X71965886Y-103298679D01*
X72098214Y-103166581D01*
X72169918Y-102993899D01*
X72170082Y-102806921D01*
X72134579Y-102720999D01*
X73002929Y-102720999D01*
X73101752Y-102787030D01*
X73262479Y-102819001D01*
X73837521Y-102819001D01*
X73998248Y-102787030D01*
X74134506Y-102695986D01*
X74445986Y-102384506D01*
X74537030Y-102248248D01*
X74569001Y-102087521D01*
X74569001Y-101624310D01*
X76180000Y-101624310D01*
X76180000Y-108567452D01*
X76180000Y-108567452D01*
G37*
X76180000Y-108567452D02*
X75867452Y-108880000D01*
X74244659Y-108880000D01*
X74166581Y-108801786D01*
X73993899Y-108730082D01*
X73806921Y-108729918D01*
X73634114Y-108801321D01*
X73501786Y-108933419D01*
X73430082Y-109106101D01*
X73429918Y-109293079D01*
X73501321Y-109465886D01*
X73633419Y-109598214D01*
X73806101Y-109669918D01*
X73993079Y-109670082D01*
X74165886Y-109598679D01*
X74244702Y-109520000D01*
X76000000Y-109520000D01*
X76122459Y-109495641D01*
X76226274Y-109426274D01*
X76630000Y-109022548D01*
X76630000Y-114139302D01*
X76626274Y-114133726D01*
X76340310Y-113847762D01*
X76340310Y-112044000D01*
X76324970Y-111962473D01*
X76276787Y-111887595D01*
X76203269Y-111837362D01*
X76116000Y-111819690D01*
X74312238Y-111819690D01*
X73361558Y-110869010D01*
X74824231Y-110869010D01*
X74833419Y-110878214D01*
X75006101Y-110949918D01*
X75193079Y-110950082D01*
X75365886Y-110878679D01*
X75498214Y-110746581D01*
X75569918Y-110573899D01*
X75570082Y-110386921D01*
X75498679Y-110214114D01*
X75366581Y-110081786D01*
X75193899Y-110010082D01*
X75006921Y-110009918D01*
X74834114Y-110081321D01*
X74701786Y-110213419D01*
X74695312Y-110229010D01*
X71423538Y-110229010D01*
X73392548Y-108260000D01*
X74755341Y-108260000D01*
X74833419Y-108338214D01*
X75006101Y-108409918D01*
X75193079Y-108410082D01*
X75365886Y-108338679D01*
X75498214Y-108206581D01*
X75569918Y-108033899D01*
X75570082Y-107846921D01*
X75498679Y-107674114D01*
X75366581Y-107541786D01*
X75193899Y-107470082D01*
X75006921Y-107469918D01*
X74834114Y-107541321D01*
X74755298Y-107620000D01*
X73260000Y-107620000D01*
X73137541Y-107644359D01*
X73045138Y-107706101D01*
X73033726Y-107713726D01*
X70868452Y-109879000D01*
X70800000Y-109879000D01*
X70799897Y-109879021D01*
X70799793Y-109879000D01*
X70135257Y-109879429D01*
X70198214Y-109816581D01*
X70269918Y-109643899D01*
X70270082Y-109456921D01*
X70198679Y-109284114D01*
X70120000Y-109205298D01*
X70120000Y-108394649D01*
X70198214Y-108316571D01*
X70269918Y-108143889D01*
X70270082Y-107956911D01*
X70243707Y-107893079D01*
X70679918Y-107893079D01*
X70751321Y-108065886D01*
X70883419Y-108198214D01*
X71056101Y-108269918D01*
X71243079Y-108270082D01*
X71415886Y-108198679D01*
X71548214Y-108066581D01*
X71619918Y-107893899D01*
X71620016Y-107782532D01*
X72382548Y-107020000D01*
X73455341Y-107020000D01*
X73533419Y-107098214D01*
X73706101Y-107169918D01*
X73893079Y-107170082D01*
X74065886Y-107098679D01*
X74198214Y-106966581D01*
X74269918Y-106793899D01*
X74270082Y-106606921D01*
X74198679Y-106434114D01*
X74066581Y-106301786D01*
X73893899Y-106230082D01*
X73706921Y-106229918D01*
X73534114Y-106301321D01*
X73455298Y-106380000D01*
X72250000Y-106380000D01*
X72127541Y-106404359D01*
X72023726Y-106473726D01*
X71167437Y-107330015D01*
X71056921Y-107329918D01*
X70884114Y-107401321D01*
X70751786Y-107533419D01*
X70680082Y-107706101D01*
X70679918Y-107893079D01*
X70243707Y-107893079D01*
X70198679Y-107784104D01*
X70066581Y-107651776D01*
X69893899Y-107580072D01*
X69706921Y-107579908D01*
X69534114Y-107651311D01*
X69401786Y-107783409D01*
X69330082Y-107956091D01*
X69329918Y-108143069D01*
X69401321Y-108315876D01*
X69480000Y-108394692D01*
X69480000Y-109205341D01*
X69401786Y-109283419D01*
X69330082Y-109456101D01*
X69329918Y-109643079D01*
X69401321Y-109815886D01*
X69465185Y-109879861D01*
X69249794Y-109880000D01*
X69189189Y-109892096D01*
X69127542Y-109904358D01*
X69127453Y-109904417D01*
X69127350Y-109904438D01*
X69075548Y-109939100D01*
X69023726Y-109973726D01*
X68781067Y-110216385D01*
X68716581Y-110151786D01*
X68543899Y-110080082D01*
X68356921Y-110079918D01*
X68270021Y-110115825D01*
X68270021Y-109989781D01*
X68746995Y-109512807D01*
X68784248Y-109457053D01*
X68838039Y-109376549D01*
X68845739Y-109337838D01*
X68870011Y-109215822D01*
X68870010Y-109215817D01*
X68870010Y-108050010D01*
X68870000Y-108049960D01*
X68870000Y-106473970D01*
X70896985Y-104446985D01*
X70988029Y-104310727D01*
X71014048Y-104179922D01*
X71845582Y-103348388D01*
X71965886Y-103298679D01*
X72098214Y-103166581D01*
X72169918Y-102993899D01*
X72170082Y-102806921D01*
X72134579Y-102720999D01*
X73002929Y-102720999D01*
X73101752Y-102787030D01*
X73262479Y-102819001D01*
X73837521Y-102819001D01*
X73998248Y-102787030D01*
X74134506Y-102695986D01*
X74445986Y-102384506D01*
X74537030Y-102248248D01*
X74569001Y-102087521D01*
X74569001Y-101624310D01*
X76180000Y-101624310D01*
X76180000Y-108567452D01*
G36*
X69030015Y-94782564D02*
X69029918Y-94893079D01*
X69101321Y-95065886D01*
X69233419Y-95198214D01*
X69406101Y-95269918D01*
X69593079Y-95270082D01*
X69765886Y-95198679D01*
X69898214Y-95066581D01*
X69969918Y-94893899D01*
X69970006Y-94793978D01*
X70073013Y-94896985D01*
X70209271Y-94988029D01*
X70369998Y-95020000D01*
X71526030Y-95020000D01*
X72151612Y-95645582D01*
X72180000Y-95714286D01*
X72180000Y-95950000D01*
X72211971Y-96110727D01*
X72303015Y-96246985D01*
X72780000Y-96723970D01*
X72780000Y-97565838D01*
X72745471Y-97551501D01*
X72076986Y-96883016D01*
X71940728Y-96791972D01*
X71780001Y-96760001D01*
X67320612Y-96760001D01*
X67248728Y-96711970D01*
X67088001Y-96679999D01*
X66550001Y-96679999D01*
X66389274Y-96711970D01*
X66253016Y-96803014D01*
X66004418Y-97051612D01*
X65884114Y-97101321D01*
X65751786Y-97233419D01*
X65680082Y-97406101D01*
X65679918Y-97593079D01*
X65716189Y-97680861D01*
X65593899Y-97630082D01*
X65406921Y-97629918D01*
X65234114Y-97701321D01*
X65101786Y-97833419D01*
X65030082Y-98006101D01*
X65029918Y-98193079D01*
X65101321Y-98365886D01*
X65230000Y-98494789D01*
X65230000Y-103711701D01*
X65134114Y-103751321D01*
X65001786Y-103883419D01*
X64956917Y-103991477D01*
X64668011Y-103702571D01*
X64668011Y-103046275D01*
X64679007Y-102990993D01*
X64679007Y-99205435D01*
X64657084Y-99095221D01*
X64719918Y-98943899D01*
X64720082Y-98756921D01*
X64648679Y-98584114D01*
X64570000Y-98505298D01*
X64570000Y-97032548D01*
X64582563Y-97019985D01*
X64693079Y-97020082D01*
X64865886Y-96948679D01*
X64998214Y-96816581D01*
X65069918Y-96643899D01*
X65070082Y-96456921D01*
X64998679Y-96284114D01*
X64866581Y-96151786D01*
X64693899Y-96080082D01*
X64506921Y-96079918D01*
X64334114Y-96151321D01*
X64201786Y-96283419D01*
X64130082Y-96456101D01*
X64129984Y-96567468D01*
X64023726Y-96673726D01*
X63954359Y-96777541D01*
X63930000Y-96900000D01*
X63930000Y-98505341D01*
X63851786Y-98583419D01*
X63803134Y-98700586D01*
X63469031Y-98366483D01*
X63469031Y-97025479D01*
X63444672Y-96903020D01*
X63375305Y-96799205D01*
X62970000Y-96393900D01*
X62970000Y-96209213D01*
X62971878Y-96208005D01*
X62975380Y-96211507D01*
X63056240Y-96245000D01*
X63240000Y-96245000D01*
X63295000Y-96190000D01*
X63295000Y-95355000D01*
X63305000Y-95355000D01*
X63305000Y-96190000D01*
X63360000Y-96245000D01*
X63543760Y-96245000D01*
X63624620Y-96211507D01*
X63686507Y-96149620D01*
X63720000Y-96068761D01*
X63720000Y-95410000D01*
X63665000Y-95355000D01*
X63305000Y-95355000D01*
X63295000Y-95355000D01*
X63275000Y-95355000D01*
X63275000Y-95345000D01*
X63295000Y-95345000D01*
X63295000Y-94510000D01*
X63305000Y-94510000D01*
X63305000Y-95345000D01*
X63665000Y-95345000D01*
X63720000Y-95290000D01*
X63720000Y-94631239D01*
X63686507Y-94550380D01*
X63624620Y-94488493D01*
X63543760Y-94455000D01*
X63360000Y-94455000D01*
X63305000Y-94510000D01*
X63295000Y-94510000D01*
X63240000Y-94455000D01*
X63197548Y-94455000D01*
X63232548Y-94420000D01*
X68667452Y-94420000D01*
X69030015Y-94782564D01*
X69030015Y-94782564D01*
G37*
X69030015Y-94782564D02*
X69029918Y-94893079D01*
X69101321Y-95065886D01*
X69233419Y-95198214D01*
X69406101Y-95269918D01*
X69593079Y-95270082D01*
X69765886Y-95198679D01*
X69898214Y-95066581D01*
X69969918Y-94893899D01*
X69970006Y-94793978D01*
X70073013Y-94896985D01*
X70209271Y-94988029D01*
X70369998Y-95020000D01*
X71526030Y-95020000D01*
X72151612Y-95645582D01*
X72180000Y-95714286D01*
X72180000Y-95950000D01*
X72211971Y-96110727D01*
X72303015Y-96246985D01*
X72780000Y-96723970D01*
X72780000Y-97565838D01*
X72745471Y-97551501D01*
X72076986Y-96883016D01*
X71940728Y-96791972D01*
X71780001Y-96760001D01*
X67320612Y-96760001D01*
X67248728Y-96711970D01*
X67088001Y-96679999D01*
X66550001Y-96679999D01*
X66389274Y-96711970D01*
X66253016Y-96803014D01*
X66004418Y-97051612D01*
X65884114Y-97101321D01*
X65751786Y-97233419D01*
X65680082Y-97406101D01*
X65679918Y-97593079D01*
X65716189Y-97680861D01*
X65593899Y-97630082D01*
X65406921Y-97629918D01*
X65234114Y-97701321D01*
X65101786Y-97833419D01*
X65030082Y-98006101D01*
X65029918Y-98193079D01*
X65101321Y-98365886D01*
X65230000Y-98494789D01*
X65230000Y-103711701D01*
X65134114Y-103751321D01*
X65001786Y-103883419D01*
X64956917Y-103991477D01*
X64668011Y-103702571D01*
X64668011Y-103046275D01*
X64679007Y-102990993D01*
X64679007Y-99205435D01*
X64657084Y-99095221D01*
X64719918Y-98943899D01*
X64720082Y-98756921D01*
X64648679Y-98584114D01*
X64570000Y-98505298D01*
X64570000Y-97032548D01*
X64582563Y-97019985D01*
X64693079Y-97020082D01*
X64865886Y-96948679D01*
X64998214Y-96816581D01*
X65069918Y-96643899D01*
X65070082Y-96456921D01*
X64998679Y-96284114D01*
X64866581Y-96151786D01*
X64693899Y-96080082D01*
X64506921Y-96079918D01*
X64334114Y-96151321D01*
X64201786Y-96283419D01*
X64130082Y-96456101D01*
X64129984Y-96567468D01*
X64023726Y-96673726D01*
X63954359Y-96777541D01*
X63930000Y-96900000D01*
X63930000Y-98505341D01*
X63851786Y-98583419D01*
X63803134Y-98700586D01*
X63469031Y-98366483D01*
X63469031Y-97025479D01*
X63444672Y-96903020D01*
X63375305Y-96799205D01*
X62970000Y-96393900D01*
X62970000Y-96209213D01*
X62971878Y-96208005D01*
X62975380Y-96211507D01*
X63056240Y-96245000D01*
X63240000Y-96245000D01*
X63295000Y-96190000D01*
X63295000Y-95355000D01*
X63305000Y-95355000D01*
X63305000Y-96190000D01*
X63360000Y-96245000D01*
X63543760Y-96245000D01*
X63624620Y-96211507D01*
X63686507Y-96149620D01*
X63720000Y-96068761D01*
X63720000Y-95410000D01*
X63665000Y-95355000D01*
X63305000Y-95355000D01*
X63295000Y-95355000D01*
X63275000Y-95355000D01*
X63275000Y-95345000D01*
X63295000Y-95345000D01*
X63295000Y-94510000D01*
X63305000Y-94510000D01*
X63305000Y-95345000D01*
X63665000Y-95345000D01*
X63720000Y-95290000D01*
X63720000Y-94631239D01*
X63686507Y-94550380D01*
X63624620Y-94488493D01*
X63543760Y-94455000D01*
X63360000Y-94455000D01*
X63305000Y-94510000D01*
X63295000Y-94510000D01*
X63240000Y-94455000D01*
X63197548Y-94455000D01*
X63232548Y-94420000D01*
X68667452Y-94420000D01*
X69030015Y-94782564D01*
G36*
X72151595Y-98145565D02*
X72201311Y-98265886D01*
X72333409Y-98398214D01*
X72456644Y-98449386D01*
X71954418Y-98951612D01*
X71834114Y-99001321D01*
X71701786Y-99133419D01*
X71630082Y-99306101D01*
X71629918Y-99493079D01*
X71701321Y-99665886D01*
X71833419Y-99798214D01*
X72006101Y-99869918D01*
X72193079Y-99870082D01*
X72344280Y-99807606D01*
X72424083Y-100000743D01*
X72598339Y-100175304D01*
X72826133Y-100269893D01*
X73072785Y-100270108D01*
X73300743Y-100175917D01*
X73356758Y-100120000D01*
X73375690Y-100120000D01*
X73375690Y-101400000D01*
X73391030Y-101481527D01*
X73439213Y-101556405D01*
X73512731Y-101606638D01*
X73600000Y-101624310D01*
X73729001Y-101624310D01*
X73729001Y-101913551D01*
X73663551Y-101979001D01*
X73424027Y-101979001D01*
X73325204Y-101912970D01*
X73164477Y-101880999D01*
X71412479Y-101880999D01*
X71251752Y-101912970D01*
X71115494Y-102004014D01*
X70139509Y-102979999D01*
X69613484Y-102979999D01*
X69613479Y-102979998D01*
X69479419Y-103006665D01*
X69452752Y-103011970D01*
X69316494Y-103103014D01*
X69069957Y-103349551D01*
X69070082Y-103206921D01*
X68998679Y-103034114D01*
X68920000Y-102955298D01*
X68920000Y-100244659D01*
X68998214Y-100166581D01*
X69069918Y-99993899D01*
X69070082Y-99806921D01*
X68998679Y-99634114D01*
X68866581Y-99501786D01*
X68693899Y-99430082D01*
X68506921Y-99429918D01*
X68334114Y-99501321D01*
X68201786Y-99633419D01*
X68130082Y-99806101D01*
X68129918Y-99993079D01*
X68201321Y-100165886D01*
X68280000Y-100244702D01*
X68280000Y-102955341D01*
X68201786Y-103033419D01*
X68130082Y-103206101D01*
X68129918Y-103393079D01*
X68201321Y-103565886D01*
X68215410Y-103580000D01*
X67356781Y-103580000D01*
X67251661Y-103474696D01*
X67023867Y-103380107D01*
X66777215Y-103379892D01*
X66569999Y-103465513D01*
X66569999Y-100613413D01*
X66706101Y-100669928D01*
X66893079Y-100670092D01*
X67065886Y-100598689D01*
X67198214Y-100466591D01*
X67269918Y-100293909D01*
X67270082Y-100106931D01*
X67198679Y-99934124D01*
X67120000Y-99855308D01*
X67120000Y-99344659D01*
X67198214Y-99266581D01*
X67269918Y-99093899D01*
X67270082Y-98906921D01*
X67198679Y-98734114D01*
X67139680Y-98675013D01*
X67198214Y-98616581D01*
X67269918Y-98443899D01*
X67270082Y-98256921D01*
X67198679Y-98084114D01*
X67139680Y-98025013D01*
X67198214Y-97966581D01*
X67269918Y-97793899D01*
X67270082Y-97606921D01*
X67267223Y-97600001D01*
X71606031Y-97600001D01*
X72151595Y-98145565D01*
X72151595Y-98145565D01*
G37*
X72151595Y-98145565D02*
X72201311Y-98265886D01*
X72333409Y-98398214D01*
X72456644Y-98449386D01*
X71954418Y-98951612D01*
X71834114Y-99001321D01*
X71701786Y-99133419D01*
X71630082Y-99306101D01*
X71629918Y-99493079D01*
X71701321Y-99665886D01*
X71833419Y-99798214D01*
X72006101Y-99869918D01*
X72193079Y-99870082D01*
X72344280Y-99807606D01*
X72424083Y-100000743D01*
X72598339Y-100175304D01*
X72826133Y-100269893D01*
X73072785Y-100270108D01*
X73300743Y-100175917D01*
X73356758Y-100120000D01*
X73375690Y-100120000D01*
X73375690Y-101400000D01*
X73391030Y-101481527D01*
X73439213Y-101556405D01*
X73512731Y-101606638D01*
X73600000Y-101624310D01*
X73729001Y-101624310D01*
X73729001Y-101913551D01*
X73663551Y-101979001D01*
X73424027Y-101979001D01*
X73325204Y-101912970D01*
X73164477Y-101880999D01*
X71412479Y-101880999D01*
X71251752Y-101912970D01*
X71115494Y-102004014D01*
X70139509Y-102979999D01*
X69613484Y-102979999D01*
X69613479Y-102979998D01*
X69479419Y-103006665D01*
X69452752Y-103011970D01*
X69316494Y-103103014D01*
X69069957Y-103349551D01*
X69070082Y-103206921D01*
X68998679Y-103034114D01*
X68920000Y-102955298D01*
X68920000Y-100244659D01*
X68998214Y-100166581D01*
X69069918Y-99993899D01*
X69070082Y-99806921D01*
X68998679Y-99634114D01*
X68866581Y-99501786D01*
X68693899Y-99430082D01*
X68506921Y-99429918D01*
X68334114Y-99501321D01*
X68201786Y-99633419D01*
X68130082Y-99806101D01*
X68129918Y-99993079D01*
X68201321Y-100165886D01*
X68280000Y-100244702D01*
X68280000Y-102955341D01*
X68201786Y-103033419D01*
X68130082Y-103206101D01*
X68129918Y-103393079D01*
X68201321Y-103565886D01*
X68215410Y-103580000D01*
X67356781Y-103580000D01*
X67251661Y-103474696D01*
X67023867Y-103380107D01*
X66777215Y-103379892D01*
X66569999Y-103465513D01*
X66569999Y-100613413D01*
X66706101Y-100669928D01*
X66893079Y-100670092D01*
X67065886Y-100598689D01*
X67198214Y-100466591D01*
X67269918Y-100293909D01*
X67270082Y-100106931D01*
X67198679Y-99934124D01*
X67120000Y-99855308D01*
X67120000Y-99344659D01*
X67198214Y-99266581D01*
X67269918Y-99093899D01*
X67270082Y-98906921D01*
X67198679Y-98734114D01*
X67139680Y-98675013D01*
X67198214Y-98616581D01*
X67269918Y-98443899D01*
X67270082Y-98256921D01*
X67198679Y-98084114D01*
X67139680Y-98025013D01*
X67198214Y-97966581D01*
X67269918Y-97793899D01*
X67270082Y-97606921D01*
X67267223Y-97600001D01*
X71606031Y-97600001D01*
X72151595Y-98145565D01*
M02*
