G04 #@! TF.FileFunction,Soldermask,Top*
%FSLAX46Y46*%
G04 Gerber Fmt 4.6, Leading zero omitted, Abs format (unit mm)*
G04 Created by KiCad (PCBNEW 4.0.2+dfsg1-stable) date Di 23 Mai 2017 03:16:38 CEST*
%MOMM*%
G01*
G04 APERTURE LIST*
%ADD10C,0.100000*%
%ADD11R,0.300000X1.000000*%
%ADD12R,2.000000X1.300000*%
%ADD13R,0.300000X0.400000*%
%ADD14R,0.400000X0.300000*%
%ADD15R,0.500000X0.500000*%
%ADD16R,0.800100X0.800100*%
%ADD17R,0.600000X0.500000*%
%ADD18R,0.400000X0.600000*%
%ADD19R,2.000000X2.000000*%
%ADD20O,0.750000X0.300000*%
%ADD21O,0.300000X0.750000*%
%ADD22R,0.900000X0.900000*%
%ADD23R,0.500000X0.600000*%
%ADD24R,0.800000X0.600000*%
%ADD25R,1.250000X1.000000*%
%ADD26R,0.600000X0.400000*%
%ADD27R,0.300000X0.730000*%
%ADD28R,0.730000X0.300000*%
%ADD29R,1.250000X1.250000*%
%ADD30R,0.900000X0.500000*%
%ADD31R,1.450000X0.450000*%
%ADD32R,0.500000X0.350000*%
%ADD33R,1.000000X1.250000*%
%ADD34R,0.650000X0.300000*%
%ADD35R,0.775000X1.240000*%
%ADD36R,0.350000X0.650000*%
%ADD37R,0.800000X1.000000*%
%ADD38R,0.797560X0.797560*%
%ADD39R,0.762000X2.540000*%
%ADD40R,0.889000X0.254000*%
%ADD41R,0.381000X0.444500*%
%ADD42R,1.500000X2.500000*%
%ADD43R,0.700000X0.250000*%
%ADD44R,0.610000X0.710000*%
%ADD45R,2.200000X1.050000*%
%ADD46R,1.050000X1.000000*%
%ADD47R,3.400000X0.980000*%
%ADD48R,0.250000X1.000000*%
%ADD49R,1.000000X0.250000*%
%ADD50R,2.032000X1.727200*%
%ADD51O,2.032000X1.727200*%
%ADD52R,5.000000X0.700000*%
G04 APERTURE END LIST*
D10*
D11*
X60250000Y-120700000D03*
X60750000Y-120700000D03*
X61250000Y-120700000D03*
X61750000Y-120700000D03*
X62250000Y-120700000D03*
X62750000Y-120700000D03*
X63250000Y-120700000D03*
X63750000Y-120700000D03*
X64250000Y-120700000D03*
X64750000Y-120700000D03*
X65250000Y-120700000D03*
X65750000Y-120700000D03*
X66250000Y-120700000D03*
X66750000Y-120700000D03*
X67250000Y-120700000D03*
X67750000Y-120700000D03*
X68250000Y-120700000D03*
X68750000Y-120700000D03*
X69250000Y-120700000D03*
X69750000Y-120700000D03*
X70250000Y-120700000D03*
X70750000Y-120700000D03*
X71250000Y-120700000D03*
X71750000Y-120700000D03*
D12*
X57950000Y-123400000D03*
X74050000Y-123400000D03*
D13*
X49200000Y-123050000D03*
X49850000Y-123050000D03*
X50500000Y-123050000D03*
X51150000Y-123050000D03*
X51800000Y-123050000D03*
X52450000Y-123050000D03*
X53100000Y-123050000D03*
X53750000Y-123050000D03*
X54400000Y-123050000D03*
D14*
X54950000Y-121850000D03*
X54950000Y-121200000D03*
X54950000Y-120550000D03*
X54950000Y-119900000D03*
X54950000Y-119250000D03*
X54950000Y-118600000D03*
X54950000Y-117950000D03*
X54950000Y-117300000D03*
D13*
X54400000Y-116750000D03*
D14*
X54950000Y-122500000D03*
D13*
X53750000Y-116750000D03*
X53100000Y-116750000D03*
X52450000Y-116750000D03*
X51800000Y-116750000D03*
X51150000Y-116750000D03*
X50500000Y-116750000D03*
X49850000Y-116750000D03*
X49200000Y-116750000D03*
D14*
X48650000Y-117300000D03*
X48650000Y-117950000D03*
X48650000Y-118600000D03*
X48650000Y-119250000D03*
X48650000Y-119900000D03*
X48650000Y-120550000D03*
X48650000Y-121200000D03*
X48650000Y-121850000D03*
X48650000Y-122500000D03*
D15*
X51800000Y-119900000D03*
X51800000Y-121200000D03*
X50500000Y-119900000D03*
X50500000Y-121200000D03*
X53100000Y-119900000D03*
X53100000Y-121200000D03*
X53100000Y-118600000D03*
D16*
X64599240Y-95750000D03*
X64599240Y-97650000D03*
X66598220Y-96700000D03*
D17*
X73150000Y-115100000D03*
X72050000Y-115100000D03*
D18*
X55000000Y-98550000D03*
X54100000Y-98550000D03*
D19*
X56550000Y-95800000D03*
X60750000Y-95800000D03*
D18*
X63500000Y-98850000D03*
X62600000Y-98850000D03*
D20*
X68625000Y-100550000D03*
X68625000Y-101050000D03*
X68625000Y-101550000D03*
X68625000Y-102050000D03*
D21*
X69350000Y-102775000D03*
X69850000Y-102775000D03*
X70350000Y-102775000D03*
X70850000Y-102775000D03*
D20*
X71575000Y-102050000D03*
X71575000Y-101550000D03*
X71575000Y-101050000D03*
X71575000Y-100550000D03*
D21*
X70850000Y-99825000D03*
X70350000Y-99825000D03*
X69850000Y-99825000D03*
X69350000Y-99825000D03*
D22*
X70550000Y-101750000D03*
X70550000Y-100850000D03*
X69650000Y-101750000D03*
X69650000Y-100850000D03*
D23*
X67400000Y-101050000D03*
X67400000Y-102150000D03*
D24*
X56800000Y-108200000D03*
X55600000Y-108200000D03*
X56800000Y-106400000D03*
X55600000Y-106400000D03*
D25*
X72400000Y-117250000D03*
X72400000Y-119250000D03*
D26*
X57800000Y-99350000D03*
X57800000Y-98450000D03*
D27*
X53250000Y-107385000D03*
X52750000Y-107385000D03*
X52250000Y-107385000D03*
X51750000Y-107385000D03*
X51250000Y-107385000D03*
D28*
X50285000Y-108350000D03*
X50285000Y-108850000D03*
X50285000Y-109350000D03*
X50285000Y-109850000D03*
X50285000Y-110350000D03*
D27*
X51250000Y-111315000D03*
X51750000Y-111315000D03*
X52250000Y-111315000D03*
X52750000Y-111315000D03*
X53250000Y-111315000D03*
D28*
X54215000Y-110350000D03*
X54215000Y-109850000D03*
X54215000Y-109350000D03*
X54215000Y-108850000D03*
X54215000Y-108350000D03*
D29*
X51625000Y-109975000D03*
X52875000Y-109975000D03*
X51625000Y-108725000D03*
X52875000Y-108725000D03*
D23*
X52650000Y-115250000D03*
X52650000Y-114150000D03*
D18*
X54350000Y-106250000D03*
X53450000Y-106250000D03*
D30*
X72600000Y-94750000D03*
X72600000Y-96250000D03*
D17*
X56900000Y-115300000D03*
X58000000Y-115300000D03*
D31*
X60350000Y-103775000D03*
X60350000Y-103125000D03*
X60350000Y-102475000D03*
X60350000Y-101825000D03*
X54450000Y-101825000D03*
X54450000Y-102475000D03*
X54450000Y-103125000D03*
X54450000Y-103775000D03*
D17*
X56400000Y-109400000D03*
X57500000Y-109400000D03*
D32*
X74025000Y-117725000D03*
X74025000Y-118375000D03*
X74025000Y-119025000D03*
X74025000Y-119675000D03*
X76075000Y-117725000D03*
X76075000Y-118375000D03*
X76075000Y-119025000D03*
X76075000Y-119675000D03*
D26*
X58050000Y-107250000D03*
X58050000Y-106350000D03*
D18*
X71950000Y-93700000D03*
X72850000Y-93700000D03*
D17*
X69850000Y-93700000D03*
X70950000Y-93700000D03*
D33*
X56450000Y-100000000D03*
X54450000Y-100000000D03*
D34*
X71050000Y-98200000D03*
X71050000Y-97700000D03*
X71050000Y-97200000D03*
X71050000Y-96700000D03*
X71050000Y-96200000D03*
X67950000Y-96200000D03*
X67950000Y-96700000D03*
X67950000Y-97200000D03*
X67950000Y-97700000D03*
X67950000Y-98200000D03*
D35*
X69112500Y-96580000D03*
X69112500Y-97820000D03*
X69887500Y-96580000D03*
X69887500Y-97820000D03*
D17*
X57800000Y-100400000D03*
X58900000Y-100400000D03*
D26*
X58900000Y-99350000D03*
X58900000Y-98450000D03*
D17*
X49050000Y-108400000D03*
X47950000Y-108400000D03*
X67250000Y-119300000D03*
X66150000Y-119300000D03*
D26*
X49200000Y-112250000D03*
X49200000Y-113150000D03*
D18*
X68250000Y-105150000D03*
X67350000Y-105150000D03*
D17*
X58050000Y-105150000D03*
X59150000Y-105150000D03*
D26*
X48100000Y-114450000D03*
X48100000Y-115350000D03*
X50300000Y-114450000D03*
X50300000Y-115350000D03*
X48100000Y-112250000D03*
X48100000Y-113150000D03*
D36*
X67400000Y-93650000D03*
X68050000Y-93650000D03*
X68700000Y-93650000D03*
X68700000Y-91550000D03*
X68050000Y-91550000D03*
X67400000Y-91550000D03*
D37*
X68450000Y-92600000D03*
X67650000Y-92600000D03*
D17*
X55300000Y-97500000D03*
X54200000Y-97500000D03*
D33*
X72500000Y-92100000D03*
X70500000Y-92100000D03*
D25*
X62950000Y-95500000D03*
X62950000Y-97500000D03*
D23*
X72800000Y-100650000D03*
X72800000Y-101750000D03*
D17*
X69150000Y-104000000D03*
X68050000Y-104000000D03*
X70650000Y-104000000D03*
X71750000Y-104000000D03*
D23*
X72800000Y-102850000D03*
X72800000Y-103950000D03*
D17*
X49050000Y-107400000D03*
X47950000Y-107400000D03*
X49050000Y-109400000D03*
X47950000Y-109400000D03*
D23*
X55400000Y-109450000D03*
X55400000Y-110550000D03*
D17*
X49050000Y-104000000D03*
X47950000Y-104000000D03*
D23*
X51750000Y-105050000D03*
X51750000Y-106150000D03*
X53650000Y-115250000D03*
X53650000Y-114150000D03*
D17*
X68350000Y-119300000D03*
X69450000Y-119300000D03*
X73150000Y-108500000D03*
X72050000Y-108500000D03*
X58950000Y-119300000D03*
X60050000Y-119300000D03*
X73150000Y-107500000D03*
X72050000Y-107500000D03*
X60650000Y-105150000D03*
X61750000Y-105150000D03*
X56450000Y-116300000D03*
X57550000Y-116300000D03*
D38*
X71150700Y-105150000D03*
X72649300Y-105150000D03*
X66249300Y-105150000D03*
X64750700Y-105150000D03*
X51500000Y-115149300D03*
X51500000Y-113650700D03*
D18*
X56800000Y-98550000D03*
X55900000Y-98550000D03*
D26*
X73150000Y-110450000D03*
X73150000Y-111350000D03*
X72050000Y-111350000D03*
X72050000Y-110450000D03*
D18*
X57900000Y-119450000D03*
X57000000Y-119450000D03*
X68850000Y-94800000D03*
X67950000Y-94800000D03*
D30*
X72600000Y-98700000D03*
X72600000Y-97200000D03*
D18*
X56150000Y-105150000D03*
X57050000Y-105150000D03*
D25*
X60400000Y-100100000D03*
X60400000Y-98100000D03*
D18*
X65900000Y-98850000D03*
X65000000Y-98850000D03*
X55250000Y-105150000D03*
X54350000Y-105150000D03*
D39*
X65770000Y-92900000D03*
X63230000Y-92900000D03*
D40*
X65452500Y-94297000D03*
X65452500Y-91503000D03*
X63547500Y-94297000D03*
X63547500Y-91503000D03*
D41*
X65198500Y-91852250D03*
X63801500Y-91852250D03*
X63801500Y-93947750D03*
X65198500Y-93947750D03*
D10*
G36*
X65897000Y-91376038D02*
X66150962Y-91630000D01*
X65897000Y-91883962D01*
X65643038Y-91630000D01*
X65897000Y-91376038D01*
X65897000Y-91376038D01*
G37*
G36*
X65897000Y-93916038D02*
X66150962Y-94170000D01*
X65897000Y-94423962D01*
X65643038Y-94170000D01*
X65897000Y-93916038D01*
X65897000Y-93916038D01*
G37*
G36*
X63103000Y-93916038D02*
X63356962Y-94170000D01*
X63103000Y-94423962D01*
X62849038Y-94170000D01*
X63103000Y-93916038D01*
X63103000Y-93916038D01*
G37*
G36*
X63103000Y-91376038D02*
X63356962Y-91630000D01*
X63103000Y-91883962D01*
X62849038Y-91630000D01*
X63103000Y-91376038D01*
X63103000Y-91376038D01*
G37*
G36*
X65389000Y-91693737D02*
X65769763Y-92074500D01*
X65389000Y-92455263D01*
X65008237Y-92074500D01*
X65389000Y-91693737D01*
X65389000Y-91693737D01*
G37*
G36*
X65389000Y-93344737D02*
X65769763Y-93725500D01*
X65389000Y-94106263D01*
X65008237Y-93725500D01*
X65389000Y-93344737D01*
X65389000Y-93344737D01*
G37*
G36*
X63611000Y-93344737D02*
X63991763Y-93725500D01*
X63611000Y-94106263D01*
X63230237Y-93725500D01*
X63611000Y-93344737D01*
X63611000Y-93344737D01*
G37*
G36*
X63611000Y-91693737D02*
X63991763Y-92074500D01*
X63611000Y-92455263D01*
X63230237Y-92074500D01*
X63611000Y-91693737D01*
X63611000Y-91693737D01*
G37*
D26*
X73150000Y-112750000D03*
X73150000Y-113650000D03*
X72050000Y-113650000D03*
X72050000Y-112750000D03*
D18*
X57000000Y-118350000D03*
X57900000Y-118350000D03*
X69150000Y-105150000D03*
X70050000Y-105150000D03*
X63650000Y-105150000D03*
X62750000Y-105150000D03*
X71050000Y-94800000D03*
X70150000Y-94800000D03*
D26*
X49200000Y-114450000D03*
X49200000Y-115350000D03*
X76100000Y-121650000D03*
X76100000Y-122550000D03*
D23*
X49350000Y-99650000D03*
X49350000Y-98550000D03*
D17*
X49300000Y-97500000D03*
X48200000Y-97500000D03*
D23*
X53550000Y-96050000D03*
X53550000Y-94950000D03*
D33*
X50200000Y-105400000D03*
X48200000Y-105400000D03*
D25*
X52150000Y-101700000D03*
X52150000Y-103700000D03*
X50750000Y-98100000D03*
X50750000Y-100100000D03*
X52150000Y-94500000D03*
X52150000Y-96500000D03*
D17*
X49300000Y-100700000D03*
X48200000Y-100700000D03*
D42*
X52150000Y-92350000D03*
D43*
X56725000Y-113945000D03*
X56725000Y-113445000D03*
X56725000Y-112945000D03*
X54875000Y-112945000D03*
X54875000Y-113445000D03*
X54875000Y-113945000D03*
D44*
X55800000Y-113090000D03*
X55800000Y-113800000D03*
D45*
X49000000Y-91925000D03*
X49000000Y-94875000D03*
D46*
X50525000Y-93400000D03*
D47*
X64036470Y-100869206D03*
X64036470Y-103239206D03*
D17*
X73150000Y-109500000D03*
X72050000Y-109500000D03*
X56450000Y-117300000D03*
X57550000Y-117300000D03*
X54700000Y-115300000D03*
X55800000Y-115300000D03*
D19*
X60750000Y-92600000D03*
X56550000Y-92600000D03*
D18*
X71950000Y-106400000D03*
X72850000Y-106400000D03*
D48*
X61250000Y-118000000D03*
X61750000Y-118000000D03*
X62250000Y-118000000D03*
X62750000Y-118000000D03*
X63250000Y-118000000D03*
X63750000Y-118000000D03*
X64250000Y-118000000D03*
X64750000Y-118000000D03*
X65250000Y-118000000D03*
X65750000Y-118000000D03*
X66250000Y-118000000D03*
X66750000Y-118000000D03*
X67250000Y-118000000D03*
X67750000Y-118000000D03*
X68250000Y-118000000D03*
X68750000Y-118000000D03*
D49*
X70700000Y-116050000D03*
X70700000Y-115550000D03*
X70700000Y-115050000D03*
X70700000Y-114550000D03*
X70700000Y-114050000D03*
X70700000Y-113550000D03*
X70700000Y-113050000D03*
X70700000Y-112550000D03*
X70700000Y-112050000D03*
X70700000Y-111550000D03*
X70700000Y-111050000D03*
X70700000Y-110550000D03*
X70700000Y-110050000D03*
X70700000Y-109550000D03*
X70700000Y-109050000D03*
X70700000Y-108550000D03*
D48*
X68750000Y-106600000D03*
X68250000Y-106600000D03*
X67750000Y-106600000D03*
X67250000Y-106600000D03*
X66750000Y-106600000D03*
X66250000Y-106600000D03*
X65750000Y-106600000D03*
X65250000Y-106600000D03*
X64750000Y-106600000D03*
X64250000Y-106600000D03*
X63750000Y-106600000D03*
X63250000Y-106600000D03*
X62750000Y-106600000D03*
X62250000Y-106600000D03*
X61750000Y-106600000D03*
X61250000Y-106600000D03*
D49*
X59300000Y-108550000D03*
X59300000Y-109050000D03*
X59300000Y-109550000D03*
X59300000Y-110050000D03*
X59300000Y-110550000D03*
X59300000Y-111050000D03*
X59300000Y-111550000D03*
X59300000Y-112050000D03*
X59300000Y-112550000D03*
X59300000Y-113050000D03*
X59300000Y-113550000D03*
X59300000Y-114050000D03*
X59300000Y-114550000D03*
X59300000Y-115050000D03*
X59300000Y-115550000D03*
X59300000Y-116050000D03*
D50*
X75100000Y-92700000D03*
D51*
X75100000Y-95240000D03*
X75100000Y-97780000D03*
X75100000Y-100320000D03*
X75100000Y-102860000D03*
X75100000Y-105400000D03*
X75100000Y-107940000D03*
X75100000Y-110480000D03*
X75100000Y-113020000D03*
X75100000Y-115560000D03*
D52*
X49750000Y-124050000D03*
M02*
