G04 #@! TF.FileFunction,Soldermask,Bot*
%FSLAX46Y46*%
G04 Gerber Fmt 4.6, Leading zero omitted, Abs format (unit mm)*
G04 Created by KiCad (PCBNEW 4.0.2+dfsg1-stable) date Di 04 Apr 2017 02:29:59 CEST*
%MOMM*%
G01*
G04 APERTURE LIST*
%ADD10C,0.100000*%
%ADD11C,0.200000*%
%ADD12R,6.000000X3.000000*%
%ADD13R,1.501140X2.700020*%
%ADD14R,0.800100X0.800100*%
%ADD15R,2.029460X1.140460*%
%ADD16R,3.000000X3.000000*%
%ADD17R,2.032000X2.032000*%
%ADD18O,2.032000X2.032000*%
%ADD19C,1.000000*%
%ADD20R,2.120000X2.500000*%
%ADD21R,0.850000X2.500000*%
%ADD22R,1.050000X2.200000*%
%ADD23R,1.000000X1.050000*%
%ADD24R,0.400000X1.350000*%
%ADD25R,2.100000X1.600000*%
%ADD26R,1.900000X1.900000*%
%ADD27R,1.800000X1.900000*%
%ADD28R,2.120000X2.280000*%
%ADD29R,0.850000X2.280000*%
G04 APERTURE END LIST*
D10*
D11*
X56820031Y-94287500D02*
G75*
G03X56820031Y-94287500I-100031J0D01*
G01*
X55580031Y-94287500D02*
G75*
G03X55580031Y-94287500I-100031J0D01*
G01*
X55580281Y-93512500D02*
G75*
G03X55580281Y-93512500I-100281J0D01*
G01*
X56820031Y-93512500D02*
G75*
G03X56820031Y-93512500I-100031J0D01*
G01*
X70650000Y-100950000D02*
G75*
G03X70650000Y-100950000I-100000J0D01*
G01*
X69750000Y-100950000D02*
G75*
G03X69750000Y-100950000I-100000J0D01*
G01*
X69750000Y-100050000D02*
G75*
G03X69750000Y-100050000I-100000J0D01*
G01*
X70650000Y-100050000D02*
G75*
G03X70650000Y-100050000I-100000J0D01*
G01*
X57700125Y-117555000D02*
G75*
G03X57700125Y-117555000I-100125J0D01*
G01*
X57700125Y-116845000D02*
G75*
G03X57700125Y-116845000I-100125J0D01*
G01*
X62900000Y-101900000D02*
G75*
G03X62900000Y-101900000I-100000J0D01*
G01*
X63700000Y-101900000D02*
G75*
G03X63700000Y-101900000I-100000J0D01*
G01*
X52975000Y-109975000D02*
G75*
G03X52975000Y-109975000I-100000J0D01*
G01*
X51725000Y-109975000D02*
G75*
G03X51725000Y-109975000I-100000J0D01*
G01*
X51725000Y-108725000D02*
G75*
G03X51725000Y-108725000I-100000J0D01*
G01*
X52975000Y-108725000D02*
G75*
G03X52975000Y-108725000I-100000J0D01*
G01*
D12*
X50400000Y-96600000D03*
X73600000Y-92700000D03*
D13*
X54100300Y-100000000D03*
X49299700Y-100000000D03*
D14*
X56500760Y-95650000D03*
X56500760Y-97550000D03*
X54501780Y-96600000D03*
D13*
X49299700Y-103200000D03*
X54100300Y-103200000D03*
D15*
X56300000Y-101603960D03*
X56300000Y-99196040D03*
D12*
X50400000Y-92700000D03*
D16*
X75100000Y-100100000D03*
D12*
X73600000Y-96600000D03*
D17*
X75100000Y-113060000D03*
D18*
X75100000Y-115600000D03*
D19*
X54100000Y-113000000D03*
X54100000Y-114200000D03*
X52500000Y-114200000D03*
X54900000Y-117800000D03*
X51200000Y-114200000D03*
X54900000Y-119000000D03*
X51200000Y-113000000D03*
X54900000Y-120200000D03*
X54900000Y-121400000D03*
X58500000Y-105700000D03*
X70950000Y-119550000D03*
X69700000Y-119550000D03*
X72300000Y-108900000D03*
X67300000Y-119550000D03*
X68500000Y-119550000D03*
D20*
X74840000Y-122150000D03*
D21*
X72935000Y-122150000D03*
X71665000Y-122150000D03*
X70395000Y-122150000D03*
X69125000Y-122150000D03*
X67855000Y-122150000D03*
X66585000Y-122150000D03*
X65315000Y-122150000D03*
X64045000Y-122150000D03*
X62775000Y-122150000D03*
X61505000Y-122150000D03*
X60235000Y-122150000D03*
D20*
X58330000Y-122150000D03*
D22*
X48125000Y-122075000D03*
X51075000Y-122075000D03*
D23*
X49600000Y-123600000D03*
D24*
X60700000Y-95050000D03*
X61350000Y-95050000D03*
X62000000Y-95050000D03*
X62650000Y-95050000D03*
X63300000Y-95050000D03*
D25*
X65100000Y-94925000D03*
X58900000Y-94925000D03*
D26*
X60800000Y-92375000D03*
X63200000Y-92375000D03*
D27*
X58000000Y-92375000D03*
X66000000Y-92375000D03*
D28*
X58330000Y-86741500D03*
X58330000Y-83058500D03*
D29*
X60235000Y-86741500D03*
X60235000Y-83058500D03*
X61505000Y-86741500D03*
X61505000Y-83058500D03*
X62775000Y-86741500D03*
X62775000Y-83058500D03*
X64045000Y-86741500D03*
X64045000Y-83058500D03*
X65315000Y-86741500D03*
X65315000Y-83058500D03*
X66585000Y-86741500D03*
X66585000Y-83058500D03*
X67855000Y-86741500D03*
X67855000Y-83058500D03*
X69125000Y-86741500D03*
X69125000Y-83058500D03*
X70395000Y-86741500D03*
X70395000Y-83058500D03*
X71665000Y-86741500D03*
X71665000Y-83058500D03*
X72935000Y-86741500D03*
X72935000Y-83058500D03*
D28*
X74840000Y-86741500D03*
X74840000Y-83058500D03*
M02*
