M48
;DRILL file {KiCad 4.0.2+dfsg1-stable} date Di 04 Apr 2017 02:30:01 CEST
;FORMAT={-:-/ absolute / inch / decimal}
FMAT,2
INCH,TZ
T1C0.008
T2C0.012
T3C0.016
T4C0.020
T5C0.079
%
G90
G05
M72
T1
X1.8819Y-4.6929
X1.8878Y-4.0669
X1.8878Y-4.1929
X1.8878Y-4.3268
X1.8937Y-3.811
X1.8937Y-3.8661
X1.8937Y-3.937
X1.8937Y-3.9921
X1.8937Y-4.4843
X1.937Y-4.4843
X1.9528Y-4.8661
X1.9626Y-4.8228
X1.9764Y-4.4134
X1.9803Y-4.5669
X1.9961Y-4.4134
X2.0138Y-4.6949
X2.0138Y-4.7461
X2.0177Y-4.4134
X2.0325Y-4.2805
X2.0325Y-4.3297
X2.0374Y-4.4134
X2.051Y-4.5637
X2.0571Y-4.4134
X2.065Y-4.6949
X2.065Y-4.7461
X2.0768Y-4.4134
X2.0817Y-4.2805
X2.0817Y-4.3297
X2.0906Y-4.563
X2.0906Y-4.8228
X2.0965Y-4.4134
X2.122Y-4.5315
X2.1339Y-4.1654
X2.1417Y-4.563
X2.1417Y-4.8228
X2.1457Y-3.8386
X2.1614Y-4.4311
X2.1634Y-4.5984
X2.1693Y-3.6063
X2.1772Y-3.9528
X2.1831Y-4.3996
X2.1843Y-3.6816
X2.1843Y-3.7121
X2.187Y-4.2185
X2.189Y-3.6063
X2.1929Y-4.0945
X2.1969Y-4.6575
X2.1969Y-4.6791
X2.1969Y-4.7146
X2.1969Y-4.75
X2.2087Y-3.6063
X2.2224Y-4.3996
X2.2283Y-3.6063
X2.2331Y-3.6816
X2.2331Y-3.7121
X2.248Y-4.5689
X2.2598Y-4.2638
X2.2618Y-3.9528
X2.2677Y-4.6002
X2.2677Y-4.6281
X2.2783Y-3.1732
X2.2783Y-3.1969
X2.2874Y-3.7913
X2.2874Y-3.815
X2.2965Y-3.2725
X2.2965Y-3.4125
X2.2965Y-4.8091
X2.302Y-3.2047
X2.3307Y-4.3031
X2.3346Y-4.1614
X2.3386Y-4.6535
X2.3445Y-4.4252
X2.3445Y-4.5551
X2.3445Y-4.5768
X2.3583Y-3.8524
X2.3583Y-3.9154
X2.3602Y-3.7913
X2.3622Y-4.7461
X2.3661Y-4.315
X2.3701Y-4.2933
X2.3715Y-3.2725
X2.378Y-4.5551
X2.3799Y-4.4016
X2.3799Y-4.5039
X2.3819Y-3.6535
X2.3858Y-4.7461
X2.3898Y-3.7913
X2.3927Y-4.2096
X2.3927Y-4.2608
X2.3927Y-4.2864
X2.3927Y-4.44
X2.3927Y-4.6063
X2.4004Y-3.3465
X2.4134Y-3.8465
X2.4134Y-4.7461
X2.4142Y-3.1772
X2.4161Y-3.4803
X2.4183Y-4.2352
X2.4183Y-4.2608
X2.4183Y-4.312
X2.4183Y-4.4144
X2.4183Y-4.44
X2.4183Y-4.5423
X2.4183Y-4.5679
X2.4183Y-4.6191
X2.4194Y-4.2085
X2.4215Y-3.4125
X2.4331Y-3.937
X2.437Y-3.8465
X2.4398Y-3.3425
X2.4409Y-4.7461
X2.4439Y-4.2608
X2.4439Y-4.312
X2.4439Y-4.3632
X2.4439Y-4.3888
X2.4439Y-4.44
X2.4439Y-4.4656
X2.4439Y-4.4911
X2.4439Y-4.5423
X2.4516Y-3.185
X2.4594Y-3.4803
X2.4634Y-3.3425
X2.4646Y-4.7461
X2.4695Y-3.6181
X2.4695Y-4.2096
X2.4695Y-4.3376
X2.4695Y-4.3632
X2.4695Y-4.3888
X2.4695Y-4.4144
X2.4695Y-4.4911
X2.4713Y-3.185
X2.4724Y-4.0118
X2.4882Y-4.7461
X2.4921Y-3.7835
X2.4951Y-4.2096
X2.4951Y-4.2352
X2.4951Y-4.2608
X2.4951Y-4.4144
X2.4951Y-4.44
X2.4951Y-4.5935
X2.4951Y-4.6142
X2.5039Y-4.0118
X2.5118Y-4.1929
X2.5118Y-4.7461
X2.5146Y-3.185
X2.5157Y-3.7835
X2.5207Y-4.2864
X2.5207Y-4.4144
X2.5207Y-4.44
X2.5207Y-4.4656
X2.5315Y-3.8228
X2.5315Y-3.8465
X2.5315Y-3.937
X2.5315Y-4.1929
X2.5354Y-4.7461
X2.5394Y-3.7835
X2.5433Y-3.6654
X2.5463Y-4.2096
X2.5463Y-4.2608
X2.5463Y-4.3376
X2.5463Y-4.3632
X2.5463Y-4.4144
X2.5463Y-4.44
X2.5463Y-4.4656
X2.5463Y-4.5679
X2.5472Y-4.6437
X2.5472Y-4.6831
X2.5551Y-3.8189
X2.5551Y-4.0945
X2.5591Y-4.7461
X2.5618Y-3.3425
X2.563Y-3.7165
X2.5669Y-3.937
X2.5697Y-3.185
X2.5719Y-4.2096
X2.5719Y-4.2352
X2.5719Y-4.2608
X2.5719Y-4.2864
X2.5719Y-4.3376
X2.5719Y-4.3632
X2.5719Y-4.4144
X2.5719Y-4.44
X2.5719Y-4.4656
X2.5719Y-4.5167
X2.5719Y-4.5423
X2.5719Y-4.5935
X2.5827Y-3.5
X2.5854Y-3.3425
X2.5974Y-4.2096
X2.5974Y-4.2608
X2.5974Y-4.2864
X2.5974Y-4.3376
X2.5974Y-4.3632
X2.5974Y-4.4144
X2.5974Y-4.44
X2.5974Y-4.4656
X2.5974Y-4.5167
X2.5974Y-4.5423
X2.5974Y-4.6191
X2.5984Y-3.6457
X2.6004Y-4.7126
X2.6051Y-3.185
X2.6091Y-3.3425
X2.6102Y-3.5
X2.6102Y-4.0945
X2.623Y-4.2096
X2.623Y-4.3376
X2.623Y-4.3632
X2.623Y-4.4144
X2.623Y-4.44
X2.623Y-4.4656
X2.623Y-4.5167
X2.623Y-4.5423
X2.623Y-4.5679
X2.6327Y-3.3425
X2.6366Y-3.5
X2.6417Y-3.8189
X2.6417Y-3.8504
X2.6457Y-4.7461
X2.6476Y-4.6043
X2.6486Y-4.2352
X2.6486Y-4.3376
X2.6486Y-4.3632
X2.6486Y-4.5167
X2.6486Y-4.5423
X2.6486Y-4.5679
X2.6496Y-3.6457
X2.6693Y-4.7461
X2.672Y-3.3425
X2.672Y-3.5
X2.6732Y-3.9567
X2.6742Y-4.2352
X2.6742Y-4.5167
X2.6742Y-4.5423
X2.6742Y-4.5935
X2.676Y-3.185
X2.6811Y-3.8917
X2.6811Y-4.0157
X2.6929Y-3.6772
X2.6929Y-4.7461
X2.6957Y-3.5
X2.6996Y-3.185
X2.6998Y-4.2608
X2.6998Y-4.2864
X2.6998Y-4.3376
X2.6998Y-4.3632
X2.6998Y-4.4144
X2.6998Y-4.44
X2.6998Y-4.5679
X2.7047Y-3.8976
X2.7165Y-4.7461
X2.7185Y-3.815
X2.7185Y-3.8346
X2.7185Y-3.8543
X2.7232Y-3.185
X2.7232Y-3.5
X2.7254Y-4.2096
X2.7254Y-4.4144
X2.7254Y-4.4656
X2.7254Y-4.5423
X2.7283Y-4.063
X2.7421Y-3.939
X2.7421Y-3.9744
X2.7469Y-3.185
X2.751Y-4.2096
X2.751Y-4.2864
X2.751Y-4.312
X2.751Y-4.3632
X2.751Y-4.4144
X2.751Y-4.44
X2.751Y-4.5679
X2.751Y-4.6063
X2.752Y-4.6358
X2.7559Y-4.063
X2.7705Y-3.5
X2.7717Y-4.7461
X2.7766Y-4.5423
X2.7766Y-4.6063
X2.7776Y-3.939
X2.7776Y-3.9744
X2.7783Y-3.3425
X2.7894Y-4.4656
X2.7894Y-4.5807
X2.7953Y-4.7461
X2.7992Y-4.2441
X2.7992Y-4.2874
X2.7992Y-4.374
X2.802Y-3.3425
X2.8215Y-3.2725
X2.8215Y-3.4125
X2.8228Y-4.0197
X2.8327Y-3.878
X2.8465Y-3.9646
X2.8504Y-4.1102
X2.8661Y-3.9843
X2.8661Y-4.0886
X2.8689Y-3.4764
X2.8715Y-3.2725
X2.8728Y-3.3425
X2.8858Y-4.3307
X2.8878Y-4.6181
X2.8878Y-4.6417
X2.8878Y-4.7244
X2.8878Y-4.7461
X2.8957Y-4.1752
X2.8957Y-4.2047
X2.8957Y-4.2441
X2.8957Y-4.3543
X2.8957Y-4.374
X2.8957Y-4.4252
X2.8957Y-4.4606
X2.8957Y-4.4803
X2.8957Y-4.5197
X2.8957Y-4.5394
X2.8957Y-4.563
X2.8976Y-4.0315
X2.9094Y-4.0984
X2.9173Y-4.2992
X2.9465Y-3.2725
X2.9465Y-3.4125
X2.9465Y-4.8091
T2
X2.7441Y-4.7421
X2.8268Y-4.7402
T3
X1.9803Y-4.4705
X2.185Y-3.8071
X2.2598Y-4.0945
X2.2598Y-4.4567
X2.3228Y-3.9213
X2.7008Y-3.752
X2.9016Y-3.8937
T4
X2.7323Y-3.6102
X2.8937Y-3.7913
T5
X2.0531Y-3.2165
X2.0531Y-3.3346
X2.0531Y-3.4528
T0
M30
