G04 #@! TF.FileFunction,Profile,NP*
%FSLAX46Y46*%
G04 Gerber Fmt 4.6, Leading zero omitted, Abs format (unit mm)*
G04 Created by KiCad (PCBNEW 4.0.2+dfsg1-stable) date Di 04 Apr 2017 02:29:59 CEST*
%MOMM*%
G01*
G04 APERTURE LIST*
%ADD10C,0.100000*%
G04 APERTURE END LIST*
D10*
X59330000Y-89300000D02*
X64670000Y-89300000D01*
X58830000Y-90400000D02*
X58830000Y-89800000D01*
X59330000Y-89300000D02*
G75*
G03X58830000Y-89800000I0J-500000D01*
G01*
X65170000Y-89900000D02*
X65170000Y-89800000D01*
X65170000Y-89800000D02*
G75*
G03X64670000Y-89300000I-500000J0D01*
G01*
X65170000Y-89900000D02*
X73840000Y-89900000D01*
X53950000Y-81700000D02*
X53950000Y-90400000D01*
X50350000Y-90400000D02*
X50350000Y-81700000D01*
X47100000Y-90900000D02*
X49850000Y-90900000D01*
X57270000Y-90900000D02*
X54450000Y-90900000D01*
X49850000Y-90900000D02*
G75*
G03X50350000Y-90400000I0J500000D01*
G01*
X53950000Y-90400000D02*
G75*
G03X54450000Y-90900000I500000J0D01*
G01*
X59390000Y-124600000D02*
X47100000Y-124600000D01*
X73780000Y-124600000D02*
X76900000Y-124600000D01*
X75900000Y-90900000D02*
X76900000Y-90900000D01*
X59390000Y-90900000D02*
X73780000Y-90900000D01*
X53950000Y-81700000D02*
G75*
G03X50350000Y-81700000I-1800000J0D01*
G01*
X47100000Y-124600000D02*
X47100000Y-90900000D01*
X59390000Y-124600000D02*
X59390000Y-124100000D01*
X73280000Y-123600000D02*
X59890000Y-123600000D01*
X73780000Y-124600000D02*
X73780000Y-124100000D01*
X59890000Y-123600000D02*
G75*
G03X59390000Y-124100000I0J-500000D01*
G01*
X73780000Y-124100000D02*
G75*
G03X73280000Y-123600000I-500000J0D01*
G01*
X73980000Y-85400000D02*
X76900000Y-85400000D01*
X73980000Y-84400000D02*
X76900000Y-84400000D01*
X59190000Y-84400000D02*
X56270000Y-84400000D01*
X59190000Y-85400000D02*
X56270000Y-85400000D01*
X73980000Y-84400000D02*
G75*
G03X73980000Y-85400000I0J-500000D01*
G01*
X59190000Y-85400000D02*
G75*
G03X59190000Y-84400000I0J500000D01*
G01*
X56270000Y-85400000D02*
X56270000Y-89900000D01*
X56270000Y-84400000D02*
X56270000Y-79900000D01*
X76900000Y-84400000D02*
X76900000Y-79900000D01*
X76900000Y-89900000D02*
X76900000Y-85400000D01*
X76900000Y-90900000D02*
X76900000Y-124600000D01*
X56270000Y-79900000D02*
X76900000Y-79900000D01*
X57330000Y-89900000D02*
X56270000Y-89900000D01*
X75840000Y-89900000D02*
X76900000Y-89900000D01*
X75840000Y-89900000D02*
G75*
G03X75840000Y-90900000I0J-500000D01*
G01*
X59390000Y-90900000D02*
X59330000Y-90900000D01*
X57270000Y-90900000D02*
X57330000Y-90900000D01*
X57330000Y-90900000D02*
G75*
G03X57330000Y-89900000I0J500000D01*
G01*
X58830000Y-90400000D02*
G75*
G03X59330000Y-90900000I500000J0D01*
G01*
X73780000Y-90900000D02*
X73850000Y-90900000D01*
X75900000Y-90900000D02*
X75840000Y-90900000D01*
X73840000Y-90900000D02*
G75*
G03X73840000Y-89900000I0J500000D01*
G01*
M02*
