G04 #@! TF.FileFunction,Copper,L3,Inr,Signal*
%FSLAX46Y46*%
G04 Gerber Fmt 4.6, Leading zero omitted, Abs format (unit mm)*
G04 Created by KiCad (PCBNEW 4.0.2+dfsg1-stable) date Di 04 Apr 2017 02:29:59 CEST*
%MOMM*%
G01*
G04 APERTURE LIST*
%ADD10C,0.100000*%
%ADD11C,0.400000*%
%ADD12C,0.800000*%
%ADD13C,0.600000*%
%ADD14C,1.000000*%
%ADD15C,0.700000*%
%ADD16C,0.200000*%
%ADD17C,0.800000*%
%ADD18C,0.400000*%
%ADD19C,0.500000*%
%ADD20C,0.600000*%
%ADD21C,1.000000*%
%ADD22C,0.140000*%
G04 APERTURE END LIST*
D10*
D11*
X73550000Y-111100000D03*
X73350000Y-120550000D03*
X57400000Y-108300000D03*
X58470000Y-81400000D03*
X73550000Y-114799997D03*
X71100000Y-107800000D03*
X73300000Y-110000000D03*
X67925000Y-115375000D03*
X67275000Y-115375000D03*
X66625000Y-115375000D03*
X65975000Y-115375000D03*
X65325000Y-115375000D03*
X65975000Y-106925000D03*
X64675000Y-108225000D03*
X65325000Y-108225000D03*
X65975000Y-108225000D03*
X62725000Y-110825000D03*
X62075000Y-110825000D03*
X62075000Y-111475000D03*
X62725000Y-112125000D03*
X68575000Y-110825000D03*
X68575000Y-112125000D03*
X70850000Y-113425000D03*
X69225000Y-113425000D03*
X68575000Y-112775000D03*
X70525000Y-115375000D03*
X65975000Y-117325000D03*
X54900000Y-112550000D03*
X53100000Y-115900000D03*
X65200000Y-100000000D03*
D12*
X57400000Y-113200000D03*
X50300000Y-113550000D03*
X57400000Y-104000000D03*
D11*
X72970000Y-84900000D03*
X74840000Y-86678000D03*
X74840000Y-83122000D03*
X58330000Y-86678000D03*
X58330000Y-83122000D03*
X74840000Y-122150000D03*
X58330000Y-122150000D03*
X54200000Y-105800000D03*
X58100000Y-96900000D03*
X65100000Y-94400000D03*
X60500000Y-92800000D03*
X62725000Y-91900000D03*
X66000000Y-92600000D03*
X68100000Y-98850000D03*
X67100000Y-97800000D03*
X67100000Y-97000000D03*
X53900000Y-115100000D03*
X57600000Y-116845000D03*
X57600000Y-117555000D03*
X48100000Y-96800000D03*
X48100000Y-100000000D03*
X48100000Y-98200000D03*
X48100000Y-101400000D03*
X49850000Y-122500000D03*
X63300000Y-96100000D03*
X54950000Y-116800000D03*
X47950000Y-103300000D03*
X61800000Y-100000000D03*
X55450000Y-111750000D03*
X59200000Y-109300000D03*
X57100000Y-116049990D03*
X59550000Y-115700000D03*
X63375000Y-108225000D03*
X67870000Y-84900000D03*
X66970000Y-88900000D03*
X65670000Y-84900000D03*
X61320000Y-80700000D03*
X73350000Y-117300000D03*
X69900000Y-117750000D03*
X66050000Y-119700000D03*
X73600000Y-102400000D03*
X72800000Y-101200000D03*
X62725000Y-111475000D03*
X62725000Y-110175000D03*
X64675000Y-110175000D03*
X64675000Y-110825000D03*
X65325000Y-110825000D03*
X65325000Y-110175000D03*
X65975000Y-110175000D03*
X65975000Y-110825000D03*
X66625000Y-110825000D03*
X66625000Y-110175000D03*
X67275000Y-110175000D03*
X67275000Y-110825000D03*
X63600000Y-101900000D03*
X62800000Y-101900000D03*
X52875000Y-108725000D03*
X52875000Y-109975000D03*
X51625000Y-109975000D03*
X51625000Y-108725000D03*
X47950000Y-109900000D03*
X47950000Y-106500000D03*
X57450000Y-100400000D03*
X55300000Y-100400000D03*
X66300000Y-104000000D03*
X72800000Y-103850000D03*
X65325000Y-114725000D03*
X65975000Y-114725000D03*
X66625000Y-114725000D03*
X67925000Y-114725000D03*
X69875000Y-108875000D03*
X69875000Y-109525000D03*
X65975000Y-108875000D03*
X65325000Y-108875000D03*
X63375000Y-112125000D03*
X63375000Y-112775000D03*
X66625000Y-112775000D03*
X66625000Y-112125000D03*
X65975000Y-112125000D03*
X65975000Y-112775000D03*
X65325000Y-112775000D03*
X65325000Y-112125000D03*
X64675000Y-112125000D03*
X64675000Y-112775000D03*
X64025000Y-112125000D03*
X64025000Y-112775000D03*
X64025000Y-113425000D03*
X64675000Y-113425000D03*
X65325000Y-113425000D03*
X65975000Y-113425000D03*
X66625000Y-113425000D03*
X68575000Y-110175000D03*
X69225000Y-112125000D03*
X69875000Y-112775000D03*
X73550000Y-113300000D03*
X73550000Y-115300000D03*
X64700000Y-118950000D03*
X51150000Y-119250000D03*
X52450000Y-119250000D03*
X52450000Y-120550000D03*
X51150000Y-120550000D03*
X53100000Y-122500000D03*
X54400000Y-122500000D03*
X55480000Y-94287500D03*
X55480000Y-93512500D03*
X56720000Y-93512500D03*
X56720000Y-94287500D03*
X73550000Y-107800000D03*
X69650000Y-100050000D03*
X70550000Y-100050000D03*
X70550000Y-100950000D03*
X69650000Y-100950000D03*
X68100000Y-102000000D03*
X73550000Y-106800000D03*
X71100000Y-108900000D03*
X60100000Y-109600000D03*
X67925000Y-107575000D03*
D12*
X68600000Y-95300000D03*
D11*
X63900000Y-96100000D03*
D12*
X73700000Y-98900000D03*
D11*
X69050000Y-97900000D03*
X69050000Y-97400000D03*
X69050000Y-96900000D03*
D12*
X55500000Y-96700000D03*
D11*
X56600000Y-91600000D03*
X55100000Y-91600000D03*
X59300000Y-105700000D03*
X72400000Y-104400000D03*
X69300000Y-103200000D03*
X70000010Y-103200000D03*
D13*
X71800000Y-120400000D03*
X69700000Y-120450000D03*
D11*
X71700000Y-102100000D03*
X60200000Y-109050000D03*
X62075000Y-109525000D03*
X69875000Y-112125000D03*
X56450000Y-111750000D03*
X61425000Y-109525000D03*
X55550000Y-107150000D03*
X61425000Y-107575000D03*
X50200000Y-112100000D03*
X61425000Y-108225000D03*
X60775000Y-108225000D03*
X50700000Y-112100000D03*
X60775000Y-108875000D03*
X51250000Y-112100000D03*
X62075000Y-114075000D03*
X51750000Y-112100000D03*
X61425000Y-115375000D03*
X52250000Y-112100000D03*
X62075000Y-115375000D03*
X52750000Y-112100000D03*
X60450000Y-114400000D03*
X53250000Y-112100000D03*
X67800000Y-120550000D03*
X56100000Y-91600000D03*
X68575000Y-116025000D03*
X48100000Y-113900000D03*
X73350000Y-117900000D03*
X73350000Y-120000000D03*
X70850000Y-116350000D03*
X69225000Y-115375000D03*
X64400000Y-120550000D03*
X69875000Y-116025000D03*
X69000000Y-120550000D03*
X73550000Y-110600000D03*
X69875000Y-110825000D03*
X71950000Y-98500000D03*
X69875000Y-106925000D03*
X67275000Y-107575000D03*
X64300000Y-97700000D03*
X63200000Y-120550000D03*
X68575000Y-108225000D03*
X62725000Y-114075000D03*
X55800000Y-118300000D03*
X63375000Y-116675000D03*
X55800000Y-118850000D03*
X68400000Y-120550000D03*
X68575000Y-108875000D03*
X73900000Y-104100000D03*
X62725000Y-106925000D03*
X73550000Y-106050000D03*
X63375000Y-106925000D03*
X63800000Y-106500020D03*
X63375000Y-107575000D03*
X65325000Y-107575000D03*
X64300000Y-106500020D03*
X49200000Y-113900000D03*
X67200000Y-120550000D03*
X55600000Y-91600000D03*
X67925000Y-116675000D03*
X74100000Y-109200000D03*
X64675000Y-116025000D03*
X73550000Y-115900000D03*
X61425000Y-117325000D03*
X73550000Y-112400000D03*
X60775000Y-117000000D03*
X61300000Y-120550000D03*
X61425000Y-112775000D03*
X60600000Y-120550000D03*
X60775000Y-112775000D03*
X60450000Y-111800000D03*
X62600000Y-120550000D03*
X61425000Y-112125000D03*
X60000000Y-120550000D03*
X62000000Y-120550000D03*
X62075000Y-112775000D03*
X66625000Y-116025000D03*
X63800000Y-120550000D03*
X65000000Y-120550000D03*
X67250000Y-116950000D03*
X67275000Y-116025000D03*
X54500000Y-97500000D03*
D14*
X69400000Y-91700000D03*
D15*
X59000000Y-99600000D03*
D11*
X47800000Y-119200000D03*
X50300000Y-116000000D03*
X63375000Y-117200000D03*
X71000000Y-120550000D03*
X70525000Y-117000000D03*
X68700000Y-99000000D03*
X71100000Y-111100000D03*
X59549989Y-112400000D03*
X62075000Y-113425000D03*
X64675000Y-106925000D03*
X64025000Y-108875000D03*
X49600000Y-123600000D03*
X60400000Y-115700000D03*
X55800000Y-120650000D03*
X65325000Y-116675000D03*
X55800000Y-119750000D03*
X61453555Y-106896445D03*
X61300000Y-97700000D03*
X60775000Y-106925000D03*
X61900000Y-97700000D03*
X58100000Y-96300000D03*
X59950000Y-96300000D03*
X65325000Y-106925000D03*
X59900000Y-99450000D03*
X64500000Y-96100000D03*
X67300000Y-92600000D03*
X69225000Y-106925000D03*
X59550000Y-116250000D03*
X61425000Y-116025000D03*
X64700000Y-117950000D03*
X67275000Y-114725000D03*
X73550000Y-113800000D03*
X64300000Y-97100000D03*
X64900000Y-104000000D03*
X66625000Y-106925000D03*
X55700000Y-104000000D03*
X62075000Y-108225000D03*
X64600000Y-93100000D03*
X60700000Y-96300000D03*
D14*
X73500000Y-96300000D03*
D11*
X70400000Y-120550000D03*
X69875000Y-117000000D03*
X60235000Y-83122000D03*
X61505000Y-86678000D03*
X71170000Y-84900000D03*
X60970000Y-85000000D03*
X62470000Y-88400000D03*
X69770000Y-80900000D03*
X65070000Y-84900000D03*
X62570000Y-84900000D03*
X66300000Y-88900000D03*
X66270000Y-84900000D03*
X57870000Y-81200000D03*
X70570000Y-84900000D03*
X57870000Y-80600000D03*
X66870000Y-84900000D03*
X67870000Y-88900000D03*
X69170000Y-88900000D03*
X65270000Y-80900000D03*
X63870000Y-80900000D03*
X67970000Y-80900000D03*
X62770000Y-80900000D03*
X69170000Y-80900000D03*
X70370000Y-88900000D03*
X68570000Y-80900000D03*
X71665000Y-86678000D03*
X61970000Y-84900000D03*
X66170000Y-80900000D03*
X71665000Y-83122000D03*
X72870000Y-88300000D03*
X72935000Y-83122000D03*
X65600000Y-88900000D03*
X62270000Y-80900000D03*
X68470000Y-88900000D03*
X61370000Y-88400000D03*
X52094836Y-115917214D03*
X54400000Y-115900000D03*
X59400000Y-118200000D03*
X59900000Y-97850000D03*
X68400000Y-93400000D03*
X64900000Y-97000000D03*
X72300000Y-100700000D03*
X64300000Y-100000000D03*
X67900000Y-100500000D03*
D16*
X73350000Y-120550000D02*
X73466002Y-120550000D01*
X73466002Y-120550000D02*
X73800001Y-120216001D01*
X73800001Y-120216001D02*
X73800001Y-116316001D01*
X73715999Y-114799997D02*
X73550000Y-114799997D01*
X73800001Y-116316001D02*
X74000001Y-116116001D01*
X74000001Y-116116001D02*
X74000001Y-115083999D01*
X74000001Y-115083999D02*
X73715999Y-114799997D01*
D17*
X50300000Y-113550000D02*
X53100000Y-113550000D01*
D16*
X53100000Y-115900000D02*
X53100000Y-113550000D01*
D17*
X53100000Y-113550000D02*
X54900000Y-113550000D01*
D16*
X54900000Y-112550000D02*
X54900000Y-113550000D01*
D17*
X54900000Y-113550000D02*
X57050000Y-113550000D01*
X57050000Y-113550000D02*
X57400000Y-113200000D01*
D18*
X67275000Y-115375000D02*
X67925000Y-115375000D01*
X66625000Y-115375000D02*
X67275000Y-115375000D01*
X65975000Y-115375000D02*
X66625000Y-115375000D01*
X65325000Y-115375000D02*
X65975000Y-115375000D01*
D17*
X57400000Y-104600000D02*
X57400000Y-104000000D01*
X57400000Y-112350000D02*
X57400000Y-113200000D01*
X57400000Y-104600000D02*
X57400000Y-108300000D01*
X57400000Y-108300000D02*
X57400000Y-112350000D01*
D19*
X70525000Y-115375000D02*
X70525000Y-114725000D01*
X70525000Y-114725000D02*
X69225000Y-113425000D01*
D20*
X62725000Y-110825000D02*
X63075000Y-110825000D01*
X63075000Y-110825000D02*
X63375000Y-110525000D01*
X63375000Y-110525000D02*
X64675000Y-109225000D01*
X62725000Y-110825000D02*
X62075000Y-110825000D01*
D19*
X68575000Y-112775000D02*
X68575000Y-112125000D01*
X69225000Y-113425000D02*
X68575000Y-112775000D01*
D20*
X64675000Y-109225000D02*
X64675000Y-108875000D01*
D19*
X68575000Y-110825000D02*
X68575000Y-112125000D01*
D18*
X65975000Y-117325000D02*
X65975000Y-115375000D01*
D20*
X64675000Y-108875000D02*
X64675000Y-108225000D01*
X65975000Y-108225000D02*
X65975000Y-106925000D01*
X65975000Y-108225000D02*
X65325000Y-108225000D01*
X64675000Y-108225000D02*
X65325000Y-108225000D01*
D16*
X59300000Y-105700000D02*
X59300000Y-104500000D01*
X59300000Y-104500000D02*
X57000020Y-102200020D01*
X57150708Y-93250000D02*
X56600000Y-92699292D01*
X57000020Y-102200020D02*
X57000020Y-102200000D01*
X57000020Y-102200000D02*
X57000000Y-94750708D01*
X57000000Y-94750708D02*
X57150708Y-94600000D01*
X56600000Y-92699292D02*
X56600000Y-91600000D01*
X57150708Y-94600000D02*
X57150708Y-93250000D01*
D20*
X71800000Y-107600000D02*
X71800000Y-120400000D01*
X70000010Y-103200000D02*
X70000000Y-105800000D01*
X70000000Y-105800000D02*
X71800000Y-107600000D01*
X70000000Y-103200000D02*
X70000010Y-103200000D01*
X72600000Y-107209467D02*
X72600000Y-120700000D01*
X69700000Y-120450000D02*
X69700000Y-120812002D01*
X69700000Y-120812002D02*
X70087999Y-121200001D01*
X70087999Y-121200001D02*
X72099999Y-121200001D01*
X72099999Y-121200001D02*
X72600000Y-120700000D01*
X71700000Y-102100000D02*
X71700000Y-106309467D01*
X71700000Y-106309467D02*
X72600000Y-107209467D01*
D16*
X62075000Y-109525000D02*
X61825001Y-109275001D01*
X61825001Y-109275001D02*
X61775001Y-109275001D01*
X61775001Y-109275001D02*
X61600000Y-109100000D01*
X61600000Y-109100000D02*
X61216002Y-109100000D01*
X61216002Y-109100000D02*
X61041001Y-109275001D01*
X61041001Y-109275001D02*
X60425001Y-109275001D01*
X60425001Y-109275001D02*
X60200000Y-109050000D01*
X67800000Y-120550000D02*
X67800000Y-120350000D01*
X56100000Y-91600000D02*
X56100000Y-92900000D01*
X56100000Y-92900000D02*
X56300000Y-93100000D01*
X56300000Y-93100000D02*
X56300000Y-94705012D01*
X56300000Y-94705012D02*
X56650010Y-95055022D01*
X49649999Y-113144986D02*
X49649999Y-113862001D01*
X56650010Y-95055022D02*
X56650010Y-109444978D01*
X56650010Y-109444978D02*
X54050010Y-112044978D01*
X54050010Y-112044978D02*
X54050010Y-112460980D01*
X54050010Y-112460980D02*
X53610979Y-112900011D01*
X53610979Y-112900011D02*
X49894975Y-112900011D01*
X49894975Y-112900011D02*
X49649999Y-113144986D01*
X67800000Y-120350000D02*
X68275010Y-119874990D01*
X68275010Y-119874990D02*
X68275010Y-116990992D01*
X68275010Y-116990992D02*
X68575000Y-116691002D01*
X68575000Y-116691002D02*
X68575000Y-116025000D01*
X49650001Y-113862003D02*
X49650001Y-114116001D01*
X49650001Y-114116001D02*
X49416001Y-114350001D01*
X48550001Y-114350001D02*
X48100000Y-113900000D01*
X49416001Y-114350001D02*
X48550001Y-114350001D01*
X73350000Y-117900000D02*
X73350000Y-120000000D01*
X64400000Y-120550000D02*
X64400000Y-120031398D01*
X66950000Y-116500000D02*
X67450000Y-116500000D01*
X67450000Y-116500000D02*
X68375001Y-115574999D01*
X64400000Y-120031398D02*
X66800000Y-117631398D01*
X66800000Y-117631398D02*
X66800000Y-116650000D01*
X66800000Y-116650000D02*
X66950000Y-116500000D01*
X68375001Y-115574999D02*
X69025001Y-115574999D01*
X69025001Y-115574999D02*
X69225000Y-115375000D01*
X69000000Y-120550000D02*
X69000000Y-117200000D01*
X69000000Y-117200000D02*
X69875000Y-116325000D01*
X69875000Y-116325000D02*
X69875000Y-116025000D01*
X69875000Y-106925000D02*
X69350000Y-106400000D01*
X69350000Y-106400000D02*
X69350000Y-104378046D01*
X69350000Y-104378046D02*
X68899999Y-103928045D01*
X68899999Y-103928045D02*
X68899999Y-102931979D01*
X68899999Y-102931979D02*
X70100000Y-101731978D01*
X70100000Y-101731978D02*
X70100000Y-99800000D01*
X70100000Y-99800000D02*
X71400000Y-98500000D01*
X71400000Y-98500000D02*
X71950000Y-98500000D01*
X64300000Y-97700000D02*
X64300000Y-99333998D01*
X64300000Y-99333998D02*
X64750000Y-99783998D01*
X64750000Y-99783998D02*
X64750000Y-100621014D01*
X64750000Y-100621014D02*
X65250010Y-101121024D01*
X65250010Y-101121024D02*
X65250010Y-103650010D01*
X65400000Y-105000000D02*
X67275000Y-106875000D01*
X65250010Y-103650010D02*
X65400000Y-103800000D01*
X65400000Y-103800000D02*
X65400000Y-105000000D01*
X67275000Y-106875000D02*
X67275000Y-107575000D01*
X63200000Y-120550000D02*
X63200000Y-119874940D01*
X63625019Y-118110971D02*
X64250000Y-117485990D01*
X63200000Y-119874940D02*
X63625019Y-119449921D01*
X63625019Y-119449921D02*
X63625019Y-118110971D01*
X64250000Y-117485990D02*
X64250000Y-114500000D01*
X64250000Y-114500000D02*
X64850000Y-113900000D01*
X64850000Y-113900000D02*
X66816002Y-113900000D01*
X66816002Y-113900000D02*
X67724980Y-112991022D01*
X67724980Y-112991022D02*
X67724980Y-109075020D01*
X67724980Y-109075020D02*
X68575000Y-108225000D01*
X68400000Y-120550000D02*
X68400000Y-120300000D01*
X68400000Y-120300000D02*
X68649990Y-120050010D01*
X68649990Y-120050010D02*
X68649990Y-117055022D01*
X68649990Y-117055022D02*
X69424999Y-116280013D01*
X68074990Y-109375010D02*
X68575000Y-108875000D01*
X69424999Y-116280013D02*
X69424999Y-115825001D01*
X69700000Y-115550000D02*
X69700000Y-114607120D01*
X69424999Y-115825001D02*
X69700000Y-115550000D01*
X69700000Y-114607120D02*
X68074990Y-112982110D01*
X68074990Y-112982110D02*
X68074990Y-109375010D01*
X67200000Y-120550000D02*
X67200000Y-120455012D01*
X67200000Y-120455012D02*
X67925000Y-119730012D01*
X67925000Y-119730012D02*
X67925000Y-116675000D01*
X49200000Y-113900000D02*
X49200000Y-113099998D01*
X53700000Y-112242002D02*
X53700000Y-111900000D01*
X49200000Y-113099998D02*
X49749999Y-112550001D01*
X49749999Y-112550001D02*
X53392001Y-112550001D01*
X53392001Y-112550001D02*
X53700000Y-112242002D01*
X55900000Y-94800000D02*
X55900000Y-93300000D01*
X53700000Y-111900000D02*
X56300000Y-109300000D01*
X56300000Y-109300000D02*
X56300000Y-95200000D01*
X55900000Y-93300000D02*
X55600000Y-93000000D01*
X56300000Y-95200000D02*
X55900000Y-94800000D01*
X55600000Y-93000000D02*
X55600000Y-91600000D01*
X61300000Y-120550000D02*
X61300000Y-120289976D01*
X61425000Y-112775000D02*
X61624999Y-112974999D01*
X61624999Y-112974999D02*
X61624999Y-114291001D01*
X61624999Y-114291001D02*
X61908987Y-114574989D01*
X62875011Y-115794946D02*
X62574989Y-116094968D01*
X61908987Y-114574989D02*
X62435979Y-114574989D01*
X62875011Y-115014021D02*
X62875011Y-115794946D01*
X62435979Y-114574989D02*
X62875011Y-115014021D01*
X62574989Y-116094968D02*
X62574989Y-119014987D01*
X62574989Y-119014987D02*
X61300000Y-120289976D01*
X60600000Y-120550000D02*
X60600000Y-120494988D01*
X60600000Y-120494988D02*
X62224979Y-118870009D01*
X62291001Y-114924999D02*
X61724999Y-114924999D01*
X62525001Y-115158999D02*
X62291001Y-114924999D01*
X62224979Y-118870009D02*
X62224979Y-115949990D01*
X62224979Y-115949990D02*
X62525001Y-115649968D01*
X62525001Y-115649968D02*
X62525001Y-115158999D01*
X61724999Y-114924999D02*
X61274989Y-114474989D01*
X61274989Y-114474989D02*
X61274989Y-113274989D01*
X61274989Y-113274989D02*
X60775000Y-112775000D01*
X62600000Y-119979952D02*
X62600000Y-120550000D01*
X61658597Y-111694999D02*
X61200000Y-111694999D01*
X60450000Y-111800000D02*
X61094999Y-111800000D01*
X61094999Y-111800000D02*
X61200000Y-111694999D01*
X63275009Y-117965993D02*
X63900000Y-117341002D01*
X63575031Y-116224999D02*
X63575031Y-113780043D01*
X62594988Y-112631390D02*
X61658597Y-111694999D01*
X62600000Y-119979952D02*
X63275009Y-119304943D01*
X63275009Y-119304943D02*
X63275009Y-117965993D01*
X63900000Y-117341002D02*
X63900000Y-116549968D01*
X63900000Y-116549968D02*
X63575031Y-116224999D01*
X62594988Y-112800000D02*
X62594988Y-112631390D01*
X63575031Y-113780043D02*
X62594988Y-112800000D01*
X61425000Y-112125000D02*
X61225001Y-112324999D01*
X60558999Y-112324999D02*
X60324999Y-112558999D01*
X60000000Y-120500000D02*
X60000000Y-120550000D01*
X61225001Y-112324999D02*
X60558999Y-112324999D01*
X61874969Y-117140971D02*
X61874969Y-118625031D01*
X60324999Y-112558999D02*
X60324999Y-112991001D01*
X60324999Y-112991001D02*
X60924979Y-113590981D01*
X60924979Y-113590981D02*
X60924979Y-116190981D01*
X60924979Y-116190981D02*
X61874969Y-117140971D01*
X61874969Y-118625031D02*
X60000000Y-120500000D01*
X62000000Y-120084964D02*
X62000000Y-120550000D01*
X63225021Y-113925021D02*
X62075000Y-112775000D01*
X62000000Y-120084964D02*
X62924999Y-119159965D01*
X62924999Y-119159965D02*
X62924999Y-116239946D01*
X62924999Y-116239946D02*
X63225021Y-115939924D01*
X63225021Y-115939924D02*
X63225021Y-113925021D01*
X63800000Y-120550000D02*
X63800000Y-119769928D01*
X63800000Y-119769928D02*
X63975029Y-119594899D01*
X66450000Y-116200000D02*
X66625000Y-116025000D01*
X63975029Y-119594899D02*
X63975029Y-119008969D01*
X63975029Y-119008969D02*
X64583997Y-118400001D01*
X64583997Y-118400001D02*
X65536409Y-118400001D01*
X65536409Y-118400001D02*
X66450000Y-117486410D01*
X66450000Y-117486410D02*
X66450000Y-116200000D01*
X66625000Y-116025000D02*
X66550000Y-116100000D01*
X65000000Y-120550000D02*
X65000000Y-119926386D01*
X65000000Y-119926386D02*
X67250000Y-117676386D01*
X67250000Y-117676386D02*
X67250000Y-116950000D01*
D21*
X59000000Y-99600000D02*
X59000000Y-95900000D01*
X59000000Y-95900000D02*
X59600000Y-95300000D01*
X59600000Y-95300000D02*
X61100000Y-95300000D01*
X69000000Y-91700000D02*
X69400000Y-91700000D01*
X61100000Y-95300000D02*
X64700000Y-91700000D01*
X64700000Y-91700000D02*
X69000000Y-91700000D01*
D16*
X50300000Y-116000000D02*
X50300000Y-116700000D01*
X50300000Y-116700000D02*
X47800000Y-119200000D01*
X71000000Y-120300000D02*
X71000000Y-120550000D01*
X71000000Y-120300000D02*
X70750010Y-120050010D01*
X70750010Y-120050010D02*
X70750010Y-117225010D01*
X70750010Y-117225010D02*
X70525000Y-117000000D01*
X71100000Y-111100000D02*
X71100000Y-109574989D01*
X70649999Y-107949999D02*
X70025001Y-107325001D01*
X71100000Y-109574989D02*
X70649999Y-109124988D01*
X68900001Y-99392001D02*
X68900001Y-99200001D01*
X70649999Y-109124988D02*
X70649999Y-107949999D01*
X70025001Y-107325001D02*
X69032999Y-107325001D01*
X68649980Y-106941982D02*
X68649980Y-104668002D01*
X69032999Y-107325001D02*
X68649980Y-106941982D01*
X68899989Y-101942013D02*
X68899989Y-99392013D01*
X68649980Y-104668002D02*
X68142002Y-104160024D01*
X68142002Y-104160024D02*
X68142002Y-102700000D01*
X68142002Y-102700000D02*
X68899989Y-101942013D01*
X68899989Y-99392013D02*
X68900001Y-99392001D01*
X68900001Y-99200001D02*
X68700000Y-99000000D01*
X68900001Y-99400000D02*
X68899989Y-99400012D01*
X64675000Y-107325000D02*
X64025000Y-107975000D01*
X64025000Y-107975000D02*
X64025000Y-108875000D01*
X64675000Y-106925000D02*
X64675000Y-107325000D01*
X55800000Y-120650000D02*
X58750000Y-120650000D01*
X58750000Y-120650000D02*
X60324999Y-119075001D01*
X60324999Y-119075001D02*
X60324999Y-116700000D01*
X60400000Y-116624999D02*
X60400000Y-115700000D01*
X60324999Y-116700000D02*
X60400000Y-116624999D01*
X61300000Y-97700000D02*
X61300000Y-100683998D01*
X61300000Y-100683998D02*
X61299999Y-100683999D01*
X61300010Y-100683988D02*
X61299999Y-100683999D01*
X61299999Y-100683999D02*
X61300000Y-106742890D01*
X61300000Y-106742890D02*
X61453555Y-106896445D01*
X61900000Y-97700000D02*
X61900000Y-97600000D01*
X61900000Y-97600000D02*
X61500000Y-97200000D01*
X60950000Y-100600000D02*
X60949992Y-100600008D01*
X61500000Y-97200000D02*
X61049999Y-97200000D01*
X61049999Y-97200000D02*
X60849999Y-97400000D01*
X60849999Y-97400000D02*
X60849999Y-97999999D01*
X60849999Y-97999999D02*
X60950000Y-98100000D01*
X60950000Y-98100000D02*
X60950000Y-100600000D01*
X60949992Y-100600008D02*
X60949992Y-106750008D01*
X60949992Y-106750008D02*
X60775000Y-106925000D01*
X65325000Y-106925000D02*
X65325000Y-105992157D01*
X65325000Y-105992157D02*
X64400000Y-105067157D01*
X64400000Y-105067157D02*
X64400000Y-101260990D01*
X64400000Y-101260990D02*
X63499989Y-100360979D01*
X63499989Y-100360979D02*
X63499989Y-97699989D01*
X63499989Y-97699989D02*
X62600000Y-96800000D01*
X62600000Y-96800000D02*
X60450000Y-96800000D01*
X60450000Y-96800000D02*
X59950000Y-96300000D01*
X67300000Y-92600000D02*
X68800000Y-92600000D01*
X68492012Y-102844978D02*
X68492012Y-104015046D01*
X69249999Y-102086991D02*
X68492012Y-102844978D01*
X68999990Y-104523024D02*
X68999990Y-106699990D01*
X69249999Y-99857999D02*
X69249999Y-102086991D01*
X68999990Y-106699990D02*
X69225000Y-106925000D01*
X68492012Y-104015046D02*
X68999990Y-104523024D01*
X69250011Y-99857987D02*
X69249999Y-99857999D01*
X69250011Y-99200000D02*
X69250011Y-99857987D01*
X69500000Y-93300000D02*
X69500000Y-98950011D01*
X69500000Y-98950011D02*
X69250011Y-99200000D01*
X68800000Y-92600000D02*
X69500000Y-93300000D01*
X67275000Y-114725000D02*
X66800000Y-114250000D01*
X66800000Y-114250000D02*
X65100000Y-114250000D01*
X65100000Y-114250000D02*
X64850000Y-114500000D01*
X64850000Y-114500000D02*
X64850000Y-115550000D01*
X65115001Y-116236201D02*
X64700000Y-116651202D01*
X64850000Y-115550000D02*
X65115001Y-115815001D01*
X65115001Y-115815001D02*
X65115001Y-116236201D01*
X64700000Y-116651202D02*
X64700000Y-117950000D01*
X64900000Y-104000000D02*
X64900000Y-105072169D01*
X64900000Y-105072169D02*
X66625000Y-106797169D01*
X66625000Y-106797169D02*
X66625000Y-106925000D01*
X64900000Y-104000000D02*
X64900000Y-101266002D01*
X64900000Y-101266002D02*
X63849999Y-100216001D01*
X63849999Y-100216001D02*
X63849999Y-97483999D01*
X63849999Y-97483999D02*
X64233998Y-97100000D01*
X64233998Y-97100000D02*
X64300000Y-97100000D01*
X60700000Y-96300000D02*
X61400000Y-96300000D01*
X61400000Y-96300000D02*
X64600000Y-93100000D01*
X70400000Y-120550000D02*
X70400000Y-117525000D01*
X69875000Y-117000000D02*
X70400000Y-117525000D01*
X69770000Y-80900000D02*
X69770000Y-81600000D01*
X69770000Y-81600000D02*
X67370000Y-84000000D01*
X67370000Y-84000000D02*
X67370000Y-85100000D01*
X67370000Y-85100000D02*
X64070000Y-88400000D01*
X64070000Y-88400000D02*
X62470000Y-88400000D01*
X63870000Y-80900000D02*
X64370000Y-81400000D01*
X64370000Y-81400000D02*
X67470000Y-81400000D01*
X67470000Y-81400000D02*
X67970000Y-80900000D01*
X69170000Y-80900000D02*
X69170000Y-81100000D01*
X63070000Y-81200000D02*
X62770000Y-80900000D01*
X69170000Y-81100000D02*
X68470000Y-81800000D01*
X68470000Y-81800000D02*
X63670000Y-81800000D01*
X63670000Y-81800000D02*
X63070000Y-81200000D01*
X63400000Y-88900000D02*
X65170000Y-88900000D01*
X62270000Y-88900000D02*
X63400000Y-88900000D01*
X63400000Y-88900000D02*
X63200000Y-88900000D01*
X65170000Y-88900000D02*
X65600000Y-88900000D01*
X62270000Y-80900000D02*
X62270000Y-81100000D01*
X62270000Y-81100000D02*
X63070000Y-81900000D01*
X63070000Y-86235001D02*
X61905001Y-87400000D01*
X63070000Y-81900000D02*
X63070000Y-86235001D01*
X61905001Y-87400000D02*
X61905001Y-88535001D01*
X61905001Y-88535001D02*
X62270000Y-88900000D01*
D18*
X58600000Y-108249971D02*
X58600000Y-117400000D01*
X58600000Y-117400000D02*
X59400000Y-118200000D01*
X68400000Y-93400000D02*
X67200000Y-93400000D01*
X67200000Y-93400000D02*
X65600000Y-95000000D01*
X60450001Y-98400001D02*
X59900000Y-97850000D01*
X58600000Y-108249971D02*
X60450001Y-106399970D01*
X60450001Y-106399970D02*
X60450001Y-98400001D01*
X64900000Y-97000000D02*
X65600000Y-96300000D01*
X65600000Y-96300000D02*
X65600000Y-95000000D01*
D22*
G36*
X76630000Y-84130000D02*
X73980000Y-84130000D01*
X73953919Y-84135188D01*
X73927326Y-84135188D01*
X73735984Y-84173248D01*
X73735983Y-84173248D01*
X73638653Y-84213564D01*
X73476442Y-84321951D01*
X73439197Y-84359197D01*
X73401951Y-84396442D01*
X73293564Y-84558653D01*
X73253248Y-84655983D01*
X73253248Y-84655984D01*
X73215188Y-84847324D01*
X73215188Y-84952674D01*
X73253248Y-85144016D01*
X73253248Y-85144017D01*
X73293564Y-85241347D01*
X73401951Y-85403558D01*
X73439197Y-85440803D01*
X73476442Y-85478049D01*
X73638653Y-85586436D01*
X73735983Y-85626752D01*
X73735984Y-85626752D01*
X73927326Y-85664812D01*
X73953919Y-85664812D01*
X73980000Y-85670000D01*
X76630000Y-85670000D01*
X76630000Y-89630000D01*
X75840000Y-89630000D01*
X75813919Y-89635188D01*
X75787326Y-89635188D01*
X75595984Y-89673248D01*
X75595983Y-89673248D01*
X75498653Y-89713564D01*
X75336442Y-89821951D01*
X75328393Y-89830000D01*
X74351607Y-89830000D01*
X74343558Y-89821951D01*
X74181347Y-89713564D01*
X74084017Y-89673248D01*
X74084016Y-89673248D01*
X73892674Y-89635188D01*
X73866081Y-89635188D01*
X73840000Y-89630000D01*
X65411475Y-89630000D01*
X65396752Y-89555984D01*
X65396752Y-89555983D01*
X65356436Y-89458653D01*
X65248049Y-89296442D01*
X65210803Y-89259197D01*
X65173558Y-89221951D01*
X65170638Y-89220000D01*
X65325990Y-89220000D01*
X65361779Y-89255851D01*
X65516090Y-89319927D01*
X65683177Y-89320072D01*
X65837600Y-89256266D01*
X65950092Y-89143970D01*
X66061779Y-89255851D01*
X66216090Y-89319927D01*
X66383177Y-89320072D01*
X66537600Y-89256266D01*
X66655851Y-89138221D01*
X66719927Y-88983910D01*
X66719927Y-88983177D01*
X67449928Y-88983177D01*
X67513734Y-89137600D01*
X67631779Y-89255851D01*
X67786090Y-89319927D01*
X67953177Y-89320072D01*
X68107600Y-89256266D01*
X68170005Y-89193969D01*
X68231779Y-89255851D01*
X68386090Y-89319927D01*
X68553177Y-89320072D01*
X68707600Y-89256266D01*
X68820092Y-89143970D01*
X68931779Y-89255851D01*
X69086090Y-89319927D01*
X69253177Y-89320072D01*
X69407600Y-89256266D01*
X69525851Y-89138221D01*
X69589927Y-88983910D01*
X69589927Y-88983177D01*
X69949928Y-88983177D01*
X70013734Y-89137600D01*
X70131779Y-89255851D01*
X70286090Y-89319927D01*
X70453177Y-89320072D01*
X70607600Y-89256266D01*
X70725851Y-89138221D01*
X70789927Y-88983910D01*
X70790072Y-88816823D01*
X70726266Y-88662400D01*
X70608221Y-88544149D01*
X70453910Y-88480073D01*
X70286823Y-88479928D01*
X70132400Y-88543734D01*
X70014149Y-88661779D01*
X69950073Y-88816090D01*
X69949928Y-88983177D01*
X69589927Y-88983177D01*
X69590072Y-88816823D01*
X69526266Y-88662400D01*
X69408221Y-88544149D01*
X69253910Y-88480073D01*
X69086823Y-88479928D01*
X68932400Y-88543734D01*
X68819908Y-88656030D01*
X68708221Y-88544149D01*
X68553910Y-88480073D01*
X68386823Y-88479928D01*
X68232400Y-88543734D01*
X68169995Y-88606031D01*
X68108221Y-88544149D01*
X67953910Y-88480073D01*
X67786823Y-88479928D01*
X67632400Y-88543734D01*
X67514149Y-88661779D01*
X67450073Y-88816090D01*
X67449928Y-88983177D01*
X66719927Y-88983177D01*
X66720072Y-88816823D01*
X66656266Y-88662400D01*
X66538221Y-88544149D01*
X66383910Y-88480073D01*
X66216823Y-88479928D01*
X66062400Y-88543734D01*
X65949908Y-88656030D01*
X65838221Y-88544149D01*
X65683910Y-88480073D01*
X65516823Y-88479928D01*
X65362400Y-88543734D01*
X65326071Y-88580000D01*
X64342548Y-88580000D01*
X64539371Y-88383177D01*
X72449928Y-88383177D01*
X72513734Y-88537600D01*
X72631779Y-88655851D01*
X72786090Y-88719927D01*
X72953177Y-88720072D01*
X73107600Y-88656266D01*
X73225851Y-88538221D01*
X73289927Y-88383910D01*
X73290072Y-88216823D01*
X73226266Y-88062400D01*
X73108221Y-87944149D01*
X72953910Y-87880073D01*
X72786823Y-87879928D01*
X72632400Y-87943734D01*
X72514149Y-88061779D01*
X72450073Y-88216090D01*
X72449928Y-88383177D01*
X64539371Y-88383177D01*
X66161371Y-86761177D01*
X71244928Y-86761177D01*
X71308734Y-86915600D01*
X71426779Y-87033851D01*
X71581090Y-87097927D01*
X71748177Y-87098072D01*
X71902600Y-87034266D01*
X72020851Y-86916221D01*
X72084927Y-86761910D01*
X72085072Y-86594823D01*
X72021266Y-86440400D01*
X71903221Y-86322149D01*
X71748910Y-86258073D01*
X71581823Y-86257928D01*
X71427400Y-86321734D01*
X71309149Y-86439779D01*
X71245073Y-86594090D01*
X71244928Y-86761177D01*
X66161371Y-86761177D01*
X67596274Y-85326274D01*
X67665642Y-85222458D01*
X67690000Y-85100000D01*
X67690000Y-84983177D01*
X70149928Y-84983177D01*
X70213734Y-85137600D01*
X70331779Y-85255851D01*
X70486090Y-85319927D01*
X70653177Y-85320072D01*
X70807600Y-85256266D01*
X70870005Y-85193969D01*
X70931779Y-85255851D01*
X71086090Y-85319927D01*
X71253177Y-85320072D01*
X71407600Y-85256266D01*
X71525851Y-85138221D01*
X71589927Y-84983910D01*
X71590072Y-84816823D01*
X71526266Y-84662400D01*
X71408221Y-84544149D01*
X71253910Y-84480073D01*
X71086823Y-84479928D01*
X70932400Y-84543734D01*
X70869995Y-84606031D01*
X70808221Y-84544149D01*
X70653910Y-84480073D01*
X70486823Y-84479928D01*
X70332400Y-84543734D01*
X70214149Y-84661779D01*
X70150073Y-84816090D01*
X70149928Y-84983177D01*
X67690000Y-84983177D01*
X67690000Y-84132548D01*
X68617371Y-83205177D01*
X71244928Y-83205177D01*
X71308734Y-83359600D01*
X71426779Y-83477851D01*
X71581090Y-83541927D01*
X71748177Y-83542072D01*
X71902600Y-83478266D01*
X72020851Y-83360221D01*
X72084927Y-83205910D01*
X72084927Y-83205177D01*
X72514928Y-83205177D01*
X72578734Y-83359600D01*
X72696779Y-83477851D01*
X72851090Y-83541927D01*
X73018177Y-83542072D01*
X73172600Y-83478266D01*
X73290851Y-83360221D01*
X73354927Y-83205910D01*
X73355072Y-83038823D01*
X73291266Y-82884400D01*
X73173221Y-82766149D01*
X73018910Y-82702073D01*
X72851823Y-82701928D01*
X72697400Y-82765734D01*
X72579149Y-82883779D01*
X72515073Y-83038090D01*
X72514928Y-83205177D01*
X72084927Y-83205177D01*
X72085072Y-83038823D01*
X72021266Y-82884400D01*
X71903221Y-82766149D01*
X71748910Y-82702073D01*
X71581823Y-82701928D01*
X71427400Y-82765734D01*
X71309149Y-82883779D01*
X71245073Y-83038090D01*
X71244928Y-83205177D01*
X68617371Y-83205177D01*
X69996274Y-81826274D01*
X70065642Y-81722458D01*
X70090000Y-81600000D01*
X70090000Y-81174010D01*
X70125851Y-81138221D01*
X70189927Y-80983910D01*
X70190072Y-80816823D01*
X70126266Y-80662400D01*
X70008221Y-80544149D01*
X69853910Y-80480073D01*
X69686823Y-80479928D01*
X69532400Y-80543734D01*
X69469995Y-80606031D01*
X69408221Y-80544149D01*
X69253910Y-80480073D01*
X69086823Y-80479928D01*
X68932400Y-80543734D01*
X68869995Y-80606031D01*
X68808221Y-80544149D01*
X68653910Y-80480073D01*
X68486823Y-80479928D01*
X68332400Y-80543734D01*
X68269995Y-80606031D01*
X68208221Y-80544149D01*
X68053910Y-80480073D01*
X67886823Y-80479928D01*
X67732400Y-80543734D01*
X67614149Y-80661779D01*
X67550073Y-80816090D01*
X67550028Y-80867424D01*
X67337452Y-81080000D01*
X66550027Y-81080000D01*
X66589927Y-80983910D01*
X66590072Y-80816823D01*
X66526266Y-80662400D01*
X66408221Y-80544149D01*
X66253910Y-80480073D01*
X66086823Y-80479928D01*
X65932400Y-80543734D01*
X65814149Y-80661779D01*
X65750073Y-80816090D01*
X65749928Y-80983177D01*
X65789934Y-81080000D01*
X65650027Y-81080000D01*
X65689927Y-80983910D01*
X65690072Y-80816823D01*
X65626266Y-80662400D01*
X65508221Y-80544149D01*
X65353910Y-80480073D01*
X65186823Y-80479928D01*
X65032400Y-80543734D01*
X64914149Y-80661779D01*
X64850073Y-80816090D01*
X64849928Y-80983177D01*
X64889934Y-81080000D01*
X64502548Y-81080000D01*
X64290028Y-80867480D01*
X64290072Y-80816823D01*
X64226266Y-80662400D01*
X64108221Y-80544149D01*
X63953910Y-80480073D01*
X63786823Y-80479928D01*
X63632400Y-80543734D01*
X63514149Y-80661779D01*
X63450073Y-80816090D01*
X63449928Y-80983177D01*
X63513734Y-81137600D01*
X63631779Y-81255851D01*
X63786090Y-81319927D01*
X63837424Y-81319972D01*
X63997452Y-81480000D01*
X63802548Y-81480000D01*
X63190028Y-80867480D01*
X63190072Y-80816823D01*
X63126266Y-80662400D01*
X63008221Y-80544149D01*
X62853910Y-80480073D01*
X62686823Y-80479928D01*
X62532400Y-80543734D01*
X62520082Y-80556031D01*
X62508221Y-80544149D01*
X62353910Y-80480073D01*
X62186823Y-80479928D01*
X62032400Y-80543734D01*
X61914149Y-80661779D01*
X61850073Y-80816090D01*
X61849928Y-80983177D01*
X61913734Y-81137600D01*
X61968365Y-81192327D01*
X61974359Y-81222459D01*
X62029082Y-81304358D01*
X62043726Y-81326274D01*
X62750000Y-82032548D01*
X62750000Y-84519973D01*
X62653910Y-84480073D01*
X62486823Y-84479928D01*
X62332400Y-84543734D01*
X62269995Y-84606031D01*
X62208221Y-84544149D01*
X62053910Y-84480073D01*
X61886823Y-84479928D01*
X61732400Y-84543734D01*
X61614149Y-84661779D01*
X61550073Y-84816090D01*
X61549928Y-84983177D01*
X61613734Y-85137600D01*
X61731779Y-85255851D01*
X61886090Y-85319927D01*
X62053177Y-85320072D01*
X62207600Y-85256266D01*
X62270005Y-85193969D01*
X62331779Y-85255851D01*
X62486090Y-85319927D01*
X62653177Y-85320072D01*
X62750000Y-85280066D01*
X62750000Y-86102453D01*
X61678727Y-87173726D01*
X61609360Y-87277541D01*
X61585001Y-87400000D01*
X61585001Y-88034507D01*
X61453910Y-87980073D01*
X61286823Y-87979928D01*
X61132400Y-88043734D01*
X61014149Y-88161779D01*
X60950073Y-88316090D01*
X60949928Y-88483177D01*
X61013734Y-88637600D01*
X61131779Y-88755851D01*
X61286090Y-88819927D01*
X61453177Y-88820072D01*
X61607600Y-88756266D01*
X61648260Y-88715677D01*
X61678727Y-88761275D01*
X61947452Y-89030000D01*
X59330000Y-89030000D01*
X59303919Y-89035188D01*
X59277326Y-89035188D01*
X59085984Y-89073248D01*
X59085983Y-89073248D01*
X58988653Y-89113564D01*
X58826442Y-89221951D01*
X58789197Y-89259197D01*
X58751951Y-89296442D01*
X58643564Y-89458653D01*
X58603248Y-89555983D01*
X58603248Y-89555984D01*
X58565188Y-89747326D01*
X58565188Y-89773919D01*
X58560000Y-89800000D01*
X58560000Y-89830000D01*
X57841607Y-89830000D01*
X57833558Y-89821951D01*
X57671347Y-89713564D01*
X57574017Y-89673248D01*
X57574016Y-89673248D01*
X57382674Y-89635188D01*
X57356081Y-89635188D01*
X57330000Y-89630000D01*
X56540000Y-89630000D01*
X56540000Y-86761177D01*
X61084928Y-86761177D01*
X61148734Y-86915600D01*
X61266779Y-87033851D01*
X61421090Y-87097927D01*
X61588177Y-87098072D01*
X61742600Y-87034266D01*
X61860851Y-86916221D01*
X61924927Y-86761910D01*
X61925072Y-86594823D01*
X61861266Y-86440400D01*
X61743221Y-86322149D01*
X61588910Y-86258073D01*
X61421823Y-86257928D01*
X61267400Y-86321734D01*
X61149149Y-86439779D01*
X61085073Y-86594090D01*
X61084928Y-86761177D01*
X56540000Y-86761177D01*
X56540000Y-85670000D01*
X59190000Y-85670000D01*
X59216081Y-85664812D01*
X59242674Y-85664812D01*
X59434016Y-85626752D01*
X59434017Y-85626752D01*
X59531347Y-85586436D01*
X59693558Y-85478049D01*
X59730803Y-85440803D01*
X59768049Y-85403558D01*
X59876436Y-85241347D01*
X59916752Y-85144017D01*
X59916752Y-85144016D01*
X59928853Y-85083177D01*
X60549928Y-85083177D01*
X60613734Y-85237600D01*
X60731779Y-85355851D01*
X60886090Y-85419927D01*
X61053177Y-85420072D01*
X61207600Y-85356266D01*
X61325851Y-85238221D01*
X61389927Y-85083910D01*
X61390072Y-84916823D01*
X61326266Y-84762400D01*
X61208221Y-84644149D01*
X61053910Y-84580073D01*
X60886823Y-84579928D01*
X60732400Y-84643734D01*
X60614149Y-84761779D01*
X60550073Y-84916090D01*
X60549928Y-85083177D01*
X59928853Y-85083177D01*
X59954812Y-84952674D01*
X59954812Y-84847324D01*
X59954811Y-84847322D01*
X59916752Y-84655984D01*
X59916752Y-84655983D01*
X59876436Y-84558653D01*
X59768049Y-84396442D01*
X59730803Y-84359197D01*
X59693558Y-84321951D01*
X59531347Y-84213564D01*
X59434017Y-84173248D01*
X59434016Y-84173248D01*
X59242674Y-84135188D01*
X59216081Y-84135188D01*
X59190000Y-84130000D01*
X56540000Y-84130000D01*
X56540000Y-83205177D01*
X59814928Y-83205177D01*
X59878734Y-83359600D01*
X59996779Y-83477851D01*
X60151090Y-83541927D01*
X60318177Y-83542072D01*
X60472600Y-83478266D01*
X60590851Y-83360221D01*
X60654927Y-83205910D01*
X60655072Y-83038823D01*
X60591266Y-82884400D01*
X60473221Y-82766149D01*
X60318910Y-82702073D01*
X60151823Y-82701928D01*
X59997400Y-82765734D01*
X59879149Y-82883779D01*
X59815073Y-83038090D01*
X59814928Y-83205177D01*
X56540000Y-83205177D01*
X56540000Y-80683177D01*
X57449928Y-80683177D01*
X57513734Y-80837600D01*
X57576031Y-80900005D01*
X57514149Y-80961779D01*
X57450073Y-81116090D01*
X57449928Y-81283177D01*
X57513734Y-81437600D01*
X57631779Y-81555851D01*
X57786090Y-81619927D01*
X57953177Y-81620072D01*
X58084134Y-81565962D01*
X58113734Y-81637600D01*
X58231779Y-81755851D01*
X58386090Y-81819927D01*
X58553177Y-81820072D01*
X58707600Y-81756266D01*
X58825851Y-81638221D01*
X58889927Y-81483910D01*
X58890072Y-81316823D01*
X58826266Y-81162400D01*
X58708221Y-81044149D01*
X58553910Y-80980073D01*
X58386823Y-80979928D01*
X58255866Y-81034038D01*
X58226266Y-80962400D01*
X58163969Y-80899995D01*
X58225851Y-80838221D01*
X58289927Y-80683910D01*
X58290072Y-80516823D01*
X58226266Y-80362400D01*
X58108221Y-80244149D01*
X57953910Y-80180073D01*
X57786823Y-80179928D01*
X57632400Y-80243734D01*
X57514149Y-80361779D01*
X57450073Y-80516090D01*
X57449928Y-80683177D01*
X56540000Y-80683177D01*
X56540000Y-80170000D01*
X76630000Y-80170000D01*
X76630000Y-84130000D01*
X76630000Y-84130000D01*
G37*
X76630000Y-84130000D02*
X73980000Y-84130000D01*
X73953919Y-84135188D01*
X73927326Y-84135188D01*
X73735984Y-84173248D01*
X73735983Y-84173248D01*
X73638653Y-84213564D01*
X73476442Y-84321951D01*
X73439197Y-84359197D01*
X73401951Y-84396442D01*
X73293564Y-84558653D01*
X73253248Y-84655983D01*
X73253248Y-84655984D01*
X73215188Y-84847324D01*
X73215188Y-84952674D01*
X73253248Y-85144016D01*
X73253248Y-85144017D01*
X73293564Y-85241347D01*
X73401951Y-85403558D01*
X73439197Y-85440803D01*
X73476442Y-85478049D01*
X73638653Y-85586436D01*
X73735983Y-85626752D01*
X73735984Y-85626752D01*
X73927326Y-85664812D01*
X73953919Y-85664812D01*
X73980000Y-85670000D01*
X76630000Y-85670000D01*
X76630000Y-89630000D01*
X75840000Y-89630000D01*
X75813919Y-89635188D01*
X75787326Y-89635188D01*
X75595984Y-89673248D01*
X75595983Y-89673248D01*
X75498653Y-89713564D01*
X75336442Y-89821951D01*
X75328393Y-89830000D01*
X74351607Y-89830000D01*
X74343558Y-89821951D01*
X74181347Y-89713564D01*
X74084017Y-89673248D01*
X74084016Y-89673248D01*
X73892674Y-89635188D01*
X73866081Y-89635188D01*
X73840000Y-89630000D01*
X65411475Y-89630000D01*
X65396752Y-89555984D01*
X65396752Y-89555983D01*
X65356436Y-89458653D01*
X65248049Y-89296442D01*
X65210803Y-89259197D01*
X65173558Y-89221951D01*
X65170638Y-89220000D01*
X65325990Y-89220000D01*
X65361779Y-89255851D01*
X65516090Y-89319927D01*
X65683177Y-89320072D01*
X65837600Y-89256266D01*
X65950092Y-89143970D01*
X66061779Y-89255851D01*
X66216090Y-89319927D01*
X66383177Y-89320072D01*
X66537600Y-89256266D01*
X66655851Y-89138221D01*
X66719927Y-88983910D01*
X66719927Y-88983177D01*
X67449928Y-88983177D01*
X67513734Y-89137600D01*
X67631779Y-89255851D01*
X67786090Y-89319927D01*
X67953177Y-89320072D01*
X68107600Y-89256266D01*
X68170005Y-89193969D01*
X68231779Y-89255851D01*
X68386090Y-89319927D01*
X68553177Y-89320072D01*
X68707600Y-89256266D01*
X68820092Y-89143970D01*
X68931779Y-89255851D01*
X69086090Y-89319927D01*
X69253177Y-89320072D01*
X69407600Y-89256266D01*
X69525851Y-89138221D01*
X69589927Y-88983910D01*
X69589927Y-88983177D01*
X69949928Y-88983177D01*
X70013734Y-89137600D01*
X70131779Y-89255851D01*
X70286090Y-89319927D01*
X70453177Y-89320072D01*
X70607600Y-89256266D01*
X70725851Y-89138221D01*
X70789927Y-88983910D01*
X70790072Y-88816823D01*
X70726266Y-88662400D01*
X70608221Y-88544149D01*
X70453910Y-88480073D01*
X70286823Y-88479928D01*
X70132400Y-88543734D01*
X70014149Y-88661779D01*
X69950073Y-88816090D01*
X69949928Y-88983177D01*
X69589927Y-88983177D01*
X69590072Y-88816823D01*
X69526266Y-88662400D01*
X69408221Y-88544149D01*
X69253910Y-88480073D01*
X69086823Y-88479928D01*
X68932400Y-88543734D01*
X68819908Y-88656030D01*
X68708221Y-88544149D01*
X68553910Y-88480073D01*
X68386823Y-88479928D01*
X68232400Y-88543734D01*
X68169995Y-88606031D01*
X68108221Y-88544149D01*
X67953910Y-88480073D01*
X67786823Y-88479928D01*
X67632400Y-88543734D01*
X67514149Y-88661779D01*
X67450073Y-88816090D01*
X67449928Y-88983177D01*
X66719927Y-88983177D01*
X66720072Y-88816823D01*
X66656266Y-88662400D01*
X66538221Y-88544149D01*
X66383910Y-88480073D01*
X66216823Y-88479928D01*
X66062400Y-88543734D01*
X65949908Y-88656030D01*
X65838221Y-88544149D01*
X65683910Y-88480073D01*
X65516823Y-88479928D01*
X65362400Y-88543734D01*
X65326071Y-88580000D01*
X64342548Y-88580000D01*
X64539371Y-88383177D01*
X72449928Y-88383177D01*
X72513734Y-88537600D01*
X72631779Y-88655851D01*
X72786090Y-88719927D01*
X72953177Y-88720072D01*
X73107600Y-88656266D01*
X73225851Y-88538221D01*
X73289927Y-88383910D01*
X73290072Y-88216823D01*
X73226266Y-88062400D01*
X73108221Y-87944149D01*
X72953910Y-87880073D01*
X72786823Y-87879928D01*
X72632400Y-87943734D01*
X72514149Y-88061779D01*
X72450073Y-88216090D01*
X72449928Y-88383177D01*
X64539371Y-88383177D01*
X66161371Y-86761177D01*
X71244928Y-86761177D01*
X71308734Y-86915600D01*
X71426779Y-87033851D01*
X71581090Y-87097927D01*
X71748177Y-87098072D01*
X71902600Y-87034266D01*
X72020851Y-86916221D01*
X72084927Y-86761910D01*
X72085072Y-86594823D01*
X72021266Y-86440400D01*
X71903221Y-86322149D01*
X71748910Y-86258073D01*
X71581823Y-86257928D01*
X71427400Y-86321734D01*
X71309149Y-86439779D01*
X71245073Y-86594090D01*
X71244928Y-86761177D01*
X66161371Y-86761177D01*
X67596274Y-85326274D01*
X67665642Y-85222458D01*
X67690000Y-85100000D01*
X67690000Y-84983177D01*
X70149928Y-84983177D01*
X70213734Y-85137600D01*
X70331779Y-85255851D01*
X70486090Y-85319927D01*
X70653177Y-85320072D01*
X70807600Y-85256266D01*
X70870005Y-85193969D01*
X70931779Y-85255851D01*
X71086090Y-85319927D01*
X71253177Y-85320072D01*
X71407600Y-85256266D01*
X71525851Y-85138221D01*
X71589927Y-84983910D01*
X71590072Y-84816823D01*
X71526266Y-84662400D01*
X71408221Y-84544149D01*
X71253910Y-84480073D01*
X71086823Y-84479928D01*
X70932400Y-84543734D01*
X70869995Y-84606031D01*
X70808221Y-84544149D01*
X70653910Y-84480073D01*
X70486823Y-84479928D01*
X70332400Y-84543734D01*
X70214149Y-84661779D01*
X70150073Y-84816090D01*
X70149928Y-84983177D01*
X67690000Y-84983177D01*
X67690000Y-84132548D01*
X68617371Y-83205177D01*
X71244928Y-83205177D01*
X71308734Y-83359600D01*
X71426779Y-83477851D01*
X71581090Y-83541927D01*
X71748177Y-83542072D01*
X71902600Y-83478266D01*
X72020851Y-83360221D01*
X72084927Y-83205910D01*
X72084927Y-83205177D01*
X72514928Y-83205177D01*
X72578734Y-83359600D01*
X72696779Y-83477851D01*
X72851090Y-83541927D01*
X73018177Y-83542072D01*
X73172600Y-83478266D01*
X73290851Y-83360221D01*
X73354927Y-83205910D01*
X73355072Y-83038823D01*
X73291266Y-82884400D01*
X73173221Y-82766149D01*
X73018910Y-82702073D01*
X72851823Y-82701928D01*
X72697400Y-82765734D01*
X72579149Y-82883779D01*
X72515073Y-83038090D01*
X72514928Y-83205177D01*
X72084927Y-83205177D01*
X72085072Y-83038823D01*
X72021266Y-82884400D01*
X71903221Y-82766149D01*
X71748910Y-82702073D01*
X71581823Y-82701928D01*
X71427400Y-82765734D01*
X71309149Y-82883779D01*
X71245073Y-83038090D01*
X71244928Y-83205177D01*
X68617371Y-83205177D01*
X69996274Y-81826274D01*
X70065642Y-81722458D01*
X70090000Y-81600000D01*
X70090000Y-81174010D01*
X70125851Y-81138221D01*
X70189927Y-80983910D01*
X70190072Y-80816823D01*
X70126266Y-80662400D01*
X70008221Y-80544149D01*
X69853910Y-80480073D01*
X69686823Y-80479928D01*
X69532400Y-80543734D01*
X69469995Y-80606031D01*
X69408221Y-80544149D01*
X69253910Y-80480073D01*
X69086823Y-80479928D01*
X68932400Y-80543734D01*
X68869995Y-80606031D01*
X68808221Y-80544149D01*
X68653910Y-80480073D01*
X68486823Y-80479928D01*
X68332400Y-80543734D01*
X68269995Y-80606031D01*
X68208221Y-80544149D01*
X68053910Y-80480073D01*
X67886823Y-80479928D01*
X67732400Y-80543734D01*
X67614149Y-80661779D01*
X67550073Y-80816090D01*
X67550028Y-80867424D01*
X67337452Y-81080000D01*
X66550027Y-81080000D01*
X66589927Y-80983910D01*
X66590072Y-80816823D01*
X66526266Y-80662400D01*
X66408221Y-80544149D01*
X66253910Y-80480073D01*
X66086823Y-80479928D01*
X65932400Y-80543734D01*
X65814149Y-80661779D01*
X65750073Y-80816090D01*
X65749928Y-80983177D01*
X65789934Y-81080000D01*
X65650027Y-81080000D01*
X65689927Y-80983910D01*
X65690072Y-80816823D01*
X65626266Y-80662400D01*
X65508221Y-80544149D01*
X65353910Y-80480073D01*
X65186823Y-80479928D01*
X65032400Y-80543734D01*
X64914149Y-80661779D01*
X64850073Y-80816090D01*
X64849928Y-80983177D01*
X64889934Y-81080000D01*
X64502548Y-81080000D01*
X64290028Y-80867480D01*
X64290072Y-80816823D01*
X64226266Y-80662400D01*
X64108221Y-80544149D01*
X63953910Y-80480073D01*
X63786823Y-80479928D01*
X63632400Y-80543734D01*
X63514149Y-80661779D01*
X63450073Y-80816090D01*
X63449928Y-80983177D01*
X63513734Y-81137600D01*
X63631779Y-81255851D01*
X63786090Y-81319927D01*
X63837424Y-81319972D01*
X63997452Y-81480000D01*
X63802548Y-81480000D01*
X63190028Y-80867480D01*
X63190072Y-80816823D01*
X63126266Y-80662400D01*
X63008221Y-80544149D01*
X62853910Y-80480073D01*
X62686823Y-80479928D01*
X62532400Y-80543734D01*
X62520082Y-80556031D01*
X62508221Y-80544149D01*
X62353910Y-80480073D01*
X62186823Y-80479928D01*
X62032400Y-80543734D01*
X61914149Y-80661779D01*
X61850073Y-80816090D01*
X61849928Y-80983177D01*
X61913734Y-81137600D01*
X61968365Y-81192327D01*
X61974359Y-81222459D01*
X62029082Y-81304358D01*
X62043726Y-81326274D01*
X62750000Y-82032548D01*
X62750000Y-84519973D01*
X62653910Y-84480073D01*
X62486823Y-84479928D01*
X62332400Y-84543734D01*
X62269995Y-84606031D01*
X62208221Y-84544149D01*
X62053910Y-84480073D01*
X61886823Y-84479928D01*
X61732400Y-84543734D01*
X61614149Y-84661779D01*
X61550073Y-84816090D01*
X61549928Y-84983177D01*
X61613734Y-85137600D01*
X61731779Y-85255851D01*
X61886090Y-85319927D01*
X62053177Y-85320072D01*
X62207600Y-85256266D01*
X62270005Y-85193969D01*
X62331779Y-85255851D01*
X62486090Y-85319927D01*
X62653177Y-85320072D01*
X62750000Y-85280066D01*
X62750000Y-86102453D01*
X61678727Y-87173726D01*
X61609360Y-87277541D01*
X61585001Y-87400000D01*
X61585001Y-88034507D01*
X61453910Y-87980073D01*
X61286823Y-87979928D01*
X61132400Y-88043734D01*
X61014149Y-88161779D01*
X60950073Y-88316090D01*
X60949928Y-88483177D01*
X61013734Y-88637600D01*
X61131779Y-88755851D01*
X61286090Y-88819927D01*
X61453177Y-88820072D01*
X61607600Y-88756266D01*
X61648260Y-88715677D01*
X61678727Y-88761275D01*
X61947452Y-89030000D01*
X59330000Y-89030000D01*
X59303919Y-89035188D01*
X59277326Y-89035188D01*
X59085984Y-89073248D01*
X59085983Y-89073248D01*
X58988653Y-89113564D01*
X58826442Y-89221951D01*
X58789197Y-89259197D01*
X58751951Y-89296442D01*
X58643564Y-89458653D01*
X58603248Y-89555983D01*
X58603248Y-89555984D01*
X58565188Y-89747326D01*
X58565188Y-89773919D01*
X58560000Y-89800000D01*
X58560000Y-89830000D01*
X57841607Y-89830000D01*
X57833558Y-89821951D01*
X57671347Y-89713564D01*
X57574017Y-89673248D01*
X57574016Y-89673248D01*
X57382674Y-89635188D01*
X57356081Y-89635188D01*
X57330000Y-89630000D01*
X56540000Y-89630000D01*
X56540000Y-86761177D01*
X61084928Y-86761177D01*
X61148734Y-86915600D01*
X61266779Y-87033851D01*
X61421090Y-87097927D01*
X61588177Y-87098072D01*
X61742600Y-87034266D01*
X61860851Y-86916221D01*
X61924927Y-86761910D01*
X61925072Y-86594823D01*
X61861266Y-86440400D01*
X61743221Y-86322149D01*
X61588910Y-86258073D01*
X61421823Y-86257928D01*
X61267400Y-86321734D01*
X61149149Y-86439779D01*
X61085073Y-86594090D01*
X61084928Y-86761177D01*
X56540000Y-86761177D01*
X56540000Y-85670000D01*
X59190000Y-85670000D01*
X59216081Y-85664812D01*
X59242674Y-85664812D01*
X59434016Y-85626752D01*
X59434017Y-85626752D01*
X59531347Y-85586436D01*
X59693558Y-85478049D01*
X59730803Y-85440803D01*
X59768049Y-85403558D01*
X59876436Y-85241347D01*
X59916752Y-85144017D01*
X59916752Y-85144016D01*
X59928853Y-85083177D01*
X60549928Y-85083177D01*
X60613734Y-85237600D01*
X60731779Y-85355851D01*
X60886090Y-85419927D01*
X61053177Y-85420072D01*
X61207600Y-85356266D01*
X61325851Y-85238221D01*
X61389927Y-85083910D01*
X61390072Y-84916823D01*
X61326266Y-84762400D01*
X61208221Y-84644149D01*
X61053910Y-84580073D01*
X60886823Y-84579928D01*
X60732400Y-84643734D01*
X60614149Y-84761779D01*
X60550073Y-84916090D01*
X60549928Y-85083177D01*
X59928853Y-85083177D01*
X59954812Y-84952674D01*
X59954812Y-84847324D01*
X59954811Y-84847322D01*
X59916752Y-84655984D01*
X59916752Y-84655983D01*
X59876436Y-84558653D01*
X59768049Y-84396442D01*
X59730803Y-84359197D01*
X59693558Y-84321951D01*
X59531347Y-84213564D01*
X59434017Y-84173248D01*
X59434016Y-84173248D01*
X59242674Y-84135188D01*
X59216081Y-84135188D01*
X59190000Y-84130000D01*
X56540000Y-84130000D01*
X56540000Y-83205177D01*
X59814928Y-83205177D01*
X59878734Y-83359600D01*
X59996779Y-83477851D01*
X60151090Y-83541927D01*
X60318177Y-83542072D01*
X60472600Y-83478266D01*
X60590851Y-83360221D01*
X60654927Y-83205910D01*
X60655072Y-83038823D01*
X60591266Y-82884400D01*
X60473221Y-82766149D01*
X60318910Y-82702073D01*
X60151823Y-82701928D01*
X59997400Y-82765734D01*
X59879149Y-82883779D01*
X59815073Y-83038090D01*
X59814928Y-83205177D01*
X56540000Y-83205177D01*
X56540000Y-80683177D01*
X57449928Y-80683177D01*
X57513734Y-80837600D01*
X57576031Y-80900005D01*
X57514149Y-80961779D01*
X57450073Y-81116090D01*
X57449928Y-81283177D01*
X57513734Y-81437600D01*
X57631779Y-81555851D01*
X57786090Y-81619927D01*
X57953177Y-81620072D01*
X58084134Y-81565962D01*
X58113734Y-81637600D01*
X58231779Y-81755851D01*
X58386090Y-81819927D01*
X58553177Y-81820072D01*
X58707600Y-81756266D01*
X58825851Y-81638221D01*
X58889927Y-81483910D01*
X58890072Y-81316823D01*
X58826266Y-81162400D01*
X58708221Y-81044149D01*
X58553910Y-80980073D01*
X58386823Y-80979928D01*
X58255866Y-81034038D01*
X58226266Y-80962400D01*
X58163969Y-80899995D01*
X58225851Y-80838221D01*
X58289927Y-80683910D01*
X58290072Y-80516823D01*
X58226266Y-80362400D01*
X58108221Y-80244149D01*
X57953910Y-80180073D01*
X57786823Y-80179928D01*
X57632400Y-80243734D01*
X57514149Y-80361779D01*
X57450073Y-80516090D01*
X57449928Y-80683177D01*
X56540000Y-80683177D01*
X56540000Y-80170000D01*
X76630000Y-80170000D01*
X76630000Y-84130000D01*
G36*
X69450000Y-81467452D02*
X67143726Y-83773726D01*
X67074359Y-83877541D01*
X67050000Y-84000000D01*
X67050000Y-84519973D01*
X66953910Y-84480073D01*
X66786823Y-84479928D01*
X66632400Y-84543734D01*
X66569995Y-84606031D01*
X66508221Y-84544149D01*
X66353910Y-84480073D01*
X66186823Y-84479928D01*
X66032400Y-84543734D01*
X65914149Y-84661779D01*
X65850073Y-84816090D01*
X65849928Y-84983177D01*
X65913734Y-85137600D01*
X66031779Y-85255851D01*
X66186090Y-85319927D01*
X66353177Y-85320072D01*
X66507600Y-85256266D01*
X66570005Y-85193969D01*
X66631779Y-85255851D01*
X66723510Y-85293942D01*
X63937452Y-88080000D01*
X62744010Y-88080000D01*
X62708221Y-88044149D01*
X62553910Y-87980073D01*
X62386823Y-87979928D01*
X62232400Y-88043734D01*
X62225001Y-88051120D01*
X62225001Y-87532548D01*
X63296274Y-86461275D01*
X63310637Y-86439779D01*
X63365641Y-86357460D01*
X63390000Y-86235001D01*
X63390000Y-84983177D01*
X64649928Y-84983177D01*
X64713734Y-85137600D01*
X64831779Y-85255851D01*
X64986090Y-85319927D01*
X65153177Y-85320072D01*
X65307600Y-85256266D01*
X65425851Y-85138221D01*
X65489927Y-84983910D01*
X65490072Y-84816823D01*
X65426266Y-84662400D01*
X65308221Y-84544149D01*
X65153910Y-84480073D01*
X64986823Y-84479928D01*
X64832400Y-84543734D01*
X64714149Y-84661779D01*
X64650073Y-84816090D01*
X64649928Y-84983177D01*
X63390000Y-84983177D01*
X63390000Y-81972548D01*
X63443726Y-82026274D01*
X63547541Y-82095641D01*
X63670000Y-82120000D01*
X68470000Y-82120000D01*
X68592459Y-82095641D01*
X68696274Y-82026274D01*
X69396274Y-81326275D01*
X69450000Y-81245868D01*
X69450000Y-81467452D01*
X69450000Y-81467452D01*
G37*
X69450000Y-81467452D02*
X67143726Y-83773726D01*
X67074359Y-83877541D01*
X67050000Y-84000000D01*
X67050000Y-84519973D01*
X66953910Y-84480073D01*
X66786823Y-84479928D01*
X66632400Y-84543734D01*
X66569995Y-84606031D01*
X66508221Y-84544149D01*
X66353910Y-84480073D01*
X66186823Y-84479928D01*
X66032400Y-84543734D01*
X65914149Y-84661779D01*
X65850073Y-84816090D01*
X65849928Y-84983177D01*
X65913734Y-85137600D01*
X66031779Y-85255851D01*
X66186090Y-85319927D01*
X66353177Y-85320072D01*
X66507600Y-85256266D01*
X66570005Y-85193969D01*
X66631779Y-85255851D01*
X66723510Y-85293942D01*
X63937452Y-88080000D01*
X62744010Y-88080000D01*
X62708221Y-88044149D01*
X62553910Y-87980073D01*
X62386823Y-87979928D01*
X62232400Y-88043734D01*
X62225001Y-88051120D01*
X62225001Y-87532548D01*
X63296274Y-86461275D01*
X63310637Y-86439779D01*
X63365641Y-86357460D01*
X63390000Y-86235001D01*
X63390000Y-84983177D01*
X64649928Y-84983177D01*
X64713734Y-85137600D01*
X64831779Y-85255851D01*
X64986090Y-85319927D01*
X65153177Y-85320072D01*
X65307600Y-85256266D01*
X65425851Y-85138221D01*
X65489927Y-84983910D01*
X65490072Y-84816823D01*
X65426266Y-84662400D01*
X65308221Y-84544149D01*
X65153910Y-84480073D01*
X64986823Y-84479928D01*
X64832400Y-84543734D01*
X64714149Y-84661779D01*
X64650073Y-84816090D01*
X64649928Y-84983177D01*
X63390000Y-84983177D01*
X63390000Y-81972548D01*
X63443726Y-82026274D01*
X63547541Y-82095641D01*
X63670000Y-82120000D01*
X68470000Y-82120000D01*
X68592459Y-82095641D01*
X68696274Y-82026274D01*
X69396274Y-81326275D01*
X69450000Y-81245868D01*
X69450000Y-81467452D01*
G36*
X53946442Y-90978049D02*
X54108653Y-91086436D01*
X54205983Y-91126752D01*
X54205984Y-91126752D01*
X54397326Y-91164812D01*
X54423919Y-91164812D01*
X54450000Y-91170000D01*
X57330000Y-91170000D01*
X57356081Y-91164812D01*
X57382674Y-91164812D01*
X57574016Y-91126752D01*
X57574017Y-91126752D01*
X57671347Y-91086436D01*
X57833558Y-90978049D01*
X57841607Y-90970000D01*
X58818393Y-90970000D01*
X58826442Y-90978049D01*
X58988653Y-91086436D01*
X59085983Y-91126752D01*
X59085984Y-91126752D01*
X59277326Y-91164812D01*
X59303919Y-91164812D01*
X59330000Y-91170000D01*
X64222137Y-91170000D01*
X64190883Y-91190883D01*
X60801766Y-94580000D01*
X59600000Y-94580000D01*
X59324468Y-94634807D01*
X59090883Y-94790883D01*
X58490883Y-95390883D01*
X58334807Y-95624468D01*
X58280000Y-95900000D01*
X58280000Y-95919973D01*
X58183910Y-95880073D01*
X58016823Y-95879928D01*
X57862400Y-95943734D01*
X57744149Y-96061779D01*
X57680073Y-96216090D01*
X57679928Y-96383177D01*
X57743734Y-96537600D01*
X57861779Y-96655851D01*
X58016090Y-96719927D01*
X58183177Y-96720072D01*
X58280000Y-96680066D01*
X58280000Y-99600000D01*
X58334807Y-99875532D01*
X58490883Y-100109117D01*
X58724468Y-100265193D01*
X59000000Y-100320000D01*
X59275532Y-100265193D01*
X59509117Y-100109117D01*
X59665193Y-99875532D01*
X59677736Y-99812477D01*
X59816090Y-99869927D01*
X59983177Y-99870072D01*
X60030001Y-99850725D01*
X60030001Y-106226001D01*
X58303015Y-107952986D01*
X58211971Y-108089244D01*
X58180000Y-108249971D01*
X58180000Y-117400000D01*
X58211971Y-117560727D01*
X58303015Y-117696985D01*
X59103015Y-118496985D01*
X59103017Y-118496986D01*
X59161779Y-118555851D01*
X59316090Y-118619927D01*
X59399999Y-118620000D01*
X59400001Y-118620000D01*
X59483177Y-118620072D01*
X59637600Y-118556266D01*
X59696983Y-118496986D01*
X59696985Y-118496985D01*
X59696986Y-118496983D01*
X59755851Y-118438221D01*
X59819927Y-118283910D01*
X59820072Y-118116823D01*
X59756266Y-117962400D01*
X59696986Y-117903017D01*
X59696985Y-117903015D01*
X59696630Y-117902660D01*
X59638221Y-117844149D01*
X59638047Y-117844077D01*
X59020000Y-117226030D01*
X59020000Y-116333177D01*
X59129928Y-116333177D01*
X59193734Y-116487600D01*
X59311779Y-116605851D01*
X59466090Y-116669927D01*
X59633177Y-116670072D01*
X59787600Y-116606266D01*
X59905851Y-116488221D01*
X59969927Y-116333910D01*
X59970072Y-116166823D01*
X59906266Y-116012400D01*
X59788221Y-115894149D01*
X59633910Y-115830073D01*
X59466823Y-115829928D01*
X59312400Y-115893734D01*
X59194149Y-116011779D01*
X59130073Y-116166090D01*
X59129928Y-116333177D01*
X59020000Y-116333177D01*
X59020000Y-112483177D01*
X59129917Y-112483177D01*
X59193723Y-112637600D01*
X59311768Y-112755851D01*
X59466079Y-112819927D01*
X59633166Y-112820072D01*
X59787589Y-112756266D01*
X59905840Y-112638221D01*
X59969916Y-112483910D01*
X59970061Y-112316823D01*
X59906255Y-112162400D01*
X59788210Y-112044149D01*
X59633899Y-111980073D01*
X59466812Y-111979928D01*
X59312389Y-112043734D01*
X59194138Y-112161779D01*
X59130062Y-112316090D01*
X59129917Y-112483177D01*
X59020000Y-112483177D01*
X59020000Y-108423941D01*
X60378563Y-107065378D01*
X60418734Y-107162600D01*
X60536779Y-107280851D01*
X60691090Y-107344927D01*
X60858177Y-107345072D01*
X61012600Y-107281266D01*
X61128629Y-107165439D01*
X61184610Y-107221519D01*
X61069149Y-107336779D01*
X61005073Y-107491090D01*
X61004928Y-107658177D01*
X61068734Y-107812600D01*
X61156031Y-107900049D01*
X61099951Y-107956031D01*
X61013221Y-107869149D01*
X60858910Y-107805073D01*
X60691823Y-107804928D01*
X60537400Y-107868734D01*
X60419149Y-107986779D01*
X60355073Y-108141090D01*
X60354928Y-108308177D01*
X60418734Y-108462600D01*
X60506031Y-108550049D01*
X60419149Y-108636779D01*
X60401635Y-108678957D01*
X60283910Y-108630073D01*
X60116823Y-108629928D01*
X59962400Y-108693734D01*
X59844149Y-108811779D01*
X59780073Y-108966090D01*
X59779928Y-109133177D01*
X59836353Y-109269736D01*
X59744149Y-109361779D01*
X59680073Y-109516090D01*
X59679928Y-109683177D01*
X59743734Y-109837600D01*
X59861779Y-109955851D01*
X60016090Y-110019927D01*
X60183177Y-110020072D01*
X60337600Y-109956266D01*
X60455851Y-109838221D01*
X60519927Y-109683910D01*
X60520004Y-109595001D01*
X61004939Y-109595001D01*
X61004928Y-109608177D01*
X61068734Y-109762600D01*
X61186779Y-109880851D01*
X61341090Y-109944927D01*
X61508177Y-109945072D01*
X61662600Y-109881266D01*
X61750049Y-109793969D01*
X61836779Y-109880851D01*
X61991090Y-109944927D01*
X62158177Y-109945072D01*
X62312600Y-109881266D01*
X62430851Y-109763221D01*
X62494927Y-109608910D01*
X62495072Y-109441823D01*
X62431266Y-109287400D01*
X62313221Y-109169149D01*
X62158910Y-109105073D01*
X62107576Y-109105028D01*
X62051275Y-109048727D01*
X61947460Y-108979360D01*
X61928046Y-108975498D01*
X61826274Y-108873726D01*
X61801697Y-108857304D01*
X61722459Y-108804359D01*
X61600000Y-108780000D01*
X61216002Y-108780000D01*
X61192147Y-108784745D01*
X61131266Y-108637400D01*
X61043969Y-108549951D01*
X61100049Y-108493969D01*
X61186779Y-108580851D01*
X61341090Y-108644927D01*
X61508177Y-108645072D01*
X61662600Y-108581266D01*
X61750049Y-108493969D01*
X61836779Y-108580851D01*
X61991090Y-108644927D01*
X62158177Y-108645072D01*
X62312600Y-108581266D01*
X62430851Y-108463221D01*
X62494927Y-108308910D01*
X62495072Y-108141823D01*
X62431266Y-107987400D01*
X62313221Y-107869149D01*
X62158910Y-107805073D01*
X61991823Y-107804928D01*
X61837400Y-107868734D01*
X61749951Y-107956031D01*
X61693969Y-107899951D01*
X61780851Y-107813221D01*
X61844927Y-107658910D01*
X61845072Y-107491823D01*
X61781266Y-107337400D01*
X61693945Y-107249926D01*
X61809406Y-107134666D01*
X61873482Y-106980355D01*
X61873627Y-106813268D01*
X61809821Y-106658845D01*
X61691776Y-106540594D01*
X61620000Y-106510790D01*
X61619999Y-100684043D01*
X61620010Y-100683988D01*
X61620000Y-100683938D01*
X61620000Y-98013999D01*
X61661779Y-98055851D01*
X61816090Y-98119927D01*
X61983177Y-98120072D01*
X62137600Y-98056266D01*
X62255851Y-97938221D01*
X62319927Y-97783910D01*
X62320072Y-97616823D01*
X62256266Y-97462400D01*
X62138221Y-97344149D01*
X62067211Y-97314663D01*
X61872548Y-97120000D01*
X62467452Y-97120000D01*
X63179989Y-97832537D01*
X63179989Y-100360979D01*
X63204348Y-100483438D01*
X63256534Y-100561540D01*
X63273715Y-100587253D01*
X64080000Y-101393538D01*
X64080000Y-105067157D01*
X64104359Y-105189616D01*
X64173726Y-105293431D01*
X65005000Y-106124705D01*
X65005000Y-106650990D01*
X64999951Y-106656031D01*
X64913221Y-106569149D01*
X64758910Y-106505073D01*
X64719995Y-106505039D01*
X64720072Y-106416843D01*
X64656266Y-106262420D01*
X64538221Y-106144169D01*
X64383910Y-106080093D01*
X64216823Y-106079948D01*
X64062400Y-106143754D01*
X64050082Y-106156051D01*
X64038221Y-106144169D01*
X63883910Y-106080093D01*
X63716823Y-106079948D01*
X63562400Y-106143754D01*
X63444149Y-106261799D01*
X63380073Y-106416110D01*
X63379996Y-106505005D01*
X63291823Y-106504928D01*
X63137400Y-106568734D01*
X63049951Y-106656031D01*
X62963221Y-106569149D01*
X62808910Y-106505073D01*
X62641823Y-106504928D01*
X62487400Y-106568734D01*
X62369149Y-106686779D01*
X62305073Y-106841090D01*
X62304928Y-107008177D01*
X62368734Y-107162600D01*
X62486779Y-107280851D01*
X62641090Y-107344927D01*
X62808177Y-107345072D01*
X62962600Y-107281266D01*
X63050049Y-107193969D01*
X63106031Y-107250049D01*
X63019149Y-107336779D01*
X62955073Y-107491090D01*
X62954928Y-107658177D01*
X63018734Y-107812600D01*
X63136779Y-107930851D01*
X63291090Y-107994927D01*
X63458177Y-107995072D01*
X63612600Y-107931266D01*
X63730851Y-107813221D01*
X63794927Y-107658910D01*
X63795072Y-107491823D01*
X63731266Y-107337400D01*
X63643969Y-107249951D01*
X63730851Y-107163221D01*
X63794927Y-107008910D01*
X63795004Y-106920015D01*
X63883177Y-106920092D01*
X64037600Y-106856286D01*
X64049918Y-106843989D01*
X64061779Y-106855871D01*
X64216090Y-106919947D01*
X64255005Y-106919981D01*
X64254928Y-107008177D01*
X64318734Y-107162600D01*
X64351764Y-107195688D01*
X63798726Y-107748726D01*
X63729359Y-107852541D01*
X63705000Y-107975000D01*
X63705000Y-108600990D01*
X63669149Y-108636779D01*
X63605073Y-108791090D01*
X63604928Y-108958177D01*
X63668734Y-109112600D01*
X63786779Y-109230851D01*
X63890633Y-109273975D01*
X63007304Y-110157304D01*
X63007302Y-110157307D01*
X62859609Y-110305000D01*
X62075000Y-110305000D01*
X61876005Y-110344583D01*
X61707304Y-110457304D01*
X61594583Y-110626005D01*
X61555000Y-110825000D01*
X61594583Y-111023995D01*
X61707304Y-111192696D01*
X61740853Y-111215113D01*
X61719149Y-111236779D01*
X61661514Y-111375579D01*
X61658597Y-111374999D01*
X61200000Y-111374999D01*
X61077541Y-111399358D01*
X61011128Y-111443734D01*
X60973726Y-111468725D01*
X60962451Y-111480000D01*
X60724010Y-111480000D01*
X60688221Y-111444149D01*
X60533910Y-111380073D01*
X60366823Y-111379928D01*
X60212400Y-111443734D01*
X60094149Y-111561779D01*
X60030073Y-111716090D01*
X60029928Y-111883177D01*
X60093734Y-112037600D01*
X60211779Y-112155851D01*
X60256874Y-112174576D01*
X60098725Y-112332725D01*
X60029358Y-112436540D01*
X60004999Y-112558999D01*
X60004999Y-112991001D01*
X60029358Y-113113460D01*
X60084277Y-113195652D01*
X60098725Y-113217275D01*
X60604979Y-113723529D01*
X60604979Y-114009584D01*
X60533910Y-113980073D01*
X60366823Y-113979928D01*
X60212400Y-114043734D01*
X60094149Y-114161779D01*
X60030073Y-114316090D01*
X60029928Y-114483177D01*
X60093734Y-114637600D01*
X60211779Y-114755851D01*
X60366090Y-114819927D01*
X60533177Y-114820072D01*
X60604979Y-114790404D01*
X60604979Y-115330346D01*
X60483910Y-115280073D01*
X60316823Y-115279928D01*
X60162400Y-115343734D01*
X60044149Y-115461779D01*
X59980073Y-115616090D01*
X59979928Y-115783177D01*
X60043734Y-115937600D01*
X60080000Y-115973929D01*
X60080000Y-116501750D01*
X60029358Y-116577541D01*
X60004999Y-116700000D01*
X60004999Y-118942453D01*
X58617452Y-120330000D01*
X56074010Y-120330000D01*
X56038221Y-120294149D01*
X55883910Y-120230073D01*
X55716823Y-120229928D01*
X55562400Y-120293734D01*
X55444149Y-120411779D01*
X55380073Y-120566090D01*
X55379928Y-120733177D01*
X55443734Y-120887600D01*
X55561779Y-121005851D01*
X55716090Y-121069927D01*
X55883177Y-121070072D01*
X56037600Y-121006266D01*
X56073929Y-120970000D01*
X58750000Y-120970000D01*
X58872459Y-120945641D01*
X58976274Y-120876274D01*
X60551273Y-119301275D01*
X60563869Y-119282424D01*
X60620640Y-119197460D01*
X60644999Y-119075001D01*
X60644999Y-117400788D01*
X60691090Y-117419927D01*
X60858177Y-117420072D01*
X61004970Y-117359419D01*
X61004928Y-117408177D01*
X61068734Y-117562600D01*
X61186779Y-117680851D01*
X61341090Y-117744927D01*
X61508177Y-117745072D01*
X61554969Y-117725738D01*
X61554969Y-118492483D01*
X59917523Y-120129929D01*
X59916823Y-120129928D01*
X59762400Y-120193734D01*
X59644149Y-120311779D01*
X59580073Y-120466090D01*
X59579928Y-120633177D01*
X59643734Y-120787600D01*
X59761779Y-120905851D01*
X59916090Y-120969927D01*
X60083177Y-120970072D01*
X60237600Y-120906266D01*
X60300005Y-120843969D01*
X60361779Y-120905851D01*
X60516090Y-120969927D01*
X60683177Y-120970072D01*
X60837600Y-120906266D01*
X60950092Y-120793970D01*
X61061779Y-120905851D01*
X61216090Y-120969927D01*
X61383177Y-120970072D01*
X61537600Y-120906266D01*
X61650092Y-120793970D01*
X61761779Y-120905851D01*
X61916090Y-120969927D01*
X62083177Y-120970072D01*
X62237600Y-120906266D01*
X62300005Y-120843969D01*
X62361779Y-120905851D01*
X62516090Y-120969927D01*
X62683177Y-120970072D01*
X62837600Y-120906266D01*
X62900005Y-120843969D01*
X62961779Y-120905851D01*
X63116090Y-120969927D01*
X63283177Y-120970072D01*
X63437600Y-120906266D01*
X63500005Y-120843969D01*
X63561779Y-120905851D01*
X63716090Y-120969927D01*
X63883177Y-120970072D01*
X64037600Y-120906266D01*
X64100005Y-120843969D01*
X64161779Y-120905851D01*
X64316090Y-120969927D01*
X64483177Y-120970072D01*
X64637600Y-120906266D01*
X64700005Y-120843969D01*
X64761779Y-120905851D01*
X64916090Y-120969927D01*
X65083177Y-120970072D01*
X65237600Y-120906266D01*
X65355851Y-120788221D01*
X65419927Y-120633910D01*
X65420072Y-120466823D01*
X65356266Y-120312400D01*
X65320000Y-120276071D01*
X65320000Y-120058934D01*
X67476275Y-117902660D01*
X67545642Y-117798844D01*
X67570000Y-117676386D01*
X67570000Y-117224010D01*
X67605000Y-117189071D01*
X67605000Y-119597464D01*
X67041352Y-120161112D01*
X66962400Y-120193734D01*
X66844149Y-120311779D01*
X66780073Y-120466090D01*
X66779928Y-120633177D01*
X66843734Y-120787600D01*
X66961779Y-120905851D01*
X67116090Y-120969927D01*
X67283177Y-120970072D01*
X67437600Y-120906266D01*
X67500005Y-120843969D01*
X67561779Y-120905851D01*
X67716090Y-120969927D01*
X67883177Y-120970072D01*
X68037600Y-120906266D01*
X68100005Y-120843969D01*
X68161779Y-120905851D01*
X68316090Y-120969927D01*
X68483177Y-120970072D01*
X68637600Y-120906266D01*
X68700005Y-120843969D01*
X68761779Y-120905851D01*
X68916090Y-120969927D01*
X69083177Y-120970072D01*
X69201701Y-120921099D01*
X69219583Y-121010997D01*
X69332304Y-121179698D01*
X69720301Y-121567694D01*
X69720303Y-121567697D01*
X69821432Y-121635268D01*
X69889003Y-121680418D01*
X70087999Y-121720001D01*
X72099994Y-121720001D01*
X72099999Y-121720002D01*
X72298994Y-121680418D01*
X72467695Y-121567697D01*
X72967693Y-121067698D01*
X72967696Y-121067696D01*
X73066322Y-120920090D01*
X73080417Y-120898996D01*
X73084491Y-120878515D01*
X73111779Y-120905851D01*
X73266090Y-120969927D01*
X73433177Y-120970072D01*
X73587600Y-120906266D01*
X73705851Y-120788221D01*
X73723974Y-120744576D01*
X74026275Y-120442275D01*
X74039516Y-120422458D01*
X74095642Y-120338460D01*
X74120001Y-120216001D01*
X74120001Y-116448549D01*
X74226275Y-116342275D01*
X74295643Y-116238459D01*
X74320001Y-116116001D01*
X74320001Y-115083999D01*
X74295642Y-114961540D01*
X74291224Y-114954928D01*
X74226275Y-114857724D01*
X73942273Y-114573723D01*
X73899494Y-114545139D01*
X73868093Y-114524158D01*
X73788221Y-114444146D01*
X73633910Y-114380070D01*
X73466823Y-114379925D01*
X73312400Y-114443731D01*
X73194149Y-114561776D01*
X73130073Y-114716087D01*
X73129928Y-114883174D01*
X73193734Y-115037597D01*
X73311779Y-115155848D01*
X73466090Y-115219924D01*
X73633177Y-115220069D01*
X73668802Y-115205349D01*
X73680001Y-115216548D01*
X73680001Y-115499212D01*
X73633910Y-115480073D01*
X73466823Y-115479928D01*
X73312400Y-115543734D01*
X73194149Y-115661779D01*
X73130073Y-115816090D01*
X73129928Y-115983177D01*
X73193734Y-116137600D01*
X73311779Y-116255851D01*
X73466090Y-116319927D01*
X73480001Y-116319939D01*
X73480001Y-117499212D01*
X73433910Y-117480073D01*
X73266823Y-117479928D01*
X73120000Y-117540594D01*
X73120000Y-113883177D01*
X73129928Y-113883177D01*
X73193734Y-114037600D01*
X73311779Y-114155851D01*
X73466090Y-114219927D01*
X73633177Y-114220072D01*
X73787600Y-114156266D01*
X73905851Y-114038221D01*
X73969927Y-113883910D01*
X73970072Y-113716823D01*
X73906266Y-113562400D01*
X73788221Y-113444149D01*
X73633910Y-113380073D01*
X73466823Y-113379928D01*
X73312400Y-113443734D01*
X73194149Y-113561779D01*
X73130073Y-113716090D01*
X73129928Y-113883177D01*
X73120000Y-113883177D01*
X73120000Y-112483177D01*
X73129928Y-112483177D01*
X73193734Y-112637600D01*
X73311779Y-112755851D01*
X73466090Y-112819927D01*
X73633177Y-112820072D01*
X73787600Y-112756266D01*
X73905851Y-112638221D01*
X73969927Y-112483910D01*
X73970072Y-112316823D01*
X73906266Y-112162400D01*
X73788221Y-112044149D01*
X73633910Y-111980073D01*
X73466823Y-111979928D01*
X73312400Y-112043734D01*
X73194149Y-112161779D01*
X73130073Y-112316090D01*
X73129928Y-112483177D01*
X73120000Y-112483177D01*
X73120000Y-110380027D01*
X73176781Y-110403605D01*
X73130073Y-110516090D01*
X73129928Y-110683177D01*
X73193734Y-110837600D01*
X73206031Y-110849918D01*
X73194149Y-110861779D01*
X73130073Y-111016090D01*
X73129928Y-111183177D01*
X73193734Y-111337600D01*
X73311779Y-111455851D01*
X73466090Y-111519927D01*
X73633177Y-111520072D01*
X73787600Y-111456266D01*
X73905851Y-111338221D01*
X73969927Y-111183910D01*
X73970072Y-111016823D01*
X73906266Y-110862400D01*
X73893969Y-110850082D01*
X73905851Y-110838221D01*
X73969927Y-110683910D01*
X73970072Y-110516823D01*
X73906266Y-110362400D01*
X73788221Y-110244149D01*
X73673219Y-110196395D01*
X73719927Y-110083910D01*
X73720072Y-109916823D01*
X73656266Y-109762400D01*
X73538221Y-109644149D01*
X73383910Y-109580073D01*
X73216823Y-109579928D01*
X73120000Y-109619934D01*
X73120000Y-109283177D01*
X73679928Y-109283177D01*
X73743734Y-109437600D01*
X73861779Y-109555851D01*
X74016090Y-109619927D01*
X74183177Y-109620072D01*
X74337600Y-109556266D01*
X74455851Y-109438221D01*
X74519927Y-109283910D01*
X74520072Y-109116823D01*
X74456266Y-108962400D01*
X74338221Y-108844149D01*
X74183910Y-108780073D01*
X74016823Y-108779928D01*
X73862400Y-108843734D01*
X73744149Y-108961779D01*
X73680073Y-109116090D01*
X73679928Y-109283177D01*
X73120000Y-109283177D01*
X73120000Y-107209472D01*
X73120001Y-107209467D01*
X73080417Y-107010471D01*
X73014473Y-106911779D01*
X72967696Y-106841771D01*
X72967693Y-106841769D01*
X72259102Y-106133177D01*
X73129928Y-106133177D01*
X73193734Y-106287600D01*
X73311779Y-106405851D01*
X73466090Y-106469927D01*
X73633177Y-106470072D01*
X73787600Y-106406266D01*
X73905851Y-106288221D01*
X73969927Y-106133910D01*
X73970072Y-105966823D01*
X73906266Y-105812400D01*
X73788221Y-105694149D01*
X73633910Y-105630073D01*
X73466823Y-105629928D01*
X73312400Y-105693734D01*
X73194149Y-105811779D01*
X73130073Y-105966090D01*
X73129928Y-106133177D01*
X72259102Y-106133177D01*
X72220000Y-106094075D01*
X72220000Y-104780027D01*
X72316090Y-104819927D01*
X72483177Y-104820072D01*
X72637600Y-104756266D01*
X72755851Y-104638221D01*
X72819927Y-104483910D01*
X72820072Y-104316823D01*
X72764851Y-104183177D01*
X73479928Y-104183177D01*
X73543734Y-104337600D01*
X73661779Y-104455851D01*
X73816090Y-104519927D01*
X73983177Y-104520072D01*
X74137600Y-104456266D01*
X74255851Y-104338221D01*
X74319927Y-104183910D01*
X74320072Y-104016823D01*
X74256266Y-103862400D01*
X74138221Y-103744149D01*
X73983910Y-103680073D01*
X73816823Y-103679928D01*
X73662400Y-103743734D01*
X73544149Y-103861779D01*
X73480073Y-104016090D01*
X73479928Y-104183177D01*
X72764851Y-104183177D01*
X72756266Y-104162400D01*
X72638221Y-104044149D01*
X72483910Y-103980073D01*
X72316823Y-103979928D01*
X72220000Y-104019934D01*
X72220000Y-102100000D01*
X72180417Y-101901005D01*
X72067696Y-101732304D01*
X71898995Y-101619583D01*
X71700000Y-101580000D01*
X71501005Y-101619583D01*
X71332304Y-101732304D01*
X71219583Y-101901005D01*
X71180000Y-102100000D01*
X71180000Y-106244608D01*
X70520001Y-105584609D01*
X70520010Y-103200002D01*
X70520010Y-103199998D01*
X70494400Y-103071252D01*
X70480428Y-103001007D01*
X70480426Y-103001003D01*
X70423687Y-102916087D01*
X70367707Y-102832305D01*
X70367705Y-102832303D01*
X70203401Y-102722520D01*
X70199007Y-102719584D01*
X70199006Y-102719584D01*
X70199005Y-102719583D01*
X70079178Y-102695748D01*
X70000012Y-102680000D01*
X70000000Y-102680000D01*
X69801005Y-102719583D01*
X69632304Y-102832304D01*
X69589839Y-102895858D01*
X69538221Y-102844149D01*
X69469085Y-102815441D01*
X70326274Y-101958252D01*
X70395642Y-101854436D01*
X70420000Y-101731978D01*
X70420000Y-100783177D01*
X71879928Y-100783177D01*
X71943734Y-100937600D01*
X72061779Y-101055851D01*
X72216090Y-101119927D01*
X72383177Y-101120072D01*
X72537600Y-101056266D01*
X72655851Y-100938221D01*
X72719927Y-100783910D01*
X72720072Y-100616823D01*
X72656266Y-100462400D01*
X72538221Y-100344149D01*
X72383910Y-100280073D01*
X72216823Y-100279928D01*
X72062400Y-100343734D01*
X71944149Y-100461779D01*
X71880073Y-100616090D01*
X71879928Y-100783177D01*
X70420000Y-100783177D01*
X70420000Y-99932548D01*
X71329763Y-99022785D01*
X73079892Y-99022785D01*
X73174083Y-99250743D01*
X73348339Y-99425304D01*
X73576133Y-99519893D01*
X73822785Y-99520108D01*
X74050743Y-99425917D01*
X74225304Y-99251661D01*
X74319893Y-99023867D01*
X74320108Y-98777215D01*
X74225917Y-98549257D01*
X74051661Y-98374696D01*
X73823867Y-98280107D01*
X73577215Y-98279892D01*
X73349257Y-98374083D01*
X73174696Y-98548339D01*
X73080107Y-98776133D01*
X73079892Y-99022785D01*
X71329763Y-99022785D01*
X71532548Y-98820000D01*
X71675990Y-98820000D01*
X71711779Y-98855851D01*
X71866090Y-98919927D01*
X72033177Y-98920072D01*
X72187600Y-98856266D01*
X72305851Y-98738221D01*
X72369927Y-98583910D01*
X72370072Y-98416823D01*
X72306266Y-98262400D01*
X72188221Y-98144149D01*
X72033910Y-98080073D01*
X71866823Y-98079928D01*
X71712400Y-98143734D01*
X71676071Y-98180000D01*
X71400000Y-98180000D01*
X71277542Y-98204358D01*
X71173726Y-98273726D01*
X69873726Y-99573726D01*
X69804359Y-99677541D01*
X69780000Y-99800000D01*
X69780000Y-101599430D01*
X69569999Y-101809431D01*
X69569999Y-99858047D01*
X69570011Y-99857987D01*
X69570011Y-99332548D01*
X69726274Y-99176285D01*
X69762240Y-99122458D01*
X69795641Y-99072470D01*
X69820000Y-98950011D01*
X69820000Y-96442589D01*
X72779875Y-96442589D01*
X72889257Y-96707315D01*
X73091620Y-96910031D01*
X73356155Y-97019875D01*
X73642589Y-97020125D01*
X73907315Y-96910743D01*
X74110031Y-96708380D01*
X74219875Y-96443845D01*
X74220125Y-96157411D01*
X74110743Y-95892685D01*
X73908380Y-95689969D01*
X73643845Y-95580125D01*
X73357411Y-95579875D01*
X73092685Y-95689257D01*
X72889969Y-95891620D01*
X72780125Y-96156155D01*
X72779875Y-96442589D01*
X69820000Y-96442589D01*
X69820000Y-93300000D01*
X69795641Y-93177541D01*
X69762232Y-93127541D01*
X69726274Y-93073725D01*
X69072548Y-92420000D01*
X69399372Y-92420000D01*
X69542589Y-92420125D01*
X69807315Y-92310743D01*
X70010031Y-92108380D01*
X70119875Y-91843845D01*
X70120125Y-91557411D01*
X70010743Y-91292685D01*
X69888272Y-91170000D01*
X73850000Y-91170000D01*
X73876081Y-91164812D01*
X73892674Y-91164812D01*
X74084016Y-91126752D01*
X74084017Y-91126752D01*
X74181347Y-91086436D01*
X74343558Y-90978049D01*
X74351607Y-90970000D01*
X75328393Y-90970000D01*
X75336442Y-90978049D01*
X75498653Y-91086436D01*
X75595983Y-91126752D01*
X75595984Y-91126752D01*
X75787326Y-91164812D01*
X75813919Y-91164812D01*
X75840000Y-91170000D01*
X76630000Y-91170000D01*
X76630000Y-124330000D01*
X74050000Y-124330000D01*
X74050000Y-124100000D01*
X74044812Y-124073919D01*
X74044812Y-124047326D01*
X74006752Y-123855984D01*
X74006752Y-123855983D01*
X73966436Y-123758653D01*
X73858049Y-123596442D01*
X73820803Y-123559197D01*
X73783558Y-123521951D01*
X73621347Y-123413564D01*
X73524017Y-123373248D01*
X73524016Y-123373248D01*
X73332674Y-123335188D01*
X73306081Y-123335188D01*
X73280000Y-123330000D01*
X59890000Y-123330000D01*
X59863919Y-123335188D01*
X59837326Y-123335188D01*
X59645984Y-123373248D01*
X59645983Y-123373248D01*
X59548653Y-123413564D01*
X59386442Y-123521951D01*
X59349197Y-123559197D01*
X59311951Y-123596442D01*
X59203564Y-123758653D01*
X59163248Y-123855983D01*
X59163248Y-123855984D01*
X59125188Y-124047326D01*
X59125188Y-124073919D01*
X59120000Y-124100000D01*
X59120000Y-124330000D01*
X47370000Y-124330000D01*
X47370000Y-123683177D01*
X49179928Y-123683177D01*
X49243734Y-123837600D01*
X49361779Y-123955851D01*
X49516090Y-124019927D01*
X49683177Y-124020072D01*
X49837600Y-123956266D01*
X49955851Y-123838221D01*
X50019927Y-123683910D01*
X50020072Y-123516823D01*
X49956266Y-123362400D01*
X49838221Y-123244149D01*
X49683910Y-123180073D01*
X49516823Y-123179928D01*
X49362400Y-123243734D01*
X49244149Y-123361779D01*
X49180073Y-123516090D01*
X49179928Y-123683177D01*
X47370000Y-123683177D01*
X47370000Y-119833177D01*
X55379928Y-119833177D01*
X55443734Y-119987600D01*
X55561779Y-120105851D01*
X55716090Y-120169927D01*
X55883177Y-120170072D01*
X56037600Y-120106266D01*
X56155851Y-119988221D01*
X56219927Y-119833910D01*
X56220072Y-119666823D01*
X56156266Y-119512400D01*
X56038221Y-119394149D01*
X55883910Y-119330073D01*
X55716823Y-119329928D01*
X55562400Y-119393734D01*
X55444149Y-119511779D01*
X55380073Y-119666090D01*
X55379928Y-119833177D01*
X47370000Y-119833177D01*
X47370000Y-119283177D01*
X47379928Y-119283177D01*
X47443734Y-119437600D01*
X47561779Y-119555851D01*
X47716090Y-119619927D01*
X47883177Y-119620072D01*
X48037600Y-119556266D01*
X48155851Y-119438221D01*
X48219927Y-119283910D01*
X48219972Y-119232576D01*
X49069371Y-118383177D01*
X55379928Y-118383177D01*
X55443734Y-118537600D01*
X55481031Y-118574962D01*
X55444149Y-118611779D01*
X55380073Y-118766090D01*
X55379928Y-118933177D01*
X55443734Y-119087600D01*
X55561779Y-119205851D01*
X55716090Y-119269927D01*
X55883177Y-119270072D01*
X56037600Y-119206266D01*
X56155851Y-119088221D01*
X56219927Y-118933910D01*
X56220072Y-118766823D01*
X56156266Y-118612400D01*
X56118969Y-118575038D01*
X56155851Y-118538221D01*
X56219927Y-118383910D01*
X56220072Y-118216823D01*
X56156266Y-118062400D01*
X56038221Y-117944149D01*
X55883910Y-117880073D01*
X55716823Y-117879928D01*
X55562400Y-117943734D01*
X55444149Y-118061779D01*
X55380073Y-118216090D01*
X55379928Y-118383177D01*
X49069371Y-118383177D01*
X50526274Y-116926274D01*
X50595641Y-116822459D01*
X50620000Y-116700000D01*
X50620000Y-116274010D01*
X50655851Y-116238221D01*
X50719927Y-116083910D01*
X50719999Y-116000391D01*
X51674764Y-116000391D01*
X51738570Y-116154814D01*
X51856615Y-116273065D01*
X52010926Y-116337141D01*
X52178013Y-116337286D01*
X52332436Y-116273480D01*
X52450687Y-116155435D01*
X52514763Y-116001124D01*
X52514908Y-115834037D01*
X52451102Y-115679614D01*
X52333057Y-115561363D01*
X52178746Y-115497287D01*
X52011659Y-115497142D01*
X51857236Y-115560948D01*
X51738985Y-115678993D01*
X51674909Y-115833304D01*
X51674764Y-116000391D01*
X50719999Y-116000391D01*
X50720072Y-115916823D01*
X50656266Y-115762400D01*
X50538221Y-115644149D01*
X50383910Y-115580073D01*
X50216823Y-115579928D01*
X50062400Y-115643734D01*
X49944149Y-115761779D01*
X49880073Y-115916090D01*
X49879928Y-116083177D01*
X49943734Y-116237600D01*
X49980000Y-116273929D01*
X49980000Y-116567452D01*
X47767480Y-118779972D01*
X47716823Y-118779928D01*
X47562400Y-118843734D01*
X47444149Y-118961779D01*
X47380073Y-119116090D01*
X47379928Y-119283177D01*
X47370000Y-119283177D01*
X47370000Y-113983177D01*
X47679928Y-113983177D01*
X47743734Y-114137600D01*
X47861779Y-114255851D01*
X48016090Y-114319927D01*
X48067423Y-114319972D01*
X48323727Y-114576276D01*
X48427543Y-114645643D01*
X48550001Y-114670001D01*
X49416001Y-114670001D01*
X49538460Y-114645642D01*
X49642275Y-114576275D01*
X49876275Y-114342275D01*
X49945642Y-114238460D01*
X49970001Y-114116001D01*
X49970001Y-114084299D01*
X50176133Y-114169893D01*
X50422785Y-114170108D01*
X50423046Y-114170000D01*
X52780000Y-114170000D01*
X52780000Y-115625990D01*
X52744149Y-115661779D01*
X52680073Y-115816090D01*
X52679928Y-115983177D01*
X52743734Y-116137600D01*
X52861779Y-116255851D01*
X53016090Y-116319927D01*
X53183177Y-116320072D01*
X53337600Y-116256266D01*
X53455851Y-116138221D01*
X53519927Y-115983910D01*
X53519927Y-115983177D01*
X53979928Y-115983177D01*
X54043734Y-116137600D01*
X54161779Y-116255851D01*
X54316090Y-116319927D01*
X54483177Y-116320072D01*
X54637600Y-116256266D01*
X54755851Y-116138221D01*
X54819927Y-115983910D01*
X54820072Y-115816823D01*
X54756266Y-115662400D01*
X54638221Y-115544149D01*
X54483910Y-115480073D01*
X54316823Y-115479928D01*
X54162400Y-115543734D01*
X54044149Y-115661779D01*
X53980073Y-115816090D01*
X53979928Y-115983177D01*
X53519927Y-115983177D01*
X53520072Y-115816823D01*
X53456266Y-115662400D01*
X53420000Y-115626071D01*
X53420000Y-114170000D01*
X57050000Y-114170000D01*
X57287264Y-114122805D01*
X57488406Y-113988406D01*
X57837737Y-113639075D01*
X57925304Y-113551661D01*
X58019893Y-113323867D01*
X58020108Y-113077215D01*
X58020000Y-113076954D01*
X58020000Y-104001115D01*
X58020108Y-103877215D01*
X57925917Y-103649257D01*
X57751661Y-103474696D01*
X57523867Y-103380107D01*
X57277215Y-103379892D01*
X57049257Y-103474083D01*
X56970010Y-103553192D01*
X56970010Y-102622558D01*
X58980000Y-104632548D01*
X58980000Y-105425990D01*
X58944149Y-105461779D01*
X58880073Y-105616090D01*
X58879928Y-105783177D01*
X58943734Y-105937600D01*
X59061779Y-106055851D01*
X59216090Y-106119927D01*
X59383177Y-106120072D01*
X59537600Y-106056266D01*
X59655851Y-105938221D01*
X59719927Y-105783910D01*
X59720072Y-105616823D01*
X59656266Y-105462400D01*
X59620000Y-105426071D01*
X59620000Y-104500000D01*
X59595641Y-104377541D01*
X59526274Y-104273726D01*
X57320020Y-102067472D01*
X57320000Y-94883256D01*
X57376982Y-94826274D01*
X57394538Y-94800000D01*
X57446349Y-94722459D01*
X57470708Y-94600000D01*
X57470708Y-93250000D01*
X57465989Y-93226274D01*
X57446350Y-93127542D01*
X57376982Y-93023726D01*
X56920000Y-92566744D01*
X56920000Y-91874010D01*
X56955851Y-91838221D01*
X57019927Y-91683910D01*
X57020072Y-91516823D01*
X56956266Y-91362400D01*
X56838221Y-91244149D01*
X56683910Y-91180073D01*
X56516823Y-91179928D01*
X56362400Y-91243734D01*
X56350082Y-91256031D01*
X56338221Y-91244149D01*
X56183910Y-91180073D01*
X56016823Y-91179928D01*
X55862400Y-91243734D01*
X55850082Y-91256031D01*
X55838221Y-91244149D01*
X55683910Y-91180073D01*
X55516823Y-91179928D01*
X55362400Y-91243734D01*
X55350082Y-91256031D01*
X55338221Y-91244149D01*
X55183910Y-91180073D01*
X55016823Y-91179928D01*
X54862400Y-91243734D01*
X54744149Y-91361779D01*
X54680073Y-91516090D01*
X54679928Y-91683177D01*
X54743734Y-91837600D01*
X54861779Y-91955851D01*
X55016090Y-92019927D01*
X55183177Y-92020072D01*
X55280000Y-91980066D01*
X55280000Y-93000000D01*
X55304359Y-93122459D01*
X55353258Y-93195641D01*
X55373726Y-93226274D01*
X55580000Y-93432548D01*
X55580000Y-94800000D01*
X55604359Y-94922459D01*
X55622265Y-94949257D01*
X55673726Y-95026274D01*
X55980000Y-95332548D01*
X55980000Y-96303260D01*
X55851661Y-96174696D01*
X55623867Y-96080107D01*
X55377215Y-96079892D01*
X55149257Y-96174083D01*
X54974696Y-96348339D01*
X54880107Y-96576133D01*
X54879892Y-96822785D01*
X54974083Y-97050743D01*
X55148339Y-97225304D01*
X55376133Y-97319893D01*
X55622785Y-97320108D01*
X55850743Y-97225917D01*
X55980000Y-97096886D01*
X55980000Y-103686001D01*
X55938221Y-103644149D01*
X55783910Y-103580073D01*
X55616823Y-103579928D01*
X55462400Y-103643734D01*
X55344149Y-103761779D01*
X55280073Y-103916090D01*
X55279928Y-104083177D01*
X55343734Y-104237600D01*
X55461779Y-104355851D01*
X55616090Y-104419927D01*
X55783177Y-104420072D01*
X55937600Y-104356266D01*
X55980000Y-104313940D01*
X55980000Y-109167452D01*
X53473726Y-111673726D01*
X53440039Y-111724142D01*
X53333910Y-111680073D01*
X53166823Y-111679928D01*
X53012400Y-111743734D01*
X53000082Y-111756031D01*
X52988221Y-111744149D01*
X52833910Y-111680073D01*
X52666823Y-111679928D01*
X52512400Y-111743734D01*
X52500082Y-111756031D01*
X52488221Y-111744149D01*
X52333910Y-111680073D01*
X52166823Y-111679928D01*
X52012400Y-111743734D01*
X52000082Y-111756031D01*
X51988221Y-111744149D01*
X51833910Y-111680073D01*
X51666823Y-111679928D01*
X51512400Y-111743734D01*
X51500082Y-111756031D01*
X51488221Y-111744149D01*
X51333910Y-111680073D01*
X51166823Y-111679928D01*
X51012400Y-111743734D01*
X50975038Y-111781031D01*
X50938221Y-111744149D01*
X50783910Y-111680073D01*
X50616823Y-111679928D01*
X50462400Y-111743734D01*
X50450082Y-111756031D01*
X50438221Y-111744149D01*
X50283910Y-111680073D01*
X50116823Y-111679928D01*
X49962400Y-111743734D01*
X49844149Y-111861779D01*
X49780073Y-112016090D01*
X49779928Y-112183177D01*
X49799275Y-112230001D01*
X49749999Y-112230001D01*
X49726346Y-112234706D01*
X49627542Y-112254359D01*
X49627541Y-112254360D01*
X49627540Y-112254360D01*
X49575282Y-112289278D01*
X49523726Y-112323726D01*
X48973726Y-112873723D01*
X48904359Y-112977539D01*
X48880867Y-113095641D01*
X48880000Y-113099998D01*
X48880000Y-113625990D01*
X48844149Y-113661779D01*
X48780073Y-113816090D01*
X48779928Y-113983177D01*
X48799275Y-114030001D01*
X48682550Y-114030001D01*
X48520028Y-113867480D01*
X48520072Y-113816823D01*
X48456266Y-113662400D01*
X48338221Y-113544149D01*
X48183910Y-113480073D01*
X48016823Y-113479928D01*
X47862400Y-113543734D01*
X47744149Y-113661779D01*
X47680073Y-113816090D01*
X47679928Y-113983177D01*
X47370000Y-113983177D01*
X47370000Y-107233177D01*
X55129928Y-107233177D01*
X55193734Y-107387600D01*
X55311779Y-107505851D01*
X55466090Y-107569927D01*
X55633177Y-107570072D01*
X55787600Y-107506266D01*
X55905851Y-107388221D01*
X55969927Y-107233910D01*
X55970072Y-107066823D01*
X55906266Y-106912400D01*
X55788221Y-106794149D01*
X55633910Y-106730073D01*
X55466823Y-106729928D01*
X55312400Y-106793734D01*
X55194149Y-106911779D01*
X55130073Y-107066090D01*
X55129928Y-107233177D01*
X47370000Y-107233177D01*
X47370000Y-97583177D01*
X54079928Y-97583177D01*
X54143734Y-97737600D01*
X54261779Y-97855851D01*
X54416090Y-97919927D01*
X54583177Y-97920072D01*
X54737600Y-97856266D01*
X54855851Y-97738221D01*
X54919927Y-97583910D01*
X54920072Y-97416823D01*
X54856266Y-97262400D01*
X54738221Y-97144149D01*
X54583910Y-97080073D01*
X54416823Y-97079928D01*
X54262400Y-97143734D01*
X54144149Y-97261779D01*
X54080073Y-97416090D01*
X54079928Y-97583177D01*
X47370000Y-97583177D01*
X47370000Y-91170000D01*
X49850000Y-91170000D01*
X49876081Y-91164812D01*
X49902674Y-91164812D01*
X50094016Y-91126752D01*
X50094017Y-91126752D01*
X50191347Y-91086436D01*
X50353558Y-90978049D01*
X50361607Y-90970000D01*
X53938393Y-90970000D01*
X53946442Y-90978049D01*
X53946442Y-90978049D01*
G37*
X53946442Y-90978049D02*
X54108653Y-91086436D01*
X54205983Y-91126752D01*
X54205984Y-91126752D01*
X54397326Y-91164812D01*
X54423919Y-91164812D01*
X54450000Y-91170000D01*
X57330000Y-91170000D01*
X57356081Y-91164812D01*
X57382674Y-91164812D01*
X57574016Y-91126752D01*
X57574017Y-91126752D01*
X57671347Y-91086436D01*
X57833558Y-90978049D01*
X57841607Y-90970000D01*
X58818393Y-90970000D01*
X58826442Y-90978049D01*
X58988653Y-91086436D01*
X59085983Y-91126752D01*
X59085984Y-91126752D01*
X59277326Y-91164812D01*
X59303919Y-91164812D01*
X59330000Y-91170000D01*
X64222137Y-91170000D01*
X64190883Y-91190883D01*
X60801766Y-94580000D01*
X59600000Y-94580000D01*
X59324468Y-94634807D01*
X59090883Y-94790883D01*
X58490883Y-95390883D01*
X58334807Y-95624468D01*
X58280000Y-95900000D01*
X58280000Y-95919973D01*
X58183910Y-95880073D01*
X58016823Y-95879928D01*
X57862400Y-95943734D01*
X57744149Y-96061779D01*
X57680073Y-96216090D01*
X57679928Y-96383177D01*
X57743734Y-96537600D01*
X57861779Y-96655851D01*
X58016090Y-96719927D01*
X58183177Y-96720072D01*
X58280000Y-96680066D01*
X58280000Y-99600000D01*
X58334807Y-99875532D01*
X58490883Y-100109117D01*
X58724468Y-100265193D01*
X59000000Y-100320000D01*
X59275532Y-100265193D01*
X59509117Y-100109117D01*
X59665193Y-99875532D01*
X59677736Y-99812477D01*
X59816090Y-99869927D01*
X59983177Y-99870072D01*
X60030001Y-99850725D01*
X60030001Y-106226001D01*
X58303015Y-107952986D01*
X58211971Y-108089244D01*
X58180000Y-108249971D01*
X58180000Y-117400000D01*
X58211971Y-117560727D01*
X58303015Y-117696985D01*
X59103015Y-118496985D01*
X59103017Y-118496986D01*
X59161779Y-118555851D01*
X59316090Y-118619927D01*
X59399999Y-118620000D01*
X59400001Y-118620000D01*
X59483177Y-118620072D01*
X59637600Y-118556266D01*
X59696983Y-118496986D01*
X59696985Y-118496985D01*
X59696986Y-118496983D01*
X59755851Y-118438221D01*
X59819927Y-118283910D01*
X59820072Y-118116823D01*
X59756266Y-117962400D01*
X59696986Y-117903017D01*
X59696985Y-117903015D01*
X59696630Y-117902660D01*
X59638221Y-117844149D01*
X59638047Y-117844077D01*
X59020000Y-117226030D01*
X59020000Y-116333177D01*
X59129928Y-116333177D01*
X59193734Y-116487600D01*
X59311779Y-116605851D01*
X59466090Y-116669927D01*
X59633177Y-116670072D01*
X59787600Y-116606266D01*
X59905851Y-116488221D01*
X59969927Y-116333910D01*
X59970072Y-116166823D01*
X59906266Y-116012400D01*
X59788221Y-115894149D01*
X59633910Y-115830073D01*
X59466823Y-115829928D01*
X59312400Y-115893734D01*
X59194149Y-116011779D01*
X59130073Y-116166090D01*
X59129928Y-116333177D01*
X59020000Y-116333177D01*
X59020000Y-112483177D01*
X59129917Y-112483177D01*
X59193723Y-112637600D01*
X59311768Y-112755851D01*
X59466079Y-112819927D01*
X59633166Y-112820072D01*
X59787589Y-112756266D01*
X59905840Y-112638221D01*
X59969916Y-112483910D01*
X59970061Y-112316823D01*
X59906255Y-112162400D01*
X59788210Y-112044149D01*
X59633899Y-111980073D01*
X59466812Y-111979928D01*
X59312389Y-112043734D01*
X59194138Y-112161779D01*
X59130062Y-112316090D01*
X59129917Y-112483177D01*
X59020000Y-112483177D01*
X59020000Y-108423941D01*
X60378563Y-107065378D01*
X60418734Y-107162600D01*
X60536779Y-107280851D01*
X60691090Y-107344927D01*
X60858177Y-107345072D01*
X61012600Y-107281266D01*
X61128629Y-107165439D01*
X61184610Y-107221519D01*
X61069149Y-107336779D01*
X61005073Y-107491090D01*
X61004928Y-107658177D01*
X61068734Y-107812600D01*
X61156031Y-107900049D01*
X61099951Y-107956031D01*
X61013221Y-107869149D01*
X60858910Y-107805073D01*
X60691823Y-107804928D01*
X60537400Y-107868734D01*
X60419149Y-107986779D01*
X60355073Y-108141090D01*
X60354928Y-108308177D01*
X60418734Y-108462600D01*
X60506031Y-108550049D01*
X60419149Y-108636779D01*
X60401635Y-108678957D01*
X60283910Y-108630073D01*
X60116823Y-108629928D01*
X59962400Y-108693734D01*
X59844149Y-108811779D01*
X59780073Y-108966090D01*
X59779928Y-109133177D01*
X59836353Y-109269736D01*
X59744149Y-109361779D01*
X59680073Y-109516090D01*
X59679928Y-109683177D01*
X59743734Y-109837600D01*
X59861779Y-109955851D01*
X60016090Y-110019927D01*
X60183177Y-110020072D01*
X60337600Y-109956266D01*
X60455851Y-109838221D01*
X60519927Y-109683910D01*
X60520004Y-109595001D01*
X61004939Y-109595001D01*
X61004928Y-109608177D01*
X61068734Y-109762600D01*
X61186779Y-109880851D01*
X61341090Y-109944927D01*
X61508177Y-109945072D01*
X61662600Y-109881266D01*
X61750049Y-109793969D01*
X61836779Y-109880851D01*
X61991090Y-109944927D01*
X62158177Y-109945072D01*
X62312600Y-109881266D01*
X62430851Y-109763221D01*
X62494927Y-109608910D01*
X62495072Y-109441823D01*
X62431266Y-109287400D01*
X62313221Y-109169149D01*
X62158910Y-109105073D01*
X62107576Y-109105028D01*
X62051275Y-109048727D01*
X61947460Y-108979360D01*
X61928046Y-108975498D01*
X61826274Y-108873726D01*
X61801697Y-108857304D01*
X61722459Y-108804359D01*
X61600000Y-108780000D01*
X61216002Y-108780000D01*
X61192147Y-108784745D01*
X61131266Y-108637400D01*
X61043969Y-108549951D01*
X61100049Y-108493969D01*
X61186779Y-108580851D01*
X61341090Y-108644927D01*
X61508177Y-108645072D01*
X61662600Y-108581266D01*
X61750049Y-108493969D01*
X61836779Y-108580851D01*
X61991090Y-108644927D01*
X62158177Y-108645072D01*
X62312600Y-108581266D01*
X62430851Y-108463221D01*
X62494927Y-108308910D01*
X62495072Y-108141823D01*
X62431266Y-107987400D01*
X62313221Y-107869149D01*
X62158910Y-107805073D01*
X61991823Y-107804928D01*
X61837400Y-107868734D01*
X61749951Y-107956031D01*
X61693969Y-107899951D01*
X61780851Y-107813221D01*
X61844927Y-107658910D01*
X61845072Y-107491823D01*
X61781266Y-107337400D01*
X61693945Y-107249926D01*
X61809406Y-107134666D01*
X61873482Y-106980355D01*
X61873627Y-106813268D01*
X61809821Y-106658845D01*
X61691776Y-106540594D01*
X61620000Y-106510790D01*
X61619999Y-100684043D01*
X61620010Y-100683988D01*
X61620000Y-100683938D01*
X61620000Y-98013999D01*
X61661779Y-98055851D01*
X61816090Y-98119927D01*
X61983177Y-98120072D01*
X62137600Y-98056266D01*
X62255851Y-97938221D01*
X62319927Y-97783910D01*
X62320072Y-97616823D01*
X62256266Y-97462400D01*
X62138221Y-97344149D01*
X62067211Y-97314663D01*
X61872548Y-97120000D01*
X62467452Y-97120000D01*
X63179989Y-97832537D01*
X63179989Y-100360979D01*
X63204348Y-100483438D01*
X63256534Y-100561540D01*
X63273715Y-100587253D01*
X64080000Y-101393538D01*
X64080000Y-105067157D01*
X64104359Y-105189616D01*
X64173726Y-105293431D01*
X65005000Y-106124705D01*
X65005000Y-106650990D01*
X64999951Y-106656031D01*
X64913221Y-106569149D01*
X64758910Y-106505073D01*
X64719995Y-106505039D01*
X64720072Y-106416843D01*
X64656266Y-106262420D01*
X64538221Y-106144169D01*
X64383910Y-106080093D01*
X64216823Y-106079948D01*
X64062400Y-106143754D01*
X64050082Y-106156051D01*
X64038221Y-106144169D01*
X63883910Y-106080093D01*
X63716823Y-106079948D01*
X63562400Y-106143754D01*
X63444149Y-106261799D01*
X63380073Y-106416110D01*
X63379996Y-106505005D01*
X63291823Y-106504928D01*
X63137400Y-106568734D01*
X63049951Y-106656031D01*
X62963221Y-106569149D01*
X62808910Y-106505073D01*
X62641823Y-106504928D01*
X62487400Y-106568734D01*
X62369149Y-106686779D01*
X62305073Y-106841090D01*
X62304928Y-107008177D01*
X62368734Y-107162600D01*
X62486779Y-107280851D01*
X62641090Y-107344927D01*
X62808177Y-107345072D01*
X62962600Y-107281266D01*
X63050049Y-107193969D01*
X63106031Y-107250049D01*
X63019149Y-107336779D01*
X62955073Y-107491090D01*
X62954928Y-107658177D01*
X63018734Y-107812600D01*
X63136779Y-107930851D01*
X63291090Y-107994927D01*
X63458177Y-107995072D01*
X63612600Y-107931266D01*
X63730851Y-107813221D01*
X63794927Y-107658910D01*
X63795072Y-107491823D01*
X63731266Y-107337400D01*
X63643969Y-107249951D01*
X63730851Y-107163221D01*
X63794927Y-107008910D01*
X63795004Y-106920015D01*
X63883177Y-106920092D01*
X64037600Y-106856286D01*
X64049918Y-106843989D01*
X64061779Y-106855871D01*
X64216090Y-106919947D01*
X64255005Y-106919981D01*
X64254928Y-107008177D01*
X64318734Y-107162600D01*
X64351764Y-107195688D01*
X63798726Y-107748726D01*
X63729359Y-107852541D01*
X63705000Y-107975000D01*
X63705000Y-108600990D01*
X63669149Y-108636779D01*
X63605073Y-108791090D01*
X63604928Y-108958177D01*
X63668734Y-109112600D01*
X63786779Y-109230851D01*
X63890633Y-109273975D01*
X63007304Y-110157304D01*
X63007302Y-110157307D01*
X62859609Y-110305000D01*
X62075000Y-110305000D01*
X61876005Y-110344583D01*
X61707304Y-110457304D01*
X61594583Y-110626005D01*
X61555000Y-110825000D01*
X61594583Y-111023995D01*
X61707304Y-111192696D01*
X61740853Y-111215113D01*
X61719149Y-111236779D01*
X61661514Y-111375579D01*
X61658597Y-111374999D01*
X61200000Y-111374999D01*
X61077541Y-111399358D01*
X61011128Y-111443734D01*
X60973726Y-111468725D01*
X60962451Y-111480000D01*
X60724010Y-111480000D01*
X60688221Y-111444149D01*
X60533910Y-111380073D01*
X60366823Y-111379928D01*
X60212400Y-111443734D01*
X60094149Y-111561779D01*
X60030073Y-111716090D01*
X60029928Y-111883177D01*
X60093734Y-112037600D01*
X60211779Y-112155851D01*
X60256874Y-112174576D01*
X60098725Y-112332725D01*
X60029358Y-112436540D01*
X60004999Y-112558999D01*
X60004999Y-112991001D01*
X60029358Y-113113460D01*
X60084277Y-113195652D01*
X60098725Y-113217275D01*
X60604979Y-113723529D01*
X60604979Y-114009584D01*
X60533910Y-113980073D01*
X60366823Y-113979928D01*
X60212400Y-114043734D01*
X60094149Y-114161779D01*
X60030073Y-114316090D01*
X60029928Y-114483177D01*
X60093734Y-114637600D01*
X60211779Y-114755851D01*
X60366090Y-114819927D01*
X60533177Y-114820072D01*
X60604979Y-114790404D01*
X60604979Y-115330346D01*
X60483910Y-115280073D01*
X60316823Y-115279928D01*
X60162400Y-115343734D01*
X60044149Y-115461779D01*
X59980073Y-115616090D01*
X59979928Y-115783177D01*
X60043734Y-115937600D01*
X60080000Y-115973929D01*
X60080000Y-116501750D01*
X60029358Y-116577541D01*
X60004999Y-116700000D01*
X60004999Y-118942453D01*
X58617452Y-120330000D01*
X56074010Y-120330000D01*
X56038221Y-120294149D01*
X55883910Y-120230073D01*
X55716823Y-120229928D01*
X55562400Y-120293734D01*
X55444149Y-120411779D01*
X55380073Y-120566090D01*
X55379928Y-120733177D01*
X55443734Y-120887600D01*
X55561779Y-121005851D01*
X55716090Y-121069927D01*
X55883177Y-121070072D01*
X56037600Y-121006266D01*
X56073929Y-120970000D01*
X58750000Y-120970000D01*
X58872459Y-120945641D01*
X58976274Y-120876274D01*
X60551273Y-119301275D01*
X60563869Y-119282424D01*
X60620640Y-119197460D01*
X60644999Y-119075001D01*
X60644999Y-117400788D01*
X60691090Y-117419927D01*
X60858177Y-117420072D01*
X61004970Y-117359419D01*
X61004928Y-117408177D01*
X61068734Y-117562600D01*
X61186779Y-117680851D01*
X61341090Y-117744927D01*
X61508177Y-117745072D01*
X61554969Y-117725738D01*
X61554969Y-118492483D01*
X59917523Y-120129929D01*
X59916823Y-120129928D01*
X59762400Y-120193734D01*
X59644149Y-120311779D01*
X59580073Y-120466090D01*
X59579928Y-120633177D01*
X59643734Y-120787600D01*
X59761779Y-120905851D01*
X59916090Y-120969927D01*
X60083177Y-120970072D01*
X60237600Y-120906266D01*
X60300005Y-120843969D01*
X60361779Y-120905851D01*
X60516090Y-120969927D01*
X60683177Y-120970072D01*
X60837600Y-120906266D01*
X60950092Y-120793970D01*
X61061779Y-120905851D01*
X61216090Y-120969927D01*
X61383177Y-120970072D01*
X61537600Y-120906266D01*
X61650092Y-120793970D01*
X61761779Y-120905851D01*
X61916090Y-120969927D01*
X62083177Y-120970072D01*
X62237600Y-120906266D01*
X62300005Y-120843969D01*
X62361779Y-120905851D01*
X62516090Y-120969927D01*
X62683177Y-120970072D01*
X62837600Y-120906266D01*
X62900005Y-120843969D01*
X62961779Y-120905851D01*
X63116090Y-120969927D01*
X63283177Y-120970072D01*
X63437600Y-120906266D01*
X63500005Y-120843969D01*
X63561779Y-120905851D01*
X63716090Y-120969927D01*
X63883177Y-120970072D01*
X64037600Y-120906266D01*
X64100005Y-120843969D01*
X64161779Y-120905851D01*
X64316090Y-120969927D01*
X64483177Y-120970072D01*
X64637600Y-120906266D01*
X64700005Y-120843969D01*
X64761779Y-120905851D01*
X64916090Y-120969927D01*
X65083177Y-120970072D01*
X65237600Y-120906266D01*
X65355851Y-120788221D01*
X65419927Y-120633910D01*
X65420072Y-120466823D01*
X65356266Y-120312400D01*
X65320000Y-120276071D01*
X65320000Y-120058934D01*
X67476275Y-117902660D01*
X67545642Y-117798844D01*
X67570000Y-117676386D01*
X67570000Y-117224010D01*
X67605000Y-117189071D01*
X67605000Y-119597464D01*
X67041352Y-120161112D01*
X66962400Y-120193734D01*
X66844149Y-120311779D01*
X66780073Y-120466090D01*
X66779928Y-120633177D01*
X66843734Y-120787600D01*
X66961779Y-120905851D01*
X67116090Y-120969927D01*
X67283177Y-120970072D01*
X67437600Y-120906266D01*
X67500005Y-120843969D01*
X67561779Y-120905851D01*
X67716090Y-120969927D01*
X67883177Y-120970072D01*
X68037600Y-120906266D01*
X68100005Y-120843969D01*
X68161779Y-120905851D01*
X68316090Y-120969927D01*
X68483177Y-120970072D01*
X68637600Y-120906266D01*
X68700005Y-120843969D01*
X68761779Y-120905851D01*
X68916090Y-120969927D01*
X69083177Y-120970072D01*
X69201701Y-120921099D01*
X69219583Y-121010997D01*
X69332304Y-121179698D01*
X69720301Y-121567694D01*
X69720303Y-121567697D01*
X69821432Y-121635268D01*
X69889003Y-121680418D01*
X70087999Y-121720001D01*
X72099994Y-121720001D01*
X72099999Y-121720002D01*
X72298994Y-121680418D01*
X72467695Y-121567697D01*
X72967693Y-121067698D01*
X72967696Y-121067696D01*
X73066322Y-120920090D01*
X73080417Y-120898996D01*
X73084491Y-120878515D01*
X73111779Y-120905851D01*
X73266090Y-120969927D01*
X73433177Y-120970072D01*
X73587600Y-120906266D01*
X73705851Y-120788221D01*
X73723974Y-120744576D01*
X74026275Y-120442275D01*
X74039516Y-120422458D01*
X74095642Y-120338460D01*
X74120001Y-120216001D01*
X74120001Y-116448549D01*
X74226275Y-116342275D01*
X74295643Y-116238459D01*
X74320001Y-116116001D01*
X74320001Y-115083999D01*
X74295642Y-114961540D01*
X74291224Y-114954928D01*
X74226275Y-114857724D01*
X73942273Y-114573723D01*
X73899494Y-114545139D01*
X73868093Y-114524158D01*
X73788221Y-114444146D01*
X73633910Y-114380070D01*
X73466823Y-114379925D01*
X73312400Y-114443731D01*
X73194149Y-114561776D01*
X73130073Y-114716087D01*
X73129928Y-114883174D01*
X73193734Y-115037597D01*
X73311779Y-115155848D01*
X73466090Y-115219924D01*
X73633177Y-115220069D01*
X73668802Y-115205349D01*
X73680001Y-115216548D01*
X73680001Y-115499212D01*
X73633910Y-115480073D01*
X73466823Y-115479928D01*
X73312400Y-115543734D01*
X73194149Y-115661779D01*
X73130073Y-115816090D01*
X73129928Y-115983177D01*
X73193734Y-116137600D01*
X73311779Y-116255851D01*
X73466090Y-116319927D01*
X73480001Y-116319939D01*
X73480001Y-117499212D01*
X73433910Y-117480073D01*
X73266823Y-117479928D01*
X73120000Y-117540594D01*
X73120000Y-113883177D01*
X73129928Y-113883177D01*
X73193734Y-114037600D01*
X73311779Y-114155851D01*
X73466090Y-114219927D01*
X73633177Y-114220072D01*
X73787600Y-114156266D01*
X73905851Y-114038221D01*
X73969927Y-113883910D01*
X73970072Y-113716823D01*
X73906266Y-113562400D01*
X73788221Y-113444149D01*
X73633910Y-113380073D01*
X73466823Y-113379928D01*
X73312400Y-113443734D01*
X73194149Y-113561779D01*
X73130073Y-113716090D01*
X73129928Y-113883177D01*
X73120000Y-113883177D01*
X73120000Y-112483177D01*
X73129928Y-112483177D01*
X73193734Y-112637600D01*
X73311779Y-112755851D01*
X73466090Y-112819927D01*
X73633177Y-112820072D01*
X73787600Y-112756266D01*
X73905851Y-112638221D01*
X73969927Y-112483910D01*
X73970072Y-112316823D01*
X73906266Y-112162400D01*
X73788221Y-112044149D01*
X73633910Y-111980073D01*
X73466823Y-111979928D01*
X73312400Y-112043734D01*
X73194149Y-112161779D01*
X73130073Y-112316090D01*
X73129928Y-112483177D01*
X73120000Y-112483177D01*
X73120000Y-110380027D01*
X73176781Y-110403605D01*
X73130073Y-110516090D01*
X73129928Y-110683177D01*
X73193734Y-110837600D01*
X73206031Y-110849918D01*
X73194149Y-110861779D01*
X73130073Y-111016090D01*
X73129928Y-111183177D01*
X73193734Y-111337600D01*
X73311779Y-111455851D01*
X73466090Y-111519927D01*
X73633177Y-111520072D01*
X73787600Y-111456266D01*
X73905851Y-111338221D01*
X73969927Y-111183910D01*
X73970072Y-111016823D01*
X73906266Y-110862400D01*
X73893969Y-110850082D01*
X73905851Y-110838221D01*
X73969927Y-110683910D01*
X73970072Y-110516823D01*
X73906266Y-110362400D01*
X73788221Y-110244149D01*
X73673219Y-110196395D01*
X73719927Y-110083910D01*
X73720072Y-109916823D01*
X73656266Y-109762400D01*
X73538221Y-109644149D01*
X73383910Y-109580073D01*
X73216823Y-109579928D01*
X73120000Y-109619934D01*
X73120000Y-109283177D01*
X73679928Y-109283177D01*
X73743734Y-109437600D01*
X73861779Y-109555851D01*
X74016090Y-109619927D01*
X74183177Y-109620072D01*
X74337600Y-109556266D01*
X74455851Y-109438221D01*
X74519927Y-109283910D01*
X74520072Y-109116823D01*
X74456266Y-108962400D01*
X74338221Y-108844149D01*
X74183910Y-108780073D01*
X74016823Y-108779928D01*
X73862400Y-108843734D01*
X73744149Y-108961779D01*
X73680073Y-109116090D01*
X73679928Y-109283177D01*
X73120000Y-109283177D01*
X73120000Y-107209472D01*
X73120001Y-107209467D01*
X73080417Y-107010471D01*
X73014473Y-106911779D01*
X72967696Y-106841771D01*
X72967693Y-106841769D01*
X72259102Y-106133177D01*
X73129928Y-106133177D01*
X73193734Y-106287600D01*
X73311779Y-106405851D01*
X73466090Y-106469927D01*
X73633177Y-106470072D01*
X73787600Y-106406266D01*
X73905851Y-106288221D01*
X73969927Y-106133910D01*
X73970072Y-105966823D01*
X73906266Y-105812400D01*
X73788221Y-105694149D01*
X73633910Y-105630073D01*
X73466823Y-105629928D01*
X73312400Y-105693734D01*
X73194149Y-105811779D01*
X73130073Y-105966090D01*
X73129928Y-106133177D01*
X72259102Y-106133177D01*
X72220000Y-106094075D01*
X72220000Y-104780027D01*
X72316090Y-104819927D01*
X72483177Y-104820072D01*
X72637600Y-104756266D01*
X72755851Y-104638221D01*
X72819927Y-104483910D01*
X72820072Y-104316823D01*
X72764851Y-104183177D01*
X73479928Y-104183177D01*
X73543734Y-104337600D01*
X73661779Y-104455851D01*
X73816090Y-104519927D01*
X73983177Y-104520072D01*
X74137600Y-104456266D01*
X74255851Y-104338221D01*
X74319927Y-104183910D01*
X74320072Y-104016823D01*
X74256266Y-103862400D01*
X74138221Y-103744149D01*
X73983910Y-103680073D01*
X73816823Y-103679928D01*
X73662400Y-103743734D01*
X73544149Y-103861779D01*
X73480073Y-104016090D01*
X73479928Y-104183177D01*
X72764851Y-104183177D01*
X72756266Y-104162400D01*
X72638221Y-104044149D01*
X72483910Y-103980073D01*
X72316823Y-103979928D01*
X72220000Y-104019934D01*
X72220000Y-102100000D01*
X72180417Y-101901005D01*
X72067696Y-101732304D01*
X71898995Y-101619583D01*
X71700000Y-101580000D01*
X71501005Y-101619583D01*
X71332304Y-101732304D01*
X71219583Y-101901005D01*
X71180000Y-102100000D01*
X71180000Y-106244608D01*
X70520001Y-105584609D01*
X70520010Y-103200002D01*
X70520010Y-103199998D01*
X70494400Y-103071252D01*
X70480428Y-103001007D01*
X70480426Y-103001003D01*
X70423687Y-102916087D01*
X70367707Y-102832305D01*
X70367705Y-102832303D01*
X70203401Y-102722520D01*
X70199007Y-102719584D01*
X70199006Y-102719584D01*
X70199005Y-102719583D01*
X70079178Y-102695748D01*
X70000012Y-102680000D01*
X70000000Y-102680000D01*
X69801005Y-102719583D01*
X69632304Y-102832304D01*
X69589839Y-102895858D01*
X69538221Y-102844149D01*
X69469085Y-102815441D01*
X70326274Y-101958252D01*
X70395642Y-101854436D01*
X70420000Y-101731978D01*
X70420000Y-100783177D01*
X71879928Y-100783177D01*
X71943734Y-100937600D01*
X72061779Y-101055851D01*
X72216090Y-101119927D01*
X72383177Y-101120072D01*
X72537600Y-101056266D01*
X72655851Y-100938221D01*
X72719927Y-100783910D01*
X72720072Y-100616823D01*
X72656266Y-100462400D01*
X72538221Y-100344149D01*
X72383910Y-100280073D01*
X72216823Y-100279928D01*
X72062400Y-100343734D01*
X71944149Y-100461779D01*
X71880073Y-100616090D01*
X71879928Y-100783177D01*
X70420000Y-100783177D01*
X70420000Y-99932548D01*
X71329763Y-99022785D01*
X73079892Y-99022785D01*
X73174083Y-99250743D01*
X73348339Y-99425304D01*
X73576133Y-99519893D01*
X73822785Y-99520108D01*
X74050743Y-99425917D01*
X74225304Y-99251661D01*
X74319893Y-99023867D01*
X74320108Y-98777215D01*
X74225917Y-98549257D01*
X74051661Y-98374696D01*
X73823867Y-98280107D01*
X73577215Y-98279892D01*
X73349257Y-98374083D01*
X73174696Y-98548339D01*
X73080107Y-98776133D01*
X73079892Y-99022785D01*
X71329763Y-99022785D01*
X71532548Y-98820000D01*
X71675990Y-98820000D01*
X71711779Y-98855851D01*
X71866090Y-98919927D01*
X72033177Y-98920072D01*
X72187600Y-98856266D01*
X72305851Y-98738221D01*
X72369927Y-98583910D01*
X72370072Y-98416823D01*
X72306266Y-98262400D01*
X72188221Y-98144149D01*
X72033910Y-98080073D01*
X71866823Y-98079928D01*
X71712400Y-98143734D01*
X71676071Y-98180000D01*
X71400000Y-98180000D01*
X71277542Y-98204358D01*
X71173726Y-98273726D01*
X69873726Y-99573726D01*
X69804359Y-99677541D01*
X69780000Y-99800000D01*
X69780000Y-101599430D01*
X69569999Y-101809431D01*
X69569999Y-99858047D01*
X69570011Y-99857987D01*
X69570011Y-99332548D01*
X69726274Y-99176285D01*
X69762240Y-99122458D01*
X69795641Y-99072470D01*
X69820000Y-98950011D01*
X69820000Y-96442589D01*
X72779875Y-96442589D01*
X72889257Y-96707315D01*
X73091620Y-96910031D01*
X73356155Y-97019875D01*
X73642589Y-97020125D01*
X73907315Y-96910743D01*
X74110031Y-96708380D01*
X74219875Y-96443845D01*
X74220125Y-96157411D01*
X74110743Y-95892685D01*
X73908380Y-95689969D01*
X73643845Y-95580125D01*
X73357411Y-95579875D01*
X73092685Y-95689257D01*
X72889969Y-95891620D01*
X72780125Y-96156155D01*
X72779875Y-96442589D01*
X69820000Y-96442589D01*
X69820000Y-93300000D01*
X69795641Y-93177541D01*
X69762232Y-93127541D01*
X69726274Y-93073725D01*
X69072548Y-92420000D01*
X69399372Y-92420000D01*
X69542589Y-92420125D01*
X69807315Y-92310743D01*
X70010031Y-92108380D01*
X70119875Y-91843845D01*
X70120125Y-91557411D01*
X70010743Y-91292685D01*
X69888272Y-91170000D01*
X73850000Y-91170000D01*
X73876081Y-91164812D01*
X73892674Y-91164812D01*
X74084016Y-91126752D01*
X74084017Y-91126752D01*
X74181347Y-91086436D01*
X74343558Y-90978049D01*
X74351607Y-90970000D01*
X75328393Y-90970000D01*
X75336442Y-90978049D01*
X75498653Y-91086436D01*
X75595983Y-91126752D01*
X75595984Y-91126752D01*
X75787326Y-91164812D01*
X75813919Y-91164812D01*
X75840000Y-91170000D01*
X76630000Y-91170000D01*
X76630000Y-124330000D01*
X74050000Y-124330000D01*
X74050000Y-124100000D01*
X74044812Y-124073919D01*
X74044812Y-124047326D01*
X74006752Y-123855984D01*
X74006752Y-123855983D01*
X73966436Y-123758653D01*
X73858049Y-123596442D01*
X73820803Y-123559197D01*
X73783558Y-123521951D01*
X73621347Y-123413564D01*
X73524017Y-123373248D01*
X73524016Y-123373248D01*
X73332674Y-123335188D01*
X73306081Y-123335188D01*
X73280000Y-123330000D01*
X59890000Y-123330000D01*
X59863919Y-123335188D01*
X59837326Y-123335188D01*
X59645984Y-123373248D01*
X59645983Y-123373248D01*
X59548653Y-123413564D01*
X59386442Y-123521951D01*
X59349197Y-123559197D01*
X59311951Y-123596442D01*
X59203564Y-123758653D01*
X59163248Y-123855983D01*
X59163248Y-123855984D01*
X59125188Y-124047326D01*
X59125188Y-124073919D01*
X59120000Y-124100000D01*
X59120000Y-124330000D01*
X47370000Y-124330000D01*
X47370000Y-123683177D01*
X49179928Y-123683177D01*
X49243734Y-123837600D01*
X49361779Y-123955851D01*
X49516090Y-124019927D01*
X49683177Y-124020072D01*
X49837600Y-123956266D01*
X49955851Y-123838221D01*
X50019927Y-123683910D01*
X50020072Y-123516823D01*
X49956266Y-123362400D01*
X49838221Y-123244149D01*
X49683910Y-123180073D01*
X49516823Y-123179928D01*
X49362400Y-123243734D01*
X49244149Y-123361779D01*
X49180073Y-123516090D01*
X49179928Y-123683177D01*
X47370000Y-123683177D01*
X47370000Y-119833177D01*
X55379928Y-119833177D01*
X55443734Y-119987600D01*
X55561779Y-120105851D01*
X55716090Y-120169927D01*
X55883177Y-120170072D01*
X56037600Y-120106266D01*
X56155851Y-119988221D01*
X56219927Y-119833910D01*
X56220072Y-119666823D01*
X56156266Y-119512400D01*
X56038221Y-119394149D01*
X55883910Y-119330073D01*
X55716823Y-119329928D01*
X55562400Y-119393734D01*
X55444149Y-119511779D01*
X55380073Y-119666090D01*
X55379928Y-119833177D01*
X47370000Y-119833177D01*
X47370000Y-119283177D01*
X47379928Y-119283177D01*
X47443734Y-119437600D01*
X47561779Y-119555851D01*
X47716090Y-119619927D01*
X47883177Y-119620072D01*
X48037600Y-119556266D01*
X48155851Y-119438221D01*
X48219927Y-119283910D01*
X48219972Y-119232576D01*
X49069371Y-118383177D01*
X55379928Y-118383177D01*
X55443734Y-118537600D01*
X55481031Y-118574962D01*
X55444149Y-118611779D01*
X55380073Y-118766090D01*
X55379928Y-118933177D01*
X55443734Y-119087600D01*
X55561779Y-119205851D01*
X55716090Y-119269927D01*
X55883177Y-119270072D01*
X56037600Y-119206266D01*
X56155851Y-119088221D01*
X56219927Y-118933910D01*
X56220072Y-118766823D01*
X56156266Y-118612400D01*
X56118969Y-118575038D01*
X56155851Y-118538221D01*
X56219927Y-118383910D01*
X56220072Y-118216823D01*
X56156266Y-118062400D01*
X56038221Y-117944149D01*
X55883910Y-117880073D01*
X55716823Y-117879928D01*
X55562400Y-117943734D01*
X55444149Y-118061779D01*
X55380073Y-118216090D01*
X55379928Y-118383177D01*
X49069371Y-118383177D01*
X50526274Y-116926274D01*
X50595641Y-116822459D01*
X50620000Y-116700000D01*
X50620000Y-116274010D01*
X50655851Y-116238221D01*
X50719927Y-116083910D01*
X50719999Y-116000391D01*
X51674764Y-116000391D01*
X51738570Y-116154814D01*
X51856615Y-116273065D01*
X52010926Y-116337141D01*
X52178013Y-116337286D01*
X52332436Y-116273480D01*
X52450687Y-116155435D01*
X52514763Y-116001124D01*
X52514908Y-115834037D01*
X52451102Y-115679614D01*
X52333057Y-115561363D01*
X52178746Y-115497287D01*
X52011659Y-115497142D01*
X51857236Y-115560948D01*
X51738985Y-115678993D01*
X51674909Y-115833304D01*
X51674764Y-116000391D01*
X50719999Y-116000391D01*
X50720072Y-115916823D01*
X50656266Y-115762400D01*
X50538221Y-115644149D01*
X50383910Y-115580073D01*
X50216823Y-115579928D01*
X50062400Y-115643734D01*
X49944149Y-115761779D01*
X49880073Y-115916090D01*
X49879928Y-116083177D01*
X49943734Y-116237600D01*
X49980000Y-116273929D01*
X49980000Y-116567452D01*
X47767480Y-118779972D01*
X47716823Y-118779928D01*
X47562400Y-118843734D01*
X47444149Y-118961779D01*
X47380073Y-119116090D01*
X47379928Y-119283177D01*
X47370000Y-119283177D01*
X47370000Y-113983177D01*
X47679928Y-113983177D01*
X47743734Y-114137600D01*
X47861779Y-114255851D01*
X48016090Y-114319927D01*
X48067423Y-114319972D01*
X48323727Y-114576276D01*
X48427543Y-114645643D01*
X48550001Y-114670001D01*
X49416001Y-114670001D01*
X49538460Y-114645642D01*
X49642275Y-114576275D01*
X49876275Y-114342275D01*
X49945642Y-114238460D01*
X49970001Y-114116001D01*
X49970001Y-114084299D01*
X50176133Y-114169893D01*
X50422785Y-114170108D01*
X50423046Y-114170000D01*
X52780000Y-114170000D01*
X52780000Y-115625990D01*
X52744149Y-115661779D01*
X52680073Y-115816090D01*
X52679928Y-115983177D01*
X52743734Y-116137600D01*
X52861779Y-116255851D01*
X53016090Y-116319927D01*
X53183177Y-116320072D01*
X53337600Y-116256266D01*
X53455851Y-116138221D01*
X53519927Y-115983910D01*
X53519927Y-115983177D01*
X53979928Y-115983177D01*
X54043734Y-116137600D01*
X54161779Y-116255851D01*
X54316090Y-116319927D01*
X54483177Y-116320072D01*
X54637600Y-116256266D01*
X54755851Y-116138221D01*
X54819927Y-115983910D01*
X54820072Y-115816823D01*
X54756266Y-115662400D01*
X54638221Y-115544149D01*
X54483910Y-115480073D01*
X54316823Y-115479928D01*
X54162400Y-115543734D01*
X54044149Y-115661779D01*
X53980073Y-115816090D01*
X53979928Y-115983177D01*
X53519927Y-115983177D01*
X53520072Y-115816823D01*
X53456266Y-115662400D01*
X53420000Y-115626071D01*
X53420000Y-114170000D01*
X57050000Y-114170000D01*
X57287264Y-114122805D01*
X57488406Y-113988406D01*
X57837737Y-113639075D01*
X57925304Y-113551661D01*
X58019893Y-113323867D01*
X58020108Y-113077215D01*
X58020000Y-113076954D01*
X58020000Y-104001115D01*
X58020108Y-103877215D01*
X57925917Y-103649257D01*
X57751661Y-103474696D01*
X57523867Y-103380107D01*
X57277215Y-103379892D01*
X57049257Y-103474083D01*
X56970010Y-103553192D01*
X56970010Y-102622558D01*
X58980000Y-104632548D01*
X58980000Y-105425990D01*
X58944149Y-105461779D01*
X58880073Y-105616090D01*
X58879928Y-105783177D01*
X58943734Y-105937600D01*
X59061779Y-106055851D01*
X59216090Y-106119927D01*
X59383177Y-106120072D01*
X59537600Y-106056266D01*
X59655851Y-105938221D01*
X59719927Y-105783910D01*
X59720072Y-105616823D01*
X59656266Y-105462400D01*
X59620000Y-105426071D01*
X59620000Y-104500000D01*
X59595641Y-104377541D01*
X59526274Y-104273726D01*
X57320020Y-102067472D01*
X57320000Y-94883256D01*
X57376982Y-94826274D01*
X57394538Y-94800000D01*
X57446349Y-94722459D01*
X57470708Y-94600000D01*
X57470708Y-93250000D01*
X57465989Y-93226274D01*
X57446350Y-93127542D01*
X57376982Y-93023726D01*
X56920000Y-92566744D01*
X56920000Y-91874010D01*
X56955851Y-91838221D01*
X57019927Y-91683910D01*
X57020072Y-91516823D01*
X56956266Y-91362400D01*
X56838221Y-91244149D01*
X56683910Y-91180073D01*
X56516823Y-91179928D01*
X56362400Y-91243734D01*
X56350082Y-91256031D01*
X56338221Y-91244149D01*
X56183910Y-91180073D01*
X56016823Y-91179928D01*
X55862400Y-91243734D01*
X55850082Y-91256031D01*
X55838221Y-91244149D01*
X55683910Y-91180073D01*
X55516823Y-91179928D01*
X55362400Y-91243734D01*
X55350082Y-91256031D01*
X55338221Y-91244149D01*
X55183910Y-91180073D01*
X55016823Y-91179928D01*
X54862400Y-91243734D01*
X54744149Y-91361779D01*
X54680073Y-91516090D01*
X54679928Y-91683177D01*
X54743734Y-91837600D01*
X54861779Y-91955851D01*
X55016090Y-92019927D01*
X55183177Y-92020072D01*
X55280000Y-91980066D01*
X55280000Y-93000000D01*
X55304359Y-93122459D01*
X55353258Y-93195641D01*
X55373726Y-93226274D01*
X55580000Y-93432548D01*
X55580000Y-94800000D01*
X55604359Y-94922459D01*
X55622265Y-94949257D01*
X55673726Y-95026274D01*
X55980000Y-95332548D01*
X55980000Y-96303260D01*
X55851661Y-96174696D01*
X55623867Y-96080107D01*
X55377215Y-96079892D01*
X55149257Y-96174083D01*
X54974696Y-96348339D01*
X54880107Y-96576133D01*
X54879892Y-96822785D01*
X54974083Y-97050743D01*
X55148339Y-97225304D01*
X55376133Y-97319893D01*
X55622785Y-97320108D01*
X55850743Y-97225917D01*
X55980000Y-97096886D01*
X55980000Y-103686001D01*
X55938221Y-103644149D01*
X55783910Y-103580073D01*
X55616823Y-103579928D01*
X55462400Y-103643734D01*
X55344149Y-103761779D01*
X55280073Y-103916090D01*
X55279928Y-104083177D01*
X55343734Y-104237600D01*
X55461779Y-104355851D01*
X55616090Y-104419927D01*
X55783177Y-104420072D01*
X55937600Y-104356266D01*
X55980000Y-104313940D01*
X55980000Y-109167452D01*
X53473726Y-111673726D01*
X53440039Y-111724142D01*
X53333910Y-111680073D01*
X53166823Y-111679928D01*
X53012400Y-111743734D01*
X53000082Y-111756031D01*
X52988221Y-111744149D01*
X52833910Y-111680073D01*
X52666823Y-111679928D01*
X52512400Y-111743734D01*
X52500082Y-111756031D01*
X52488221Y-111744149D01*
X52333910Y-111680073D01*
X52166823Y-111679928D01*
X52012400Y-111743734D01*
X52000082Y-111756031D01*
X51988221Y-111744149D01*
X51833910Y-111680073D01*
X51666823Y-111679928D01*
X51512400Y-111743734D01*
X51500082Y-111756031D01*
X51488221Y-111744149D01*
X51333910Y-111680073D01*
X51166823Y-111679928D01*
X51012400Y-111743734D01*
X50975038Y-111781031D01*
X50938221Y-111744149D01*
X50783910Y-111680073D01*
X50616823Y-111679928D01*
X50462400Y-111743734D01*
X50450082Y-111756031D01*
X50438221Y-111744149D01*
X50283910Y-111680073D01*
X50116823Y-111679928D01*
X49962400Y-111743734D01*
X49844149Y-111861779D01*
X49780073Y-112016090D01*
X49779928Y-112183177D01*
X49799275Y-112230001D01*
X49749999Y-112230001D01*
X49726346Y-112234706D01*
X49627542Y-112254359D01*
X49627541Y-112254360D01*
X49627540Y-112254360D01*
X49575282Y-112289278D01*
X49523726Y-112323726D01*
X48973726Y-112873723D01*
X48904359Y-112977539D01*
X48880867Y-113095641D01*
X48880000Y-113099998D01*
X48880000Y-113625990D01*
X48844149Y-113661779D01*
X48780073Y-113816090D01*
X48779928Y-113983177D01*
X48799275Y-114030001D01*
X48682550Y-114030001D01*
X48520028Y-113867480D01*
X48520072Y-113816823D01*
X48456266Y-113662400D01*
X48338221Y-113544149D01*
X48183910Y-113480073D01*
X48016823Y-113479928D01*
X47862400Y-113543734D01*
X47744149Y-113661779D01*
X47680073Y-113816090D01*
X47679928Y-113983177D01*
X47370000Y-113983177D01*
X47370000Y-107233177D01*
X55129928Y-107233177D01*
X55193734Y-107387600D01*
X55311779Y-107505851D01*
X55466090Y-107569927D01*
X55633177Y-107570072D01*
X55787600Y-107506266D01*
X55905851Y-107388221D01*
X55969927Y-107233910D01*
X55970072Y-107066823D01*
X55906266Y-106912400D01*
X55788221Y-106794149D01*
X55633910Y-106730073D01*
X55466823Y-106729928D01*
X55312400Y-106793734D01*
X55194149Y-106911779D01*
X55130073Y-107066090D01*
X55129928Y-107233177D01*
X47370000Y-107233177D01*
X47370000Y-97583177D01*
X54079928Y-97583177D01*
X54143734Y-97737600D01*
X54261779Y-97855851D01*
X54416090Y-97919927D01*
X54583177Y-97920072D01*
X54737600Y-97856266D01*
X54855851Y-97738221D01*
X54919927Y-97583910D01*
X54920072Y-97416823D01*
X54856266Y-97262400D01*
X54738221Y-97144149D01*
X54583910Y-97080073D01*
X54416823Y-97079928D01*
X54262400Y-97143734D01*
X54144149Y-97261779D01*
X54080073Y-97416090D01*
X54079928Y-97583177D01*
X47370000Y-97583177D01*
X47370000Y-91170000D01*
X49850000Y-91170000D01*
X49876081Y-91164812D01*
X49902674Y-91164812D01*
X50094016Y-91126752D01*
X50094017Y-91126752D01*
X50191347Y-91086436D01*
X50353558Y-90978049D01*
X50361607Y-90970000D01*
X53938393Y-90970000D01*
X53946442Y-90978049D01*
G36*
X56780000Y-111486088D02*
X56688221Y-111394149D01*
X56533910Y-111330073D01*
X56366823Y-111329928D01*
X56212400Y-111393734D01*
X56094149Y-111511779D01*
X56030073Y-111666090D01*
X56029928Y-111833177D01*
X56093734Y-111987600D01*
X56211779Y-112105851D01*
X56366090Y-112169927D01*
X56533177Y-112170072D01*
X56687600Y-112106266D01*
X56780000Y-112014027D01*
X56780000Y-112930000D01*
X55220000Y-112930000D01*
X55220000Y-112824010D01*
X55255851Y-112788221D01*
X55319927Y-112633910D01*
X55320072Y-112466823D01*
X55256266Y-112312400D01*
X55138221Y-112194149D01*
X54983910Y-112130073D01*
X54816823Y-112129928D01*
X54662400Y-112193734D01*
X54544149Y-112311779D01*
X54480073Y-112466090D01*
X54479928Y-112633177D01*
X54543734Y-112787600D01*
X54580000Y-112823929D01*
X54580000Y-112930000D01*
X54033538Y-112930000D01*
X54276284Y-112687254D01*
X54345652Y-112583438D01*
X54370010Y-112460980D01*
X54370010Y-112177526D01*
X56780000Y-109767536D01*
X56780000Y-111486088D01*
X56780000Y-111486088D01*
G37*
X56780000Y-111486088D02*
X56688221Y-111394149D01*
X56533910Y-111330073D01*
X56366823Y-111329928D01*
X56212400Y-111393734D01*
X56094149Y-111511779D01*
X56030073Y-111666090D01*
X56029928Y-111833177D01*
X56093734Y-111987600D01*
X56211779Y-112105851D01*
X56366090Y-112169927D01*
X56533177Y-112170072D01*
X56687600Y-112106266D01*
X56780000Y-112014027D01*
X56780000Y-112930000D01*
X55220000Y-112930000D01*
X55220000Y-112824010D01*
X55255851Y-112788221D01*
X55319927Y-112633910D01*
X55320072Y-112466823D01*
X55256266Y-112312400D01*
X55138221Y-112194149D01*
X54983910Y-112130073D01*
X54816823Y-112129928D01*
X54662400Y-112193734D01*
X54544149Y-112311779D01*
X54480073Y-112466090D01*
X54479928Y-112633177D01*
X54543734Y-112787600D01*
X54580000Y-112823929D01*
X54580000Y-112930000D01*
X54033538Y-112930000D01*
X54276284Y-112687254D01*
X54345652Y-112583438D01*
X54370010Y-112460980D01*
X54370010Y-112177526D01*
X56780000Y-109767536D01*
X56780000Y-111486088D01*
G36*
X56830708Y-93382548D02*
X56830708Y-94467452D01*
X56773726Y-94524434D01*
X56704359Y-94628250D01*
X56699618Y-94652082D01*
X56620000Y-94572464D01*
X56620000Y-93171840D01*
X56830708Y-93382548D01*
X56830708Y-93382548D01*
G37*
X56830708Y-93382548D02*
X56830708Y-94467452D01*
X56773726Y-94524434D01*
X56704359Y-94628250D01*
X56699618Y-94652082D01*
X56620000Y-94572464D01*
X56620000Y-93171840D01*
X56830708Y-93382548D01*
G36*
X69180000Y-93432549D02*
X69180000Y-95080147D01*
X69125917Y-94949257D01*
X68951661Y-94774696D01*
X68723867Y-94680107D01*
X68477215Y-94679892D01*
X68249257Y-94774083D01*
X68074696Y-94948339D01*
X67980107Y-95176133D01*
X67979892Y-95422785D01*
X68074083Y-95650743D01*
X68248339Y-95825304D01*
X68476133Y-95919893D01*
X68722785Y-95920108D01*
X68950743Y-95825917D01*
X69125304Y-95651661D01*
X69180000Y-95519939D01*
X69180000Y-96499211D01*
X69133910Y-96480073D01*
X68966823Y-96479928D01*
X68812400Y-96543734D01*
X68694149Y-96661779D01*
X68630073Y-96816090D01*
X68629928Y-96983177D01*
X68693734Y-97137600D01*
X68706031Y-97149918D01*
X68694149Y-97161779D01*
X68630073Y-97316090D01*
X68629928Y-97483177D01*
X68693734Y-97637600D01*
X68706031Y-97649918D01*
X68694149Y-97661779D01*
X68630073Y-97816090D01*
X68629928Y-97983177D01*
X68693734Y-98137600D01*
X68811779Y-98255851D01*
X68966090Y-98319927D01*
X69133177Y-98320072D01*
X69180000Y-98300725D01*
X69180000Y-98817463D01*
X69108543Y-98888920D01*
X69056266Y-98762400D01*
X68938221Y-98644149D01*
X68783910Y-98580073D01*
X68616823Y-98579928D01*
X68462400Y-98643734D01*
X68344149Y-98761779D01*
X68280073Y-98916090D01*
X68279928Y-99083177D01*
X68343734Y-99237600D01*
X68461779Y-99355851D01*
X68579989Y-99404936D01*
X68579989Y-101809464D01*
X67915728Y-102473726D01*
X67846361Y-102577541D01*
X67822002Y-102700000D01*
X67822002Y-104160024D01*
X67846361Y-104282483D01*
X67906416Y-104372361D01*
X67915728Y-104386298D01*
X68329980Y-104800550D01*
X68329980Y-106941982D01*
X68354339Y-107064441D01*
X68378950Y-107101274D01*
X68423706Y-107168256D01*
X68806725Y-107551275D01*
X68910541Y-107620643D01*
X69032999Y-107645001D01*
X69892453Y-107645001D01*
X70329999Y-108082547D01*
X70329999Y-109124988D01*
X70354358Y-109247447D01*
X70404520Y-109322520D01*
X70423725Y-109351262D01*
X70780000Y-109707538D01*
X70780000Y-110825990D01*
X70744149Y-110861779D01*
X70680073Y-111016090D01*
X70679928Y-111183177D01*
X70743734Y-111337600D01*
X70861779Y-111455851D01*
X71016090Y-111519927D01*
X71183177Y-111520072D01*
X71280000Y-111480066D01*
X71280000Y-120154133D01*
X71226274Y-120073726D01*
X71070010Y-119917462D01*
X71070010Y-117225010D01*
X71045651Y-117102551D01*
X70976284Y-116998736D01*
X70945028Y-116967480D01*
X70945072Y-116916823D01*
X70884419Y-116770030D01*
X70933177Y-116770072D01*
X71087600Y-116706266D01*
X71205851Y-116588221D01*
X71269927Y-116433910D01*
X71270072Y-116266823D01*
X71206266Y-116112400D01*
X71088221Y-115994149D01*
X70933910Y-115930073D01*
X70766823Y-115929928D01*
X70612400Y-115993734D01*
X70494149Y-116111779D01*
X70430073Y-116266090D01*
X70429928Y-116433177D01*
X70490581Y-116579970D01*
X70441823Y-116579928D01*
X70287400Y-116643734D01*
X70199951Y-116731031D01*
X70113221Y-116644149D01*
X70039154Y-116613394D01*
X70101274Y-116551274D01*
X70121743Y-116520640D01*
X70170641Y-116447459D01*
X70195000Y-116325000D01*
X70195000Y-116299010D01*
X70230851Y-116263221D01*
X70294927Y-116108910D01*
X70295072Y-115941823D01*
X70231266Y-115787400D01*
X70113221Y-115669149D01*
X70005220Y-115624303D01*
X70020000Y-115550000D01*
X70020000Y-114884680D01*
X70055000Y-114919680D01*
X70055000Y-115375000D01*
X70090777Y-115554861D01*
X70192660Y-115707340D01*
X70345139Y-115809223D01*
X70525000Y-115845000D01*
X70704861Y-115809223D01*
X70857340Y-115707340D01*
X70959223Y-115554861D01*
X70995000Y-115375000D01*
X70995000Y-114725000D01*
X70959223Y-114545139D01*
X70857340Y-114392660D01*
X69972857Y-113508177D01*
X70429928Y-113508177D01*
X70493734Y-113662600D01*
X70611779Y-113780851D01*
X70766090Y-113844927D01*
X70933177Y-113845072D01*
X71087600Y-113781266D01*
X71205851Y-113663221D01*
X71269927Y-113508910D01*
X71270072Y-113341823D01*
X71206266Y-113187400D01*
X71088221Y-113069149D01*
X70933910Y-113005073D01*
X70766823Y-113004928D01*
X70612400Y-113068734D01*
X70494149Y-113186779D01*
X70430073Y-113341090D01*
X70429928Y-113508177D01*
X69972857Y-113508177D01*
X69045000Y-112580320D01*
X69045000Y-112208177D01*
X69454928Y-112208177D01*
X69518734Y-112362600D01*
X69636779Y-112480851D01*
X69791090Y-112544927D01*
X69958177Y-112545072D01*
X70112600Y-112481266D01*
X70230851Y-112363221D01*
X70294927Y-112208910D01*
X70295072Y-112041823D01*
X70231266Y-111887400D01*
X70113221Y-111769149D01*
X69958910Y-111705073D01*
X69791823Y-111704928D01*
X69637400Y-111768734D01*
X69519149Y-111886779D01*
X69455073Y-112041090D01*
X69454928Y-112208177D01*
X69045000Y-112208177D01*
X69045000Y-110908177D01*
X69454928Y-110908177D01*
X69518734Y-111062600D01*
X69636779Y-111180851D01*
X69791090Y-111244927D01*
X69958177Y-111245072D01*
X70112600Y-111181266D01*
X70230851Y-111063221D01*
X70294927Y-110908910D01*
X70295072Y-110741823D01*
X70231266Y-110587400D01*
X70113221Y-110469149D01*
X69958910Y-110405073D01*
X69791823Y-110404928D01*
X69637400Y-110468734D01*
X69519149Y-110586779D01*
X69455073Y-110741090D01*
X69454928Y-110908177D01*
X69045000Y-110908177D01*
X69045000Y-110825000D01*
X69009223Y-110645139D01*
X68907340Y-110492660D01*
X68754861Y-110390777D01*
X68575000Y-110355000D01*
X68395139Y-110390777D01*
X68394990Y-110390877D01*
X68394990Y-109507558D01*
X68607520Y-109295028D01*
X68658177Y-109295072D01*
X68812600Y-109231266D01*
X68930851Y-109113221D01*
X68994927Y-108958910D01*
X68995072Y-108791823D01*
X68931266Y-108637400D01*
X68843969Y-108549951D01*
X68930851Y-108463221D01*
X68994927Y-108308910D01*
X68995072Y-108141823D01*
X68931266Y-107987400D01*
X68813221Y-107869149D01*
X68658910Y-107805073D01*
X68491823Y-107804928D01*
X68337400Y-107868734D01*
X68219149Y-107986779D01*
X68155073Y-108141090D01*
X68155028Y-108192424D01*
X67498706Y-108848746D01*
X67429339Y-108952561D01*
X67404980Y-109075020D01*
X67404980Y-112858474D01*
X66683454Y-113580000D01*
X64850000Y-113580000D01*
X64727541Y-113604359D01*
X64651859Y-113654928D01*
X64623726Y-113673726D01*
X64023726Y-114273726D01*
X63954359Y-114377541D01*
X63930000Y-114500000D01*
X63930000Y-116127420D01*
X63895031Y-116092451D01*
X63895031Y-113780043D01*
X63870672Y-113657584D01*
X63801305Y-113553769D01*
X62914988Y-112667452D01*
X62914988Y-112631390D01*
X62891010Y-112510846D01*
X62962600Y-112481266D01*
X63080851Y-112363221D01*
X63144927Y-112208910D01*
X63145072Y-112041823D01*
X63081266Y-111887400D01*
X62963221Y-111769149D01*
X62808910Y-111705073D01*
X62641823Y-111704928D01*
X62487400Y-111768734D01*
X62369149Y-111886779D01*
X62349718Y-111933572D01*
X62266472Y-111850326D01*
X62312600Y-111831266D01*
X62430851Y-111713221D01*
X62494927Y-111558910D01*
X62495072Y-111391823D01*
X62475725Y-111345000D01*
X63074995Y-111345000D01*
X63075000Y-111345001D01*
X63273995Y-111305417D01*
X63442696Y-111192696D01*
X63742693Y-110892698D01*
X63742696Y-110892696D01*
X65042693Y-109592698D01*
X65042696Y-109592696D01*
X65155417Y-109423995D01*
X65160695Y-109397460D01*
X65195001Y-109225000D01*
X65195000Y-109224995D01*
X65195000Y-108745000D01*
X65975000Y-108745000D01*
X66173995Y-108705417D01*
X66342696Y-108592696D01*
X66455417Y-108423995D01*
X66495000Y-108225000D01*
X66495000Y-107325789D01*
X66541090Y-107344927D01*
X66708177Y-107345072D01*
X66862600Y-107281266D01*
X66955000Y-107189027D01*
X66955000Y-107300990D01*
X66919149Y-107336779D01*
X66855073Y-107491090D01*
X66854928Y-107658177D01*
X66918734Y-107812600D01*
X67036779Y-107930851D01*
X67191090Y-107994927D01*
X67358177Y-107995072D01*
X67512600Y-107931266D01*
X67600049Y-107843969D01*
X67686779Y-107930851D01*
X67841090Y-107994927D01*
X68008177Y-107995072D01*
X68162600Y-107931266D01*
X68280851Y-107813221D01*
X68344927Y-107658910D01*
X68345072Y-107491823D01*
X68281266Y-107337400D01*
X68163221Y-107219149D01*
X68008910Y-107155073D01*
X67841823Y-107154928D01*
X67687400Y-107218734D01*
X67599951Y-107306031D01*
X67595000Y-107301071D01*
X67595000Y-106875000D01*
X67570641Y-106752541D01*
X67501274Y-106648726D01*
X65720000Y-104867452D01*
X65720000Y-103800000D01*
X65695641Y-103677541D01*
X65626274Y-103573726D01*
X65570010Y-103517462D01*
X65570010Y-101121024D01*
X65545651Y-100998565D01*
X65476284Y-100894750D01*
X65164711Y-100583177D01*
X67479928Y-100583177D01*
X67543734Y-100737600D01*
X67661779Y-100855851D01*
X67816090Y-100919927D01*
X67983177Y-100920072D01*
X68137600Y-100856266D01*
X68255851Y-100738221D01*
X68319927Y-100583910D01*
X68320072Y-100416823D01*
X68256266Y-100262400D01*
X68138221Y-100144149D01*
X67983910Y-100080073D01*
X67816823Y-100079928D01*
X67662400Y-100143734D01*
X67544149Y-100261779D01*
X67480073Y-100416090D01*
X67479928Y-100583177D01*
X65164711Y-100583177D01*
X65070000Y-100488466D01*
X65070000Y-100400789D01*
X65116090Y-100419927D01*
X65283177Y-100420072D01*
X65437600Y-100356266D01*
X65555851Y-100238221D01*
X65619927Y-100083910D01*
X65620072Y-99916823D01*
X65556266Y-99762400D01*
X65438221Y-99644149D01*
X65283910Y-99580073D01*
X65116823Y-99579928D01*
X65018309Y-99620633D01*
X64976274Y-99557724D01*
X64620000Y-99201450D01*
X64620000Y-97974010D01*
X64655851Y-97938221D01*
X64719927Y-97783910D01*
X64720072Y-97616823D01*
X64656266Y-97462400D01*
X64593969Y-97399995D01*
X64650005Y-97344057D01*
X64661779Y-97355851D01*
X64816090Y-97419927D01*
X64899999Y-97420000D01*
X64900001Y-97420000D01*
X64983177Y-97420072D01*
X65137600Y-97356266D01*
X65196983Y-97296986D01*
X65196985Y-97296985D01*
X65197299Y-97296671D01*
X65255851Y-97238221D01*
X65255923Y-97238046D01*
X65896982Y-96596987D01*
X65896985Y-96596985D01*
X65988029Y-96460727D01*
X66020000Y-96300000D01*
X66020000Y-95173970D01*
X67373970Y-93820000D01*
X68400001Y-93820000D01*
X68483177Y-93820072D01*
X68637600Y-93756266D01*
X68696983Y-93696986D01*
X68696985Y-93696985D01*
X68696986Y-93696983D01*
X68755851Y-93638221D01*
X68819927Y-93483910D01*
X68820072Y-93316823D01*
X68756266Y-93162400D01*
X68696986Y-93103017D01*
X68696985Y-93103015D01*
X68696983Y-93103014D01*
X68638221Y-93044149D01*
X68483910Y-92980073D01*
X68400001Y-92980000D01*
X68399790Y-92980000D01*
X68316823Y-92979928D01*
X68316649Y-92980000D01*
X67480159Y-92980000D01*
X67537600Y-92956266D01*
X67573929Y-92920000D01*
X68667452Y-92920000D01*
X69180000Y-93432549D01*
X69180000Y-93432549D01*
G37*
X69180000Y-93432549D02*
X69180000Y-95080147D01*
X69125917Y-94949257D01*
X68951661Y-94774696D01*
X68723867Y-94680107D01*
X68477215Y-94679892D01*
X68249257Y-94774083D01*
X68074696Y-94948339D01*
X67980107Y-95176133D01*
X67979892Y-95422785D01*
X68074083Y-95650743D01*
X68248339Y-95825304D01*
X68476133Y-95919893D01*
X68722785Y-95920108D01*
X68950743Y-95825917D01*
X69125304Y-95651661D01*
X69180000Y-95519939D01*
X69180000Y-96499211D01*
X69133910Y-96480073D01*
X68966823Y-96479928D01*
X68812400Y-96543734D01*
X68694149Y-96661779D01*
X68630073Y-96816090D01*
X68629928Y-96983177D01*
X68693734Y-97137600D01*
X68706031Y-97149918D01*
X68694149Y-97161779D01*
X68630073Y-97316090D01*
X68629928Y-97483177D01*
X68693734Y-97637600D01*
X68706031Y-97649918D01*
X68694149Y-97661779D01*
X68630073Y-97816090D01*
X68629928Y-97983177D01*
X68693734Y-98137600D01*
X68811779Y-98255851D01*
X68966090Y-98319927D01*
X69133177Y-98320072D01*
X69180000Y-98300725D01*
X69180000Y-98817463D01*
X69108543Y-98888920D01*
X69056266Y-98762400D01*
X68938221Y-98644149D01*
X68783910Y-98580073D01*
X68616823Y-98579928D01*
X68462400Y-98643734D01*
X68344149Y-98761779D01*
X68280073Y-98916090D01*
X68279928Y-99083177D01*
X68343734Y-99237600D01*
X68461779Y-99355851D01*
X68579989Y-99404936D01*
X68579989Y-101809464D01*
X67915728Y-102473726D01*
X67846361Y-102577541D01*
X67822002Y-102700000D01*
X67822002Y-104160024D01*
X67846361Y-104282483D01*
X67906416Y-104372361D01*
X67915728Y-104386298D01*
X68329980Y-104800550D01*
X68329980Y-106941982D01*
X68354339Y-107064441D01*
X68378950Y-107101274D01*
X68423706Y-107168256D01*
X68806725Y-107551275D01*
X68910541Y-107620643D01*
X69032999Y-107645001D01*
X69892453Y-107645001D01*
X70329999Y-108082547D01*
X70329999Y-109124988D01*
X70354358Y-109247447D01*
X70404520Y-109322520D01*
X70423725Y-109351262D01*
X70780000Y-109707538D01*
X70780000Y-110825990D01*
X70744149Y-110861779D01*
X70680073Y-111016090D01*
X70679928Y-111183177D01*
X70743734Y-111337600D01*
X70861779Y-111455851D01*
X71016090Y-111519927D01*
X71183177Y-111520072D01*
X71280000Y-111480066D01*
X71280000Y-120154133D01*
X71226274Y-120073726D01*
X71070010Y-119917462D01*
X71070010Y-117225010D01*
X71045651Y-117102551D01*
X70976284Y-116998736D01*
X70945028Y-116967480D01*
X70945072Y-116916823D01*
X70884419Y-116770030D01*
X70933177Y-116770072D01*
X71087600Y-116706266D01*
X71205851Y-116588221D01*
X71269927Y-116433910D01*
X71270072Y-116266823D01*
X71206266Y-116112400D01*
X71088221Y-115994149D01*
X70933910Y-115930073D01*
X70766823Y-115929928D01*
X70612400Y-115993734D01*
X70494149Y-116111779D01*
X70430073Y-116266090D01*
X70429928Y-116433177D01*
X70490581Y-116579970D01*
X70441823Y-116579928D01*
X70287400Y-116643734D01*
X70199951Y-116731031D01*
X70113221Y-116644149D01*
X70039154Y-116613394D01*
X70101274Y-116551274D01*
X70121743Y-116520640D01*
X70170641Y-116447459D01*
X70195000Y-116325000D01*
X70195000Y-116299010D01*
X70230851Y-116263221D01*
X70294927Y-116108910D01*
X70295072Y-115941823D01*
X70231266Y-115787400D01*
X70113221Y-115669149D01*
X70005220Y-115624303D01*
X70020000Y-115550000D01*
X70020000Y-114884680D01*
X70055000Y-114919680D01*
X70055000Y-115375000D01*
X70090777Y-115554861D01*
X70192660Y-115707340D01*
X70345139Y-115809223D01*
X70525000Y-115845000D01*
X70704861Y-115809223D01*
X70857340Y-115707340D01*
X70959223Y-115554861D01*
X70995000Y-115375000D01*
X70995000Y-114725000D01*
X70959223Y-114545139D01*
X70857340Y-114392660D01*
X69972857Y-113508177D01*
X70429928Y-113508177D01*
X70493734Y-113662600D01*
X70611779Y-113780851D01*
X70766090Y-113844927D01*
X70933177Y-113845072D01*
X71087600Y-113781266D01*
X71205851Y-113663221D01*
X71269927Y-113508910D01*
X71270072Y-113341823D01*
X71206266Y-113187400D01*
X71088221Y-113069149D01*
X70933910Y-113005073D01*
X70766823Y-113004928D01*
X70612400Y-113068734D01*
X70494149Y-113186779D01*
X70430073Y-113341090D01*
X70429928Y-113508177D01*
X69972857Y-113508177D01*
X69045000Y-112580320D01*
X69045000Y-112208177D01*
X69454928Y-112208177D01*
X69518734Y-112362600D01*
X69636779Y-112480851D01*
X69791090Y-112544927D01*
X69958177Y-112545072D01*
X70112600Y-112481266D01*
X70230851Y-112363221D01*
X70294927Y-112208910D01*
X70295072Y-112041823D01*
X70231266Y-111887400D01*
X70113221Y-111769149D01*
X69958910Y-111705073D01*
X69791823Y-111704928D01*
X69637400Y-111768734D01*
X69519149Y-111886779D01*
X69455073Y-112041090D01*
X69454928Y-112208177D01*
X69045000Y-112208177D01*
X69045000Y-110908177D01*
X69454928Y-110908177D01*
X69518734Y-111062600D01*
X69636779Y-111180851D01*
X69791090Y-111244927D01*
X69958177Y-111245072D01*
X70112600Y-111181266D01*
X70230851Y-111063221D01*
X70294927Y-110908910D01*
X70295072Y-110741823D01*
X70231266Y-110587400D01*
X70113221Y-110469149D01*
X69958910Y-110405073D01*
X69791823Y-110404928D01*
X69637400Y-110468734D01*
X69519149Y-110586779D01*
X69455073Y-110741090D01*
X69454928Y-110908177D01*
X69045000Y-110908177D01*
X69045000Y-110825000D01*
X69009223Y-110645139D01*
X68907340Y-110492660D01*
X68754861Y-110390777D01*
X68575000Y-110355000D01*
X68395139Y-110390777D01*
X68394990Y-110390877D01*
X68394990Y-109507558D01*
X68607520Y-109295028D01*
X68658177Y-109295072D01*
X68812600Y-109231266D01*
X68930851Y-109113221D01*
X68994927Y-108958910D01*
X68995072Y-108791823D01*
X68931266Y-108637400D01*
X68843969Y-108549951D01*
X68930851Y-108463221D01*
X68994927Y-108308910D01*
X68995072Y-108141823D01*
X68931266Y-107987400D01*
X68813221Y-107869149D01*
X68658910Y-107805073D01*
X68491823Y-107804928D01*
X68337400Y-107868734D01*
X68219149Y-107986779D01*
X68155073Y-108141090D01*
X68155028Y-108192424D01*
X67498706Y-108848746D01*
X67429339Y-108952561D01*
X67404980Y-109075020D01*
X67404980Y-112858474D01*
X66683454Y-113580000D01*
X64850000Y-113580000D01*
X64727541Y-113604359D01*
X64651859Y-113654928D01*
X64623726Y-113673726D01*
X64023726Y-114273726D01*
X63954359Y-114377541D01*
X63930000Y-114500000D01*
X63930000Y-116127420D01*
X63895031Y-116092451D01*
X63895031Y-113780043D01*
X63870672Y-113657584D01*
X63801305Y-113553769D01*
X62914988Y-112667452D01*
X62914988Y-112631390D01*
X62891010Y-112510846D01*
X62962600Y-112481266D01*
X63080851Y-112363221D01*
X63144927Y-112208910D01*
X63145072Y-112041823D01*
X63081266Y-111887400D01*
X62963221Y-111769149D01*
X62808910Y-111705073D01*
X62641823Y-111704928D01*
X62487400Y-111768734D01*
X62369149Y-111886779D01*
X62349718Y-111933572D01*
X62266472Y-111850326D01*
X62312600Y-111831266D01*
X62430851Y-111713221D01*
X62494927Y-111558910D01*
X62495072Y-111391823D01*
X62475725Y-111345000D01*
X63074995Y-111345000D01*
X63075000Y-111345001D01*
X63273995Y-111305417D01*
X63442696Y-111192696D01*
X63742693Y-110892698D01*
X63742696Y-110892696D01*
X65042693Y-109592698D01*
X65042696Y-109592696D01*
X65155417Y-109423995D01*
X65160695Y-109397460D01*
X65195001Y-109225000D01*
X65195000Y-109224995D01*
X65195000Y-108745000D01*
X65975000Y-108745000D01*
X66173995Y-108705417D01*
X66342696Y-108592696D01*
X66455417Y-108423995D01*
X66495000Y-108225000D01*
X66495000Y-107325789D01*
X66541090Y-107344927D01*
X66708177Y-107345072D01*
X66862600Y-107281266D01*
X66955000Y-107189027D01*
X66955000Y-107300990D01*
X66919149Y-107336779D01*
X66855073Y-107491090D01*
X66854928Y-107658177D01*
X66918734Y-107812600D01*
X67036779Y-107930851D01*
X67191090Y-107994927D01*
X67358177Y-107995072D01*
X67512600Y-107931266D01*
X67600049Y-107843969D01*
X67686779Y-107930851D01*
X67841090Y-107994927D01*
X68008177Y-107995072D01*
X68162600Y-107931266D01*
X68280851Y-107813221D01*
X68344927Y-107658910D01*
X68345072Y-107491823D01*
X68281266Y-107337400D01*
X68163221Y-107219149D01*
X68008910Y-107155073D01*
X67841823Y-107154928D01*
X67687400Y-107218734D01*
X67599951Y-107306031D01*
X67595000Y-107301071D01*
X67595000Y-106875000D01*
X67570641Y-106752541D01*
X67501274Y-106648726D01*
X65720000Y-104867452D01*
X65720000Y-103800000D01*
X65695641Y-103677541D01*
X65626274Y-103573726D01*
X65570010Y-103517462D01*
X65570010Y-101121024D01*
X65545651Y-100998565D01*
X65476284Y-100894750D01*
X65164711Y-100583177D01*
X67479928Y-100583177D01*
X67543734Y-100737600D01*
X67661779Y-100855851D01*
X67816090Y-100919927D01*
X67983177Y-100920072D01*
X68137600Y-100856266D01*
X68255851Y-100738221D01*
X68319927Y-100583910D01*
X68320072Y-100416823D01*
X68256266Y-100262400D01*
X68138221Y-100144149D01*
X67983910Y-100080073D01*
X67816823Y-100079928D01*
X67662400Y-100143734D01*
X67544149Y-100261779D01*
X67480073Y-100416090D01*
X67479928Y-100583177D01*
X65164711Y-100583177D01*
X65070000Y-100488466D01*
X65070000Y-100400789D01*
X65116090Y-100419927D01*
X65283177Y-100420072D01*
X65437600Y-100356266D01*
X65555851Y-100238221D01*
X65619927Y-100083910D01*
X65620072Y-99916823D01*
X65556266Y-99762400D01*
X65438221Y-99644149D01*
X65283910Y-99580073D01*
X65116823Y-99579928D01*
X65018309Y-99620633D01*
X64976274Y-99557724D01*
X64620000Y-99201450D01*
X64620000Y-97974010D01*
X64655851Y-97938221D01*
X64719927Y-97783910D01*
X64720072Y-97616823D01*
X64656266Y-97462400D01*
X64593969Y-97399995D01*
X64650005Y-97344057D01*
X64661779Y-97355851D01*
X64816090Y-97419927D01*
X64899999Y-97420000D01*
X64900001Y-97420000D01*
X64983177Y-97420072D01*
X65137600Y-97356266D01*
X65196983Y-97296986D01*
X65196985Y-97296985D01*
X65197299Y-97296671D01*
X65255851Y-97238221D01*
X65255923Y-97238046D01*
X65896982Y-96596987D01*
X65896985Y-96596985D01*
X65988029Y-96460727D01*
X66020000Y-96300000D01*
X66020000Y-95173970D01*
X67373970Y-93820000D01*
X68400001Y-93820000D01*
X68483177Y-93820072D01*
X68637600Y-93756266D01*
X68696983Y-93696986D01*
X68696985Y-93696985D01*
X68696986Y-93696983D01*
X68755851Y-93638221D01*
X68819927Y-93483910D01*
X68820072Y-93316823D01*
X68756266Y-93162400D01*
X68696986Y-93103017D01*
X68696985Y-93103015D01*
X68696983Y-93103014D01*
X68638221Y-93044149D01*
X68483910Y-92980073D01*
X68400001Y-92980000D01*
X68399790Y-92980000D01*
X68316823Y-92979928D01*
X68316649Y-92980000D01*
X67480159Y-92980000D01*
X67537600Y-92956266D01*
X67573929Y-92920000D01*
X68667452Y-92920000D01*
X69180000Y-93432549D01*
G36*
X69518734Y-117237600D02*
X69636779Y-117355851D01*
X69791090Y-117419927D01*
X69842424Y-117419972D01*
X70080000Y-117657548D01*
X70080000Y-120094631D01*
X70067699Y-120082308D01*
X70067696Y-120082304D01*
X70067692Y-120082301D01*
X69994941Y-120009423D01*
X69803888Y-119930091D01*
X69700001Y-119930000D01*
X69699999Y-119930000D01*
X69597019Y-119929910D01*
X69405829Y-120008909D01*
X69332308Y-120082301D01*
X69332304Y-120082304D01*
X69332301Y-120082308D01*
X69320000Y-120094588D01*
X69320000Y-117332548D01*
X69488389Y-117164159D01*
X69518734Y-117237600D01*
X69518734Y-117237600D01*
G37*
X69518734Y-117237600D02*
X69636779Y-117355851D01*
X69791090Y-117419927D01*
X69842424Y-117419972D01*
X70080000Y-117657548D01*
X70080000Y-120094631D01*
X70067699Y-120082308D01*
X70067696Y-120082304D01*
X70067692Y-120082301D01*
X69994941Y-120009423D01*
X69803888Y-119930091D01*
X69700001Y-119930000D01*
X69699999Y-119930000D01*
X69597019Y-119929910D01*
X69405829Y-120008909D01*
X69332308Y-120082301D01*
X69332304Y-120082304D01*
X69332301Y-120082308D01*
X69320000Y-120094588D01*
X69320000Y-117332548D01*
X69488389Y-117164159D01*
X69518734Y-117237600D01*
G36*
X64272949Y-119705901D02*
X64295029Y-119594899D01*
X64295029Y-119141517D01*
X64716545Y-118720001D01*
X65258849Y-118720001D01*
X64272949Y-119705901D01*
X64272949Y-119705901D01*
G37*
X64272949Y-119705901D02*
X64295029Y-119594899D01*
X64295029Y-119141517D01*
X64716545Y-118720001D01*
X65258849Y-118720001D01*
X64272949Y-119705901D01*
G36*
X69380000Y-114739668D02*
X69380000Y-114984592D01*
X69308910Y-114955073D01*
X69141823Y-114954928D01*
X68987400Y-115018734D01*
X68869149Y-115136779D01*
X68820059Y-115254999D01*
X68375001Y-115254999D01*
X68333285Y-115263297D01*
X68281266Y-115137400D01*
X68221986Y-115078017D01*
X68221985Y-115078015D01*
X68221983Y-115078014D01*
X68163221Y-115019149D01*
X68008910Y-114955073D01*
X67925001Y-114955000D01*
X67924790Y-114955000D01*
X67841823Y-114954928D01*
X67841649Y-114955000D01*
X67634265Y-114955000D01*
X67694927Y-114808910D01*
X67695072Y-114641823D01*
X67631266Y-114487400D01*
X67513221Y-114369149D01*
X67358910Y-114305073D01*
X67307576Y-114305028D01*
X67085549Y-114083001D01*
X67904441Y-113264109D01*
X69380000Y-114739668D01*
X69380000Y-114739668D01*
G37*
X69380000Y-114739668D02*
X69380000Y-114984592D01*
X69308910Y-114955073D01*
X69141823Y-114954928D01*
X68987400Y-115018734D01*
X68869149Y-115136779D01*
X68820059Y-115254999D01*
X68375001Y-115254999D01*
X68333285Y-115263297D01*
X68281266Y-115137400D01*
X68221986Y-115078017D01*
X68221985Y-115078015D01*
X68221983Y-115078014D01*
X68163221Y-115019149D01*
X68008910Y-114955073D01*
X67925001Y-114955000D01*
X67924790Y-114955000D01*
X67841823Y-114954928D01*
X67841649Y-114955000D01*
X67634265Y-114955000D01*
X67694927Y-114808910D01*
X67695072Y-114641823D01*
X67631266Y-114487400D01*
X67513221Y-114369149D01*
X67358910Y-114305073D01*
X67307576Y-114305028D01*
X67085549Y-114083001D01*
X67904441Y-113264109D01*
X69380000Y-114739668D01*
G36*
X66854972Y-114757520D02*
X66854928Y-114808177D01*
X66915594Y-114955000D01*
X66624790Y-114955000D01*
X66541823Y-114954928D01*
X66541649Y-114955000D01*
X65974790Y-114955000D01*
X65891823Y-114954928D01*
X65891649Y-114955000D01*
X65324999Y-114955000D01*
X65241823Y-114954928D01*
X65170000Y-114984605D01*
X65170000Y-114632548D01*
X65232548Y-114570000D01*
X66667452Y-114570000D01*
X66854972Y-114757520D01*
X66854972Y-114757520D01*
G37*
X66854972Y-114757520D02*
X66854928Y-114808177D01*
X66915594Y-114955000D01*
X66624790Y-114955000D01*
X66541823Y-114954928D01*
X66541649Y-114955000D01*
X65974790Y-114955000D01*
X65891823Y-114954928D01*
X65891649Y-114955000D01*
X65324999Y-114955000D01*
X65241823Y-114954928D01*
X65170000Y-114984605D01*
X65170000Y-114632548D01*
X65232548Y-114570000D01*
X66667452Y-114570000D01*
X66854972Y-114757520D01*
G36*
X66880073Y-92516090D02*
X66879928Y-92683177D01*
X66943734Y-92837600D01*
X67061779Y-92955851D01*
X67145867Y-92990768D01*
X67039273Y-93011971D01*
X66903015Y-93103015D01*
X65303015Y-94703015D01*
X65211971Y-94839273D01*
X65180000Y-95000000D01*
X65180000Y-96126031D01*
X64603015Y-96703015D01*
X64603014Y-96703017D01*
X64549995Y-96755943D01*
X64538221Y-96744149D01*
X64383910Y-96680073D01*
X64216823Y-96679928D01*
X64062400Y-96743734D01*
X63944149Y-96861779D01*
X63890521Y-96990929D01*
X63623725Y-97257725D01*
X63578282Y-97325734D01*
X62826274Y-96573726D01*
X62813503Y-96565193D01*
X62722459Y-96504359D01*
X62600000Y-96480000D01*
X61672548Y-96480000D01*
X61969371Y-96183177D01*
X63479928Y-96183177D01*
X63543734Y-96337600D01*
X63661779Y-96455851D01*
X63816090Y-96519927D01*
X63983177Y-96520072D01*
X64137600Y-96456266D01*
X64200005Y-96393969D01*
X64261779Y-96455851D01*
X64416090Y-96519927D01*
X64583177Y-96520072D01*
X64737600Y-96456266D01*
X64855851Y-96338221D01*
X64919927Y-96183910D01*
X64920072Y-96016823D01*
X64856266Y-95862400D01*
X64738221Y-95744149D01*
X64583910Y-95680073D01*
X64416823Y-95679928D01*
X64262400Y-95743734D01*
X64199995Y-95806031D01*
X64138221Y-95744149D01*
X63983910Y-95680073D01*
X63816823Y-95679928D01*
X63662400Y-95743734D01*
X63544149Y-95861779D01*
X63480073Y-96016090D01*
X63479928Y-96183177D01*
X61969371Y-96183177D01*
X64632520Y-93520028D01*
X64683177Y-93520072D01*
X64837600Y-93456266D01*
X64955851Y-93338221D01*
X65019927Y-93183910D01*
X65020072Y-93016823D01*
X64956266Y-92862400D01*
X64838221Y-92744149D01*
X64722243Y-92695991D01*
X64998234Y-92420000D01*
X66919973Y-92420000D01*
X66880073Y-92516090D01*
X66880073Y-92516090D01*
G37*
X66880073Y-92516090D02*
X66879928Y-92683177D01*
X66943734Y-92837600D01*
X67061779Y-92955851D01*
X67145867Y-92990768D01*
X67039273Y-93011971D01*
X66903015Y-93103015D01*
X65303015Y-94703015D01*
X65211971Y-94839273D01*
X65180000Y-95000000D01*
X65180000Y-96126031D01*
X64603015Y-96703015D01*
X64603014Y-96703017D01*
X64549995Y-96755943D01*
X64538221Y-96744149D01*
X64383910Y-96680073D01*
X64216823Y-96679928D01*
X64062400Y-96743734D01*
X63944149Y-96861779D01*
X63890521Y-96990929D01*
X63623725Y-97257725D01*
X63578282Y-97325734D01*
X62826274Y-96573726D01*
X62813503Y-96565193D01*
X62722459Y-96504359D01*
X62600000Y-96480000D01*
X61672548Y-96480000D01*
X61969371Y-96183177D01*
X63479928Y-96183177D01*
X63543734Y-96337600D01*
X63661779Y-96455851D01*
X63816090Y-96519927D01*
X63983177Y-96520072D01*
X64137600Y-96456266D01*
X64200005Y-96393969D01*
X64261779Y-96455851D01*
X64416090Y-96519927D01*
X64583177Y-96520072D01*
X64737600Y-96456266D01*
X64855851Y-96338221D01*
X64919927Y-96183910D01*
X64920072Y-96016823D01*
X64856266Y-95862400D01*
X64738221Y-95744149D01*
X64583910Y-95680073D01*
X64416823Y-95679928D01*
X64262400Y-95743734D01*
X64199995Y-95806031D01*
X64138221Y-95744149D01*
X63983910Y-95680073D01*
X63816823Y-95679928D01*
X63662400Y-95743734D01*
X63544149Y-95861779D01*
X63480073Y-96016090D01*
X63479928Y-96183177D01*
X61969371Y-96183177D01*
X64632520Y-93520028D01*
X64683177Y-93520072D01*
X64837600Y-93456266D01*
X64955851Y-93338221D01*
X65019927Y-93183910D01*
X65020072Y-93016823D01*
X64956266Y-92862400D01*
X64838221Y-92744149D01*
X64722243Y-92695991D01*
X64998234Y-92420000D01*
X66919973Y-92420000D01*
X66880073Y-92516090D01*
M02*
