G04 #@! TF.FileFunction,Copper,L2,Inr,Signal*
%FSLAX46Y46*%
G04 Gerber Fmt 4.6, Leading zero omitted, Abs format (unit mm)*
G04 Created by KiCad (PCBNEW 4.0.2+dfsg1-stable) date Di 04 Apr 2017 02:29:59 CEST*
%MOMM*%
G01*
G04 APERTURE LIST*
%ADD10C,0.100000*%
%ADD11C,0.400000*%
%ADD12C,0.800000*%
%ADD13C,0.600000*%
%ADD14C,1.000000*%
%ADD15C,0.700000*%
%ADD16C,0.600000*%
%ADD17C,0.400000*%
%ADD18C,0.800000*%
%ADD19C,0.200000*%
%ADD20C,0.140000*%
G04 APERTURE END LIST*
D10*
D11*
X73550000Y-111100000D03*
X73350000Y-120550000D03*
X57400000Y-108300000D03*
X58470000Y-81400000D03*
X73550000Y-114799997D03*
X71100000Y-107800000D03*
X73300000Y-110000000D03*
X67925000Y-115375000D03*
X67275000Y-115375000D03*
X66625000Y-115375000D03*
X65975000Y-115375000D03*
X65325000Y-115375000D03*
X65975000Y-106925000D03*
X64675000Y-108225000D03*
X65325000Y-108225000D03*
X65975000Y-108225000D03*
X62725000Y-110825000D03*
X62075000Y-110825000D03*
X62075000Y-111475000D03*
X62725000Y-112125000D03*
X68575000Y-110825000D03*
X68575000Y-112125000D03*
X70850000Y-113425000D03*
X69225000Y-113425000D03*
X68575000Y-112775000D03*
X70525000Y-115375000D03*
X65975000Y-117325000D03*
X54900000Y-112550000D03*
X53100000Y-115900000D03*
X65200000Y-100000000D03*
D12*
X57400000Y-113200000D03*
X50300000Y-113550000D03*
X57400000Y-104000000D03*
D11*
X72970000Y-84900000D03*
X74840000Y-86678000D03*
X74840000Y-83122000D03*
X58330000Y-86678000D03*
X58330000Y-83122000D03*
X74840000Y-122150000D03*
X58330000Y-122150000D03*
X54200000Y-105800000D03*
X58100000Y-96900000D03*
X65100000Y-94400000D03*
X60500000Y-92800000D03*
X62725000Y-91900000D03*
X66000000Y-92600000D03*
X68100000Y-98850000D03*
X67100000Y-97800000D03*
X67100000Y-97000000D03*
X53900000Y-115100000D03*
X57600000Y-116845000D03*
X57600000Y-117555000D03*
X48100000Y-96800000D03*
X48100000Y-100000000D03*
X48100000Y-98200000D03*
X48100000Y-101400000D03*
X49850000Y-122500000D03*
X63300000Y-96100000D03*
X54950000Y-116800000D03*
X47950000Y-103300000D03*
X61800000Y-100000000D03*
X55450000Y-111750000D03*
X59200000Y-109300000D03*
X57100000Y-116049990D03*
X59550000Y-115700000D03*
X63375000Y-108225000D03*
X67870000Y-84900000D03*
X66970000Y-88900000D03*
X65670000Y-84900000D03*
X61320000Y-80700000D03*
X73350000Y-117300000D03*
X69900000Y-117750000D03*
X66050000Y-119700000D03*
X73600000Y-102400000D03*
X72800000Y-101200000D03*
X62725000Y-111475000D03*
X62725000Y-110175000D03*
X64675000Y-110175000D03*
X64675000Y-110825000D03*
X65325000Y-110825000D03*
X65325000Y-110175000D03*
X65975000Y-110175000D03*
X65975000Y-110825000D03*
X66625000Y-110825000D03*
X66625000Y-110175000D03*
X67275000Y-110175000D03*
X67275000Y-110825000D03*
X63600000Y-101900000D03*
X62800000Y-101900000D03*
X52875000Y-108725000D03*
X52875000Y-109975000D03*
X51625000Y-109975000D03*
X51625000Y-108725000D03*
X47950000Y-109900000D03*
X47950000Y-106500000D03*
X57450000Y-100400000D03*
X55300000Y-100400000D03*
X66300000Y-104000000D03*
X72800000Y-103850000D03*
X65325000Y-114725000D03*
X65975000Y-114725000D03*
X66625000Y-114725000D03*
X67925000Y-114725000D03*
X69875000Y-108875000D03*
X69875000Y-109525000D03*
X65975000Y-108875000D03*
X65325000Y-108875000D03*
X63375000Y-112125000D03*
X63375000Y-112775000D03*
X66625000Y-112775000D03*
X66625000Y-112125000D03*
X65975000Y-112125000D03*
X65975000Y-112775000D03*
X65325000Y-112775000D03*
X65325000Y-112125000D03*
X64675000Y-112125000D03*
X64675000Y-112775000D03*
X64025000Y-112125000D03*
X64025000Y-112775000D03*
X64025000Y-113425000D03*
X64675000Y-113425000D03*
X65325000Y-113425000D03*
X65975000Y-113425000D03*
X66625000Y-113425000D03*
X68575000Y-110175000D03*
X69225000Y-112125000D03*
X69875000Y-112775000D03*
X73550000Y-113300000D03*
X73550000Y-115300000D03*
X64700000Y-118950000D03*
X51150000Y-119250000D03*
X52450000Y-119250000D03*
X52450000Y-120550000D03*
X51150000Y-120550000D03*
X53100000Y-122500000D03*
X54400000Y-122500000D03*
X55480000Y-94287500D03*
X55480000Y-93512500D03*
X56720000Y-93512500D03*
X56720000Y-94287500D03*
X73550000Y-107800000D03*
X69650000Y-100050000D03*
X70550000Y-100050000D03*
X70550000Y-100950000D03*
X69650000Y-100950000D03*
X68100000Y-102000000D03*
X73550000Y-106800000D03*
X71100000Y-108900000D03*
X60100000Y-109600000D03*
X67925000Y-107575000D03*
D12*
X68600000Y-95300000D03*
D11*
X63900000Y-96100000D03*
D12*
X73700000Y-98900000D03*
D11*
X69050000Y-97900000D03*
X69050000Y-97400000D03*
X69050000Y-96900000D03*
D12*
X55500000Y-96700000D03*
D11*
X56600000Y-91600000D03*
X55100000Y-91600000D03*
X59300000Y-105700000D03*
X72400000Y-104400000D03*
X69300000Y-103200000D03*
X70000010Y-103200000D03*
D13*
X71800000Y-120400000D03*
X69700000Y-120450000D03*
D11*
X71700000Y-102100000D03*
X60200000Y-109050000D03*
X62075000Y-109525000D03*
X69875000Y-112125000D03*
X56450000Y-111750000D03*
X61425000Y-109525000D03*
X55550000Y-107150000D03*
X61425000Y-107575000D03*
X50200000Y-112100000D03*
X61425000Y-108225000D03*
X60775000Y-108225000D03*
X50700000Y-112100000D03*
X60775000Y-108875000D03*
X51250000Y-112100000D03*
X62075000Y-114075000D03*
X51750000Y-112100000D03*
X61425000Y-115375000D03*
X52250000Y-112100000D03*
X62075000Y-115375000D03*
X52750000Y-112100000D03*
X60450000Y-114400000D03*
X53250000Y-112100000D03*
X67800000Y-120550000D03*
X56100000Y-91600000D03*
X68575000Y-116025000D03*
X48100000Y-113900000D03*
X73350000Y-117900000D03*
X73350000Y-120000000D03*
X70850000Y-116350000D03*
X69225000Y-115375000D03*
X64400000Y-120550000D03*
X69875000Y-116025000D03*
X69000000Y-120550000D03*
X73550000Y-110600000D03*
X69875000Y-110825000D03*
X71950000Y-98500000D03*
X69875000Y-106925000D03*
X67275000Y-107575000D03*
X64300000Y-97700000D03*
X63200000Y-120550000D03*
X68575000Y-108225000D03*
X62725000Y-114075000D03*
X55800000Y-118300000D03*
X63375000Y-116675000D03*
X55800000Y-118850000D03*
X68400000Y-120550000D03*
X68575000Y-108875000D03*
X73900000Y-104100000D03*
X62725000Y-106925000D03*
X73550000Y-106050000D03*
X63375000Y-106925000D03*
X63800000Y-106500020D03*
X63375000Y-107575000D03*
X65325000Y-107575000D03*
X64300000Y-106500020D03*
X49200000Y-113900000D03*
X67200000Y-120550000D03*
X55600000Y-91600000D03*
X67925000Y-116675000D03*
X74100000Y-109200000D03*
X64675000Y-116025000D03*
X73550000Y-115900000D03*
X61425000Y-117325000D03*
X73550000Y-112400000D03*
X60775000Y-117000000D03*
X61300000Y-120550000D03*
X61425000Y-112775000D03*
X60600000Y-120550000D03*
X60775000Y-112775000D03*
X60450000Y-111800000D03*
X62600000Y-120550000D03*
X61425000Y-112125000D03*
X60000000Y-120550000D03*
X62000000Y-120550000D03*
X62075000Y-112775000D03*
X66625000Y-116025000D03*
X63800000Y-120550000D03*
X65000000Y-120550000D03*
X67250000Y-116950000D03*
X67275000Y-116025000D03*
X54500000Y-97500000D03*
D14*
X69400000Y-91700000D03*
D15*
X59000000Y-99600000D03*
D11*
X47800000Y-119200000D03*
X50300000Y-116000000D03*
X63375000Y-117200000D03*
X71000000Y-120550000D03*
X70525000Y-117000000D03*
X68700000Y-99000000D03*
X71100000Y-111100000D03*
X59549989Y-112400000D03*
X62075000Y-113425000D03*
X64675000Y-106925000D03*
X64025000Y-108875000D03*
X49600000Y-123600000D03*
X60400000Y-115700000D03*
X55800000Y-120650000D03*
X65325000Y-116675000D03*
X55800000Y-119750000D03*
X61453555Y-106896445D03*
X61300000Y-97700000D03*
X60775000Y-106925000D03*
X61900000Y-97700000D03*
X58100000Y-96300000D03*
X59950000Y-96300000D03*
X65325000Y-106925000D03*
X59900000Y-99450000D03*
X64500000Y-96100000D03*
X67300000Y-92600000D03*
X69225000Y-106925000D03*
X59550000Y-116250000D03*
X61425000Y-116025000D03*
X64700000Y-117950000D03*
X67275000Y-114725000D03*
X73550000Y-113800000D03*
X64300000Y-97100000D03*
X64900000Y-104000000D03*
X66625000Y-106925000D03*
X55700000Y-104000000D03*
X62075000Y-108225000D03*
X64600000Y-93100000D03*
X60700000Y-96300000D03*
D14*
X73500000Y-96300000D03*
D11*
X70400000Y-120550000D03*
X69875000Y-117000000D03*
X60235000Y-83122000D03*
X61505000Y-86678000D03*
X71170000Y-84900000D03*
X60970000Y-85000000D03*
X62470000Y-88400000D03*
X69770000Y-80900000D03*
X65070000Y-84900000D03*
X62570000Y-84900000D03*
X66300000Y-88900000D03*
X66270000Y-84900000D03*
X57870000Y-81200000D03*
X70570000Y-84900000D03*
X57870000Y-80600000D03*
X66870000Y-84900000D03*
X67870000Y-88900000D03*
X69170000Y-88900000D03*
X65270000Y-80900000D03*
X63870000Y-80900000D03*
X67970000Y-80900000D03*
X62770000Y-80900000D03*
X69170000Y-80900000D03*
X70370000Y-88900000D03*
X68570000Y-80900000D03*
X71665000Y-86678000D03*
X61970000Y-84900000D03*
X66170000Y-80900000D03*
X71665000Y-83122000D03*
X72870000Y-88300000D03*
X72935000Y-83122000D03*
X65600000Y-88900000D03*
X62270000Y-80900000D03*
X68470000Y-88900000D03*
X61370000Y-88400000D03*
X52094836Y-115917214D03*
X54400000Y-115900000D03*
X59400000Y-118200000D03*
X59900000Y-97850000D03*
X68400000Y-93400000D03*
X64900000Y-97000000D03*
X72300000Y-100700000D03*
X64300000Y-100000000D03*
X67900000Y-100500000D03*
D16*
X62725000Y-110825000D02*
X63375000Y-110825000D01*
X63375000Y-110825000D02*
X64025000Y-111475000D01*
X64025000Y-111475000D02*
X67575000Y-111475000D01*
X67575000Y-111475000D02*
X68225000Y-112125000D01*
X68225000Y-112125000D02*
X68575000Y-112125000D01*
D17*
X57400000Y-104000000D02*
X63600000Y-104000000D01*
X63600000Y-104000000D02*
X65200000Y-102400000D01*
X65200000Y-102400000D02*
X65200000Y-102100000D01*
X65200000Y-102100000D02*
X65200000Y-100000000D01*
D18*
X62075000Y-110825000D02*
X59475000Y-110825000D01*
X59475000Y-110825000D02*
X57400000Y-112900000D01*
X57400000Y-112900000D02*
X57400000Y-113200000D01*
D19*
X70525000Y-115375000D02*
X71425000Y-115375000D01*
X71425000Y-115375000D02*
X72624997Y-115375000D01*
D16*
X70850000Y-113425000D02*
X69225000Y-113425000D01*
D19*
X73550000Y-114799997D02*
X73200000Y-114799997D01*
X72624997Y-115375000D02*
X73200000Y-114799997D01*
D16*
X70525000Y-110175000D02*
X70700000Y-110000000D01*
X70700000Y-110000000D02*
X71800000Y-110000000D01*
X69550000Y-110175000D02*
X70525000Y-110175000D01*
X68575000Y-110825000D02*
X68900000Y-110825000D01*
X68900000Y-110825000D02*
X69550000Y-110175000D01*
D17*
X71800000Y-110000000D02*
X73300000Y-110000000D01*
D16*
X71800000Y-108500000D02*
X71800000Y-110000000D01*
X62075000Y-111775000D02*
X62075000Y-111475000D01*
X62075000Y-111475000D02*
X62075000Y-110825000D01*
X62425000Y-112125000D02*
X62075000Y-111775000D01*
X62425000Y-112125000D02*
X62725000Y-112125000D01*
X71800000Y-108500000D02*
X71500001Y-108200001D01*
X71500001Y-108200001D02*
X71100000Y-107800000D01*
X62725000Y-110825000D02*
X62075000Y-110825000D01*
X68575000Y-112775000D02*
X69225000Y-113425000D01*
X68575000Y-112125000D02*
X68575000Y-112775000D01*
D19*
X67925000Y-107575000D02*
X68675000Y-107575000D01*
X68675000Y-107575000D02*
X69300000Y-108200000D01*
X69300000Y-108200000D02*
X70400000Y-108200000D01*
X70400000Y-108200000D02*
X71100000Y-108900000D01*
X60100000Y-109600000D02*
X60642002Y-109600000D01*
X60642002Y-109600000D02*
X61242002Y-109000000D01*
X62300000Y-109000000D02*
X62650000Y-109350000D01*
X61242002Y-109000000D02*
X62300000Y-109000000D01*
X62650000Y-109350000D02*
X66150000Y-109350000D01*
X66150000Y-109350000D02*
X67925000Y-107575000D01*
X71100000Y-108857998D02*
X71100000Y-108900000D01*
D18*
X67000000Y-95300000D02*
X68600000Y-95300000D01*
X63900000Y-95300000D02*
X56900000Y-95300000D01*
X67000000Y-95300000D02*
X63900000Y-95300000D01*
D19*
X63900000Y-95300000D02*
X63900000Y-96100000D01*
D18*
X56900000Y-95300000D02*
X55950000Y-96250000D01*
X55950000Y-96250000D02*
X55500000Y-96700000D01*
D19*
X56600000Y-91600000D02*
X56600000Y-91850000D01*
X56600000Y-91850000D02*
X56449999Y-92000001D01*
X56449999Y-92000001D02*
X55250001Y-92000001D01*
X55250001Y-92000001D02*
X55100000Y-91850000D01*
X55100000Y-91850000D02*
X55100000Y-91600000D01*
X63294062Y-105349980D02*
X69300000Y-105349980D01*
X69300000Y-105349980D02*
X71450020Y-105349980D01*
X69300000Y-103200000D02*
X69300000Y-105349980D01*
X71450020Y-105349980D02*
X72400000Y-104400000D01*
X59300000Y-105700000D02*
X62944042Y-105700000D01*
X62944042Y-105700000D02*
X63294062Y-105349980D01*
X62075000Y-109525000D02*
X62250000Y-109700000D01*
X62250000Y-109700000D02*
X67500000Y-109700000D01*
X67500000Y-109700000D02*
X67900000Y-110100000D01*
X67900000Y-110100000D02*
X67900000Y-111000000D01*
X67900000Y-111000000D02*
X68400000Y-111500000D01*
X68400000Y-111500000D02*
X69250000Y-111500000D01*
X69250000Y-111500000D02*
X69875000Y-112125000D01*
X61425000Y-109525000D02*
X61375000Y-109525000D01*
X61375000Y-109525000D02*
X60850000Y-110050000D01*
X60850000Y-110050000D02*
X58150000Y-110050000D01*
X58150000Y-110050000D02*
X56450000Y-111750000D01*
X61425000Y-107575000D02*
X61250000Y-107400000D01*
X61250000Y-107400000D02*
X55800000Y-107400000D01*
X55800000Y-107400000D02*
X55550000Y-107150000D01*
X50200000Y-112100000D02*
X50200000Y-111933998D01*
X50200000Y-111933998D02*
X51534029Y-110599969D01*
X51534029Y-110599969D02*
X56115067Y-110599969D01*
X56115067Y-110599969D02*
X58915036Y-107800000D01*
X61000000Y-107800000D02*
X61425000Y-108225000D01*
X58915036Y-107800000D02*
X61000000Y-107800000D01*
X50700000Y-112100000D02*
X50700000Y-111994022D01*
X50700000Y-111994022D02*
X51744043Y-110949979D01*
X51744043Y-110949979D02*
X56260045Y-110949979D01*
X56260045Y-110949979D02*
X58985024Y-108225000D01*
X58985024Y-108225000D02*
X59600000Y-108225000D01*
X59600000Y-108225000D02*
X60775000Y-108225000D01*
X51250000Y-112100000D02*
X51250000Y-111939010D01*
X51250000Y-111939010D02*
X51889021Y-111299989D01*
X51889021Y-111299989D02*
X56405023Y-111299989D01*
X56405023Y-111299989D02*
X59105012Y-108600000D01*
X59105012Y-108600000D02*
X60500000Y-108600000D01*
X60500000Y-108600000D02*
X60775000Y-108875000D01*
X62075000Y-114075000D02*
X60791002Y-114075000D01*
X60791002Y-114075000D02*
X60666001Y-113949999D01*
X60666001Y-113949999D02*
X60249969Y-113949999D01*
X59999999Y-114199969D02*
X55324968Y-114199969D01*
X53700001Y-112575002D02*
X53700001Y-111883999D01*
X60249969Y-113949999D02*
X59999999Y-114199969D01*
X55324968Y-114199969D02*
X53700001Y-112575002D01*
X53466001Y-111649999D02*
X52033999Y-111649999D01*
X53700001Y-111883999D02*
X53466001Y-111649999D01*
X52033999Y-111649999D02*
X51750000Y-111933998D01*
X51750000Y-111933998D02*
X51750000Y-112100000D01*
X61425000Y-115375000D02*
X61299999Y-115249999D01*
X61299999Y-115249999D02*
X54890034Y-115249999D01*
X54890034Y-115249999D02*
X52250000Y-112609965D01*
X52250000Y-112609965D02*
X52250000Y-112100000D01*
X62075000Y-115375000D02*
X61599989Y-114899989D01*
X61599989Y-114899989D02*
X55035012Y-114899989D01*
X55035012Y-114899989D02*
X52750000Y-112614977D01*
X52750000Y-112614977D02*
X52750000Y-112100000D01*
X60450000Y-114400000D02*
X60300021Y-114549979D01*
X60300021Y-114549979D02*
X55179990Y-114549979D01*
X55179990Y-114549979D02*
X53250000Y-112619989D01*
X53250000Y-112619989D02*
X53250000Y-112100000D01*
X48100000Y-113900000D02*
X48849990Y-114649990D01*
X48849990Y-114649990D02*
X48849990Y-115710980D01*
X49939019Y-116800009D02*
X50749991Y-116800009D01*
X48849990Y-115710980D02*
X49939019Y-116800009D01*
X50749991Y-116800009D02*
X50750000Y-116800000D01*
X67416001Y-121000001D02*
X67800000Y-120616002D01*
X50750000Y-116800000D02*
X51200000Y-116800000D01*
X67800000Y-120616002D02*
X67800000Y-120550000D01*
X51200000Y-116800000D02*
X55500000Y-121100000D01*
X55500000Y-121100000D02*
X56066002Y-121100000D01*
X65200000Y-120050000D02*
X66150001Y-121000001D01*
X66150001Y-121000001D02*
X67416001Y-121000001D01*
X56066002Y-121100000D02*
X57116002Y-120050000D01*
X57116002Y-120050000D02*
X65200000Y-120050000D01*
X73350000Y-117900000D02*
X72400000Y-117900000D01*
X72400000Y-117900000D02*
X72100000Y-117600000D01*
X72100000Y-117600000D02*
X70850000Y-116350000D01*
X71007998Y-110600000D02*
X73550000Y-110600000D01*
X69875000Y-110825000D02*
X70782998Y-110825000D01*
X70782998Y-110825000D02*
X71007998Y-110600000D01*
X62725000Y-114075000D02*
X62525001Y-114274999D01*
X62500000Y-115616002D02*
X62500000Y-115625001D01*
X60121014Y-117750000D02*
X59250000Y-117750000D01*
X62525001Y-114274999D02*
X62525001Y-115591001D01*
X62525001Y-115591001D02*
X62500000Y-115616002D01*
X62500000Y-115625001D02*
X61625000Y-116500001D01*
X60608997Y-116500001D02*
X60324999Y-116783999D01*
X61625000Y-116500001D02*
X60608997Y-116500001D01*
X60324999Y-116783999D02*
X60324999Y-117546015D01*
X60324999Y-117546015D02*
X60121014Y-117750000D01*
X59250000Y-117750000D02*
X58700000Y-118300000D01*
X58700000Y-118300000D02*
X58300000Y-118300000D01*
X58300000Y-118300000D02*
X55800000Y-118300000D01*
X63375000Y-116675000D02*
X63100000Y-116675000D01*
X63100000Y-116675000D02*
X61999999Y-117775001D01*
X61999999Y-117775001D02*
X60591001Y-117775001D01*
X60591001Y-117775001D02*
X59716002Y-118650000D01*
X59716002Y-118650000D02*
X56150000Y-118650000D01*
X56150000Y-118650000D02*
X55950000Y-118850000D01*
X55950000Y-118850000D02*
X55800000Y-118850000D01*
X73900000Y-104100000D02*
X72300010Y-105699990D01*
X72300010Y-105699990D02*
X63439040Y-105699990D01*
X63439040Y-105699990D02*
X62725000Y-106414030D01*
X62725000Y-106414030D02*
X62725000Y-106925000D01*
X73550000Y-106050000D02*
X63584018Y-106050000D01*
X63584018Y-106050000D02*
X63349999Y-106284019D01*
X63349999Y-106284019D02*
X63349999Y-106899999D01*
X63349999Y-106899999D02*
X63375000Y-106925000D01*
X63800000Y-106600000D02*
X63800000Y-106500020D01*
X63800000Y-106500020D02*
X63800000Y-106500000D01*
X63800000Y-106600000D02*
X63800000Y-107150000D01*
X63800000Y-107150000D02*
X63375000Y-107575000D01*
X65325000Y-107575000D02*
X64575000Y-107575000D01*
X64575000Y-107575000D02*
X64200000Y-107200000D01*
X64200000Y-107200000D02*
X64200000Y-106600020D01*
X64200000Y-106600020D02*
X64300000Y-106500020D01*
X65350000Y-119700000D02*
X56734965Y-119700000D01*
X67200000Y-120550000D02*
X66200000Y-120550000D01*
X66200000Y-120550000D02*
X65350000Y-119700000D01*
X55094988Y-120200000D02*
X51344978Y-116449990D01*
X56734965Y-119700000D02*
X56234965Y-120200000D01*
X56234965Y-120200000D02*
X55094988Y-120200000D01*
X51344978Y-116449990D02*
X50605022Y-116449990D01*
X50605022Y-116449990D02*
X50605011Y-116450001D01*
X50605011Y-116450001D02*
X50083999Y-116450001D01*
X50083999Y-116450001D02*
X49200000Y-115566002D01*
X49200000Y-115566002D02*
X49200000Y-113900000D01*
X74100000Y-109200000D02*
X74100000Y-112500000D01*
X74100000Y-112500000D02*
X73750000Y-112850000D01*
X71612598Y-114349990D02*
X68749990Y-114349990D01*
X68749990Y-114349990D02*
X68300000Y-113900000D01*
X73750000Y-112850000D02*
X73112588Y-112850000D01*
X73112588Y-112850000D02*
X71612598Y-114349990D01*
X68300000Y-113900000D02*
X67400000Y-113900000D01*
X67400000Y-113900000D02*
X67025001Y-114274999D01*
X67025001Y-114274999D02*
X65108999Y-114274999D01*
X65108999Y-114274999D02*
X64675000Y-114708998D01*
X64675000Y-114708998D02*
X64675000Y-116025000D01*
X73550000Y-115900000D02*
X73549999Y-115899999D01*
X70016003Y-116549999D02*
X68716003Y-116549999D01*
X73549999Y-115899999D02*
X70666003Y-115899999D01*
X70666003Y-115899999D02*
X70016003Y-116549999D01*
X68716003Y-116549999D02*
X67866002Y-117400000D01*
X64183998Y-116200000D02*
X62969988Y-116200000D01*
X67866002Y-117400000D02*
X67033999Y-117400001D01*
X61844988Y-117325000D02*
X61425000Y-117325000D01*
X67033999Y-117400001D02*
X66799999Y-117166001D01*
X66799999Y-117166001D02*
X66799999Y-116866001D01*
X66799999Y-116866001D02*
X66133998Y-116200000D01*
X66133998Y-116200000D02*
X65150000Y-116200000D01*
X65150000Y-116200000D02*
X64850000Y-116500000D01*
X64850000Y-116500000D02*
X64483998Y-116500000D01*
X64483998Y-116500000D02*
X64183998Y-116200000D01*
X62969988Y-116200000D02*
X61844988Y-117325000D01*
X73550000Y-112400000D02*
X73100000Y-112400000D01*
X68894968Y-113999980D02*
X68444988Y-113550000D01*
X73100000Y-112400000D02*
X71500020Y-113999980D01*
X71500020Y-113999980D02*
X68894968Y-113999980D01*
X68444988Y-113550000D02*
X67250000Y-113550000D01*
X67250000Y-113550000D02*
X66875011Y-113924989D01*
X66875011Y-113924989D02*
X64964021Y-113924989D01*
X64964021Y-113924989D02*
X64324990Y-114564020D01*
X61800001Y-116874999D02*
X60900001Y-116874999D01*
X60900001Y-116874999D02*
X60775000Y-117000000D01*
X64324990Y-114564020D02*
X64324990Y-115575010D01*
X64324990Y-115575010D02*
X64050010Y-115849990D01*
X64050010Y-115849990D02*
X62825010Y-115849990D01*
X62825010Y-115849990D02*
X61800001Y-116874999D01*
X67250000Y-116950000D02*
X67250000Y-116050000D01*
X67250000Y-116050000D02*
X67275000Y-116025000D01*
X63375000Y-117200000D02*
X63069988Y-117200000D01*
X63069988Y-117200000D02*
X62144977Y-118125011D01*
X62144977Y-118125011D02*
X60735979Y-118125011D01*
X60735979Y-118125011D02*
X59860990Y-119000000D01*
X54689976Y-119300000D02*
X51389976Y-116000000D01*
X59860990Y-119000000D02*
X56444989Y-119000000D01*
X56444989Y-119000000D02*
X56144989Y-119300000D01*
X56144989Y-119300000D02*
X54689976Y-119300000D01*
X51389976Y-116000000D02*
X50300000Y-116000000D01*
X60400000Y-113250011D02*
X59549989Y-112400000D01*
X60400000Y-113250011D02*
X61900011Y-113250011D01*
X61900011Y-113250011D02*
X62075000Y-113425000D01*
X65325000Y-116675000D02*
X65169988Y-116675000D01*
X65169988Y-116675000D02*
X64994978Y-116850010D01*
X64994978Y-116850010D02*
X64390992Y-116850010D01*
X56189977Y-119750000D02*
X55800000Y-119750000D01*
X64390992Y-116850010D02*
X63591001Y-117650001D01*
X62289955Y-118475021D02*
X60880957Y-118475021D01*
X56589977Y-119350000D02*
X56189977Y-119750000D01*
X63591001Y-117650001D02*
X63114975Y-117650001D01*
X63114975Y-117650001D02*
X62289955Y-118475021D01*
X60880957Y-118475021D02*
X60005978Y-119350000D01*
X60005978Y-119350000D02*
X56589977Y-119350000D01*
X59900000Y-99450000D02*
X61250000Y-99450000D01*
X61250000Y-99450000D02*
X64500000Y-96200000D01*
X64500000Y-96200000D02*
X64500000Y-96100000D01*
X61299999Y-116150001D02*
X60100000Y-116150001D01*
X59550000Y-116250000D02*
X60000001Y-116250000D01*
X60000001Y-116250000D02*
X60100000Y-116150001D01*
X61425000Y-116025000D02*
X61299999Y-116150001D01*
X67275000Y-114725000D02*
X67750000Y-114250000D01*
X67750000Y-114250000D02*
X68150000Y-114250000D01*
X68150000Y-114250000D02*
X68600000Y-114700000D01*
X68600000Y-114700000D02*
X71757576Y-114700000D01*
X71757576Y-114700000D02*
X72657576Y-113800000D01*
X72657576Y-113800000D02*
X73550000Y-113800000D01*
X56200000Y-106500000D02*
X55700000Y-106000000D01*
X55700000Y-106000000D02*
X55700000Y-104000000D01*
X60400000Y-106500000D02*
X56200000Y-106500000D01*
X60403556Y-106496444D02*
X60400000Y-106500000D01*
X62075000Y-108225000D02*
X62075000Y-106925888D01*
X62075000Y-106925888D02*
X61645556Y-106496444D01*
X61645556Y-106496444D02*
X60403556Y-106496444D01*
X61505000Y-86678000D02*
X61470000Y-86643000D01*
X61470000Y-86643000D02*
X61470000Y-84700000D01*
X61470000Y-84700000D02*
X61770000Y-84400000D01*
X61770000Y-84400000D02*
X62770000Y-84400000D01*
X62770000Y-84400000D02*
X64270000Y-85900000D01*
X64270000Y-85900000D02*
X70170000Y-85900000D01*
X70170000Y-85900000D02*
X71170000Y-84900000D01*
X66270000Y-84900000D02*
X64470000Y-83100000D01*
X64470000Y-83100000D02*
X62270000Y-83100000D01*
X62270000Y-83100000D02*
X60070000Y-80900000D01*
X60070000Y-80900000D02*
X58270000Y-80900000D01*
X58270000Y-80900000D02*
X57970000Y-81200000D01*
X57970000Y-81200000D02*
X57870000Y-81200000D01*
X66870000Y-84900000D02*
X64670000Y-82700000D01*
X64670000Y-82700000D02*
X62470000Y-82700000D01*
X62470000Y-82700000D02*
X60270000Y-80500000D01*
X60270000Y-80500000D02*
X57970000Y-80500000D01*
X57970000Y-80500000D02*
X57870000Y-80600000D01*
X67470000Y-85500000D02*
X66870000Y-84900000D01*
X70570000Y-84900000D02*
X70170000Y-85300000D01*
X67470000Y-85500000D02*
X69970000Y-85500000D01*
X69970000Y-85500000D02*
X70170000Y-85300000D01*
X65270000Y-80900000D02*
X66570000Y-82200000D01*
X66570000Y-82200000D02*
X70070000Y-82200000D01*
X70070000Y-82200000D02*
X72065001Y-84195001D01*
X72065001Y-84195001D02*
X72065001Y-87004999D01*
X72065001Y-87004999D02*
X70670000Y-88400000D01*
X70670000Y-88400000D02*
X69670000Y-88400000D01*
X69670000Y-88400000D02*
X69170000Y-88900000D01*
X69170000Y-80900000D02*
X69170000Y-81100000D01*
X69170000Y-81100000D02*
X69470000Y-81400000D01*
X70670000Y-81400000D02*
X72470000Y-83200000D01*
X69470000Y-81400000D02*
X70670000Y-81400000D01*
X72470000Y-83200000D02*
X72470000Y-87100000D01*
X72470000Y-87100000D02*
X70670000Y-88900000D01*
X70670000Y-88900000D02*
X70370000Y-88900000D01*
X64070000Y-86300000D02*
X71287000Y-86300000D01*
X62370000Y-85400000D02*
X63170000Y-85400000D01*
X63170000Y-85400000D02*
X64070000Y-86300000D01*
X61970000Y-85000000D02*
X62370000Y-85400000D01*
X61970000Y-84900000D02*
X61970000Y-85000000D01*
X71287000Y-86300000D02*
X71665000Y-86678000D01*
X67070000Y-81800000D02*
X66170000Y-80900000D01*
X67070000Y-81800000D02*
X70343000Y-81800000D01*
X70343000Y-81800000D02*
X71665000Y-83122000D01*
X61370000Y-88400000D02*
X61870000Y-88900000D01*
X61870000Y-88900000D02*
X62770000Y-88900000D01*
X62770000Y-88900000D02*
X63270000Y-88400000D01*
X63270000Y-88400000D02*
X68170000Y-88400000D01*
X68470000Y-88700000D02*
X68470000Y-88900000D01*
X68170000Y-88400000D02*
X68470000Y-88700000D01*
X52527632Y-116350010D02*
X52094836Y-115917214D01*
X54400000Y-115900000D02*
X53949990Y-116350010D01*
X53949990Y-116350010D02*
X52527632Y-116350010D01*
X69200000Y-100500000D02*
X70914002Y-100500000D01*
D17*
X72100000Y-100500000D02*
X70914002Y-100500000D01*
X72300000Y-100700000D02*
X72100000Y-100500000D01*
X67900000Y-100500000D02*
X69200000Y-100500000D01*
X67900000Y-100500000D02*
X66514002Y-100500000D01*
X66514002Y-100500000D02*
X65464001Y-99449999D01*
X64900000Y-97000000D02*
X64900000Y-99400000D01*
X64900000Y-99400000D02*
X64850001Y-99449999D01*
X65464001Y-99449999D02*
X64850001Y-99449999D01*
X64850001Y-99449999D02*
X64300000Y-100000000D01*
D20*
G36*
X76630000Y-84130000D02*
X73980000Y-84130000D01*
X73953919Y-84135188D01*
X73927326Y-84135188D01*
X73735984Y-84173248D01*
X73735983Y-84173248D01*
X73638653Y-84213564D01*
X73476442Y-84321951D01*
X73439197Y-84359197D01*
X73401951Y-84396442D01*
X73293564Y-84558653D01*
X73253248Y-84655983D01*
X73253248Y-84655984D01*
X73215188Y-84847324D01*
X73215188Y-84952674D01*
X73253248Y-85144016D01*
X73253248Y-85144017D01*
X73293564Y-85241347D01*
X73401951Y-85403558D01*
X73439197Y-85440803D01*
X73476442Y-85478049D01*
X73638653Y-85586436D01*
X73735983Y-85626752D01*
X73735984Y-85626752D01*
X73927326Y-85664812D01*
X73953919Y-85664812D01*
X73980000Y-85670000D01*
X76630000Y-85670000D01*
X76630000Y-89630000D01*
X75840000Y-89630000D01*
X75813919Y-89635188D01*
X75787326Y-89635188D01*
X75595984Y-89673248D01*
X75595983Y-89673248D01*
X75498653Y-89713564D01*
X75336442Y-89821951D01*
X75328393Y-89830000D01*
X74351607Y-89830000D01*
X74343558Y-89821951D01*
X74181347Y-89713564D01*
X74084017Y-89673248D01*
X74084016Y-89673248D01*
X73892674Y-89635188D01*
X73866081Y-89635188D01*
X73840000Y-89630000D01*
X65411475Y-89630000D01*
X65396752Y-89555984D01*
X65396752Y-89555983D01*
X65356436Y-89458653D01*
X65248049Y-89296442D01*
X65210803Y-89259197D01*
X65173558Y-89221951D01*
X65011347Y-89113564D01*
X64914017Y-89073248D01*
X64914016Y-89073248D01*
X64722674Y-89035188D01*
X64696081Y-89035188D01*
X64670000Y-89030000D01*
X63092548Y-89030000D01*
X63402548Y-88720000D01*
X65219973Y-88720000D01*
X65180073Y-88816090D01*
X65179928Y-88983177D01*
X65243734Y-89137600D01*
X65361779Y-89255851D01*
X65516090Y-89319927D01*
X65683177Y-89320072D01*
X65837600Y-89256266D01*
X65950092Y-89143970D01*
X66061779Y-89255851D01*
X66216090Y-89319927D01*
X66383177Y-89320072D01*
X66537600Y-89256266D01*
X66655851Y-89138221D01*
X66719927Y-88983910D01*
X66720072Y-88816823D01*
X66680066Y-88720000D01*
X67489973Y-88720000D01*
X67450073Y-88816090D01*
X67449928Y-88983177D01*
X67513734Y-89137600D01*
X67631779Y-89255851D01*
X67786090Y-89319927D01*
X67953177Y-89320072D01*
X68107600Y-89256266D01*
X68170005Y-89193969D01*
X68231779Y-89255851D01*
X68386090Y-89319927D01*
X68553177Y-89320072D01*
X68707600Y-89256266D01*
X68820092Y-89143970D01*
X68931779Y-89255851D01*
X69086090Y-89319927D01*
X69253177Y-89320072D01*
X69407600Y-89256266D01*
X69525851Y-89138221D01*
X69589927Y-88983910D01*
X69589972Y-88932576D01*
X69802548Y-88720000D01*
X69989973Y-88720000D01*
X69950073Y-88816090D01*
X69949928Y-88983177D01*
X70013734Y-89137600D01*
X70131779Y-89255851D01*
X70286090Y-89319927D01*
X70453177Y-89320072D01*
X70607600Y-89256266D01*
X70643929Y-89220000D01*
X70670000Y-89220000D01*
X70792459Y-89195641D01*
X70896274Y-89126274D01*
X71639371Y-88383177D01*
X72449928Y-88383177D01*
X72513734Y-88537600D01*
X72631779Y-88655851D01*
X72786090Y-88719927D01*
X72953177Y-88720072D01*
X73107600Y-88656266D01*
X73225851Y-88538221D01*
X73289927Y-88383910D01*
X73290072Y-88216823D01*
X73226266Y-88062400D01*
X73108221Y-87944149D01*
X72953910Y-87880073D01*
X72786823Y-87879928D01*
X72632400Y-87943734D01*
X72514149Y-88061779D01*
X72450073Y-88216090D01*
X72449928Y-88383177D01*
X71639371Y-88383177D01*
X72696274Y-87326274D01*
X72713402Y-87300640D01*
X72765641Y-87222459D01*
X72790000Y-87100000D01*
X72790000Y-83516560D01*
X72851090Y-83541927D01*
X73018177Y-83542072D01*
X73172600Y-83478266D01*
X73290851Y-83360221D01*
X73354927Y-83205910D01*
X73355072Y-83038823D01*
X73291266Y-82884400D01*
X73173221Y-82766149D01*
X73018910Y-82702073D01*
X72851823Y-82701928D01*
X72697400Y-82765734D01*
X72592750Y-82870202D01*
X70896274Y-81173726D01*
X70878394Y-81161779D01*
X70792459Y-81104359D01*
X70670000Y-81080000D01*
X70150027Y-81080000D01*
X70189927Y-80983910D01*
X70190072Y-80816823D01*
X70126266Y-80662400D01*
X70008221Y-80544149D01*
X69853910Y-80480073D01*
X69686823Y-80479928D01*
X69532400Y-80543734D01*
X69469995Y-80606031D01*
X69408221Y-80544149D01*
X69253910Y-80480073D01*
X69086823Y-80479928D01*
X68932400Y-80543734D01*
X68869995Y-80606031D01*
X68808221Y-80544149D01*
X68653910Y-80480073D01*
X68486823Y-80479928D01*
X68332400Y-80543734D01*
X68269995Y-80606031D01*
X68208221Y-80544149D01*
X68053910Y-80480073D01*
X67886823Y-80479928D01*
X67732400Y-80543734D01*
X67614149Y-80661779D01*
X67550073Y-80816090D01*
X67549928Y-80983177D01*
X67613734Y-81137600D01*
X67731779Y-81255851D01*
X67886090Y-81319927D01*
X68053177Y-81320072D01*
X68207600Y-81256266D01*
X68270005Y-81193969D01*
X68331779Y-81255851D01*
X68486090Y-81319927D01*
X68653177Y-81320072D01*
X68807600Y-81256266D01*
X68868910Y-81195063D01*
X68874359Y-81222459D01*
X68936921Y-81316090D01*
X68943726Y-81326274D01*
X69097452Y-81480000D01*
X67202548Y-81480000D01*
X66590028Y-80867480D01*
X66590072Y-80816823D01*
X66526266Y-80662400D01*
X66408221Y-80544149D01*
X66253910Y-80480073D01*
X66086823Y-80479928D01*
X65932400Y-80543734D01*
X65814149Y-80661779D01*
X65750073Y-80816090D01*
X65749976Y-80927428D01*
X65690028Y-80867480D01*
X65690072Y-80816823D01*
X65626266Y-80662400D01*
X65508221Y-80544149D01*
X65353910Y-80480073D01*
X65186823Y-80479928D01*
X65032400Y-80543734D01*
X64914149Y-80661779D01*
X64850073Y-80816090D01*
X64849928Y-80983177D01*
X64913734Y-81137600D01*
X65031779Y-81255851D01*
X65186090Y-81319927D01*
X65237424Y-81319972D01*
X66343726Y-82426274D01*
X66447542Y-82495642D01*
X66570000Y-82520000D01*
X69937452Y-82520000D01*
X71745001Y-84327550D01*
X71745001Y-86258070D01*
X71697576Y-86258028D01*
X71513274Y-86073726D01*
X71409459Y-86004359D01*
X71287000Y-85980000D01*
X70542548Y-85980000D01*
X71202520Y-85320028D01*
X71253177Y-85320072D01*
X71407600Y-85256266D01*
X71525851Y-85138221D01*
X71589927Y-84983910D01*
X71590072Y-84816823D01*
X71526266Y-84662400D01*
X71408221Y-84544149D01*
X71253910Y-84480073D01*
X71086823Y-84479928D01*
X70932400Y-84543734D01*
X70869995Y-84606031D01*
X70808221Y-84544149D01*
X70653910Y-84480073D01*
X70486823Y-84479928D01*
X70332400Y-84543734D01*
X70214149Y-84661779D01*
X70150073Y-84816090D01*
X70150028Y-84867424D01*
X69837452Y-85180000D01*
X67602548Y-85180000D01*
X67290028Y-84867480D01*
X67290072Y-84816823D01*
X67226266Y-84662400D01*
X67108221Y-84544149D01*
X66953910Y-84480073D01*
X66902576Y-84480028D01*
X64896274Y-82473726D01*
X64792459Y-82404359D01*
X64670000Y-82380000D01*
X62602548Y-82380000D01*
X61205725Y-80983177D01*
X61849928Y-80983177D01*
X61913734Y-81137600D01*
X62031779Y-81255851D01*
X62186090Y-81319927D01*
X62353177Y-81320072D01*
X62507600Y-81256266D01*
X62519918Y-81243969D01*
X62531779Y-81255851D01*
X62686090Y-81319927D01*
X62853177Y-81320072D01*
X63007600Y-81256266D01*
X63125851Y-81138221D01*
X63189927Y-80983910D01*
X63189927Y-80983177D01*
X63449928Y-80983177D01*
X63513734Y-81137600D01*
X63631779Y-81255851D01*
X63786090Y-81319927D01*
X63953177Y-81320072D01*
X64107600Y-81256266D01*
X64225851Y-81138221D01*
X64289927Y-80983910D01*
X64290072Y-80816823D01*
X64226266Y-80662400D01*
X64108221Y-80544149D01*
X63953910Y-80480073D01*
X63786823Y-80479928D01*
X63632400Y-80543734D01*
X63514149Y-80661779D01*
X63450073Y-80816090D01*
X63449928Y-80983177D01*
X63189927Y-80983177D01*
X63190072Y-80816823D01*
X63126266Y-80662400D01*
X63008221Y-80544149D01*
X62853910Y-80480073D01*
X62686823Y-80479928D01*
X62532400Y-80543734D01*
X62520082Y-80556031D01*
X62508221Y-80544149D01*
X62353910Y-80480073D01*
X62186823Y-80479928D01*
X62032400Y-80543734D01*
X61914149Y-80661779D01*
X61850073Y-80816090D01*
X61849928Y-80983177D01*
X61205725Y-80983177D01*
X60496274Y-80273726D01*
X60477997Y-80261514D01*
X60392459Y-80204359D01*
X60270000Y-80180000D01*
X57970000Y-80180000D01*
X57959002Y-80182188D01*
X57953910Y-80180073D01*
X57786823Y-80179928D01*
X57632400Y-80243734D01*
X57514149Y-80361779D01*
X57450073Y-80516090D01*
X57449928Y-80683177D01*
X57513734Y-80837600D01*
X57576031Y-80900005D01*
X57514149Y-80961779D01*
X57450073Y-81116090D01*
X57449928Y-81283177D01*
X57513734Y-81437600D01*
X57631779Y-81555851D01*
X57786090Y-81619927D01*
X57953177Y-81620072D01*
X58084134Y-81565962D01*
X58113734Y-81637600D01*
X58231779Y-81755851D01*
X58386090Y-81819927D01*
X58553177Y-81820072D01*
X58707600Y-81756266D01*
X58825851Y-81638221D01*
X58889927Y-81483910D01*
X58890072Y-81316823D01*
X58850066Y-81220000D01*
X59937452Y-81220000D01*
X62043726Y-83326274D01*
X62147541Y-83395641D01*
X62270000Y-83420000D01*
X64337452Y-83420000D01*
X65849972Y-84932520D01*
X65849928Y-84983177D01*
X65913734Y-85137600D01*
X66031779Y-85255851D01*
X66186090Y-85319927D01*
X66353177Y-85320072D01*
X66507600Y-85256266D01*
X66570005Y-85193969D01*
X66631779Y-85255851D01*
X66786090Y-85319927D01*
X66837424Y-85319972D01*
X67097452Y-85580000D01*
X64402548Y-85580000D01*
X63805725Y-84983177D01*
X64649928Y-84983177D01*
X64713734Y-85137600D01*
X64831779Y-85255851D01*
X64986090Y-85319927D01*
X65153177Y-85320072D01*
X65307600Y-85256266D01*
X65425851Y-85138221D01*
X65489927Y-84983910D01*
X65490072Y-84816823D01*
X65426266Y-84662400D01*
X65308221Y-84544149D01*
X65153910Y-84480073D01*
X64986823Y-84479928D01*
X64832400Y-84543734D01*
X64714149Y-84661779D01*
X64650073Y-84816090D01*
X64649928Y-84983177D01*
X63805725Y-84983177D01*
X62996274Y-84173726D01*
X62961593Y-84150553D01*
X62892459Y-84104359D01*
X62770000Y-84080000D01*
X61770000Y-84080000D01*
X61647541Y-84104359D01*
X61578407Y-84150553D01*
X61543726Y-84173726D01*
X61243726Y-84473726D01*
X61174359Y-84577541D01*
X61164704Y-84626079D01*
X61053910Y-84580073D01*
X60886823Y-84579928D01*
X60732400Y-84643734D01*
X60614149Y-84761779D01*
X60550073Y-84916090D01*
X60549928Y-85083177D01*
X60613734Y-85237600D01*
X60731779Y-85355851D01*
X60886090Y-85419927D01*
X61053177Y-85420072D01*
X61150000Y-85380066D01*
X61150000Y-86438929D01*
X61149149Y-86439779D01*
X61085073Y-86594090D01*
X61084928Y-86761177D01*
X61148734Y-86915600D01*
X61266779Y-87033851D01*
X61421090Y-87097927D01*
X61588177Y-87098072D01*
X61742600Y-87034266D01*
X61860851Y-86916221D01*
X61924927Y-86761910D01*
X61925072Y-86594823D01*
X61861266Y-86440400D01*
X61790000Y-86369010D01*
X61790000Y-85280027D01*
X61802789Y-85285337D01*
X62143726Y-85626274D01*
X62247541Y-85695641D01*
X62370000Y-85720000D01*
X63037452Y-85720000D01*
X63843726Y-86526274D01*
X63947541Y-86595641D01*
X64070000Y-86620000D01*
X71154452Y-86620000D01*
X71244972Y-86710520D01*
X71244928Y-86761177D01*
X71308734Y-86915600D01*
X71426779Y-87033851D01*
X71537589Y-87079863D01*
X70537452Y-88080000D01*
X69670000Y-88080000D01*
X69547541Y-88104359D01*
X69461606Y-88161779D01*
X69443726Y-88173726D01*
X69137480Y-88479972D01*
X69086823Y-88479928D01*
X68932400Y-88543734D01*
X68819908Y-88656030D01*
X68771635Y-88607673D01*
X68765641Y-88577541D01*
X68696274Y-88473726D01*
X68396274Y-88173726D01*
X68378394Y-88161779D01*
X68292459Y-88104359D01*
X68170000Y-88080000D01*
X63270000Y-88080000D01*
X63147541Y-88104359D01*
X63061606Y-88161779D01*
X63043726Y-88173726D01*
X62890063Y-88327389D01*
X62890072Y-88316823D01*
X62826266Y-88162400D01*
X62708221Y-88044149D01*
X62553910Y-87980073D01*
X62386823Y-87979928D01*
X62232400Y-88043734D01*
X62114149Y-88161779D01*
X62050073Y-88316090D01*
X62049928Y-88483177D01*
X62089934Y-88580000D01*
X62002548Y-88580000D01*
X61790028Y-88367480D01*
X61790072Y-88316823D01*
X61726266Y-88162400D01*
X61608221Y-88044149D01*
X61453910Y-87980073D01*
X61286823Y-87979928D01*
X61132400Y-88043734D01*
X61014149Y-88161779D01*
X60950073Y-88316090D01*
X60949928Y-88483177D01*
X61013734Y-88637600D01*
X61131779Y-88755851D01*
X61286090Y-88819927D01*
X61337424Y-88819972D01*
X61547452Y-89030000D01*
X59330000Y-89030000D01*
X59303919Y-89035188D01*
X59277326Y-89035188D01*
X59085984Y-89073248D01*
X59085983Y-89073248D01*
X58988653Y-89113564D01*
X58826442Y-89221951D01*
X58789197Y-89259197D01*
X58751951Y-89296442D01*
X58643564Y-89458653D01*
X58603248Y-89555983D01*
X58603248Y-89555984D01*
X58565188Y-89747326D01*
X58565188Y-89773919D01*
X58560000Y-89800000D01*
X58560000Y-89830000D01*
X57841607Y-89830000D01*
X57833558Y-89821951D01*
X57671347Y-89713564D01*
X57574017Y-89673248D01*
X57574016Y-89673248D01*
X57382674Y-89635188D01*
X57356081Y-89635188D01*
X57330000Y-89630000D01*
X56540000Y-89630000D01*
X56540000Y-85670000D01*
X59190000Y-85670000D01*
X59216081Y-85664812D01*
X59242674Y-85664812D01*
X59434016Y-85626752D01*
X59434017Y-85626752D01*
X59531347Y-85586436D01*
X59693558Y-85478049D01*
X59730803Y-85440803D01*
X59768049Y-85403558D01*
X59876436Y-85241347D01*
X59916752Y-85144017D01*
X59916752Y-85144016D01*
X59954812Y-84952674D01*
X59954812Y-84847324D01*
X59954811Y-84847322D01*
X59916752Y-84655984D01*
X59916752Y-84655983D01*
X59876436Y-84558653D01*
X59768049Y-84396442D01*
X59730803Y-84359197D01*
X59693558Y-84321951D01*
X59531347Y-84213564D01*
X59434017Y-84173248D01*
X59434016Y-84173248D01*
X59242674Y-84135188D01*
X59216081Y-84135188D01*
X59190000Y-84130000D01*
X56540000Y-84130000D01*
X56540000Y-83205177D01*
X59814928Y-83205177D01*
X59878734Y-83359600D01*
X59996779Y-83477851D01*
X60151090Y-83541927D01*
X60318177Y-83542072D01*
X60472600Y-83478266D01*
X60590851Y-83360221D01*
X60654927Y-83205910D01*
X60655072Y-83038823D01*
X60591266Y-82884400D01*
X60473221Y-82766149D01*
X60318910Y-82702073D01*
X60151823Y-82701928D01*
X59997400Y-82765734D01*
X59879149Y-82883779D01*
X59815073Y-83038090D01*
X59814928Y-83205177D01*
X56540000Y-83205177D01*
X56540000Y-80170000D01*
X76630000Y-80170000D01*
X76630000Y-84130000D01*
X76630000Y-84130000D01*
G37*
X76630000Y-84130000D02*
X73980000Y-84130000D01*
X73953919Y-84135188D01*
X73927326Y-84135188D01*
X73735984Y-84173248D01*
X73735983Y-84173248D01*
X73638653Y-84213564D01*
X73476442Y-84321951D01*
X73439197Y-84359197D01*
X73401951Y-84396442D01*
X73293564Y-84558653D01*
X73253248Y-84655983D01*
X73253248Y-84655984D01*
X73215188Y-84847324D01*
X73215188Y-84952674D01*
X73253248Y-85144016D01*
X73253248Y-85144017D01*
X73293564Y-85241347D01*
X73401951Y-85403558D01*
X73439197Y-85440803D01*
X73476442Y-85478049D01*
X73638653Y-85586436D01*
X73735983Y-85626752D01*
X73735984Y-85626752D01*
X73927326Y-85664812D01*
X73953919Y-85664812D01*
X73980000Y-85670000D01*
X76630000Y-85670000D01*
X76630000Y-89630000D01*
X75840000Y-89630000D01*
X75813919Y-89635188D01*
X75787326Y-89635188D01*
X75595984Y-89673248D01*
X75595983Y-89673248D01*
X75498653Y-89713564D01*
X75336442Y-89821951D01*
X75328393Y-89830000D01*
X74351607Y-89830000D01*
X74343558Y-89821951D01*
X74181347Y-89713564D01*
X74084017Y-89673248D01*
X74084016Y-89673248D01*
X73892674Y-89635188D01*
X73866081Y-89635188D01*
X73840000Y-89630000D01*
X65411475Y-89630000D01*
X65396752Y-89555984D01*
X65396752Y-89555983D01*
X65356436Y-89458653D01*
X65248049Y-89296442D01*
X65210803Y-89259197D01*
X65173558Y-89221951D01*
X65011347Y-89113564D01*
X64914017Y-89073248D01*
X64914016Y-89073248D01*
X64722674Y-89035188D01*
X64696081Y-89035188D01*
X64670000Y-89030000D01*
X63092548Y-89030000D01*
X63402548Y-88720000D01*
X65219973Y-88720000D01*
X65180073Y-88816090D01*
X65179928Y-88983177D01*
X65243734Y-89137600D01*
X65361779Y-89255851D01*
X65516090Y-89319927D01*
X65683177Y-89320072D01*
X65837600Y-89256266D01*
X65950092Y-89143970D01*
X66061779Y-89255851D01*
X66216090Y-89319927D01*
X66383177Y-89320072D01*
X66537600Y-89256266D01*
X66655851Y-89138221D01*
X66719927Y-88983910D01*
X66720072Y-88816823D01*
X66680066Y-88720000D01*
X67489973Y-88720000D01*
X67450073Y-88816090D01*
X67449928Y-88983177D01*
X67513734Y-89137600D01*
X67631779Y-89255851D01*
X67786090Y-89319927D01*
X67953177Y-89320072D01*
X68107600Y-89256266D01*
X68170005Y-89193969D01*
X68231779Y-89255851D01*
X68386090Y-89319927D01*
X68553177Y-89320072D01*
X68707600Y-89256266D01*
X68820092Y-89143970D01*
X68931779Y-89255851D01*
X69086090Y-89319927D01*
X69253177Y-89320072D01*
X69407600Y-89256266D01*
X69525851Y-89138221D01*
X69589927Y-88983910D01*
X69589972Y-88932576D01*
X69802548Y-88720000D01*
X69989973Y-88720000D01*
X69950073Y-88816090D01*
X69949928Y-88983177D01*
X70013734Y-89137600D01*
X70131779Y-89255851D01*
X70286090Y-89319927D01*
X70453177Y-89320072D01*
X70607600Y-89256266D01*
X70643929Y-89220000D01*
X70670000Y-89220000D01*
X70792459Y-89195641D01*
X70896274Y-89126274D01*
X71639371Y-88383177D01*
X72449928Y-88383177D01*
X72513734Y-88537600D01*
X72631779Y-88655851D01*
X72786090Y-88719927D01*
X72953177Y-88720072D01*
X73107600Y-88656266D01*
X73225851Y-88538221D01*
X73289927Y-88383910D01*
X73290072Y-88216823D01*
X73226266Y-88062400D01*
X73108221Y-87944149D01*
X72953910Y-87880073D01*
X72786823Y-87879928D01*
X72632400Y-87943734D01*
X72514149Y-88061779D01*
X72450073Y-88216090D01*
X72449928Y-88383177D01*
X71639371Y-88383177D01*
X72696274Y-87326274D01*
X72713402Y-87300640D01*
X72765641Y-87222459D01*
X72790000Y-87100000D01*
X72790000Y-83516560D01*
X72851090Y-83541927D01*
X73018177Y-83542072D01*
X73172600Y-83478266D01*
X73290851Y-83360221D01*
X73354927Y-83205910D01*
X73355072Y-83038823D01*
X73291266Y-82884400D01*
X73173221Y-82766149D01*
X73018910Y-82702073D01*
X72851823Y-82701928D01*
X72697400Y-82765734D01*
X72592750Y-82870202D01*
X70896274Y-81173726D01*
X70878394Y-81161779D01*
X70792459Y-81104359D01*
X70670000Y-81080000D01*
X70150027Y-81080000D01*
X70189927Y-80983910D01*
X70190072Y-80816823D01*
X70126266Y-80662400D01*
X70008221Y-80544149D01*
X69853910Y-80480073D01*
X69686823Y-80479928D01*
X69532400Y-80543734D01*
X69469995Y-80606031D01*
X69408221Y-80544149D01*
X69253910Y-80480073D01*
X69086823Y-80479928D01*
X68932400Y-80543734D01*
X68869995Y-80606031D01*
X68808221Y-80544149D01*
X68653910Y-80480073D01*
X68486823Y-80479928D01*
X68332400Y-80543734D01*
X68269995Y-80606031D01*
X68208221Y-80544149D01*
X68053910Y-80480073D01*
X67886823Y-80479928D01*
X67732400Y-80543734D01*
X67614149Y-80661779D01*
X67550073Y-80816090D01*
X67549928Y-80983177D01*
X67613734Y-81137600D01*
X67731779Y-81255851D01*
X67886090Y-81319927D01*
X68053177Y-81320072D01*
X68207600Y-81256266D01*
X68270005Y-81193969D01*
X68331779Y-81255851D01*
X68486090Y-81319927D01*
X68653177Y-81320072D01*
X68807600Y-81256266D01*
X68868910Y-81195063D01*
X68874359Y-81222459D01*
X68936921Y-81316090D01*
X68943726Y-81326274D01*
X69097452Y-81480000D01*
X67202548Y-81480000D01*
X66590028Y-80867480D01*
X66590072Y-80816823D01*
X66526266Y-80662400D01*
X66408221Y-80544149D01*
X66253910Y-80480073D01*
X66086823Y-80479928D01*
X65932400Y-80543734D01*
X65814149Y-80661779D01*
X65750073Y-80816090D01*
X65749976Y-80927428D01*
X65690028Y-80867480D01*
X65690072Y-80816823D01*
X65626266Y-80662400D01*
X65508221Y-80544149D01*
X65353910Y-80480073D01*
X65186823Y-80479928D01*
X65032400Y-80543734D01*
X64914149Y-80661779D01*
X64850073Y-80816090D01*
X64849928Y-80983177D01*
X64913734Y-81137600D01*
X65031779Y-81255851D01*
X65186090Y-81319927D01*
X65237424Y-81319972D01*
X66343726Y-82426274D01*
X66447542Y-82495642D01*
X66570000Y-82520000D01*
X69937452Y-82520000D01*
X71745001Y-84327550D01*
X71745001Y-86258070D01*
X71697576Y-86258028D01*
X71513274Y-86073726D01*
X71409459Y-86004359D01*
X71287000Y-85980000D01*
X70542548Y-85980000D01*
X71202520Y-85320028D01*
X71253177Y-85320072D01*
X71407600Y-85256266D01*
X71525851Y-85138221D01*
X71589927Y-84983910D01*
X71590072Y-84816823D01*
X71526266Y-84662400D01*
X71408221Y-84544149D01*
X71253910Y-84480073D01*
X71086823Y-84479928D01*
X70932400Y-84543734D01*
X70869995Y-84606031D01*
X70808221Y-84544149D01*
X70653910Y-84480073D01*
X70486823Y-84479928D01*
X70332400Y-84543734D01*
X70214149Y-84661779D01*
X70150073Y-84816090D01*
X70150028Y-84867424D01*
X69837452Y-85180000D01*
X67602548Y-85180000D01*
X67290028Y-84867480D01*
X67290072Y-84816823D01*
X67226266Y-84662400D01*
X67108221Y-84544149D01*
X66953910Y-84480073D01*
X66902576Y-84480028D01*
X64896274Y-82473726D01*
X64792459Y-82404359D01*
X64670000Y-82380000D01*
X62602548Y-82380000D01*
X61205725Y-80983177D01*
X61849928Y-80983177D01*
X61913734Y-81137600D01*
X62031779Y-81255851D01*
X62186090Y-81319927D01*
X62353177Y-81320072D01*
X62507600Y-81256266D01*
X62519918Y-81243969D01*
X62531779Y-81255851D01*
X62686090Y-81319927D01*
X62853177Y-81320072D01*
X63007600Y-81256266D01*
X63125851Y-81138221D01*
X63189927Y-80983910D01*
X63189927Y-80983177D01*
X63449928Y-80983177D01*
X63513734Y-81137600D01*
X63631779Y-81255851D01*
X63786090Y-81319927D01*
X63953177Y-81320072D01*
X64107600Y-81256266D01*
X64225851Y-81138221D01*
X64289927Y-80983910D01*
X64290072Y-80816823D01*
X64226266Y-80662400D01*
X64108221Y-80544149D01*
X63953910Y-80480073D01*
X63786823Y-80479928D01*
X63632400Y-80543734D01*
X63514149Y-80661779D01*
X63450073Y-80816090D01*
X63449928Y-80983177D01*
X63189927Y-80983177D01*
X63190072Y-80816823D01*
X63126266Y-80662400D01*
X63008221Y-80544149D01*
X62853910Y-80480073D01*
X62686823Y-80479928D01*
X62532400Y-80543734D01*
X62520082Y-80556031D01*
X62508221Y-80544149D01*
X62353910Y-80480073D01*
X62186823Y-80479928D01*
X62032400Y-80543734D01*
X61914149Y-80661779D01*
X61850073Y-80816090D01*
X61849928Y-80983177D01*
X61205725Y-80983177D01*
X60496274Y-80273726D01*
X60477997Y-80261514D01*
X60392459Y-80204359D01*
X60270000Y-80180000D01*
X57970000Y-80180000D01*
X57959002Y-80182188D01*
X57953910Y-80180073D01*
X57786823Y-80179928D01*
X57632400Y-80243734D01*
X57514149Y-80361779D01*
X57450073Y-80516090D01*
X57449928Y-80683177D01*
X57513734Y-80837600D01*
X57576031Y-80900005D01*
X57514149Y-80961779D01*
X57450073Y-81116090D01*
X57449928Y-81283177D01*
X57513734Y-81437600D01*
X57631779Y-81555851D01*
X57786090Y-81619927D01*
X57953177Y-81620072D01*
X58084134Y-81565962D01*
X58113734Y-81637600D01*
X58231779Y-81755851D01*
X58386090Y-81819927D01*
X58553177Y-81820072D01*
X58707600Y-81756266D01*
X58825851Y-81638221D01*
X58889927Y-81483910D01*
X58890072Y-81316823D01*
X58850066Y-81220000D01*
X59937452Y-81220000D01*
X62043726Y-83326274D01*
X62147541Y-83395641D01*
X62270000Y-83420000D01*
X64337452Y-83420000D01*
X65849972Y-84932520D01*
X65849928Y-84983177D01*
X65913734Y-85137600D01*
X66031779Y-85255851D01*
X66186090Y-85319927D01*
X66353177Y-85320072D01*
X66507600Y-85256266D01*
X66570005Y-85193969D01*
X66631779Y-85255851D01*
X66786090Y-85319927D01*
X66837424Y-85319972D01*
X67097452Y-85580000D01*
X64402548Y-85580000D01*
X63805725Y-84983177D01*
X64649928Y-84983177D01*
X64713734Y-85137600D01*
X64831779Y-85255851D01*
X64986090Y-85319927D01*
X65153177Y-85320072D01*
X65307600Y-85256266D01*
X65425851Y-85138221D01*
X65489927Y-84983910D01*
X65490072Y-84816823D01*
X65426266Y-84662400D01*
X65308221Y-84544149D01*
X65153910Y-84480073D01*
X64986823Y-84479928D01*
X64832400Y-84543734D01*
X64714149Y-84661779D01*
X64650073Y-84816090D01*
X64649928Y-84983177D01*
X63805725Y-84983177D01*
X62996274Y-84173726D01*
X62961593Y-84150553D01*
X62892459Y-84104359D01*
X62770000Y-84080000D01*
X61770000Y-84080000D01*
X61647541Y-84104359D01*
X61578407Y-84150553D01*
X61543726Y-84173726D01*
X61243726Y-84473726D01*
X61174359Y-84577541D01*
X61164704Y-84626079D01*
X61053910Y-84580073D01*
X60886823Y-84579928D01*
X60732400Y-84643734D01*
X60614149Y-84761779D01*
X60550073Y-84916090D01*
X60549928Y-85083177D01*
X60613734Y-85237600D01*
X60731779Y-85355851D01*
X60886090Y-85419927D01*
X61053177Y-85420072D01*
X61150000Y-85380066D01*
X61150000Y-86438929D01*
X61149149Y-86439779D01*
X61085073Y-86594090D01*
X61084928Y-86761177D01*
X61148734Y-86915600D01*
X61266779Y-87033851D01*
X61421090Y-87097927D01*
X61588177Y-87098072D01*
X61742600Y-87034266D01*
X61860851Y-86916221D01*
X61924927Y-86761910D01*
X61925072Y-86594823D01*
X61861266Y-86440400D01*
X61790000Y-86369010D01*
X61790000Y-85280027D01*
X61802789Y-85285337D01*
X62143726Y-85626274D01*
X62247541Y-85695641D01*
X62370000Y-85720000D01*
X63037452Y-85720000D01*
X63843726Y-86526274D01*
X63947541Y-86595641D01*
X64070000Y-86620000D01*
X71154452Y-86620000D01*
X71244972Y-86710520D01*
X71244928Y-86761177D01*
X71308734Y-86915600D01*
X71426779Y-87033851D01*
X71537589Y-87079863D01*
X70537452Y-88080000D01*
X69670000Y-88080000D01*
X69547541Y-88104359D01*
X69461606Y-88161779D01*
X69443726Y-88173726D01*
X69137480Y-88479972D01*
X69086823Y-88479928D01*
X68932400Y-88543734D01*
X68819908Y-88656030D01*
X68771635Y-88607673D01*
X68765641Y-88577541D01*
X68696274Y-88473726D01*
X68396274Y-88173726D01*
X68378394Y-88161779D01*
X68292459Y-88104359D01*
X68170000Y-88080000D01*
X63270000Y-88080000D01*
X63147541Y-88104359D01*
X63061606Y-88161779D01*
X63043726Y-88173726D01*
X62890063Y-88327389D01*
X62890072Y-88316823D01*
X62826266Y-88162400D01*
X62708221Y-88044149D01*
X62553910Y-87980073D01*
X62386823Y-87979928D01*
X62232400Y-88043734D01*
X62114149Y-88161779D01*
X62050073Y-88316090D01*
X62049928Y-88483177D01*
X62089934Y-88580000D01*
X62002548Y-88580000D01*
X61790028Y-88367480D01*
X61790072Y-88316823D01*
X61726266Y-88162400D01*
X61608221Y-88044149D01*
X61453910Y-87980073D01*
X61286823Y-87979928D01*
X61132400Y-88043734D01*
X61014149Y-88161779D01*
X60950073Y-88316090D01*
X60949928Y-88483177D01*
X61013734Y-88637600D01*
X61131779Y-88755851D01*
X61286090Y-88819927D01*
X61337424Y-88819972D01*
X61547452Y-89030000D01*
X59330000Y-89030000D01*
X59303919Y-89035188D01*
X59277326Y-89035188D01*
X59085984Y-89073248D01*
X59085983Y-89073248D01*
X58988653Y-89113564D01*
X58826442Y-89221951D01*
X58789197Y-89259197D01*
X58751951Y-89296442D01*
X58643564Y-89458653D01*
X58603248Y-89555983D01*
X58603248Y-89555984D01*
X58565188Y-89747326D01*
X58565188Y-89773919D01*
X58560000Y-89800000D01*
X58560000Y-89830000D01*
X57841607Y-89830000D01*
X57833558Y-89821951D01*
X57671347Y-89713564D01*
X57574017Y-89673248D01*
X57574016Y-89673248D01*
X57382674Y-89635188D01*
X57356081Y-89635188D01*
X57330000Y-89630000D01*
X56540000Y-89630000D01*
X56540000Y-85670000D01*
X59190000Y-85670000D01*
X59216081Y-85664812D01*
X59242674Y-85664812D01*
X59434016Y-85626752D01*
X59434017Y-85626752D01*
X59531347Y-85586436D01*
X59693558Y-85478049D01*
X59730803Y-85440803D01*
X59768049Y-85403558D01*
X59876436Y-85241347D01*
X59916752Y-85144017D01*
X59916752Y-85144016D01*
X59954812Y-84952674D01*
X59954812Y-84847324D01*
X59954811Y-84847322D01*
X59916752Y-84655984D01*
X59916752Y-84655983D01*
X59876436Y-84558653D01*
X59768049Y-84396442D01*
X59730803Y-84359197D01*
X59693558Y-84321951D01*
X59531347Y-84213564D01*
X59434017Y-84173248D01*
X59434016Y-84173248D01*
X59242674Y-84135188D01*
X59216081Y-84135188D01*
X59190000Y-84130000D01*
X56540000Y-84130000D01*
X56540000Y-83205177D01*
X59814928Y-83205177D01*
X59878734Y-83359600D01*
X59996779Y-83477851D01*
X60151090Y-83541927D01*
X60318177Y-83542072D01*
X60472600Y-83478266D01*
X60590851Y-83360221D01*
X60654927Y-83205910D01*
X60655072Y-83038823D01*
X60591266Y-82884400D01*
X60473221Y-82766149D01*
X60318910Y-82702073D01*
X60151823Y-82701928D01*
X59997400Y-82765734D01*
X59879149Y-82883779D01*
X59815073Y-83038090D01*
X59814928Y-83205177D01*
X56540000Y-83205177D01*
X56540000Y-80170000D01*
X76630000Y-80170000D01*
X76630000Y-84130000D01*
G36*
X53946442Y-90978049D02*
X54108653Y-91086436D01*
X54205983Y-91126752D01*
X54205984Y-91126752D01*
X54397326Y-91164812D01*
X54423919Y-91164812D01*
X54450000Y-91170000D01*
X57330000Y-91170000D01*
X57356081Y-91164812D01*
X57382674Y-91164812D01*
X57574016Y-91126752D01*
X57574017Y-91126752D01*
X57671347Y-91086436D01*
X57833558Y-90978049D01*
X57841607Y-90970000D01*
X58818393Y-90970000D01*
X58826442Y-90978049D01*
X58988653Y-91086436D01*
X59085983Y-91126752D01*
X59085984Y-91126752D01*
X59277326Y-91164812D01*
X59303919Y-91164812D01*
X59330000Y-91170000D01*
X68911801Y-91170000D01*
X68789969Y-91291620D01*
X68680125Y-91556155D01*
X68679875Y-91842589D01*
X68789257Y-92107315D01*
X68991620Y-92310031D01*
X69256155Y-92419875D01*
X69542589Y-92420125D01*
X69807315Y-92310743D01*
X70010031Y-92108380D01*
X70119875Y-91843845D01*
X70120125Y-91557411D01*
X70010743Y-91292685D01*
X69888272Y-91170000D01*
X73850000Y-91170000D01*
X73876081Y-91164812D01*
X73892674Y-91164812D01*
X74084016Y-91126752D01*
X74084017Y-91126752D01*
X74181347Y-91086436D01*
X74343558Y-90978049D01*
X74351607Y-90970000D01*
X75328393Y-90970000D01*
X75336442Y-90978049D01*
X75498653Y-91086436D01*
X75595983Y-91126752D01*
X75595984Y-91126752D01*
X75787326Y-91164812D01*
X75813919Y-91164812D01*
X75840000Y-91170000D01*
X76630000Y-91170000D01*
X76630000Y-124330000D01*
X74050000Y-124330000D01*
X74050000Y-124100000D01*
X74044812Y-124073919D01*
X74044812Y-124047326D01*
X74006752Y-123855984D01*
X74006752Y-123855983D01*
X73966436Y-123758653D01*
X73858049Y-123596442D01*
X73820803Y-123559197D01*
X73783558Y-123521951D01*
X73621347Y-123413564D01*
X73524017Y-123373248D01*
X73524016Y-123373248D01*
X73332674Y-123335188D01*
X73306081Y-123335188D01*
X73280000Y-123330000D01*
X59890000Y-123330000D01*
X59863919Y-123335188D01*
X59837326Y-123335188D01*
X59645984Y-123373248D01*
X59645983Y-123373248D01*
X59548653Y-123413564D01*
X59386442Y-123521951D01*
X59349197Y-123559197D01*
X59311951Y-123596442D01*
X59203564Y-123758653D01*
X59163248Y-123855983D01*
X59163248Y-123855984D01*
X59125188Y-124047326D01*
X59125188Y-124073919D01*
X59120000Y-124100000D01*
X59120000Y-124330000D01*
X47370000Y-124330000D01*
X47370000Y-123683177D01*
X49179928Y-123683177D01*
X49243734Y-123837600D01*
X49361779Y-123955851D01*
X49516090Y-124019927D01*
X49683177Y-124020072D01*
X49837600Y-123956266D01*
X49955851Y-123838221D01*
X50019927Y-123683910D01*
X50020072Y-123516823D01*
X49956266Y-123362400D01*
X49838221Y-123244149D01*
X49683910Y-123180073D01*
X49516823Y-123179928D01*
X49362400Y-123243734D01*
X49244149Y-123361779D01*
X49180073Y-123516090D01*
X49179928Y-123683177D01*
X47370000Y-123683177D01*
X47370000Y-119283177D01*
X47379928Y-119283177D01*
X47443734Y-119437600D01*
X47561779Y-119555851D01*
X47716090Y-119619927D01*
X47883177Y-119620072D01*
X48037600Y-119556266D01*
X48155851Y-119438221D01*
X48219927Y-119283910D01*
X48220072Y-119116823D01*
X48156266Y-118962400D01*
X48038221Y-118844149D01*
X47883910Y-118780073D01*
X47716823Y-118779928D01*
X47562400Y-118843734D01*
X47444149Y-118961779D01*
X47380073Y-119116090D01*
X47379928Y-119283177D01*
X47370000Y-119283177D01*
X47370000Y-113983177D01*
X47679928Y-113983177D01*
X47743734Y-114137600D01*
X47861779Y-114255851D01*
X48016090Y-114319927D01*
X48067424Y-114319972D01*
X48529990Y-114782538D01*
X48529990Y-115710980D01*
X48554349Y-115833439D01*
X48610326Y-115917214D01*
X48623716Y-115937254D01*
X49712745Y-117026283D01*
X49816561Y-117095651D01*
X49939019Y-117120009D01*
X50749991Y-117120009D01*
X50750036Y-117120000D01*
X51067452Y-117120000D01*
X55273726Y-121326274D01*
X55377541Y-121395641D01*
X55500000Y-121420000D01*
X56066002Y-121420000D01*
X56188461Y-121395641D01*
X56292276Y-121326274D01*
X57248550Y-120370000D01*
X59619973Y-120370000D01*
X59580073Y-120466090D01*
X59579928Y-120633177D01*
X59643734Y-120787600D01*
X59761779Y-120905851D01*
X59916090Y-120969927D01*
X60083177Y-120970072D01*
X60237600Y-120906266D01*
X60300005Y-120843969D01*
X60361779Y-120905851D01*
X60516090Y-120969927D01*
X60683177Y-120970072D01*
X60837600Y-120906266D01*
X60950092Y-120793970D01*
X61061779Y-120905851D01*
X61216090Y-120969927D01*
X61383177Y-120970072D01*
X61537600Y-120906266D01*
X61650092Y-120793970D01*
X61761779Y-120905851D01*
X61916090Y-120969927D01*
X62083177Y-120970072D01*
X62237600Y-120906266D01*
X62300005Y-120843969D01*
X62361779Y-120905851D01*
X62516090Y-120969927D01*
X62683177Y-120970072D01*
X62837600Y-120906266D01*
X62900005Y-120843969D01*
X62961779Y-120905851D01*
X63116090Y-120969927D01*
X63283177Y-120970072D01*
X63437600Y-120906266D01*
X63500005Y-120843969D01*
X63561779Y-120905851D01*
X63716090Y-120969927D01*
X63883177Y-120970072D01*
X64037600Y-120906266D01*
X64100005Y-120843969D01*
X64161779Y-120905851D01*
X64316090Y-120969927D01*
X64483177Y-120970072D01*
X64637600Y-120906266D01*
X64700005Y-120843969D01*
X64761779Y-120905851D01*
X64916090Y-120969927D01*
X65083177Y-120970072D01*
X65237600Y-120906266D01*
X65355851Y-120788221D01*
X65393942Y-120696490D01*
X65923727Y-121226275D01*
X66027542Y-121295642D01*
X66150001Y-121320001D01*
X67416001Y-121320001D01*
X67538460Y-121295642D01*
X67642275Y-121226275D01*
X67909252Y-120959298D01*
X68037600Y-120906266D01*
X68100005Y-120843969D01*
X68161779Y-120905851D01*
X68316090Y-120969927D01*
X68483177Y-120970072D01*
X68637600Y-120906266D01*
X68700005Y-120843969D01*
X68761779Y-120905851D01*
X68916090Y-120969927D01*
X69083177Y-120970072D01*
X69237600Y-120906266D01*
X69329320Y-120814706D01*
X69405059Y-120890577D01*
X69596112Y-120969909D01*
X69802981Y-120970090D01*
X69994171Y-120891091D01*
X70070741Y-120814655D01*
X70161779Y-120905851D01*
X70316090Y-120969927D01*
X70483177Y-120970072D01*
X70637600Y-120906266D01*
X70700005Y-120843969D01*
X70761779Y-120905851D01*
X70916090Y-120969927D01*
X71083177Y-120970072D01*
X71237600Y-120906266D01*
X71355851Y-120788221D01*
X71384330Y-120719637D01*
X71505059Y-120840577D01*
X71696112Y-120919909D01*
X71902981Y-120920090D01*
X72094171Y-120841091D01*
X72240577Y-120694941D01*
X72319909Y-120503888D01*
X72320090Y-120297019D01*
X72241091Y-120105829D01*
X72218479Y-120083177D01*
X72929928Y-120083177D01*
X72993734Y-120237600D01*
X73031031Y-120274962D01*
X72994149Y-120311779D01*
X72930073Y-120466090D01*
X72929928Y-120633177D01*
X72993734Y-120787600D01*
X73111779Y-120905851D01*
X73266090Y-120969927D01*
X73433177Y-120970072D01*
X73587600Y-120906266D01*
X73705851Y-120788221D01*
X73769927Y-120633910D01*
X73770072Y-120466823D01*
X73706266Y-120312400D01*
X73668969Y-120275038D01*
X73705851Y-120238221D01*
X73769927Y-120083910D01*
X73770072Y-119916823D01*
X73706266Y-119762400D01*
X73588221Y-119644149D01*
X73433910Y-119580073D01*
X73266823Y-119579928D01*
X73112400Y-119643734D01*
X72994149Y-119761779D01*
X72930073Y-119916090D01*
X72929928Y-120083177D01*
X72218479Y-120083177D01*
X72094941Y-119959423D01*
X71903888Y-119880091D01*
X71697019Y-119879910D01*
X71505829Y-119958909D01*
X71359423Y-120105059D01*
X71297692Y-120253724D01*
X71238221Y-120194149D01*
X71083910Y-120130073D01*
X70916823Y-120129928D01*
X70762400Y-120193734D01*
X70699995Y-120256031D01*
X70638221Y-120194149D01*
X70483910Y-120130073D01*
X70316823Y-120129928D01*
X70162400Y-120193734D01*
X70158402Y-120197725D01*
X70141091Y-120155829D01*
X69994941Y-120009423D01*
X69803888Y-119930091D01*
X69597019Y-119929910D01*
X69405829Y-120008909D01*
X69259423Y-120155059D01*
X69241731Y-120197665D01*
X69238221Y-120194149D01*
X69083910Y-120130073D01*
X68916823Y-120129928D01*
X68762400Y-120193734D01*
X68699995Y-120256031D01*
X68638221Y-120194149D01*
X68483910Y-120130073D01*
X68316823Y-120129928D01*
X68162400Y-120193734D01*
X68099995Y-120256031D01*
X68038221Y-120194149D01*
X67883910Y-120130073D01*
X67716823Y-120129928D01*
X67562400Y-120193734D01*
X67499995Y-120256031D01*
X67438221Y-120194149D01*
X67283910Y-120130073D01*
X67116823Y-120129928D01*
X66962400Y-120193734D01*
X66926071Y-120230000D01*
X66332549Y-120230000D01*
X65576274Y-119473726D01*
X65523137Y-119438221D01*
X65472459Y-119404359D01*
X65350000Y-119380000D01*
X60428526Y-119380000D01*
X61013505Y-118795021D01*
X62289955Y-118795021D01*
X62412414Y-118770662D01*
X62516229Y-118701295D01*
X63184347Y-118033177D01*
X64279928Y-118033177D01*
X64343734Y-118187600D01*
X64461779Y-118305851D01*
X64616090Y-118369927D01*
X64783177Y-118370072D01*
X64937600Y-118306266D01*
X65055851Y-118188221D01*
X65119927Y-118033910D01*
X65120072Y-117866823D01*
X65056266Y-117712400D01*
X64938221Y-117594149D01*
X64783910Y-117530073D01*
X64616823Y-117529928D01*
X64462400Y-117593734D01*
X64344149Y-117711779D01*
X64280073Y-117866090D01*
X64279928Y-118033177D01*
X63184347Y-118033177D01*
X63247524Y-117970001D01*
X63591001Y-117970001D01*
X63713460Y-117945642D01*
X63817275Y-117876275D01*
X64285373Y-117408177D01*
X65554928Y-117408177D01*
X65618734Y-117562600D01*
X65736779Y-117680851D01*
X65891090Y-117744927D01*
X66058177Y-117745072D01*
X66212600Y-117681266D01*
X66330851Y-117563221D01*
X66394927Y-117408910D01*
X66395072Y-117241823D01*
X66331266Y-117087400D01*
X66213221Y-116969149D01*
X66058910Y-116905073D01*
X65891823Y-116904928D01*
X65737400Y-116968734D01*
X65619149Y-117086779D01*
X65555073Y-117241090D01*
X65554928Y-117408177D01*
X64285373Y-117408177D01*
X64523540Y-117170010D01*
X64994978Y-117170010D01*
X65117437Y-117145651D01*
X65211648Y-117082701D01*
X65241090Y-117094927D01*
X65408177Y-117095072D01*
X65562600Y-117031266D01*
X65680851Y-116913221D01*
X65744927Y-116758910D01*
X65745072Y-116591823D01*
X65715395Y-116520000D01*
X66001450Y-116520000D01*
X66479999Y-116998549D01*
X66479999Y-117166001D01*
X66504358Y-117288460D01*
X66561331Y-117373726D01*
X66573725Y-117392275D01*
X66807725Y-117626275D01*
X66911540Y-117695642D01*
X67033999Y-117720001D01*
X67866002Y-117720000D01*
X67988461Y-117695641D01*
X68092276Y-117626274D01*
X68848551Y-116869999D01*
X69474212Y-116869999D01*
X69455073Y-116916090D01*
X69454928Y-117083177D01*
X69518734Y-117237600D01*
X69636779Y-117355851D01*
X69791090Y-117419927D01*
X69958177Y-117420072D01*
X70112600Y-117356266D01*
X70200049Y-117268969D01*
X70286779Y-117355851D01*
X70441090Y-117419927D01*
X70608177Y-117420072D01*
X70762600Y-117356266D01*
X70880851Y-117238221D01*
X70944927Y-117083910D01*
X70945072Y-116916823D01*
X70931551Y-116884099D01*
X72173726Y-118126274D01*
X72277541Y-118195641D01*
X72400000Y-118220000D01*
X73075990Y-118220000D01*
X73111779Y-118255851D01*
X73266090Y-118319927D01*
X73433177Y-118320072D01*
X73587600Y-118256266D01*
X73705851Y-118138221D01*
X73769927Y-117983910D01*
X73770072Y-117816823D01*
X73706266Y-117662400D01*
X73588221Y-117544149D01*
X73433910Y-117480073D01*
X73266823Y-117479928D01*
X73112400Y-117543734D01*
X73076071Y-117580000D01*
X72532548Y-117580000D01*
X71270028Y-116317480D01*
X71270072Y-116266823D01*
X71250725Y-116219999D01*
X73275989Y-116219999D01*
X73311779Y-116255851D01*
X73466090Y-116319927D01*
X73633177Y-116320072D01*
X73787600Y-116256266D01*
X73905851Y-116138221D01*
X73969927Y-115983910D01*
X73970072Y-115816823D01*
X73906266Y-115662400D01*
X73788221Y-115544149D01*
X73633910Y-115480073D01*
X73466823Y-115479928D01*
X73312400Y-115543734D01*
X73276072Y-115579999D01*
X72872546Y-115579999D01*
X73304245Y-115148300D01*
X73311779Y-115155848D01*
X73466090Y-115219924D01*
X73633177Y-115220069D01*
X73787600Y-115156263D01*
X73905851Y-115038218D01*
X73969927Y-114883907D01*
X73970072Y-114716820D01*
X73906266Y-114562397D01*
X73788221Y-114444146D01*
X73633910Y-114380070D01*
X73466823Y-114379925D01*
X73312400Y-114443731D01*
X73276071Y-114479997D01*
X73200000Y-114479997D01*
X73077541Y-114504356D01*
X72991606Y-114561776D01*
X72973726Y-114573723D01*
X72492449Y-115055000D01*
X70799010Y-115055000D01*
X70764071Y-115020000D01*
X71757576Y-115020000D01*
X71880035Y-114995641D01*
X71983850Y-114926274D01*
X72790124Y-114120000D01*
X73275990Y-114120000D01*
X73311779Y-114155851D01*
X73466090Y-114219927D01*
X73633177Y-114220072D01*
X73787600Y-114156266D01*
X73905851Y-114038221D01*
X73969927Y-113883910D01*
X73970072Y-113716823D01*
X73906266Y-113562400D01*
X73788221Y-113444149D01*
X73633910Y-113380073D01*
X73466823Y-113379928D01*
X73312400Y-113443734D01*
X73276071Y-113480000D01*
X72935136Y-113480000D01*
X73245136Y-113170000D01*
X73750000Y-113170000D01*
X73872459Y-113145641D01*
X73976274Y-113076274D01*
X74326274Y-112726274D01*
X74395642Y-112622458D01*
X74420000Y-112500000D01*
X74420000Y-109474010D01*
X74455851Y-109438221D01*
X74519927Y-109283910D01*
X74520072Y-109116823D01*
X74456266Y-108962400D01*
X74338221Y-108844149D01*
X74183910Y-108780073D01*
X74016823Y-108779928D01*
X73862400Y-108843734D01*
X73744149Y-108961779D01*
X73680073Y-109116090D01*
X73679928Y-109283177D01*
X73743734Y-109437600D01*
X73780000Y-109473929D01*
X73780000Y-110240735D01*
X73673219Y-110196395D01*
X73719927Y-110083910D01*
X73720072Y-109916823D01*
X73656266Y-109762400D01*
X73596986Y-109703017D01*
X73596985Y-109703015D01*
X73596983Y-109703014D01*
X73538221Y-109644149D01*
X73383910Y-109580073D01*
X73300001Y-109580000D01*
X73299790Y-109580000D01*
X73216823Y-109579928D01*
X73216649Y-109580000D01*
X72320000Y-109580000D01*
X72320000Y-108500005D01*
X72320001Y-108500000D01*
X72280417Y-108301005D01*
X72266382Y-108280000D01*
X72167696Y-108132304D01*
X72167693Y-108132302D01*
X71867697Y-107832305D01*
X71867694Y-107832303D01*
X71467696Y-107432304D01*
X71298995Y-107319583D01*
X71100000Y-107279999D01*
X70901005Y-107319583D01*
X70732304Y-107432304D01*
X70619583Y-107601005D01*
X70579999Y-107800000D01*
X70612760Y-107964696D01*
X70522459Y-107904359D01*
X70400000Y-107880000D01*
X69432549Y-107880000D01*
X68901274Y-107348726D01*
X68883394Y-107336779D01*
X68797459Y-107279359D01*
X68675000Y-107255000D01*
X68199010Y-107255000D01*
X68163221Y-107219149D01*
X68008910Y-107155073D01*
X67841823Y-107154928D01*
X67687400Y-107218734D01*
X67599951Y-107306031D01*
X67513221Y-107219149D01*
X67358910Y-107155073D01*
X67191823Y-107154928D01*
X67037400Y-107218734D01*
X66919149Y-107336779D01*
X66855073Y-107491090D01*
X66854928Y-107658177D01*
X66918734Y-107812600D01*
X67036779Y-107930851D01*
X67093181Y-107954271D01*
X66017452Y-109030000D01*
X64415408Y-109030000D01*
X64444927Y-108958910D01*
X64445072Y-108791823D01*
X64381266Y-108637400D01*
X64263221Y-108519149D01*
X64108910Y-108455073D01*
X63941823Y-108454928D01*
X63787400Y-108518734D01*
X63669149Y-108636779D01*
X63605073Y-108791090D01*
X63604928Y-108958177D01*
X63634605Y-109030000D01*
X62782548Y-109030000D01*
X62526274Y-108773726D01*
X62469123Y-108735539D01*
X62422459Y-108704359D01*
X62300000Y-108680000D01*
X61242002Y-108680000D01*
X61155941Y-108697119D01*
X61131266Y-108637400D01*
X61043969Y-108549951D01*
X61100049Y-108493969D01*
X61186779Y-108580851D01*
X61341090Y-108644927D01*
X61508177Y-108645072D01*
X61662600Y-108581266D01*
X61750049Y-108493969D01*
X61836779Y-108580851D01*
X61991090Y-108644927D01*
X62158177Y-108645072D01*
X62312600Y-108581266D01*
X62430851Y-108463221D01*
X62494927Y-108308910D01*
X62495072Y-108141823D01*
X62431266Y-107987400D01*
X62395000Y-107951071D01*
X62395000Y-107188912D01*
X62486779Y-107280851D01*
X62641090Y-107344927D01*
X62808177Y-107345072D01*
X62962600Y-107281266D01*
X63050049Y-107193969D01*
X63106031Y-107250049D01*
X63019149Y-107336779D01*
X62955073Y-107491090D01*
X62954928Y-107658177D01*
X63018734Y-107812600D01*
X63136779Y-107930851D01*
X63291090Y-107994927D01*
X63458177Y-107995072D01*
X63612600Y-107931266D01*
X63730851Y-107813221D01*
X63794927Y-107658910D01*
X63794972Y-107607576D01*
X63975000Y-107427548D01*
X64348726Y-107801274D01*
X64444992Y-107865597D01*
X64437400Y-107868734D01*
X64319149Y-107986779D01*
X64255073Y-108141090D01*
X64254928Y-108308177D01*
X64318734Y-108462600D01*
X64436779Y-108580851D01*
X64591090Y-108644927D01*
X64758177Y-108645072D01*
X64912600Y-108581266D01*
X65000049Y-108493969D01*
X65086779Y-108580851D01*
X65241090Y-108644927D01*
X65408177Y-108645072D01*
X65562600Y-108581266D01*
X65650049Y-108493969D01*
X65736779Y-108580851D01*
X65891090Y-108644927D01*
X66058177Y-108645072D01*
X66212600Y-108581266D01*
X66330851Y-108463221D01*
X66394927Y-108308910D01*
X66395072Y-108141823D01*
X66331266Y-107987400D01*
X66213221Y-107869149D01*
X66058910Y-107805073D01*
X65891823Y-107804928D01*
X65737400Y-107868734D01*
X65649951Y-107956031D01*
X65593969Y-107899951D01*
X65680851Y-107813221D01*
X65744927Y-107658910D01*
X65745072Y-107491823D01*
X65681266Y-107337400D01*
X65593969Y-107249951D01*
X65650049Y-107193969D01*
X65736779Y-107280851D01*
X65891090Y-107344927D01*
X66058177Y-107345072D01*
X66212600Y-107281266D01*
X66300049Y-107193969D01*
X66386779Y-107280851D01*
X66541090Y-107344927D01*
X66708177Y-107345072D01*
X66862600Y-107281266D01*
X66980851Y-107163221D01*
X67044927Y-107008910D01*
X67044927Y-107008177D01*
X68804928Y-107008177D01*
X68868734Y-107162600D01*
X68986779Y-107280851D01*
X69141090Y-107344927D01*
X69308177Y-107345072D01*
X69462600Y-107281266D01*
X69550049Y-107193969D01*
X69636779Y-107280851D01*
X69791090Y-107344927D01*
X69958177Y-107345072D01*
X70112600Y-107281266D01*
X70230851Y-107163221D01*
X70294927Y-107008910D01*
X70295072Y-106841823D01*
X70231266Y-106687400D01*
X70113221Y-106569149D01*
X69958910Y-106505073D01*
X69791823Y-106504928D01*
X69637400Y-106568734D01*
X69549951Y-106656031D01*
X69463221Y-106569149D01*
X69308910Y-106505073D01*
X69141823Y-106504928D01*
X68987400Y-106568734D01*
X68869149Y-106686779D01*
X68805073Y-106841090D01*
X68804928Y-107008177D01*
X67044927Y-107008177D01*
X67045072Y-106841823D01*
X66981266Y-106687400D01*
X66863221Y-106569149D01*
X66708910Y-106505073D01*
X66541823Y-106504928D01*
X66387400Y-106568734D01*
X66299951Y-106656031D01*
X66213221Y-106569149D01*
X66058910Y-106505073D01*
X65891823Y-106504928D01*
X65737400Y-106568734D01*
X65649951Y-106656031D01*
X65563221Y-106569149D01*
X65408910Y-106505073D01*
X65241823Y-106504928D01*
X65087400Y-106568734D01*
X64999951Y-106656031D01*
X64913221Y-106569149D01*
X64758910Y-106505073D01*
X64719995Y-106505039D01*
X64720072Y-106416843D01*
X64700717Y-106370000D01*
X73275990Y-106370000D01*
X73311779Y-106405851D01*
X73466090Y-106469927D01*
X73633177Y-106470072D01*
X73787600Y-106406266D01*
X73905851Y-106288221D01*
X73969927Y-106133910D01*
X73970072Y-105966823D01*
X73906266Y-105812400D01*
X73788221Y-105694149D01*
X73633910Y-105630073D01*
X73466823Y-105629928D01*
X73312400Y-105693734D01*
X73276071Y-105730000D01*
X72722548Y-105730000D01*
X73932520Y-104520028D01*
X73983177Y-104520072D01*
X74137600Y-104456266D01*
X74255851Y-104338221D01*
X74319927Y-104183910D01*
X74320072Y-104016823D01*
X74256266Y-103862400D01*
X74138221Y-103744149D01*
X73983910Y-103680073D01*
X73816823Y-103679928D01*
X73662400Y-103743734D01*
X73544149Y-103861779D01*
X73480073Y-104016090D01*
X73480028Y-104067424D01*
X72167462Y-105379990D01*
X71872558Y-105379990D01*
X72432520Y-104820028D01*
X72483177Y-104820072D01*
X72637600Y-104756266D01*
X72755851Y-104638221D01*
X72819927Y-104483910D01*
X72820072Y-104316823D01*
X72756266Y-104162400D01*
X72638221Y-104044149D01*
X72483910Y-103980073D01*
X72316823Y-103979928D01*
X72162400Y-104043734D01*
X72044149Y-104161779D01*
X71980073Y-104316090D01*
X71980028Y-104367424D01*
X71317472Y-105029980D01*
X69620000Y-105029980D01*
X69620000Y-103474010D01*
X69650097Y-103443965D01*
X69761789Y-103555851D01*
X69916100Y-103619927D01*
X70083187Y-103620072D01*
X70237610Y-103556266D01*
X70355861Y-103438221D01*
X70419937Y-103283910D01*
X70420082Y-103116823D01*
X70356276Y-102962400D01*
X70238231Y-102844149D01*
X70083920Y-102780073D01*
X69916833Y-102779928D01*
X69762410Y-102843734D01*
X69649913Y-102956035D01*
X69538221Y-102844149D01*
X69383910Y-102780073D01*
X69216823Y-102779928D01*
X69062400Y-102843734D01*
X68944149Y-102961779D01*
X68880073Y-103116090D01*
X68879928Y-103283177D01*
X68943734Y-103437600D01*
X68980000Y-103473929D01*
X68980000Y-105029980D01*
X63294062Y-105029980D01*
X63171603Y-105054339D01*
X63067788Y-105123706D01*
X62811494Y-105380000D01*
X59574010Y-105380000D01*
X59538221Y-105344149D01*
X59383910Y-105280073D01*
X59216823Y-105279928D01*
X59062400Y-105343734D01*
X58944149Y-105461779D01*
X58880073Y-105616090D01*
X58879928Y-105783177D01*
X58943734Y-105937600D01*
X59061779Y-106055851D01*
X59216090Y-106119927D01*
X59383177Y-106120072D01*
X59537600Y-106056266D01*
X59573929Y-106020000D01*
X62666482Y-106020000D01*
X62498726Y-106187756D01*
X62429359Y-106291571D01*
X62405000Y-106414030D01*
X62405000Y-106650990D01*
X62369149Y-106686779D01*
X62339848Y-106757343D01*
X62301275Y-106699614D01*
X61871830Y-106270170D01*
X61859302Y-106261799D01*
X61768015Y-106200803D01*
X61645556Y-106176444D01*
X60403556Y-106176444D01*
X60385679Y-106180000D01*
X56332548Y-106180000D01*
X56020000Y-105867452D01*
X56020000Y-104274010D01*
X56055851Y-104238221D01*
X56119927Y-104083910D01*
X56120072Y-103916823D01*
X56056266Y-103762400D01*
X55938221Y-103644149D01*
X55783910Y-103580073D01*
X55616823Y-103579928D01*
X55462400Y-103643734D01*
X55344149Y-103761779D01*
X55280073Y-103916090D01*
X55279928Y-104083177D01*
X55343734Y-104237600D01*
X55380000Y-104273929D01*
X55380000Y-106000000D01*
X55404359Y-106122459D01*
X55437768Y-106172459D01*
X55473726Y-106226274D01*
X55973726Y-106726274D01*
X56077541Y-106795641D01*
X56200000Y-106820000D01*
X60363830Y-106820000D01*
X60355073Y-106841090D01*
X60354928Y-107008177D01*
X60384605Y-107080000D01*
X55970061Y-107080000D01*
X55970072Y-107066823D01*
X55906266Y-106912400D01*
X55788221Y-106794149D01*
X55633910Y-106730073D01*
X55466823Y-106729928D01*
X55312400Y-106793734D01*
X55194149Y-106911779D01*
X55130073Y-107066090D01*
X55129928Y-107233177D01*
X55193734Y-107387600D01*
X55311779Y-107505851D01*
X55466090Y-107569927D01*
X55517424Y-107569972D01*
X55573726Y-107626274D01*
X55677541Y-107695641D01*
X55800000Y-107720000D01*
X58542488Y-107720000D01*
X57778279Y-108484209D01*
X57819927Y-108383910D01*
X57820072Y-108216823D01*
X57756266Y-108062400D01*
X57638221Y-107944149D01*
X57483910Y-107880073D01*
X57316823Y-107879928D01*
X57162400Y-107943734D01*
X57044149Y-108061779D01*
X56980073Y-108216090D01*
X56979928Y-108383177D01*
X57043734Y-108537600D01*
X57161779Y-108655851D01*
X57316090Y-108719927D01*
X57483177Y-108720072D01*
X57584128Y-108678360D01*
X55982519Y-110279969D01*
X51534029Y-110279969D01*
X51411570Y-110304328D01*
X51325589Y-110361779D01*
X51307755Y-110373695D01*
X49973726Y-111707724D01*
X49924155Y-111781913D01*
X49844149Y-111861779D01*
X49780073Y-112016090D01*
X49779928Y-112183177D01*
X49843734Y-112337600D01*
X49961779Y-112455851D01*
X50116090Y-112519927D01*
X50283177Y-112520072D01*
X50437600Y-112456266D01*
X50449918Y-112443969D01*
X50461779Y-112455851D01*
X50616090Y-112519927D01*
X50783177Y-112520072D01*
X50937600Y-112456266D01*
X50974962Y-112418969D01*
X51011779Y-112455851D01*
X51166090Y-112519927D01*
X51333177Y-112520072D01*
X51487600Y-112456266D01*
X51499918Y-112443969D01*
X51511779Y-112455851D01*
X51666090Y-112519927D01*
X51833177Y-112520072D01*
X51930000Y-112480066D01*
X51930000Y-112609965D01*
X51954359Y-112732424D01*
X52012924Y-112820072D01*
X52023726Y-112836239D01*
X54663760Y-115476273D01*
X54767575Y-115545640D01*
X54890034Y-115569999D01*
X59999212Y-115569999D01*
X59980073Y-115616090D01*
X59979928Y-115783177D01*
X60006925Y-115848515D01*
X59977541Y-115854360D01*
X59892772Y-115911001D01*
X59873726Y-115923727D01*
X59867453Y-115930000D01*
X59824010Y-115930000D01*
X59788221Y-115894149D01*
X59633910Y-115830073D01*
X59466823Y-115829928D01*
X59312400Y-115893734D01*
X59194149Y-116011779D01*
X59130073Y-116166090D01*
X59129928Y-116333177D01*
X59193734Y-116487600D01*
X59311779Y-116605851D01*
X59466090Y-116669927D01*
X59633177Y-116670072D01*
X59787600Y-116606266D01*
X59823929Y-116570000D01*
X60000001Y-116570000D01*
X60107916Y-116548534D01*
X60098725Y-116557725D01*
X60029358Y-116661540D01*
X60004999Y-116783999D01*
X60004999Y-117413467D01*
X59988466Y-117430000D01*
X59250000Y-117430000D01*
X59127541Y-117454359D01*
X59029302Y-117520000D01*
X59023726Y-117523726D01*
X58567452Y-117980000D01*
X56074010Y-117980000D01*
X56038221Y-117944149D01*
X55883910Y-117880073D01*
X55716823Y-117879928D01*
X55562400Y-117943734D01*
X55444149Y-118061779D01*
X55380073Y-118216090D01*
X55379928Y-118383177D01*
X55443734Y-118537600D01*
X55481031Y-118574962D01*
X55444149Y-118611779D01*
X55380073Y-118766090D01*
X55379928Y-118933177D01*
X55399275Y-118980000D01*
X54822524Y-118980000D01*
X52508785Y-116666261D01*
X52527632Y-116670010D01*
X53949990Y-116670010D01*
X54072449Y-116645651D01*
X54176264Y-116576284D01*
X54432520Y-116320028D01*
X54483177Y-116320072D01*
X54637600Y-116256266D01*
X54755851Y-116138221D01*
X54819927Y-115983910D01*
X54820072Y-115816823D01*
X54756266Y-115662400D01*
X54638221Y-115544149D01*
X54483910Y-115480073D01*
X54316823Y-115479928D01*
X54162400Y-115543734D01*
X54044149Y-115661779D01*
X53980073Y-115816090D01*
X53980028Y-115867424D01*
X53817442Y-116030010D01*
X53500784Y-116030010D01*
X53519927Y-115983910D01*
X53520072Y-115816823D01*
X53456266Y-115662400D01*
X53338221Y-115544149D01*
X53183910Y-115480073D01*
X53016823Y-115479928D01*
X52862400Y-115543734D01*
X52744149Y-115661779D01*
X52680073Y-115816090D01*
X52679928Y-115983177D01*
X52699279Y-116030010D01*
X52660180Y-116030010D01*
X52514864Y-115884694D01*
X52514908Y-115834037D01*
X52451102Y-115679614D01*
X52333057Y-115561363D01*
X52178746Y-115497287D01*
X52011659Y-115497142D01*
X51857236Y-115560948D01*
X51738985Y-115678993D01*
X51675179Y-115832655D01*
X51616250Y-115773726D01*
X51576940Y-115747460D01*
X51512435Y-115704359D01*
X51389976Y-115680000D01*
X50574010Y-115680000D01*
X50538221Y-115644149D01*
X50383910Y-115580073D01*
X50216823Y-115579928D01*
X50062400Y-115643734D01*
X49944149Y-115761779D01*
X49916034Y-115829488D01*
X49520000Y-115433454D01*
X49520000Y-114174010D01*
X49555851Y-114138221D01*
X49619927Y-113983910D01*
X49620072Y-113816823D01*
X49560557Y-113672785D01*
X49679892Y-113672785D01*
X49774083Y-113900743D01*
X49948339Y-114075304D01*
X50176133Y-114169893D01*
X50422785Y-114170108D01*
X50650743Y-114075917D01*
X50825304Y-113901661D01*
X50919893Y-113673867D01*
X50920108Y-113427215D01*
X50825917Y-113199257D01*
X50651661Y-113024696D01*
X50423867Y-112930107D01*
X50177215Y-112929892D01*
X49949257Y-113024083D01*
X49774696Y-113198339D01*
X49680107Y-113426133D01*
X49679892Y-113672785D01*
X49560557Y-113672785D01*
X49556266Y-113662400D01*
X49438221Y-113544149D01*
X49283910Y-113480073D01*
X49116823Y-113479928D01*
X48962400Y-113543734D01*
X48844149Y-113661779D01*
X48780073Y-113816090D01*
X48779928Y-113983177D01*
X48843734Y-114137600D01*
X48880000Y-114173929D01*
X48880000Y-114227452D01*
X48520028Y-113867480D01*
X48520072Y-113816823D01*
X48456266Y-113662400D01*
X48338221Y-113544149D01*
X48183910Y-113480073D01*
X48016823Y-113479928D01*
X47862400Y-113543734D01*
X47744149Y-113661779D01*
X47680073Y-113816090D01*
X47679928Y-113983177D01*
X47370000Y-113983177D01*
X47370000Y-97933177D01*
X59479928Y-97933177D01*
X59543734Y-98087600D01*
X59661779Y-98205851D01*
X59816090Y-98269927D01*
X59983177Y-98270072D01*
X60137600Y-98206266D01*
X60255851Y-98088221D01*
X60319927Y-97933910D01*
X60320057Y-97783177D01*
X60879928Y-97783177D01*
X60943734Y-97937600D01*
X61061779Y-98055851D01*
X61216090Y-98119927D01*
X61383177Y-98120072D01*
X61537600Y-98056266D01*
X61600005Y-97993969D01*
X61661779Y-98055851D01*
X61816090Y-98119927D01*
X61983177Y-98120072D01*
X62137600Y-98056266D01*
X62255851Y-97938221D01*
X62319927Y-97783910D01*
X62320072Y-97616823D01*
X62256266Y-97462400D01*
X62138221Y-97344149D01*
X61983910Y-97280073D01*
X61816823Y-97279928D01*
X61662400Y-97343734D01*
X61599995Y-97406031D01*
X61538221Y-97344149D01*
X61383910Y-97280073D01*
X61216823Y-97279928D01*
X61062400Y-97343734D01*
X60944149Y-97461779D01*
X60880073Y-97616090D01*
X60879928Y-97783177D01*
X60320057Y-97783177D01*
X60320072Y-97766823D01*
X60256266Y-97612400D01*
X60138221Y-97494149D01*
X59983910Y-97430073D01*
X59816823Y-97429928D01*
X59662400Y-97493734D01*
X59544149Y-97611779D01*
X59480073Y-97766090D01*
X59479928Y-97933177D01*
X47370000Y-97933177D01*
X47370000Y-97583177D01*
X54079928Y-97583177D01*
X54143734Y-97737600D01*
X54261779Y-97855851D01*
X54416090Y-97919927D01*
X54583177Y-97920072D01*
X54737600Y-97856266D01*
X54855851Y-97738221D01*
X54919927Y-97583910D01*
X54920072Y-97416823D01*
X54856266Y-97262400D01*
X54738221Y-97144149D01*
X54583910Y-97080073D01*
X54416823Y-97079928D01*
X54262400Y-97143734D01*
X54144149Y-97261779D01*
X54080073Y-97416090D01*
X54079928Y-97583177D01*
X47370000Y-97583177D01*
X47370000Y-96822785D01*
X54879892Y-96822785D01*
X54974083Y-97050743D01*
X55148339Y-97225304D01*
X55376133Y-97319893D01*
X55622785Y-97320108D01*
X55850743Y-97225917D01*
X56025304Y-97051661D01*
X56025413Y-97051399D01*
X57156812Y-95920000D01*
X57919841Y-95920000D01*
X57862400Y-95943734D01*
X57744149Y-96061779D01*
X57680073Y-96216090D01*
X57679928Y-96383177D01*
X57743734Y-96537600D01*
X57861779Y-96655851D01*
X58016090Y-96719927D01*
X58183177Y-96720072D01*
X58337600Y-96656266D01*
X58455851Y-96538221D01*
X58519927Y-96383910D01*
X58520072Y-96216823D01*
X58456266Y-96062400D01*
X58338221Y-95944149D01*
X58280064Y-95920000D01*
X59769841Y-95920000D01*
X59712400Y-95943734D01*
X59594149Y-96061779D01*
X59530073Y-96216090D01*
X59529928Y-96383177D01*
X59593734Y-96537600D01*
X59711779Y-96655851D01*
X59866090Y-96719927D01*
X60033177Y-96720072D01*
X60187600Y-96656266D01*
X60305851Y-96538221D01*
X60324968Y-96492183D01*
X60343734Y-96537600D01*
X60461779Y-96655851D01*
X60616090Y-96719927D01*
X60783177Y-96720072D01*
X60937600Y-96656266D01*
X61055851Y-96538221D01*
X61119927Y-96383910D01*
X61120072Y-96216823D01*
X61056266Y-96062400D01*
X60938221Y-95944149D01*
X60880064Y-95920000D01*
X63519973Y-95920000D01*
X63480073Y-96016090D01*
X63479928Y-96183177D01*
X63543734Y-96337600D01*
X63661779Y-96455851D01*
X63753510Y-96493942D01*
X61117452Y-99130000D01*
X60174010Y-99130000D01*
X60138221Y-99094149D01*
X59983910Y-99030073D01*
X59816823Y-99029928D01*
X59662400Y-99093734D01*
X59544149Y-99211779D01*
X59500131Y-99317784D01*
X59483504Y-99277543D01*
X59323301Y-99117059D01*
X59113877Y-99030099D01*
X58887117Y-99029901D01*
X58677543Y-99116496D01*
X58517059Y-99276699D01*
X58430099Y-99486123D01*
X58429901Y-99712883D01*
X58516496Y-99922457D01*
X58676699Y-100082941D01*
X58886123Y-100169901D01*
X59112883Y-100170099D01*
X59322457Y-100083504D01*
X59482941Y-99923301D01*
X59569901Y-99713877D01*
X59569901Y-99713813D01*
X59661779Y-99805851D01*
X59816090Y-99869927D01*
X59983177Y-99870072D01*
X60137600Y-99806266D01*
X60173929Y-99770000D01*
X61250000Y-99770000D01*
X61372459Y-99745641D01*
X61476274Y-99676274D01*
X63906079Y-97246469D01*
X63943734Y-97337600D01*
X64006031Y-97400005D01*
X63944149Y-97461779D01*
X63880073Y-97616090D01*
X63879928Y-97783177D01*
X63943734Y-97937600D01*
X64061779Y-98055851D01*
X64216090Y-98119927D01*
X64383177Y-98120072D01*
X64480000Y-98080066D01*
X64480000Y-99226030D01*
X64003015Y-99703015D01*
X64003014Y-99703017D01*
X63944149Y-99761779D01*
X63880073Y-99916090D01*
X63879928Y-100083177D01*
X63943734Y-100237600D01*
X64003014Y-100296983D01*
X64003015Y-100296985D01*
X64003017Y-100296986D01*
X64061779Y-100355851D01*
X64216090Y-100419927D01*
X64299999Y-100420000D01*
X64300001Y-100420000D01*
X64383177Y-100420072D01*
X64537600Y-100356266D01*
X64596983Y-100296986D01*
X64596985Y-100296985D01*
X64597300Y-100296670D01*
X64655851Y-100238221D01*
X64655923Y-100238047D01*
X64780000Y-100113970D01*
X64780000Y-102226030D01*
X63426030Y-103580000D01*
X57856781Y-103580000D01*
X57751661Y-103474696D01*
X57523867Y-103380107D01*
X57277215Y-103379892D01*
X57049257Y-103474083D01*
X56874696Y-103648339D01*
X56780107Y-103876133D01*
X56779892Y-104122785D01*
X56874083Y-104350743D01*
X57048339Y-104525304D01*
X57276133Y-104619893D01*
X57522785Y-104620108D01*
X57750743Y-104525917D01*
X57856845Y-104420000D01*
X63600000Y-104420000D01*
X63760727Y-104388029D01*
X63896985Y-104296985D01*
X64110793Y-104083177D01*
X64479928Y-104083177D01*
X64543734Y-104237600D01*
X64661779Y-104355851D01*
X64816090Y-104419927D01*
X64983177Y-104420072D01*
X65137600Y-104356266D01*
X65255851Y-104238221D01*
X65319927Y-104083910D01*
X65320072Y-103916823D01*
X65256266Y-103762400D01*
X65138221Y-103644149D01*
X64983910Y-103580073D01*
X64816823Y-103579928D01*
X64662400Y-103643734D01*
X64544149Y-103761779D01*
X64480073Y-103916090D01*
X64479928Y-104083177D01*
X64110793Y-104083177D01*
X65496985Y-102696985D01*
X65588029Y-102560727D01*
X65620000Y-102400000D01*
X65620000Y-102183177D01*
X71279928Y-102183177D01*
X71343734Y-102337600D01*
X71461779Y-102455851D01*
X71616090Y-102519927D01*
X71783177Y-102520072D01*
X71937600Y-102456266D01*
X72055851Y-102338221D01*
X72119927Y-102183910D01*
X72120072Y-102016823D01*
X72056266Y-101862400D01*
X71938221Y-101744149D01*
X71783910Y-101680073D01*
X71616823Y-101679928D01*
X71462400Y-101743734D01*
X71344149Y-101861779D01*
X71280073Y-102016090D01*
X71279928Y-102183177D01*
X65620000Y-102183177D01*
X65620000Y-100199968D01*
X66217017Y-100796985D01*
X66353275Y-100888029D01*
X66514002Y-100920000D01*
X67900210Y-100920000D01*
X67983177Y-100920072D01*
X67983351Y-100920000D01*
X69200000Y-100920000D01*
X69360727Y-100888029D01*
X69462540Y-100820000D01*
X70651462Y-100820000D01*
X70753275Y-100888029D01*
X70914002Y-100920000D01*
X71926030Y-100920000D01*
X72003015Y-100996985D01*
X72003017Y-100996986D01*
X72061779Y-101055851D01*
X72216090Y-101119927D01*
X72299999Y-101120000D01*
X72300001Y-101120000D01*
X72383177Y-101120072D01*
X72537600Y-101056266D01*
X72596983Y-100996986D01*
X72596985Y-100996985D01*
X72596986Y-100996983D01*
X72655851Y-100938221D01*
X72719927Y-100783910D01*
X72720072Y-100616823D01*
X72656266Y-100462400D01*
X72596986Y-100403017D01*
X72596985Y-100403015D01*
X72596670Y-100402700D01*
X72538221Y-100344149D01*
X72538047Y-100344077D01*
X72396985Y-100203015D01*
X72260727Y-100111971D01*
X72100000Y-100080000D01*
X70914002Y-100080000D01*
X70753275Y-100111971D01*
X70651462Y-100180000D01*
X69462540Y-100180000D01*
X69360727Y-100111971D01*
X69200000Y-100080000D01*
X67899790Y-100080000D01*
X67816823Y-100079928D01*
X67816649Y-100080000D01*
X66687972Y-100080000D01*
X65760986Y-99153014D01*
X65656467Y-99083177D01*
X68279928Y-99083177D01*
X68343734Y-99237600D01*
X68461779Y-99355851D01*
X68616090Y-99419927D01*
X68783177Y-99420072D01*
X68937600Y-99356266D01*
X69055851Y-99238221D01*
X69119927Y-99083910D01*
X69119980Y-99022785D01*
X73079892Y-99022785D01*
X73174083Y-99250743D01*
X73348339Y-99425304D01*
X73576133Y-99519893D01*
X73822785Y-99520108D01*
X74050743Y-99425917D01*
X74225304Y-99251661D01*
X74319893Y-99023867D01*
X74320108Y-98777215D01*
X74225917Y-98549257D01*
X74051661Y-98374696D01*
X73823867Y-98280107D01*
X73577215Y-98279892D01*
X73349257Y-98374083D01*
X73174696Y-98548339D01*
X73080107Y-98776133D01*
X73079892Y-99022785D01*
X69119980Y-99022785D01*
X69120072Y-98916823D01*
X69056266Y-98762400D01*
X68938221Y-98644149D01*
X68791386Y-98583177D01*
X71529928Y-98583177D01*
X71593734Y-98737600D01*
X71711779Y-98855851D01*
X71866090Y-98919927D01*
X72033177Y-98920072D01*
X72187600Y-98856266D01*
X72305851Y-98738221D01*
X72369927Y-98583910D01*
X72370072Y-98416823D01*
X72306266Y-98262400D01*
X72188221Y-98144149D01*
X72033910Y-98080073D01*
X71866823Y-98079928D01*
X71712400Y-98143734D01*
X71594149Y-98261779D01*
X71530073Y-98416090D01*
X71529928Y-98583177D01*
X68791386Y-98583177D01*
X68783910Y-98580073D01*
X68616823Y-98579928D01*
X68462400Y-98643734D01*
X68344149Y-98761779D01*
X68280073Y-98916090D01*
X68279928Y-99083177D01*
X65656467Y-99083177D01*
X65624728Y-99061970D01*
X65464001Y-99029999D01*
X65320000Y-99029999D01*
X65320000Y-96999999D01*
X65320014Y-96983177D01*
X68629928Y-96983177D01*
X68693734Y-97137600D01*
X68706031Y-97149918D01*
X68694149Y-97161779D01*
X68630073Y-97316090D01*
X68629928Y-97483177D01*
X68693734Y-97637600D01*
X68706031Y-97649918D01*
X68694149Y-97661779D01*
X68630073Y-97816090D01*
X68629928Y-97983177D01*
X68693734Y-98137600D01*
X68811779Y-98255851D01*
X68966090Y-98319927D01*
X69133177Y-98320072D01*
X69287600Y-98256266D01*
X69405851Y-98138221D01*
X69469927Y-97983910D01*
X69470072Y-97816823D01*
X69406266Y-97662400D01*
X69393969Y-97650082D01*
X69405851Y-97638221D01*
X69469927Y-97483910D01*
X69470072Y-97316823D01*
X69406266Y-97162400D01*
X69393969Y-97150082D01*
X69405851Y-97138221D01*
X69469927Y-96983910D01*
X69470072Y-96816823D01*
X69406266Y-96662400D01*
X69288221Y-96544149D01*
X69133910Y-96480073D01*
X68966823Y-96479928D01*
X68812400Y-96543734D01*
X68694149Y-96661779D01*
X68630073Y-96816090D01*
X68629928Y-96983177D01*
X65320014Y-96983177D01*
X65320072Y-96916823D01*
X65256266Y-96762400D01*
X65196986Y-96703017D01*
X65196985Y-96703015D01*
X65196983Y-96703014D01*
X65138221Y-96644149D01*
X64983910Y-96580073D01*
X64900001Y-96580000D01*
X64899999Y-96580000D01*
X64816823Y-96579928D01*
X64662400Y-96643734D01*
X64603017Y-96703014D01*
X64603015Y-96703015D01*
X64603014Y-96703017D01*
X64549995Y-96755943D01*
X64538221Y-96744149D01*
X64446490Y-96706058D01*
X64667189Y-96485359D01*
X64737600Y-96456266D01*
X64751300Y-96442589D01*
X72779875Y-96442589D01*
X72889257Y-96707315D01*
X73091620Y-96910031D01*
X73356155Y-97019875D01*
X73642589Y-97020125D01*
X73907315Y-96910743D01*
X74110031Y-96708380D01*
X74219875Y-96443845D01*
X74220125Y-96157411D01*
X74110743Y-95892685D01*
X73908380Y-95689969D01*
X73643845Y-95580125D01*
X73357411Y-95579875D01*
X73092685Y-95689257D01*
X72889969Y-95891620D01*
X72780125Y-96156155D01*
X72779875Y-96442589D01*
X64751300Y-96442589D01*
X64855851Y-96338221D01*
X64919927Y-96183910D01*
X64920072Y-96016823D01*
X64880066Y-95920000D01*
X68598885Y-95920000D01*
X68722785Y-95920108D01*
X68950743Y-95825917D01*
X69125304Y-95651661D01*
X69219893Y-95423867D01*
X69220108Y-95177215D01*
X69125917Y-94949257D01*
X68951661Y-94774696D01*
X68723867Y-94680107D01*
X68477215Y-94679892D01*
X68476954Y-94680000D01*
X56900000Y-94680000D01*
X56662736Y-94727195D01*
X56591646Y-94774696D01*
X56461594Y-94861594D01*
X55062263Y-96260925D01*
X54974696Y-96348339D01*
X54880107Y-96576133D01*
X54879892Y-96822785D01*
X47370000Y-96822785D01*
X47370000Y-93183177D01*
X64179928Y-93183177D01*
X64243734Y-93337600D01*
X64361779Y-93455851D01*
X64516090Y-93519927D01*
X64683177Y-93520072D01*
X64772470Y-93483177D01*
X67979928Y-93483177D01*
X68043734Y-93637600D01*
X68161779Y-93755851D01*
X68316090Y-93819927D01*
X68483177Y-93820072D01*
X68637600Y-93756266D01*
X68755851Y-93638221D01*
X68819927Y-93483910D01*
X68820072Y-93316823D01*
X68756266Y-93162400D01*
X68638221Y-93044149D01*
X68483910Y-92980073D01*
X68316823Y-92979928D01*
X68162400Y-93043734D01*
X68044149Y-93161779D01*
X67980073Y-93316090D01*
X67979928Y-93483177D01*
X64772470Y-93483177D01*
X64837600Y-93456266D01*
X64955851Y-93338221D01*
X65019927Y-93183910D01*
X65020072Y-93016823D01*
X64956266Y-92862400D01*
X64838221Y-92744149D01*
X64691386Y-92683177D01*
X66879928Y-92683177D01*
X66943734Y-92837600D01*
X67061779Y-92955851D01*
X67216090Y-93019927D01*
X67383177Y-93020072D01*
X67537600Y-92956266D01*
X67655851Y-92838221D01*
X67719927Y-92683910D01*
X67720072Y-92516823D01*
X67656266Y-92362400D01*
X67538221Y-92244149D01*
X67383910Y-92180073D01*
X67216823Y-92179928D01*
X67062400Y-92243734D01*
X66944149Y-92361779D01*
X66880073Y-92516090D01*
X66879928Y-92683177D01*
X64691386Y-92683177D01*
X64683910Y-92680073D01*
X64516823Y-92679928D01*
X64362400Y-92743734D01*
X64244149Y-92861779D01*
X64180073Y-93016090D01*
X64179928Y-93183177D01*
X47370000Y-93183177D01*
X47370000Y-91683177D01*
X54679928Y-91683177D01*
X54743734Y-91837600D01*
X54785944Y-91879884D01*
X54804359Y-91972459D01*
X54822762Y-92000001D01*
X54873726Y-92076274D01*
X55023727Y-92226275D01*
X55127542Y-92295642D01*
X55250001Y-92320001D01*
X56449999Y-92320001D01*
X56572458Y-92295642D01*
X56676273Y-92226275D01*
X56826274Y-92076274D01*
X56877238Y-92000001D01*
X56895641Y-91972459D01*
X56914041Y-91879958D01*
X56955851Y-91838221D01*
X57019927Y-91683910D01*
X57020072Y-91516823D01*
X56956266Y-91362400D01*
X56838221Y-91244149D01*
X56683910Y-91180073D01*
X56516823Y-91179928D01*
X56362400Y-91243734D01*
X56350082Y-91256031D01*
X56338221Y-91244149D01*
X56183910Y-91180073D01*
X56016823Y-91179928D01*
X55862400Y-91243734D01*
X55850082Y-91256031D01*
X55838221Y-91244149D01*
X55683910Y-91180073D01*
X55516823Y-91179928D01*
X55362400Y-91243734D01*
X55350082Y-91256031D01*
X55338221Y-91244149D01*
X55183910Y-91180073D01*
X55016823Y-91179928D01*
X54862400Y-91243734D01*
X54744149Y-91361779D01*
X54680073Y-91516090D01*
X54679928Y-91683177D01*
X47370000Y-91683177D01*
X47370000Y-91170000D01*
X49850000Y-91170000D01*
X49876081Y-91164812D01*
X49902674Y-91164812D01*
X50094016Y-91126752D01*
X50094017Y-91126752D01*
X50191347Y-91086436D01*
X50353558Y-90978049D01*
X50361607Y-90970000D01*
X53938393Y-90970000D01*
X53946442Y-90978049D01*
X53946442Y-90978049D01*
G37*
X53946442Y-90978049D02*
X54108653Y-91086436D01*
X54205983Y-91126752D01*
X54205984Y-91126752D01*
X54397326Y-91164812D01*
X54423919Y-91164812D01*
X54450000Y-91170000D01*
X57330000Y-91170000D01*
X57356081Y-91164812D01*
X57382674Y-91164812D01*
X57574016Y-91126752D01*
X57574017Y-91126752D01*
X57671347Y-91086436D01*
X57833558Y-90978049D01*
X57841607Y-90970000D01*
X58818393Y-90970000D01*
X58826442Y-90978049D01*
X58988653Y-91086436D01*
X59085983Y-91126752D01*
X59085984Y-91126752D01*
X59277326Y-91164812D01*
X59303919Y-91164812D01*
X59330000Y-91170000D01*
X68911801Y-91170000D01*
X68789969Y-91291620D01*
X68680125Y-91556155D01*
X68679875Y-91842589D01*
X68789257Y-92107315D01*
X68991620Y-92310031D01*
X69256155Y-92419875D01*
X69542589Y-92420125D01*
X69807315Y-92310743D01*
X70010031Y-92108380D01*
X70119875Y-91843845D01*
X70120125Y-91557411D01*
X70010743Y-91292685D01*
X69888272Y-91170000D01*
X73850000Y-91170000D01*
X73876081Y-91164812D01*
X73892674Y-91164812D01*
X74084016Y-91126752D01*
X74084017Y-91126752D01*
X74181347Y-91086436D01*
X74343558Y-90978049D01*
X74351607Y-90970000D01*
X75328393Y-90970000D01*
X75336442Y-90978049D01*
X75498653Y-91086436D01*
X75595983Y-91126752D01*
X75595984Y-91126752D01*
X75787326Y-91164812D01*
X75813919Y-91164812D01*
X75840000Y-91170000D01*
X76630000Y-91170000D01*
X76630000Y-124330000D01*
X74050000Y-124330000D01*
X74050000Y-124100000D01*
X74044812Y-124073919D01*
X74044812Y-124047326D01*
X74006752Y-123855984D01*
X74006752Y-123855983D01*
X73966436Y-123758653D01*
X73858049Y-123596442D01*
X73820803Y-123559197D01*
X73783558Y-123521951D01*
X73621347Y-123413564D01*
X73524017Y-123373248D01*
X73524016Y-123373248D01*
X73332674Y-123335188D01*
X73306081Y-123335188D01*
X73280000Y-123330000D01*
X59890000Y-123330000D01*
X59863919Y-123335188D01*
X59837326Y-123335188D01*
X59645984Y-123373248D01*
X59645983Y-123373248D01*
X59548653Y-123413564D01*
X59386442Y-123521951D01*
X59349197Y-123559197D01*
X59311951Y-123596442D01*
X59203564Y-123758653D01*
X59163248Y-123855983D01*
X59163248Y-123855984D01*
X59125188Y-124047326D01*
X59125188Y-124073919D01*
X59120000Y-124100000D01*
X59120000Y-124330000D01*
X47370000Y-124330000D01*
X47370000Y-123683177D01*
X49179928Y-123683177D01*
X49243734Y-123837600D01*
X49361779Y-123955851D01*
X49516090Y-124019927D01*
X49683177Y-124020072D01*
X49837600Y-123956266D01*
X49955851Y-123838221D01*
X50019927Y-123683910D01*
X50020072Y-123516823D01*
X49956266Y-123362400D01*
X49838221Y-123244149D01*
X49683910Y-123180073D01*
X49516823Y-123179928D01*
X49362400Y-123243734D01*
X49244149Y-123361779D01*
X49180073Y-123516090D01*
X49179928Y-123683177D01*
X47370000Y-123683177D01*
X47370000Y-119283177D01*
X47379928Y-119283177D01*
X47443734Y-119437600D01*
X47561779Y-119555851D01*
X47716090Y-119619927D01*
X47883177Y-119620072D01*
X48037600Y-119556266D01*
X48155851Y-119438221D01*
X48219927Y-119283910D01*
X48220072Y-119116823D01*
X48156266Y-118962400D01*
X48038221Y-118844149D01*
X47883910Y-118780073D01*
X47716823Y-118779928D01*
X47562400Y-118843734D01*
X47444149Y-118961779D01*
X47380073Y-119116090D01*
X47379928Y-119283177D01*
X47370000Y-119283177D01*
X47370000Y-113983177D01*
X47679928Y-113983177D01*
X47743734Y-114137600D01*
X47861779Y-114255851D01*
X48016090Y-114319927D01*
X48067424Y-114319972D01*
X48529990Y-114782538D01*
X48529990Y-115710980D01*
X48554349Y-115833439D01*
X48610326Y-115917214D01*
X48623716Y-115937254D01*
X49712745Y-117026283D01*
X49816561Y-117095651D01*
X49939019Y-117120009D01*
X50749991Y-117120009D01*
X50750036Y-117120000D01*
X51067452Y-117120000D01*
X55273726Y-121326274D01*
X55377541Y-121395641D01*
X55500000Y-121420000D01*
X56066002Y-121420000D01*
X56188461Y-121395641D01*
X56292276Y-121326274D01*
X57248550Y-120370000D01*
X59619973Y-120370000D01*
X59580073Y-120466090D01*
X59579928Y-120633177D01*
X59643734Y-120787600D01*
X59761779Y-120905851D01*
X59916090Y-120969927D01*
X60083177Y-120970072D01*
X60237600Y-120906266D01*
X60300005Y-120843969D01*
X60361779Y-120905851D01*
X60516090Y-120969927D01*
X60683177Y-120970072D01*
X60837600Y-120906266D01*
X60950092Y-120793970D01*
X61061779Y-120905851D01*
X61216090Y-120969927D01*
X61383177Y-120970072D01*
X61537600Y-120906266D01*
X61650092Y-120793970D01*
X61761779Y-120905851D01*
X61916090Y-120969927D01*
X62083177Y-120970072D01*
X62237600Y-120906266D01*
X62300005Y-120843969D01*
X62361779Y-120905851D01*
X62516090Y-120969927D01*
X62683177Y-120970072D01*
X62837600Y-120906266D01*
X62900005Y-120843969D01*
X62961779Y-120905851D01*
X63116090Y-120969927D01*
X63283177Y-120970072D01*
X63437600Y-120906266D01*
X63500005Y-120843969D01*
X63561779Y-120905851D01*
X63716090Y-120969927D01*
X63883177Y-120970072D01*
X64037600Y-120906266D01*
X64100005Y-120843969D01*
X64161779Y-120905851D01*
X64316090Y-120969927D01*
X64483177Y-120970072D01*
X64637600Y-120906266D01*
X64700005Y-120843969D01*
X64761779Y-120905851D01*
X64916090Y-120969927D01*
X65083177Y-120970072D01*
X65237600Y-120906266D01*
X65355851Y-120788221D01*
X65393942Y-120696490D01*
X65923727Y-121226275D01*
X66027542Y-121295642D01*
X66150001Y-121320001D01*
X67416001Y-121320001D01*
X67538460Y-121295642D01*
X67642275Y-121226275D01*
X67909252Y-120959298D01*
X68037600Y-120906266D01*
X68100005Y-120843969D01*
X68161779Y-120905851D01*
X68316090Y-120969927D01*
X68483177Y-120970072D01*
X68637600Y-120906266D01*
X68700005Y-120843969D01*
X68761779Y-120905851D01*
X68916090Y-120969927D01*
X69083177Y-120970072D01*
X69237600Y-120906266D01*
X69329320Y-120814706D01*
X69405059Y-120890577D01*
X69596112Y-120969909D01*
X69802981Y-120970090D01*
X69994171Y-120891091D01*
X70070741Y-120814655D01*
X70161779Y-120905851D01*
X70316090Y-120969927D01*
X70483177Y-120970072D01*
X70637600Y-120906266D01*
X70700005Y-120843969D01*
X70761779Y-120905851D01*
X70916090Y-120969927D01*
X71083177Y-120970072D01*
X71237600Y-120906266D01*
X71355851Y-120788221D01*
X71384330Y-120719637D01*
X71505059Y-120840577D01*
X71696112Y-120919909D01*
X71902981Y-120920090D01*
X72094171Y-120841091D01*
X72240577Y-120694941D01*
X72319909Y-120503888D01*
X72320090Y-120297019D01*
X72241091Y-120105829D01*
X72218479Y-120083177D01*
X72929928Y-120083177D01*
X72993734Y-120237600D01*
X73031031Y-120274962D01*
X72994149Y-120311779D01*
X72930073Y-120466090D01*
X72929928Y-120633177D01*
X72993734Y-120787600D01*
X73111779Y-120905851D01*
X73266090Y-120969927D01*
X73433177Y-120970072D01*
X73587600Y-120906266D01*
X73705851Y-120788221D01*
X73769927Y-120633910D01*
X73770072Y-120466823D01*
X73706266Y-120312400D01*
X73668969Y-120275038D01*
X73705851Y-120238221D01*
X73769927Y-120083910D01*
X73770072Y-119916823D01*
X73706266Y-119762400D01*
X73588221Y-119644149D01*
X73433910Y-119580073D01*
X73266823Y-119579928D01*
X73112400Y-119643734D01*
X72994149Y-119761779D01*
X72930073Y-119916090D01*
X72929928Y-120083177D01*
X72218479Y-120083177D01*
X72094941Y-119959423D01*
X71903888Y-119880091D01*
X71697019Y-119879910D01*
X71505829Y-119958909D01*
X71359423Y-120105059D01*
X71297692Y-120253724D01*
X71238221Y-120194149D01*
X71083910Y-120130073D01*
X70916823Y-120129928D01*
X70762400Y-120193734D01*
X70699995Y-120256031D01*
X70638221Y-120194149D01*
X70483910Y-120130073D01*
X70316823Y-120129928D01*
X70162400Y-120193734D01*
X70158402Y-120197725D01*
X70141091Y-120155829D01*
X69994941Y-120009423D01*
X69803888Y-119930091D01*
X69597019Y-119929910D01*
X69405829Y-120008909D01*
X69259423Y-120155059D01*
X69241731Y-120197665D01*
X69238221Y-120194149D01*
X69083910Y-120130073D01*
X68916823Y-120129928D01*
X68762400Y-120193734D01*
X68699995Y-120256031D01*
X68638221Y-120194149D01*
X68483910Y-120130073D01*
X68316823Y-120129928D01*
X68162400Y-120193734D01*
X68099995Y-120256031D01*
X68038221Y-120194149D01*
X67883910Y-120130073D01*
X67716823Y-120129928D01*
X67562400Y-120193734D01*
X67499995Y-120256031D01*
X67438221Y-120194149D01*
X67283910Y-120130073D01*
X67116823Y-120129928D01*
X66962400Y-120193734D01*
X66926071Y-120230000D01*
X66332549Y-120230000D01*
X65576274Y-119473726D01*
X65523137Y-119438221D01*
X65472459Y-119404359D01*
X65350000Y-119380000D01*
X60428526Y-119380000D01*
X61013505Y-118795021D01*
X62289955Y-118795021D01*
X62412414Y-118770662D01*
X62516229Y-118701295D01*
X63184347Y-118033177D01*
X64279928Y-118033177D01*
X64343734Y-118187600D01*
X64461779Y-118305851D01*
X64616090Y-118369927D01*
X64783177Y-118370072D01*
X64937600Y-118306266D01*
X65055851Y-118188221D01*
X65119927Y-118033910D01*
X65120072Y-117866823D01*
X65056266Y-117712400D01*
X64938221Y-117594149D01*
X64783910Y-117530073D01*
X64616823Y-117529928D01*
X64462400Y-117593734D01*
X64344149Y-117711779D01*
X64280073Y-117866090D01*
X64279928Y-118033177D01*
X63184347Y-118033177D01*
X63247524Y-117970001D01*
X63591001Y-117970001D01*
X63713460Y-117945642D01*
X63817275Y-117876275D01*
X64285373Y-117408177D01*
X65554928Y-117408177D01*
X65618734Y-117562600D01*
X65736779Y-117680851D01*
X65891090Y-117744927D01*
X66058177Y-117745072D01*
X66212600Y-117681266D01*
X66330851Y-117563221D01*
X66394927Y-117408910D01*
X66395072Y-117241823D01*
X66331266Y-117087400D01*
X66213221Y-116969149D01*
X66058910Y-116905073D01*
X65891823Y-116904928D01*
X65737400Y-116968734D01*
X65619149Y-117086779D01*
X65555073Y-117241090D01*
X65554928Y-117408177D01*
X64285373Y-117408177D01*
X64523540Y-117170010D01*
X64994978Y-117170010D01*
X65117437Y-117145651D01*
X65211648Y-117082701D01*
X65241090Y-117094927D01*
X65408177Y-117095072D01*
X65562600Y-117031266D01*
X65680851Y-116913221D01*
X65744927Y-116758910D01*
X65745072Y-116591823D01*
X65715395Y-116520000D01*
X66001450Y-116520000D01*
X66479999Y-116998549D01*
X66479999Y-117166001D01*
X66504358Y-117288460D01*
X66561331Y-117373726D01*
X66573725Y-117392275D01*
X66807725Y-117626275D01*
X66911540Y-117695642D01*
X67033999Y-117720001D01*
X67866002Y-117720000D01*
X67988461Y-117695641D01*
X68092276Y-117626274D01*
X68848551Y-116869999D01*
X69474212Y-116869999D01*
X69455073Y-116916090D01*
X69454928Y-117083177D01*
X69518734Y-117237600D01*
X69636779Y-117355851D01*
X69791090Y-117419927D01*
X69958177Y-117420072D01*
X70112600Y-117356266D01*
X70200049Y-117268969D01*
X70286779Y-117355851D01*
X70441090Y-117419927D01*
X70608177Y-117420072D01*
X70762600Y-117356266D01*
X70880851Y-117238221D01*
X70944927Y-117083910D01*
X70945072Y-116916823D01*
X70931551Y-116884099D01*
X72173726Y-118126274D01*
X72277541Y-118195641D01*
X72400000Y-118220000D01*
X73075990Y-118220000D01*
X73111779Y-118255851D01*
X73266090Y-118319927D01*
X73433177Y-118320072D01*
X73587600Y-118256266D01*
X73705851Y-118138221D01*
X73769927Y-117983910D01*
X73770072Y-117816823D01*
X73706266Y-117662400D01*
X73588221Y-117544149D01*
X73433910Y-117480073D01*
X73266823Y-117479928D01*
X73112400Y-117543734D01*
X73076071Y-117580000D01*
X72532548Y-117580000D01*
X71270028Y-116317480D01*
X71270072Y-116266823D01*
X71250725Y-116219999D01*
X73275989Y-116219999D01*
X73311779Y-116255851D01*
X73466090Y-116319927D01*
X73633177Y-116320072D01*
X73787600Y-116256266D01*
X73905851Y-116138221D01*
X73969927Y-115983910D01*
X73970072Y-115816823D01*
X73906266Y-115662400D01*
X73788221Y-115544149D01*
X73633910Y-115480073D01*
X73466823Y-115479928D01*
X73312400Y-115543734D01*
X73276072Y-115579999D01*
X72872546Y-115579999D01*
X73304245Y-115148300D01*
X73311779Y-115155848D01*
X73466090Y-115219924D01*
X73633177Y-115220069D01*
X73787600Y-115156263D01*
X73905851Y-115038218D01*
X73969927Y-114883907D01*
X73970072Y-114716820D01*
X73906266Y-114562397D01*
X73788221Y-114444146D01*
X73633910Y-114380070D01*
X73466823Y-114379925D01*
X73312400Y-114443731D01*
X73276071Y-114479997D01*
X73200000Y-114479997D01*
X73077541Y-114504356D01*
X72991606Y-114561776D01*
X72973726Y-114573723D01*
X72492449Y-115055000D01*
X70799010Y-115055000D01*
X70764071Y-115020000D01*
X71757576Y-115020000D01*
X71880035Y-114995641D01*
X71983850Y-114926274D01*
X72790124Y-114120000D01*
X73275990Y-114120000D01*
X73311779Y-114155851D01*
X73466090Y-114219927D01*
X73633177Y-114220072D01*
X73787600Y-114156266D01*
X73905851Y-114038221D01*
X73969927Y-113883910D01*
X73970072Y-113716823D01*
X73906266Y-113562400D01*
X73788221Y-113444149D01*
X73633910Y-113380073D01*
X73466823Y-113379928D01*
X73312400Y-113443734D01*
X73276071Y-113480000D01*
X72935136Y-113480000D01*
X73245136Y-113170000D01*
X73750000Y-113170000D01*
X73872459Y-113145641D01*
X73976274Y-113076274D01*
X74326274Y-112726274D01*
X74395642Y-112622458D01*
X74420000Y-112500000D01*
X74420000Y-109474010D01*
X74455851Y-109438221D01*
X74519927Y-109283910D01*
X74520072Y-109116823D01*
X74456266Y-108962400D01*
X74338221Y-108844149D01*
X74183910Y-108780073D01*
X74016823Y-108779928D01*
X73862400Y-108843734D01*
X73744149Y-108961779D01*
X73680073Y-109116090D01*
X73679928Y-109283177D01*
X73743734Y-109437600D01*
X73780000Y-109473929D01*
X73780000Y-110240735D01*
X73673219Y-110196395D01*
X73719927Y-110083910D01*
X73720072Y-109916823D01*
X73656266Y-109762400D01*
X73596986Y-109703017D01*
X73596985Y-109703015D01*
X73596983Y-109703014D01*
X73538221Y-109644149D01*
X73383910Y-109580073D01*
X73300001Y-109580000D01*
X73299790Y-109580000D01*
X73216823Y-109579928D01*
X73216649Y-109580000D01*
X72320000Y-109580000D01*
X72320000Y-108500005D01*
X72320001Y-108500000D01*
X72280417Y-108301005D01*
X72266382Y-108280000D01*
X72167696Y-108132304D01*
X72167693Y-108132302D01*
X71867697Y-107832305D01*
X71867694Y-107832303D01*
X71467696Y-107432304D01*
X71298995Y-107319583D01*
X71100000Y-107279999D01*
X70901005Y-107319583D01*
X70732304Y-107432304D01*
X70619583Y-107601005D01*
X70579999Y-107800000D01*
X70612760Y-107964696D01*
X70522459Y-107904359D01*
X70400000Y-107880000D01*
X69432549Y-107880000D01*
X68901274Y-107348726D01*
X68883394Y-107336779D01*
X68797459Y-107279359D01*
X68675000Y-107255000D01*
X68199010Y-107255000D01*
X68163221Y-107219149D01*
X68008910Y-107155073D01*
X67841823Y-107154928D01*
X67687400Y-107218734D01*
X67599951Y-107306031D01*
X67513221Y-107219149D01*
X67358910Y-107155073D01*
X67191823Y-107154928D01*
X67037400Y-107218734D01*
X66919149Y-107336779D01*
X66855073Y-107491090D01*
X66854928Y-107658177D01*
X66918734Y-107812600D01*
X67036779Y-107930851D01*
X67093181Y-107954271D01*
X66017452Y-109030000D01*
X64415408Y-109030000D01*
X64444927Y-108958910D01*
X64445072Y-108791823D01*
X64381266Y-108637400D01*
X64263221Y-108519149D01*
X64108910Y-108455073D01*
X63941823Y-108454928D01*
X63787400Y-108518734D01*
X63669149Y-108636779D01*
X63605073Y-108791090D01*
X63604928Y-108958177D01*
X63634605Y-109030000D01*
X62782548Y-109030000D01*
X62526274Y-108773726D01*
X62469123Y-108735539D01*
X62422459Y-108704359D01*
X62300000Y-108680000D01*
X61242002Y-108680000D01*
X61155941Y-108697119D01*
X61131266Y-108637400D01*
X61043969Y-108549951D01*
X61100049Y-108493969D01*
X61186779Y-108580851D01*
X61341090Y-108644927D01*
X61508177Y-108645072D01*
X61662600Y-108581266D01*
X61750049Y-108493969D01*
X61836779Y-108580851D01*
X61991090Y-108644927D01*
X62158177Y-108645072D01*
X62312600Y-108581266D01*
X62430851Y-108463221D01*
X62494927Y-108308910D01*
X62495072Y-108141823D01*
X62431266Y-107987400D01*
X62395000Y-107951071D01*
X62395000Y-107188912D01*
X62486779Y-107280851D01*
X62641090Y-107344927D01*
X62808177Y-107345072D01*
X62962600Y-107281266D01*
X63050049Y-107193969D01*
X63106031Y-107250049D01*
X63019149Y-107336779D01*
X62955073Y-107491090D01*
X62954928Y-107658177D01*
X63018734Y-107812600D01*
X63136779Y-107930851D01*
X63291090Y-107994927D01*
X63458177Y-107995072D01*
X63612600Y-107931266D01*
X63730851Y-107813221D01*
X63794927Y-107658910D01*
X63794972Y-107607576D01*
X63975000Y-107427548D01*
X64348726Y-107801274D01*
X64444992Y-107865597D01*
X64437400Y-107868734D01*
X64319149Y-107986779D01*
X64255073Y-108141090D01*
X64254928Y-108308177D01*
X64318734Y-108462600D01*
X64436779Y-108580851D01*
X64591090Y-108644927D01*
X64758177Y-108645072D01*
X64912600Y-108581266D01*
X65000049Y-108493969D01*
X65086779Y-108580851D01*
X65241090Y-108644927D01*
X65408177Y-108645072D01*
X65562600Y-108581266D01*
X65650049Y-108493969D01*
X65736779Y-108580851D01*
X65891090Y-108644927D01*
X66058177Y-108645072D01*
X66212600Y-108581266D01*
X66330851Y-108463221D01*
X66394927Y-108308910D01*
X66395072Y-108141823D01*
X66331266Y-107987400D01*
X66213221Y-107869149D01*
X66058910Y-107805073D01*
X65891823Y-107804928D01*
X65737400Y-107868734D01*
X65649951Y-107956031D01*
X65593969Y-107899951D01*
X65680851Y-107813221D01*
X65744927Y-107658910D01*
X65745072Y-107491823D01*
X65681266Y-107337400D01*
X65593969Y-107249951D01*
X65650049Y-107193969D01*
X65736779Y-107280851D01*
X65891090Y-107344927D01*
X66058177Y-107345072D01*
X66212600Y-107281266D01*
X66300049Y-107193969D01*
X66386779Y-107280851D01*
X66541090Y-107344927D01*
X66708177Y-107345072D01*
X66862600Y-107281266D01*
X66980851Y-107163221D01*
X67044927Y-107008910D01*
X67044927Y-107008177D01*
X68804928Y-107008177D01*
X68868734Y-107162600D01*
X68986779Y-107280851D01*
X69141090Y-107344927D01*
X69308177Y-107345072D01*
X69462600Y-107281266D01*
X69550049Y-107193969D01*
X69636779Y-107280851D01*
X69791090Y-107344927D01*
X69958177Y-107345072D01*
X70112600Y-107281266D01*
X70230851Y-107163221D01*
X70294927Y-107008910D01*
X70295072Y-106841823D01*
X70231266Y-106687400D01*
X70113221Y-106569149D01*
X69958910Y-106505073D01*
X69791823Y-106504928D01*
X69637400Y-106568734D01*
X69549951Y-106656031D01*
X69463221Y-106569149D01*
X69308910Y-106505073D01*
X69141823Y-106504928D01*
X68987400Y-106568734D01*
X68869149Y-106686779D01*
X68805073Y-106841090D01*
X68804928Y-107008177D01*
X67044927Y-107008177D01*
X67045072Y-106841823D01*
X66981266Y-106687400D01*
X66863221Y-106569149D01*
X66708910Y-106505073D01*
X66541823Y-106504928D01*
X66387400Y-106568734D01*
X66299951Y-106656031D01*
X66213221Y-106569149D01*
X66058910Y-106505073D01*
X65891823Y-106504928D01*
X65737400Y-106568734D01*
X65649951Y-106656031D01*
X65563221Y-106569149D01*
X65408910Y-106505073D01*
X65241823Y-106504928D01*
X65087400Y-106568734D01*
X64999951Y-106656031D01*
X64913221Y-106569149D01*
X64758910Y-106505073D01*
X64719995Y-106505039D01*
X64720072Y-106416843D01*
X64700717Y-106370000D01*
X73275990Y-106370000D01*
X73311779Y-106405851D01*
X73466090Y-106469927D01*
X73633177Y-106470072D01*
X73787600Y-106406266D01*
X73905851Y-106288221D01*
X73969927Y-106133910D01*
X73970072Y-105966823D01*
X73906266Y-105812400D01*
X73788221Y-105694149D01*
X73633910Y-105630073D01*
X73466823Y-105629928D01*
X73312400Y-105693734D01*
X73276071Y-105730000D01*
X72722548Y-105730000D01*
X73932520Y-104520028D01*
X73983177Y-104520072D01*
X74137600Y-104456266D01*
X74255851Y-104338221D01*
X74319927Y-104183910D01*
X74320072Y-104016823D01*
X74256266Y-103862400D01*
X74138221Y-103744149D01*
X73983910Y-103680073D01*
X73816823Y-103679928D01*
X73662400Y-103743734D01*
X73544149Y-103861779D01*
X73480073Y-104016090D01*
X73480028Y-104067424D01*
X72167462Y-105379990D01*
X71872558Y-105379990D01*
X72432520Y-104820028D01*
X72483177Y-104820072D01*
X72637600Y-104756266D01*
X72755851Y-104638221D01*
X72819927Y-104483910D01*
X72820072Y-104316823D01*
X72756266Y-104162400D01*
X72638221Y-104044149D01*
X72483910Y-103980073D01*
X72316823Y-103979928D01*
X72162400Y-104043734D01*
X72044149Y-104161779D01*
X71980073Y-104316090D01*
X71980028Y-104367424D01*
X71317472Y-105029980D01*
X69620000Y-105029980D01*
X69620000Y-103474010D01*
X69650097Y-103443965D01*
X69761789Y-103555851D01*
X69916100Y-103619927D01*
X70083187Y-103620072D01*
X70237610Y-103556266D01*
X70355861Y-103438221D01*
X70419937Y-103283910D01*
X70420082Y-103116823D01*
X70356276Y-102962400D01*
X70238231Y-102844149D01*
X70083920Y-102780073D01*
X69916833Y-102779928D01*
X69762410Y-102843734D01*
X69649913Y-102956035D01*
X69538221Y-102844149D01*
X69383910Y-102780073D01*
X69216823Y-102779928D01*
X69062400Y-102843734D01*
X68944149Y-102961779D01*
X68880073Y-103116090D01*
X68879928Y-103283177D01*
X68943734Y-103437600D01*
X68980000Y-103473929D01*
X68980000Y-105029980D01*
X63294062Y-105029980D01*
X63171603Y-105054339D01*
X63067788Y-105123706D01*
X62811494Y-105380000D01*
X59574010Y-105380000D01*
X59538221Y-105344149D01*
X59383910Y-105280073D01*
X59216823Y-105279928D01*
X59062400Y-105343734D01*
X58944149Y-105461779D01*
X58880073Y-105616090D01*
X58879928Y-105783177D01*
X58943734Y-105937600D01*
X59061779Y-106055851D01*
X59216090Y-106119927D01*
X59383177Y-106120072D01*
X59537600Y-106056266D01*
X59573929Y-106020000D01*
X62666482Y-106020000D01*
X62498726Y-106187756D01*
X62429359Y-106291571D01*
X62405000Y-106414030D01*
X62405000Y-106650990D01*
X62369149Y-106686779D01*
X62339848Y-106757343D01*
X62301275Y-106699614D01*
X61871830Y-106270170D01*
X61859302Y-106261799D01*
X61768015Y-106200803D01*
X61645556Y-106176444D01*
X60403556Y-106176444D01*
X60385679Y-106180000D01*
X56332548Y-106180000D01*
X56020000Y-105867452D01*
X56020000Y-104274010D01*
X56055851Y-104238221D01*
X56119927Y-104083910D01*
X56120072Y-103916823D01*
X56056266Y-103762400D01*
X55938221Y-103644149D01*
X55783910Y-103580073D01*
X55616823Y-103579928D01*
X55462400Y-103643734D01*
X55344149Y-103761779D01*
X55280073Y-103916090D01*
X55279928Y-104083177D01*
X55343734Y-104237600D01*
X55380000Y-104273929D01*
X55380000Y-106000000D01*
X55404359Y-106122459D01*
X55437768Y-106172459D01*
X55473726Y-106226274D01*
X55973726Y-106726274D01*
X56077541Y-106795641D01*
X56200000Y-106820000D01*
X60363830Y-106820000D01*
X60355073Y-106841090D01*
X60354928Y-107008177D01*
X60384605Y-107080000D01*
X55970061Y-107080000D01*
X55970072Y-107066823D01*
X55906266Y-106912400D01*
X55788221Y-106794149D01*
X55633910Y-106730073D01*
X55466823Y-106729928D01*
X55312400Y-106793734D01*
X55194149Y-106911779D01*
X55130073Y-107066090D01*
X55129928Y-107233177D01*
X55193734Y-107387600D01*
X55311779Y-107505851D01*
X55466090Y-107569927D01*
X55517424Y-107569972D01*
X55573726Y-107626274D01*
X55677541Y-107695641D01*
X55800000Y-107720000D01*
X58542488Y-107720000D01*
X57778279Y-108484209D01*
X57819927Y-108383910D01*
X57820072Y-108216823D01*
X57756266Y-108062400D01*
X57638221Y-107944149D01*
X57483910Y-107880073D01*
X57316823Y-107879928D01*
X57162400Y-107943734D01*
X57044149Y-108061779D01*
X56980073Y-108216090D01*
X56979928Y-108383177D01*
X57043734Y-108537600D01*
X57161779Y-108655851D01*
X57316090Y-108719927D01*
X57483177Y-108720072D01*
X57584128Y-108678360D01*
X55982519Y-110279969D01*
X51534029Y-110279969D01*
X51411570Y-110304328D01*
X51325589Y-110361779D01*
X51307755Y-110373695D01*
X49973726Y-111707724D01*
X49924155Y-111781913D01*
X49844149Y-111861779D01*
X49780073Y-112016090D01*
X49779928Y-112183177D01*
X49843734Y-112337600D01*
X49961779Y-112455851D01*
X50116090Y-112519927D01*
X50283177Y-112520072D01*
X50437600Y-112456266D01*
X50449918Y-112443969D01*
X50461779Y-112455851D01*
X50616090Y-112519927D01*
X50783177Y-112520072D01*
X50937600Y-112456266D01*
X50974962Y-112418969D01*
X51011779Y-112455851D01*
X51166090Y-112519927D01*
X51333177Y-112520072D01*
X51487600Y-112456266D01*
X51499918Y-112443969D01*
X51511779Y-112455851D01*
X51666090Y-112519927D01*
X51833177Y-112520072D01*
X51930000Y-112480066D01*
X51930000Y-112609965D01*
X51954359Y-112732424D01*
X52012924Y-112820072D01*
X52023726Y-112836239D01*
X54663760Y-115476273D01*
X54767575Y-115545640D01*
X54890034Y-115569999D01*
X59999212Y-115569999D01*
X59980073Y-115616090D01*
X59979928Y-115783177D01*
X60006925Y-115848515D01*
X59977541Y-115854360D01*
X59892772Y-115911001D01*
X59873726Y-115923727D01*
X59867453Y-115930000D01*
X59824010Y-115930000D01*
X59788221Y-115894149D01*
X59633910Y-115830073D01*
X59466823Y-115829928D01*
X59312400Y-115893734D01*
X59194149Y-116011779D01*
X59130073Y-116166090D01*
X59129928Y-116333177D01*
X59193734Y-116487600D01*
X59311779Y-116605851D01*
X59466090Y-116669927D01*
X59633177Y-116670072D01*
X59787600Y-116606266D01*
X59823929Y-116570000D01*
X60000001Y-116570000D01*
X60107916Y-116548534D01*
X60098725Y-116557725D01*
X60029358Y-116661540D01*
X60004999Y-116783999D01*
X60004999Y-117413467D01*
X59988466Y-117430000D01*
X59250000Y-117430000D01*
X59127541Y-117454359D01*
X59029302Y-117520000D01*
X59023726Y-117523726D01*
X58567452Y-117980000D01*
X56074010Y-117980000D01*
X56038221Y-117944149D01*
X55883910Y-117880073D01*
X55716823Y-117879928D01*
X55562400Y-117943734D01*
X55444149Y-118061779D01*
X55380073Y-118216090D01*
X55379928Y-118383177D01*
X55443734Y-118537600D01*
X55481031Y-118574962D01*
X55444149Y-118611779D01*
X55380073Y-118766090D01*
X55379928Y-118933177D01*
X55399275Y-118980000D01*
X54822524Y-118980000D01*
X52508785Y-116666261D01*
X52527632Y-116670010D01*
X53949990Y-116670010D01*
X54072449Y-116645651D01*
X54176264Y-116576284D01*
X54432520Y-116320028D01*
X54483177Y-116320072D01*
X54637600Y-116256266D01*
X54755851Y-116138221D01*
X54819927Y-115983910D01*
X54820072Y-115816823D01*
X54756266Y-115662400D01*
X54638221Y-115544149D01*
X54483910Y-115480073D01*
X54316823Y-115479928D01*
X54162400Y-115543734D01*
X54044149Y-115661779D01*
X53980073Y-115816090D01*
X53980028Y-115867424D01*
X53817442Y-116030010D01*
X53500784Y-116030010D01*
X53519927Y-115983910D01*
X53520072Y-115816823D01*
X53456266Y-115662400D01*
X53338221Y-115544149D01*
X53183910Y-115480073D01*
X53016823Y-115479928D01*
X52862400Y-115543734D01*
X52744149Y-115661779D01*
X52680073Y-115816090D01*
X52679928Y-115983177D01*
X52699279Y-116030010D01*
X52660180Y-116030010D01*
X52514864Y-115884694D01*
X52514908Y-115834037D01*
X52451102Y-115679614D01*
X52333057Y-115561363D01*
X52178746Y-115497287D01*
X52011659Y-115497142D01*
X51857236Y-115560948D01*
X51738985Y-115678993D01*
X51675179Y-115832655D01*
X51616250Y-115773726D01*
X51576940Y-115747460D01*
X51512435Y-115704359D01*
X51389976Y-115680000D01*
X50574010Y-115680000D01*
X50538221Y-115644149D01*
X50383910Y-115580073D01*
X50216823Y-115579928D01*
X50062400Y-115643734D01*
X49944149Y-115761779D01*
X49916034Y-115829488D01*
X49520000Y-115433454D01*
X49520000Y-114174010D01*
X49555851Y-114138221D01*
X49619927Y-113983910D01*
X49620072Y-113816823D01*
X49560557Y-113672785D01*
X49679892Y-113672785D01*
X49774083Y-113900743D01*
X49948339Y-114075304D01*
X50176133Y-114169893D01*
X50422785Y-114170108D01*
X50650743Y-114075917D01*
X50825304Y-113901661D01*
X50919893Y-113673867D01*
X50920108Y-113427215D01*
X50825917Y-113199257D01*
X50651661Y-113024696D01*
X50423867Y-112930107D01*
X50177215Y-112929892D01*
X49949257Y-113024083D01*
X49774696Y-113198339D01*
X49680107Y-113426133D01*
X49679892Y-113672785D01*
X49560557Y-113672785D01*
X49556266Y-113662400D01*
X49438221Y-113544149D01*
X49283910Y-113480073D01*
X49116823Y-113479928D01*
X48962400Y-113543734D01*
X48844149Y-113661779D01*
X48780073Y-113816090D01*
X48779928Y-113983177D01*
X48843734Y-114137600D01*
X48880000Y-114173929D01*
X48880000Y-114227452D01*
X48520028Y-113867480D01*
X48520072Y-113816823D01*
X48456266Y-113662400D01*
X48338221Y-113544149D01*
X48183910Y-113480073D01*
X48016823Y-113479928D01*
X47862400Y-113543734D01*
X47744149Y-113661779D01*
X47680073Y-113816090D01*
X47679928Y-113983177D01*
X47370000Y-113983177D01*
X47370000Y-97933177D01*
X59479928Y-97933177D01*
X59543734Y-98087600D01*
X59661779Y-98205851D01*
X59816090Y-98269927D01*
X59983177Y-98270072D01*
X60137600Y-98206266D01*
X60255851Y-98088221D01*
X60319927Y-97933910D01*
X60320057Y-97783177D01*
X60879928Y-97783177D01*
X60943734Y-97937600D01*
X61061779Y-98055851D01*
X61216090Y-98119927D01*
X61383177Y-98120072D01*
X61537600Y-98056266D01*
X61600005Y-97993969D01*
X61661779Y-98055851D01*
X61816090Y-98119927D01*
X61983177Y-98120072D01*
X62137600Y-98056266D01*
X62255851Y-97938221D01*
X62319927Y-97783910D01*
X62320072Y-97616823D01*
X62256266Y-97462400D01*
X62138221Y-97344149D01*
X61983910Y-97280073D01*
X61816823Y-97279928D01*
X61662400Y-97343734D01*
X61599995Y-97406031D01*
X61538221Y-97344149D01*
X61383910Y-97280073D01*
X61216823Y-97279928D01*
X61062400Y-97343734D01*
X60944149Y-97461779D01*
X60880073Y-97616090D01*
X60879928Y-97783177D01*
X60320057Y-97783177D01*
X60320072Y-97766823D01*
X60256266Y-97612400D01*
X60138221Y-97494149D01*
X59983910Y-97430073D01*
X59816823Y-97429928D01*
X59662400Y-97493734D01*
X59544149Y-97611779D01*
X59480073Y-97766090D01*
X59479928Y-97933177D01*
X47370000Y-97933177D01*
X47370000Y-97583177D01*
X54079928Y-97583177D01*
X54143734Y-97737600D01*
X54261779Y-97855851D01*
X54416090Y-97919927D01*
X54583177Y-97920072D01*
X54737600Y-97856266D01*
X54855851Y-97738221D01*
X54919927Y-97583910D01*
X54920072Y-97416823D01*
X54856266Y-97262400D01*
X54738221Y-97144149D01*
X54583910Y-97080073D01*
X54416823Y-97079928D01*
X54262400Y-97143734D01*
X54144149Y-97261779D01*
X54080073Y-97416090D01*
X54079928Y-97583177D01*
X47370000Y-97583177D01*
X47370000Y-96822785D01*
X54879892Y-96822785D01*
X54974083Y-97050743D01*
X55148339Y-97225304D01*
X55376133Y-97319893D01*
X55622785Y-97320108D01*
X55850743Y-97225917D01*
X56025304Y-97051661D01*
X56025413Y-97051399D01*
X57156812Y-95920000D01*
X57919841Y-95920000D01*
X57862400Y-95943734D01*
X57744149Y-96061779D01*
X57680073Y-96216090D01*
X57679928Y-96383177D01*
X57743734Y-96537600D01*
X57861779Y-96655851D01*
X58016090Y-96719927D01*
X58183177Y-96720072D01*
X58337600Y-96656266D01*
X58455851Y-96538221D01*
X58519927Y-96383910D01*
X58520072Y-96216823D01*
X58456266Y-96062400D01*
X58338221Y-95944149D01*
X58280064Y-95920000D01*
X59769841Y-95920000D01*
X59712400Y-95943734D01*
X59594149Y-96061779D01*
X59530073Y-96216090D01*
X59529928Y-96383177D01*
X59593734Y-96537600D01*
X59711779Y-96655851D01*
X59866090Y-96719927D01*
X60033177Y-96720072D01*
X60187600Y-96656266D01*
X60305851Y-96538221D01*
X60324968Y-96492183D01*
X60343734Y-96537600D01*
X60461779Y-96655851D01*
X60616090Y-96719927D01*
X60783177Y-96720072D01*
X60937600Y-96656266D01*
X61055851Y-96538221D01*
X61119927Y-96383910D01*
X61120072Y-96216823D01*
X61056266Y-96062400D01*
X60938221Y-95944149D01*
X60880064Y-95920000D01*
X63519973Y-95920000D01*
X63480073Y-96016090D01*
X63479928Y-96183177D01*
X63543734Y-96337600D01*
X63661779Y-96455851D01*
X63753510Y-96493942D01*
X61117452Y-99130000D01*
X60174010Y-99130000D01*
X60138221Y-99094149D01*
X59983910Y-99030073D01*
X59816823Y-99029928D01*
X59662400Y-99093734D01*
X59544149Y-99211779D01*
X59500131Y-99317784D01*
X59483504Y-99277543D01*
X59323301Y-99117059D01*
X59113877Y-99030099D01*
X58887117Y-99029901D01*
X58677543Y-99116496D01*
X58517059Y-99276699D01*
X58430099Y-99486123D01*
X58429901Y-99712883D01*
X58516496Y-99922457D01*
X58676699Y-100082941D01*
X58886123Y-100169901D01*
X59112883Y-100170099D01*
X59322457Y-100083504D01*
X59482941Y-99923301D01*
X59569901Y-99713877D01*
X59569901Y-99713813D01*
X59661779Y-99805851D01*
X59816090Y-99869927D01*
X59983177Y-99870072D01*
X60137600Y-99806266D01*
X60173929Y-99770000D01*
X61250000Y-99770000D01*
X61372459Y-99745641D01*
X61476274Y-99676274D01*
X63906079Y-97246469D01*
X63943734Y-97337600D01*
X64006031Y-97400005D01*
X63944149Y-97461779D01*
X63880073Y-97616090D01*
X63879928Y-97783177D01*
X63943734Y-97937600D01*
X64061779Y-98055851D01*
X64216090Y-98119927D01*
X64383177Y-98120072D01*
X64480000Y-98080066D01*
X64480000Y-99226030D01*
X64003015Y-99703015D01*
X64003014Y-99703017D01*
X63944149Y-99761779D01*
X63880073Y-99916090D01*
X63879928Y-100083177D01*
X63943734Y-100237600D01*
X64003014Y-100296983D01*
X64003015Y-100296985D01*
X64003017Y-100296986D01*
X64061779Y-100355851D01*
X64216090Y-100419927D01*
X64299999Y-100420000D01*
X64300001Y-100420000D01*
X64383177Y-100420072D01*
X64537600Y-100356266D01*
X64596983Y-100296986D01*
X64596985Y-100296985D01*
X64597300Y-100296670D01*
X64655851Y-100238221D01*
X64655923Y-100238047D01*
X64780000Y-100113970D01*
X64780000Y-102226030D01*
X63426030Y-103580000D01*
X57856781Y-103580000D01*
X57751661Y-103474696D01*
X57523867Y-103380107D01*
X57277215Y-103379892D01*
X57049257Y-103474083D01*
X56874696Y-103648339D01*
X56780107Y-103876133D01*
X56779892Y-104122785D01*
X56874083Y-104350743D01*
X57048339Y-104525304D01*
X57276133Y-104619893D01*
X57522785Y-104620108D01*
X57750743Y-104525917D01*
X57856845Y-104420000D01*
X63600000Y-104420000D01*
X63760727Y-104388029D01*
X63896985Y-104296985D01*
X64110793Y-104083177D01*
X64479928Y-104083177D01*
X64543734Y-104237600D01*
X64661779Y-104355851D01*
X64816090Y-104419927D01*
X64983177Y-104420072D01*
X65137600Y-104356266D01*
X65255851Y-104238221D01*
X65319927Y-104083910D01*
X65320072Y-103916823D01*
X65256266Y-103762400D01*
X65138221Y-103644149D01*
X64983910Y-103580073D01*
X64816823Y-103579928D01*
X64662400Y-103643734D01*
X64544149Y-103761779D01*
X64480073Y-103916090D01*
X64479928Y-104083177D01*
X64110793Y-104083177D01*
X65496985Y-102696985D01*
X65588029Y-102560727D01*
X65620000Y-102400000D01*
X65620000Y-102183177D01*
X71279928Y-102183177D01*
X71343734Y-102337600D01*
X71461779Y-102455851D01*
X71616090Y-102519927D01*
X71783177Y-102520072D01*
X71937600Y-102456266D01*
X72055851Y-102338221D01*
X72119927Y-102183910D01*
X72120072Y-102016823D01*
X72056266Y-101862400D01*
X71938221Y-101744149D01*
X71783910Y-101680073D01*
X71616823Y-101679928D01*
X71462400Y-101743734D01*
X71344149Y-101861779D01*
X71280073Y-102016090D01*
X71279928Y-102183177D01*
X65620000Y-102183177D01*
X65620000Y-100199968D01*
X66217017Y-100796985D01*
X66353275Y-100888029D01*
X66514002Y-100920000D01*
X67900210Y-100920000D01*
X67983177Y-100920072D01*
X67983351Y-100920000D01*
X69200000Y-100920000D01*
X69360727Y-100888029D01*
X69462540Y-100820000D01*
X70651462Y-100820000D01*
X70753275Y-100888029D01*
X70914002Y-100920000D01*
X71926030Y-100920000D01*
X72003015Y-100996985D01*
X72003017Y-100996986D01*
X72061779Y-101055851D01*
X72216090Y-101119927D01*
X72299999Y-101120000D01*
X72300001Y-101120000D01*
X72383177Y-101120072D01*
X72537600Y-101056266D01*
X72596983Y-100996986D01*
X72596985Y-100996985D01*
X72596986Y-100996983D01*
X72655851Y-100938221D01*
X72719927Y-100783910D01*
X72720072Y-100616823D01*
X72656266Y-100462400D01*
X72596986Y-100403017D01*
X72596985Y-100403015D01*
X72596670Y-100402700D01*
X72538221Y-100344149D01*
X72538047Y-100344077D01*
X72396985Y-100203015D01*
X72260727Y-100111971D01*
X72100000Y-100080000D01*
X70914002Y-100080000D01*
X70753275Y-100111971D01*
X70651462Y-100180000D01*
X69462540Y-100180000D01*
X69360727Y-100111971D01*
X69200000Y-100080000D01*
X67899790Y-100080000D01*
X67816823Y-100079928D01*
X67816649Y-100080000D01*
X66687972Y-100080000D01*
X65760986Y-99153014D01*
X65656467Y-99083177D01*
X68279928Y-99083177D01*
X68343734Y-99237600D01*
X68461779Y-99355851D01*
X68616090Y-99419927D01*
X68783177Y-99420072D01*
X68937600Y-99356266D01*
X69055851Y-99238221D01*
X69119927Y-99083910D01*
X69119980Y-99022785D01*
X73079892Y-99022785D01*
X73174083Y-99250743D01*
X73348339Y-99425304D01*
X73576133Y-99519893D01*
X73822785Y-99520108D01*
X74050743Y-99425917D01*
X74225304Y-99251661D01*
X74319893Y-99023867D01*
X74320108Y-98777215D01*
X74225917Y-98549257D01*
X74051661Y-98374696D01*
X73823867Y-98280107D01*
X73577215Y-98279892D01*
X73349257Y-98374083D01*
X73174696Y-98548339D01*
X73080107Y-98776133D01*
X73079892Y-99022785D01*
X69119980Y-99022785D01*
X69120072Y-98916823D01*
X69056266Y-98762400D01*
X68938221Y-98644149D01*
X68791386Y-98583177D01*
X71529928Y-98583177D01*
X71593734Y-98737600D01*
X71711779Y-98855851D01*
X71866090Y-98919927D01*
X72033177Y-98920072D01*
X72187600Y-98856266D01*
X72305851Y-98738221D01*
X72369927Y-98583910D01*
X72370072Y-98416823D01*
X72306266Y-98262400D01*
X72188221Y-98144149D01*
X72033910Y-98080073D01*
X71866823Y-98079928D01*
X71712400Y-98143734D01*
X71594149Y-98261779D01*
X71530073Y-98416090D01*
X71529928Y-98583177D01*
X68791386Y-98583177D01*
X68783910Y-98580073D01*
X68616823Y-98579928D01*
X68462400Y-98643734D01*
X68344149Y-98761779D01*
X68280073Y-98916090D01*
X68279928Y-99083177D01*
X65656467Y-99083177D01*
X65624728Y-99061970D01*
X65464001Y-99029999D01*
X65320000Y-99029999D01*
X65320000Y-96999999D01*
X65320014Y-96983177D01*
X68629928Y-96983177D01*
X68693734Y-97137600D01*
X68706031Y-97149918D01*
X68694149Y-97161779D01*
X68630073Y-97316090D01*
X68629928Y-97483177D01*
X68693734Y-97637600D01*
X68706031Y-97649918D01*
X68694149Y-97661779D01*
X68630073Y-97816090D01*
X68629928Y-97983177D01*
X68693734Y-98137600D01*
X68811779Y-98255851D01*
X68966090Y-98319927D01*
X69133177Y-98320072D01*
X69287600Y-98256266D01*
X69405851Y-98138221D01*
X69469927Y-97983910D01*
X69470072Y-97816823D01*
X69406266Y-97662400D01*
X69393969Y-97650082D01*
X69405851Y-97638221D01*
X69469927Y-97483910D01*
X69470072Y-97316823D01*
X69406266Y-97162400D01*
X69393969Y-97150082D01*
X69405851Y-97138221D01*
X69469927Y-96983910D01*
X69470072Y-96816823D01*
X69406266Y-96662400D01*
X69288221Y-96544149D01*
X69133910Y-96480073D01*
X68966823Y-96479928D01*
X68812400Y-96543734D01*
X68694149Y-96661779D01*
X68630073Y-96816090D01*
X68629928Y-96983177D01*
X65320014Y-96983177D01*
X65320072Y-96916823D01*
X65256266Y-96762400D01*
X65196986Y-96703017D01*
X65196985Y-96703015D01*
X65196983Y-96703014D01*
X65138221Y-96644149D01*
X64983910Y-96580073D01*
X64900001Y-96580000D01*
X64899999Y-96580000D01*
X64816823Y-96579928D01*
X64662400Y-96643734D01*
X64603017Y-96703014D01*
X64603015Y-96703015D01*
X64603014Y-96703017D01*
X64549995Y-96755943D01*
X64538221Y-96744149D01*
X64446490Y-96706058D01*
X64667189Y-96485359D01*
X64737600Y-96456266D01*
X64751300Y-96442589D01*
X72779875Y-96442589D01*
X72889257Y-96707315D01*
X73091620Y-96910031D01*
X73356155Y-97019875D01*
X73642589Y-97020125D01*
X73907315Y-96910743D01*
X74110031Y-96708380D01*
X74219875Y-96443845D01*
X74220125Y-96157411D01*
X74110743Y-95892685D01*
X73908380Y-95689969D01*
X73643845Y-95580125D01*
X73357411Y-95579875D01*
X73092685Y-95689257D01*
X72889969Y-95891620D01*
X72780125Y-96156155D01*
X72779875Y-96442589D01*
X64751300Y-96442589D01*
X64855851Y-96338221D01*
X64919927Y-96183910D01*
X64920072Y-96016823D01*
X64880066Y-95920000D01*
X68598885Y-95920000D01*
X68722785Y-95920108D01*
X68950743Y-95825917D01*
X69125304Y-95651661D01*
X69219893Y-95423867D01*
X69220108Y-95177215D01*
X69125917Y-94949257D01*
X68951661Y-94774696D01*
X68723867Y-94680107D01*
X68477215Y-94679892D01*
X68476954Y-94680000D01*
X56900000Y-94680000D01*
X56662736Y-94727195D01*
X56591646Y-94774696D01*
X56461594Y-94861594D01*
X55062263Y-96260925D01*
X54974696Y-96348339D01*
X54880107Y-96576133D01*
X54879892Y-96822785D01*
X47370000Y-96822785D01*
X47370000Y-93183177D01*
X64179928Y-93183177D01*
X64243734Y-93337600D01*
X64361779Y-93455851D01*
X64516090Y-93519927D01*
X64683177Y-93520072D01*
X64772470Y-93483177D01*
X67979928Y-93483177D01*
X68043734Y-93637600D01*
X68161779Y-93755851D01*
X68316090Y-93819927D01*
X68483177Y-93820072D01*
X68637600Y-93756266D01*
X68755851Y-93638221D01*
X68819927Y-93483910D01*
X68820072Y-93316823D01*
X68756266Y-93162400D01*
X68638221Y-93044149D01*
X68483910Y-92980073D01*
X68316823Y-92979928D01*
X68162400Y-93043734D01*
X68044149Y-93161779D01*
X67980073Y-93316090D01*
X67979928Y-93483177D01*
X64772470Y-93483177D01*
X64837600Y-93456266D01*
X64955851Y-93338221D01*
X65019927Y-93183910D01*
X65020072Y-93016823D01*
X64956266Y-92862400D01*
X64838221Y-92744149D01*
X64691386Y-92683177D01*
X66879928Y-92683177D01*
X66943734Y-92837600D01*
X67061779Y-92955851D01*
X67216090Y-93019927D01*
X67383177Y-93020072D01*
X67537600Y-92956266D01*
X67655851Y-92838221D01*
X67719927Y-92683910D01*
X67720072Y-92516823D01*
X67656266Y-92362400D01*
X67538221Y-92244149D01*
X67383910Y-92180073D01*
X67216823Y-92179928D01*
X67062400Y-92243734D01*
X66944149Y-92361779D01*
X66880073Y-92516090D01*
X66879928Y-92683177D01*
X64691386Y-92683177D01*
X64683910Y-92680073D01*
X64516823Y-92679928D01*
X64362400Y-92743734D01*
X64244149Y-92861779D01*
X64180073Y-93016090D01*
X64179928Y-93183177D01*
X47370000Y-93183177D01*
X47370000Y-91683177D01*
X54679928Y-91683177D01*
X54743734Y-91837600D01*
X54785944Y-91879884D01*
X54804359Y-91972459D01*
X54822762Y-92000001D01*
X54873726Y-92076274D01*
X55023727Y-92226275D01*
X55127542Y-92295642D01*
X55250001Y-92320001D01*
X56449999Y-92320001D01*
X56572458Y-92295642D01*
X56676273Y-92226275D01*
X56826274Y-92076274D01*
X56877238Y-92000001D01*
X56895641Y-91972459D01*
X56914041Y-91879958D01*
X56955851Y-91838221D01*
X57019927Y-91683910D01*
X57020072Y-91516823D01*
X56956266Y-91362400D01*
X56838221Y-91244149D01*
X56683910Y-91180073D01*
X56516823Y-91179928D01*
X56362400Y-91243734D01*
X56350082Y-91256031D01*
X56338221Y-91244149D01*
X56183910Y-91180073D01*
X56016823Y-91179928D01*
X55862400Y-91243734D01*
X55850082Y-91256031D01*
X55838221Y-91244149D01*
X55683910Y-91180073D01*
X55516823Y-91179928D01*
X55362400Y-91243734D01*
X55350082Y-91256031D01*
X55338221Y-91244149D01*
X55183910Y-91180073D01*
X55016823Y-91179928D01*
X54862400Y-91243734D01*
X54744149Y-91361779D01*
X54680073Y-91516090D01*
X54679928Y-91683177D01*
X47370000Y-91683177D01*
X47370000Y-91170000D01*
X49850000Y-91170000D01*
X49876081Y-91164812D01*
X49902674Y-91164812D01*
X50094016Y-91126752D01*
X50094017Y-91126752D01*
X50191347Y-91086436D01*
X50353558Y-90978049D01*
X50361607Y-90970000D01*
X53938393Y-90970000D01*
X53946442Y-90978049D01*
G36*
X68373726Y-114926274D02*
X68477541Y-114995641D01*
X68600000Y-115020000D01*
X68986132Y-115020000D01*
X68869149Y-115136779D01*
X68805073Y-115291090D01*
X68804928Y-115458177D01*
X68868734Y-115612600D01*
X68986779Y-115730851D01*
X69141090Y-115794927D01*
X69308177Y-115795072D01*
X69462600Y-115731266D01*
X69580851Y-115613221D01*
X69644927Y-115458910D01*
X69645072Y-115291823D01*
X69581266Y-115137400D01*
X69464071Y-115020000D01*
X70286132Y-115020000D01*
X70169149Y-115136779D01*
X70105073Y-115291090D01*
X70104928Y-115458177D01*
X70168734Y-115612600D01*
X70286779Y-115730851D01*
X70354488Y-115758966D01*
X70258980Y-115854474D01*
X70231266Y-115787400D01*
X70113221Y-115669149D01*
X69958910Y-115605073D01*
X69791823Y-115604928D01*
X69637400Y-115668734D01*
X69519149Y-115786779D01*
X69455073Y-115941090D01*
X69454928Y-116108177D01*
X69505264Y-116229999D01*
X68944646Y-116229999D01*
X68994927Y-116108910D01*
X68995072Y-115941823D01*
X68931266Y-115787400D01*
X68813221Y-115669149D01*
X68658910Y-115605073D01*
X68491823Y-115604928D01*
X68337400Y-115668734D01*
X68219149Y-115786779D01*
X68155073Y-115941090D01*
X68154928Y-116108177D01*
X68218734Y-116262600D01*
X68336779Y-116380851D01*
X68404488Y-116408966D01*
X68308980Y-116504474D01*
X68281266Y-116437400D01*
X68163221Y-116319149D01*
X68008910Y-116255073D01*
X67841823Y-116254928D01*
X67687400Y-116318734D01*
X67570000Y-116435929D01*
X67570000Y-116323966D01*
X67630851Y-116263221D01*
X67694927Y-116108910D01*
X67695072Y-115941823D01*
X67631266Y-115787400D01*
X67543969Y-115699951D01*
X67600049Y-115643969D01*
X67686779Y-115730851D01*
X67841090Y-115794927D01*
X68008177Y-115795072D01*
X68162600Y-115731266D01*
X68280851Y-115613221D01*
X68344927Y-115458910D01*
X68345072Y-115291823D01*
X68281266Y-115137400D01*
X68163221Y-115019149D01*
X68008910Y-114955073D01*
X67841823Y-114954928D01*
X67687400Y-115018734D01*
X67599951Y-115106031D01*
X67543969Y-115049951D01*
X67630851Y-114963221D01*
X67694927Y-114808910D01*
X67694972Y-114757576D01*
X67882548Y-114570000D01*
X68017452Y-114570000D01*
X68373726Y-114926274D01*
X68373726Y-114926274D01*
G37*
X68373726Y-114926274D02*
X68477541Y-114995641D01*
X68600000Y-115020000D01*
X68986132Y-115020000D01*
X68869149Y-115136779D01*
X68805073Y-115291090D01*
X68804928Y-115458177D01*
X68868734Y-115612600D01*
X68986779Y-115730851D01*
X69141090Y-115794927D01*
X69308177Y-115795072D01*
X69462600Y-115731266D01*
X69580851Y-115613221D01*
X69644927Y-115458910D01*
X69645072Y-115291823D01*
X69581266Y-115137400D01*
X69464071Y-115020000D01*
X70286132Y-115020000D01*
X70169149Y-115136779D01*
X70105073Y-115291090D01*
X70104928Y-115458177D01*
X70168734Y-115612600D01*
X70286779Y-115730851D01*
X70354488Y-115758966D01*
X70258980Y-115854474D01*
X70231266Y-115787400D01*
X70113221Y-115669149D01*
X69958910Y-115605073D01*
X69791823Y-115604928D01*
X69637400Y-115668734D01*
X69519149Y-115786779D01*
X69455073Y-115941090D01*
X69454928Y-116108177D01*
X69505264Y-116229999D01*
X68944646Y-116229999D01*
X68994927Y-116108910D01*
X68995072Y-115941823D01*
X68931266Y-115787400D01*
X68813221Y-115669149D01*
X68658910Y-115605073D01*
X68491823Y-115604928D01*
X68337400Y-115668734D01*
X68219149Y-115786779D01*
X68155073Y-115941090D01*
X68154928Y-116108177D01*
X68218734Y-116262600D01*
X68336779Y-116380851D01*
X68404488Y-116408966D01*
X68308980Y-116504474D01*
X68281266Y-116437400D01*
X68163221Y-116319149D01*
X68008910Y-116255073D01*
X67841823Y-116254928D01*
X67687400Y-116318734D01*
X67570000Y-116435929D01*
X67570000Y-116323966D01*
X67630851Y-116263221D01*
X67694927Y-116108910D01*
X67695072Y-115941823D01*
X67631266Y-115787400D01*
X67543969Y-115699951D01*
X67600049Y-115643969D01*
X67686779Y-115730851D01*
X67841090Y-115794927D01*
X68008177Y-115795072D01*
X68162600Y-115731266D01*
X68280851Y-115613221D01*
X68344927Y-115458910D01*
X68345072Y-115291823D01*
X68281266Y-115137400D01*
X68163221Y-115019149D01*
X68008910Y-114955073D01*
X67841823Y-114954928D01*
X67687400Y-115018734D01*
X67599951Y-115106031D01*
X67543969Y-115049951D01*
X67630851Y-114963221D01*
X67694927Y-114808910D01*
X67694972Y-114757576D01*
X67882548Y-114570000D01*
X68017452Y-114570000D01*
X68373726Y-114926274D01*
G36*
X63657302Y-111842693D02*
X63657304Y-111842696D01*
X63793949Y-111933998D01*
X63826005Y-111955417D01*
X64025000Y-111995001D01*
X64025005Y-111995000D01*
X67359608Y-111995000D01*
X67857302Y-112492693D01*
X67857304Y-112492696D01*
X68026005Y-112605417D01*
X68055000Y-112611185D01*
X68055000Y-112774995D01*
X68054999Y-112775000D01*
X68094583Y-112973995D01*
X68207304Y-113142696D01*
X68294608Y-113230000D01*
X67250000Y-113230000D01*
X67127542Y-113254358D01*
X67023726Y-113323725D01*
X66742463Y-113604989D01*
X64964021Y-113604989D01*
X64841562Y-113629348D01*
X64777042Y-113672459D01*
X64737747Y-113698715D01*
X64098716Y-114337746D01*
X64029349Y-114441561D01*
X64004990Y-114564020D01*
X64004990Y-115442462D01*
X63917462Y-115529990D01*
X62845001Y-115529990D01*
X62845001Y-114479857D01*
X62962600Y-114431266D01*
X63080851Y-114313221D01*
X63144927Y-114158910D01*
X63145072Y-113991823D01*
X63081266Y-113837400D01*
X62963221Y-113719149D01*
X62808910Y-113655073D01*
X62641823Y-113654928D01*
X62487400Y-113718734D01*
X62399951Y-113806031D01*
X62343969Y-113749951D01*
X62430851Y-113663221D01*
X62494927Y-113508910D01*
X62495072Y-113341823D01*
X62431266Y-113187400D01*
X62343969Y-113099951D01*
X62430851Y-113013221D01*
X62494927Y-112858910D01*
X62495072Y-112691823D01*
X62475725Y-112645000D01*
X62725000Y-112645000D01*
X62923995Y-112605417D01*
X63092696Y-112492696D01*
X63205417Y-112323995D01*
X63245000Y-112125000D01*
X63205417Y-111926005D01*
X63092696Y-111757304D01*
X62923995Y-111644583D01*
X62725000Y-111605000D01*
X62640391Y-111605000D01*
X62595000Y-111559608D01*
X62595000Y-111345000D01*
X63159608Y-111345000D01*
X63657302Y-111842693D01*
X63657302Y-111842693D01*
G37*
X63657302Y-111842693D02*
X63657304Y-111842696D01*
X63793949Y-111933998D01*
X63826005Y-111955417D01*
X64025000Y-111995001D01*
X64025005Y-111995000D01*
X67359608Y-111995000D01*
X67857302Y-112492693D01*
X67857304Y-112492696D01*
X68026005Y-112605417D01*
X68055000Y-112611185D01*
X68055000Y-112774995D01*
X68054999Y-112775000D01*
X68094583Y-112973995D01*
X68207304Y-113142696D01*
X68294608Y-113230000D01*
X67250000Y-113230000D01*
X67127542Y-113254358D01*
X67023726Y-113323725D01*
X66742463Y-113604989D01*
X64964021Y-113604989D01*
X64841562Y-113629348D01*
X64777042Y-113672459D01*
X64737747Y-113698715D01*
X64098716Y-114337746D01*
X64029349Y-114441561D01*
X64004990Y-114564020D01*
X64004990Y-115442462D01*
X63917462Y-115529990D01*
X62845001Y-115529990D01*
X62845001Y-114479857D01*
X62962600Y-114431266D01*
X63080851Y-114313221D01*
X63144927Y-114158910D01*
X63145072Y-113991823D01*
X63081266Y-113837400D01*
X62963221Y-113719149D01*
X62808910Y-113655073D01*
X62641823Y-113654928D01*
X62487400Y-113718734D01*
X62399951Y-113806031D01*
X62343969Y-113749951D01*
X62430851Y-113663221D01*
X62494927Y-113508910D01*
X62495072Y-113341823D01*
X62431266Y-113187400D01*
X62343969Y-113099951D01*
X62430851Y-113013221D01*
X62494927Y-112858910D01*
X62495072Y-112691823D01*
X62475725Y-112645000D01*
X62725000Y-112645000D01*
X62923995Y-112605417D01*
X63092696Y-112492696D01*
X63205417Y-112323995D01*
X63245000Y-112125000D01*
X63205417Y-111926005D01*
X63092696Y-111757304D01*
X62923995Y-111644583D01*
X62725000Y-111605000D01*
X62640391Y-111605000D01*
X62595000Y-111559608D01*
X62595000Y-111345000D01*
X63159608Y-111345000D01*
X63657302Y-111842693D01*
G36*
X66855073Y-114641090D02*
X66854928Y-114808177D01*
X66918734Y-114962600D01*
X67006031Y-115050049D01*
X66949951Y-115106031D01*
X66863221Y-115019149D01*
X66708910Y-114955073D01*
X66541823Y-114954928D01*
X66387400Y-115018734D01*
X66299951Y-115106031D01*
X66213221Y-115019149D01*
X66058910Y-114955073D01*
X65891823Y-114954928D01*
X65737400Y-115018734D01*
X65649951Y-115106031D01*
X65563221Y-115019149D01*
X65408910Y-114955073D01*
X65241823Y-114954928D01*
X65087400Y-115018734D01*
X64995000Y-115110973D01*
X64995000Y-114841546D01*
X65241547Y-114594999D01*
X66874212Y-114594999D01*
X66855073Y-114641090D01*
X66855073Y-114641090D01*
G37*
X66855073Y-114641090D02*
X66854928Y-114808177D01*
X66918734Y-114962600D01*
X67006031Y-115050049D01*
X66949951Y-115106031D01*
X66863221Y-115019149D01*
X66708910Y-114955073D01*
X66541823Y-114954928D01*
X66387400Y-115018734D01*
X66299951Y-115106031D01*
X66213221Y-115019149D01*
X66058910Y-114955073D01*
X65891823Y-114954928D01*
X65737400Y-115018734D01*
X65649951Y-115106031D01*
X65563221Y-115019149D01*
X65408910Y-114955073D01*
X65241823Y-114954928D01*
X65087400Y-115018734D01*
X64995000Y-115110973D01*
X64995000Y-114841546D01*
X65241547Y-114594999D01*
X66874212Y-114594999D01*
X66855073Y-114641090D01*
G36*
X59036594Y-110386594D02*
X56961594Y-112461594D01*
X56827195Y-112662736D01*
X56780000Y-112900000D01*
X56780000Y-113198339D01*
X56779892Y-113322785D01*
X56874083Y-113550743D01*
X57048339Y-113725304D01*
X57276133Y-113819893D01*
X57522785Y-113820108D01*
X57750743Y-113725917D01*
X57925304Y-113551661D01*
X58019893Y-113323867D01*
X58020039Y-113156773D01*
X59731812Y-111445000D01*
X60211132Y-111445000D01*
X60094149Y-111561779D01*
X60030073Y-111716090D01*
X60029928Y-111883177D01*
X60093734Y-112037600D01*
X60211779Y-112155851D01*
X60366090Y-112219927D01*
X60533177Y-112220072D01*
X60687600Y-112156266D01*
X60805851Y-112038221D01*
X60869927Y-111883910D01*
X60870072Y-111716823D01*
X60806266Y-111562400D01*
X60689071Y-111445000D01*
X61555000Y-111445000D01*
X61555000Y-111724211D01*
X61508910Y-111705073D01*
X61341823Y-111704928D01*
X61187400Y-111768734D01*
X61069149Y-111886779D01*
X61005073Y-112041090D01*
X61004928Y-112208177D01*
X61068734Y-112362600D01*
X61156031Y-112450049D01*
X61099951Y-112506031D01*
X61013221Y-112419149D01*
X60858910Y-112355073D01*
X60691823Y-112354928D01*
X60537400Y-112418734D01*
X60419149Y-112536779D01*
X60355073Y-112691090D01*
X60355020Y-112752483D01*
X59970017Y-112367480D01*
X59970061Y-112316823D01*
X59906255Y-112162400D01*
X59788210Y-112044149D01*
X59633899Y-111980073D01*
X59466812Y-111979928D01*
X59312389Y-112043734D01*
X59194138Y-112161779D01*
X59130062Y-112316090D01*
X59129917Y-112483177D01*
X59193723Y-112637600D01*
X59311768Y-112755851D01*
X59466079Y-112819927D01*
X59517413Y-112819972D01*
X60173726Y-113476285D01*
X60277541Y-113545652D01*
X60400000Y-113570011D01*
X61680477Y-113570011D01*
X61718734Y-113662600D01*
X61806031Y-113750049D01*
X61801071Y-113755000D01*
X60923550Y-113755000D01*
X60892275Y-113723725D01*
X60887659Y-113720641D01*
X60788460Y-113654358D01*
X60666001Y-113629999D01*
X60249969Y-113629999D01*
X60127510Y-113654358D01*
X60028311Y-113720641D01*
X60023695Y-113723725D01*
X59867451Y-113879969D01*
X55457516Y-113879969D01*
X54210724Y-112633177D01*
X54479928Y-112633177D01*
X54543734Y-112787600D01*
X54661779Y-112905851D01*
X54816090Y-112969927D01*
X54983177Y-112970072D01*
X55137600Y-112906266D01*
X55255851Y-112788221D01*
X55319927Y-112633910D01*
X55320072Y-112466823D01*
X55256266Y-112312400D01*
X55138221Y-112194149D01*
X54983910Y-112130073D01*
X54816823Y-112129928D01*
X54662400Y-112193734D01*
X54544149Y-112311779D01*
X54480073Y-112466090D01*
X54479928Y-112633177D01*
X54210724Y-112633177D01*
X54020001Y-112442454D01*
X54020001Y-111883999D01*
X53995642Y-111761540D01*
X53926275Y-111657725D01*
X53888539Y-111619989D01*
X56049216Y-111619989D01*
X56030073Y-111666090D01*
X56029928Y-111833177D01*
X56093734Y-111987600D01*
X56211779Y-112105851D01*
X56366090Y-112169927D01*
X56533177Y-112170072D01*
X56687600Y-112106266D01*
X56805851Y-111988221D01*
X56869927Y-111833910D01*
X56869972Y-111782576D01*
X58282548Y-110370000D01*
X59061429Y-110370000D01*
X59036594Y-110386594D01*
X59036594Y-110386594D01*
G37*
X59036594Y-110386594D02*
X56961594Y-112461594D01*
X56827195Y-112662736D01*
X56780000Y-112900000D01*
X56780000Y-113198339D01*
X56779892Y-113322785D01*
X56874083Y-113550743D01*
X57048339Y-113725304D01*
X57276133Y-113819893D01*
X57522785Y-113820108D01*
X57750743Y-113725917D01*
X57925304Y-113551661D01*
X58019893Y-113323867D01*
X58020039Y-113156773D01*
X59731812Y-111445000D01*
X60211132Y-111445000D01*
X60094149Y-111561779D01*
X60030073Y-111716090D01*
X60029928Y-111883177D01*
X60093734Y-112037600D01*
X60211779Y-112155851D01*
X60366090Y-112219927D01*
X60533177Y-112220072D01*
X60687600Y-112156266D01*
X60805851Y-112038221D01*
X60869927Y-111883910D01*
X60870072Y-111716823D01*
X60806266Y-111562400D01*
X60689071Y-111445000D01*
X61555000Y-111445000D01*
X61555000Y-111724211D01*
X61508910Y-111705073D01*
X61341823Y-111704928D01*
X61187400Y-111768734D01*
X61069149Y-111886779D01*
X61005073Y-112041090D01*
X61004928Y-112208177D01*
X61068734Y-112362600D01*
X61156031Y-112450049D01*
X61099951Y-112506031D01*
X61013221Y-112419149D01*
X60858910Y-112355073D01*
X60691823Y-112354928D01*
X60537400Y-112418734D01*
X60419149Y-112536779D01*
X60355073Y-112691090D01*
X60355020Y-112752483D01*
X59970017Y-112367480D01*
X59970061Y-112316823D01*
X59906255Y-112162400D01*
X59788210Y-112044149D01*
X59633899Y-111980073D01*
X59466812Y-111979928D01*
X59312389Y-112043734D01*
X59194138Y-112161779D01*
X59130062Y-112316090D01*
X59129917Y-112483177D01*
X59193723Y-112637600D01*
X59311768Y-112755851D01*
X59466079Y-112819927D01*
X59517413Y-112819972D01*
X60173726Y-113476285D01*
X60277541Y-113545652D01*
X60400000Y-113570011D01*
X61680477Y-113570011D01*
X61718734Y-113662600D01*
X61806031Y-113750049D01*
X61801071Y-113755000D01*
X60923550Y-113755000D01*
X60892275Y-113723725D01*
X60887659Y-113720641D01*
X60788460Y-113654358D01*
X60666001Y-113629999D01*
X60249969Y-113629999D01*
X60127510Y-113654358D01*
X60028311Y-113720641D01*
X60023695Y-113723725D01*
X59867451Y-113879969D01*
X55457516Y-113879969D01*
X54210724Y-112633177D01*
X54479928Y-112633177D01*
X54543734Y-112787600D01*
X54661779Y-112905851D01*
X54816090Y-112969927D01*
X54983177Y-112970072D01*
X55137600Y-112906266D01*
X55255851Y-112788221D01*
X55319927Y-112633910D01*
X55320072Y-112466823D01*
X55256266Y-112312400D01*
X55138221Y-112194149D01*
X54983910Y-112130073D01*
X54816823Y-112129928D01*
X54662400Y-112193734D01*
X54544149Y-112311779D01*
X54480073Y-112466090D01*
X54479928Y-112633177D01*
X54210724Y-112633177D01*
X54020001Y-112442454D01*
X54020001Y-111883999D01*
X53995642Y-111761540D01*
X53926275Y-111657725D01*
X53888539Y-111619989D01*
X56049216Y-111619989D01*
X56030073Y-111666090D01*
X56029928Y-111833177D01*
X56093734Y-111987600D01*
X56211779Y-112105851D01*
X56366090Y-112169927D01*
X56533177Y-112170072D01*
X56687600Y-112106266D01*
X56805851Y-111988221D01*
X56869927Y-111833910D01*
X56869972Y-111782576D01*
X58282548Y-110370000D01*
X59061429Y-110370000D01*
X59036594Y-110386594D01*
G36*
X73130073Y-111016090D02*
X73129928Y-111183177D01*
X73193734Y-111337600D01*
X73311779Y-111455851D01*
X73466090Y-111519927D01*
X73633177Y-111520072D01*
X73780000Y-111459406D01*
X73780000Y-112040735D01*
X73633910Y-111980073D01*
X73466823Y-111979928D01*
X73312400Y-112043734D01*
X73276071Y-112080000D01*
X73100000Y-112080000D01*
X72977541Y-112104359D01*
X72891606Y-112161779D01*
X72873726Y-112173726D01*
X71367472Y-113679980D01*
X71293009Y-113679980D01*
X71330417Y-113623995D01*
X71370000Y-113425000D01*
X71330417Y-113226005D01*
X71217696Y-113057304D01*
X71048995Y-112944583D01*
X70850000Y-112905000D01*
X69440391Y-112905000D01*
X69095000Y-112559608D01*
X69095000Y-112125000D01*
X69055417Y-111926005D01*
X68984588Y-111820000D01*
X69117452Y-111820000D01*
X69454972Y-112157521D01*
X69454928Y-112208177D01*
X69518734Y-112362600D01*
X69636779Y-112480851D01*
X69791090Y-112544927D01*
X69958177Y-112545072D01*
X70112600Y-112481266D01*
X70230851Y-112363221D01*
X70294927Y-112208910D01*
X70295072Y-112041823D01*
X70231266Y-111887400D01*
X70113221Y-111769149D01*
X69958910Y-111705073D01*
X69907577Y-111705028D01*
X69476274Y-111273726D01*
X69421908Y-111237400D01*
X69372459Y-111204359D01*
X69275350Y-111185042D01*
X69483373Y-110977019D01*
X69518734Y-111062600D01*
X69636779Y-111180851D01*
X69791090Y-111244927D01*
X69958177Y-111245072D01*
X70112600Y-111181266D01*
X70148929Y-111145000D01*
X70679961Y-111145000D01*
X70679928Y-111183177D01*
X70743734Y-111337600D01*
X70861779Y-111455851D01*
X71016090Y-111519927D01*
X71183177Y-111520072D01*
X71337600Y-111456266D01*
X71455851Y-111338221D01*
X71519927Y-111183910D01*
X71520072Y-111016823D01*
X71480066Y-110920000D01*
X73169973Y-110920000D01*
X73130073Y-111016090D01*
X73130073Y-111016090D01*
G37*
X73130073Y-111016090D02*
X73129928Y-111183177D01*
X73193734Y-111337600D01*
X73311779Y-111455851D01*
X73466090Y-111519927D01*
X73633177Y-111520072D01*
X73780000Y-111459406D01*
X73780000Y-112040735D01*
X73633910Y-111980073D01*
X73466823Y-111979928D01*
X73312400Y-112043734D01*
X73276071Y-112080000D01*
X73100000Y-112080000D01*
X72977541Y-112104359D01*
X72891606Y-112161779D01*
X72873726Y-112173726D01*
X71367472Y-113679980D01*
X71293009Y-113679980D01*
X71330417Y-113623995D01*
X71370000Y-113425000D01*
X71330417Y-113226005D01*
X71217696Y-113057304D01*
X71048995Y-112944583D01*
X70850000Y-112905000D01*
X69440391Y-112905000D01*
X69095000Y-112559608D01*
X69095000Y-112125000D01*
X69055417Y-111926005D01*
X68984588Y-111820000D01*
X69117452Y-111820000D01*
X69454972Y-112157521D01*
X69454928Y-112208177D01*
X69518734Y-112362600D01*
X69636779Y-112480851D01*
X69791090Y-112544927D01*
X69958177Y-112545072D01*
X70112600Y-112481266D01*
X70230851Y-112363221D01*
X70294927Y-112208910D01*
X70295072Y-112041823D01*
X70231266Y-111887400D01*
X70113221Y-111769149D01*
X69958910Y-111705073D01*
X69907577Y-111705028D01*
X69476274Y-111273726D01*
X69421908Y-111237400D01*
X69372459Y-111204359D01*
X69275350Y-111185042D01*
X69483373Y-110977019D01*
X69518734Y-111062600D01*
X69636779Y-111180851D01*
X69791090Y-111244927D01*
X69958177Y-111245072D01*
X70112600Y-111181266D01*
X70148929Y-111145000D01*
X70679961Y-111145000D01*
X70679928Y-111183177D01*
X70743734Y-111337600D01*
X70861779Y-111455851D01*
X71016090Y-111519927D01*
X71183177Y-111520072D01*
X71337600Y-111456266D01*
X71455851Y-111338221D01*
X71519927Y-111183910D01*
X71520072Y-111016823D01*
X71480066Y-110920000D01*
X73169973Y-110920000D01*
X73130073Y-111016090D01*
G36*
X61836779Y-109880851D02*
X61991090Y-109944927D01*
X62051721Y-109944980D01*
X62127541Y-109995641D01*
X62250000Y-110020000D01*
X67367452Y-110020000D01*
X67580000Y-110232548D01*
X67580000Y-110955994D01*
X67575000Y-110954999D01*
X67574995Y-110955000D01*
X64240391Y-110955000D01*
X63742696Y-110457304D01*
X63573995Y-110344583D01*
X63375000Y-110304999D01*
X63374995Y-110305000D01*
X62391292Y-110305000D01*
X62312264Y-110252195D01*
X62075000Y-110205000D01*
X61147548Y-110205000D01*
X61407563Y-109944985D01*
X61508177Y-109945072D01*
X61662600Y-109881266D01*
X61750049Y-109793969D01*
X61836779Y-109880851D01*
X61836779Y-109880851D01*
G37*
X61836779Y-109880851D02*
X61991090Y-109944927D01*
X62051721Y-109944980D01*
X62127541Y-109995641D01*
X62250000Y-110020000D01*
X67367452Y-110020000D01*
X67580000Y-110232548D01*
X67580000Y-110955994D01*
X67575000Y-110954999D01*
X67574995Y-110955000D01*
X64240391Y-110955000D01*
X63742696Y-110457304D01*
X63573995Y-110344583D01*
X63375000Y-110304999D01*
X63374995Y-110305000D01*
X62391292Y-110305000D01*
X62312264Y-110252195D01*
X62075000Y-110205000D01*
X61147548Y-110205000D01*
X61407563Y-109944985D01*
X61508177Y-109945072D01*
X61662600Y-109881266D01*
X61750049Y-109793969D01*
X61836779Y-109880851D01*
G36*
X68219149Y-107986779D02*
X68155073Y-108141090D01*
X68154928Y-108308177D01*
X68218734Y-108462600D01*
X68306031Y-108550049D01*
X68219149Y-108636779D01*
X68155073Y-108791090D01*
X68154928Y-108958177D01*
X68218734Y-109112600D01*
X68336779Y-109230851D01*
X68491090Y-109294927D01*
X68658177Y-109295072D01*
X68812600Y-109231266D01*
X68930851Y-109113221D01*
X68994927Y-108958910D01*
X68995072Y-108791823D01*
X68931266Y-108637400D01*
X68843969Y-108549951D01*
X68930851Y-108463221D01*
X68983612Y-108336160D01*
X69073725Y-108426274D01*
X69129021Y-108463221D01*
X69177541Y-108495641D01*
X69300000Y-108520000D01*
X70267452Y-108520000D01*
X70679972Y-108932521D01*
X70679928Y-108983177D01*
X70743734Y-109137600D01*
X70861779Y-109255851D01*
X71016090Y-109319927D01*
X71183177Y-109320072D01*
X71280000Y-109280066D01*
X71280000Y-109480000D01*
X70700000Y-109480000D01*
X70501004Y-109519583D01*
X70446725Y-109555851D01*
X70332304Y-109632304D01*
X70332302Y-109632307D01*
X70309609Y-109655000D01*
X69550005Y-109655000D01*
X69550000Y-109654999D01*
X69351005Y-109694583D01*
X69182304Y-109807304D01*
X69182302Y-109807307D01*
X68684608Y-110305000D01*
X68575000Y-110305000D01*
X68376005Y-110344583D01*
X68220000Y-110448821D01*
X68220000Y-110100000D01*
X68195641Y-109977541D01*
X68126274Y-109873726D01*
X67726274Y-109473726D01*
X67720588Y-109469927D01*
X67622459Y-109404359D01*
X67500000Y-109380000D01*
X66572548Y-109380000D01*
X67957520Y-107995028D01*
X68008177Y-107995072D01*
X68162600Y-107931266D01*
X68198929Y-107895000D01*
X68311088Y-107895000D01*
X68219149Y-107986779D01*
X68219149Y-107986779D01*
G37*
X68219149Y-107986779D02*
X68155073Y-108141090D01*
X68154928Y-108308177D01*
X68218734Y-108462600D01*
X68306031Y-108550049D01*
X68219149Y-108636779D01*
X68155073Y-108791090D01*
X68154928Y-108958177D01*
X68218734Y-109112600D01*
X68336779Y-109230851D01*
X68491090Y-109294927D01*
X68658177Y-109295072D01*
X68812600Y-109231266D01*
X68930851Y-109113221D01*
X68994927Y-108958910D01*
X68995072Y-108791823D01*
X68931266Y-108637400D01*
X68843969Y-108549951D01*
X68930851Y-108463221D01*
X68983612Y-108336160D01*
X69073725Y-108426274D01*
X69129021Y-108463221D01*
X69177541Y-108495641D01*
X69300000Y-108520000D01*
X70267452Y-108520000D01*
X70679972Y-108932521D01*
X70679928Y-108983177D01*
X70743734Y-109137600D01*
X70861779Y-109255851D01*
X71016090Y-109319927D01*
X71183177Y-109320072D01*
X71280000Y-109280066D01*
X71280000Y-109480000D01*
X70700000Y-109480000D01*
X70501004Y-109519583D01*
X70446725Y-109555851D01*
X70332304Y-109632304D01*
X70332302Y-109632307D01*
X70309609Y-109655000D01*
X69550005Y-109655000D01*
X69550000Y-109654999D01*
X69351005Y-109694583D01*
X69182304Y-109807304D01*
X69182302Y-109807307D01*
X68684608Y-110305000D01*
X68575000Y-110305000D01*
X68376005Y-110344583D01*
X68220000Y-110448821D01*
X68220000Y-110100000D01*
X68195641Y-109977541D01*
X68126274Y-109873726D01*
X67726274Y-109473726D01*
X67720588Y-109469927D01*
X67622459Y-109404359D01*
X67500000Y-109380000D01*
X66572548Y-109380000D01*
X67957520Y-107995028D01*
X68008177Y-107995072D01*
X68162600Y-107931266D01*
X68198929Y-107895000D01*
X68311088Y-107895000D01*
X68219149Y-107986779D01*
G36*
X59780073Y-108966090D02*
X59779928Y-109133177D01*
X59836353Y-109269736D01*
X59744149Y-109361779D01*
X59680073Y-109516090D01*
X59679928Y-109683177D01*
X59699275Y-109730000D01*
X58427560Y-109730000D01*
X59237560Y-108920000D01*
X59799211Y-108920000D01*
X59780073Y-108966090D01*
X59780073Y-108966090D01*
G37*
X59780073Y-108966090D02*
X59779928Y-109133177D01*
X59836353Y-109269736D01*
X59744149Y-109361779D01*
X59680073Y-109516090D01*
X59679928Y-109683177D01*
X59699275Y-109730000D01*
X58427560Y-109730000D01*
X59237560Y-108920000D01*
X59799211Y-108920000D01*
X59780073Y-108966090D01*
M02*
