G04 #@! TF.FileFunction,Legend,Top*
%FSLAX46Y46*%
G04 Gerber Fmt 4.6, Leading zero omitted, Abs format (unit mm)*
G04 Created by KiCad (PCBNEW 4.0.2+dfsg1-stable) date Di 23 Mai 2017 03:16:38 CEST*
%MOMM*%
G01*
G04 APERTURE LIST*
%ADD10C,0.100000*%
%ADD11C,0.150000*%
%ADD12C,0.200000*%
G04 APERTURE END LIST*
D10*
D11*
X76327000Y-106680000D02*
X73850500Y-106680000D01*
X76327000Y-101600000D02*
X73850500Y-101600000D01*
X76327000Y-96520000D02*
X73850500Y-96520000D01*
D12*
X57600000Y-124500000D02*
X74400000Y-124500000D01*
X74400000Y-120900000D02*
X74400000Y-124500000D01*
X57600000Y-120900000D02*
X57600000Y-124500000D01*
X72000000Y-120900000D02*
X74400000Y-120900000D01*
X57600000Y-120900000D02*
X60000000Y-120900000D01*
X72650000Y-121800000D02*
X72650000Y-124500000D01*
X59950000Y-124000000D02*
X60150000Y-124500000D01*
X59950000Y-124000000D02*
X59750000Y-124500000D01*
X59950000Y-124000000D02*
X59950000Y-124500000D01*
X59950000Y-124000000D02*
X60300000Y-124500000D01*
X59600000Y-124500000D02*
X59950000Y-124000000D01*
X59350000Y-121800000D02*
X59350000Y-123200000D01*
X59350000Y-124500000D02*
X59350000Y-123200000D01*
X55300000Y-123500000D02*
X55400000Y-123500000D01*
X55400000Y-123500000D02*
X55400000Y-123400000D01*
X48200000Y-123400000D02*
X48200000Y-123500000D01*
X48200000Y-123500000D02*
X48300000Y-123500000D01*
X48200000Y-116400000D02*
X48200000Y-116300000D01*
X48200000Y-116300000D02*
X48300000Y-116300000D01*
X55400000Y-116400000D02*
X55400000Y-116300000D01*
X55400000Y-116300000D02*
X55300000Y-116300000D01*
X48300000Y-123500000D02*
X55300000Y-123500000D01*
X55400000Y-123400000D02*
X55400000Y-116400000D01*
X55300000Y-116300000D02*
X48300000Y-116300000D01*
X48200000Y-116400000D02*
X48200000Y-123400000D01*
D11*
X66250240Y-97999160D02*
X66250240Y-97950900D01*
X65549200Y-95200180D02*
X66250240Y-95200180D01*
X66250240Y-95200180D02*
X66250240Y-95449100D01*
X66250240Y-97999160D02*
X66250240Y-98199820D01*
X66250240Y-98199820D02*
X65549200Y-98199820D01*
D10*
X73600000Y-115500000D02*
X71600000Y-115500000D01*
X71600000Y-115500000D02*
X71600000Y-114700000D01*
X71600000Y-114700000D02*
X73600000Y-114700000D01*
X73600000Y-114700000D02*
X73600000Y-115500000D01*
X55350000Y-99000000D02*
X53750000Y-99000000D01*
X53750000Y-99000000D02*
X53750000Y-98100000D01*
X53750000Y-98100000D02*
X55350000Y-98100000D01*
X55350000Y-98100000D02*
X55350000Y-99000000D01*
D11*
X59350000Y-96600000D02*
X57950000Y-96600000D01*
X57950000Y-95000000D02*
X59350000Y-95000000D01*
X57950000Y-95800000D02*
X58650000Y-96600000D01*
X58650000Y-95000000D02*
X57950000Y-95800000D01*
X58650000Y-96600000D02*
X58650000Y-95000000D01*
X57950000Y-95000000D02*
X57950000Y-96600000D01*
X56350000Y-97200000D02*
X60950000Y-97200000D01*
X60950000Y-94400000D02*
X56350000Y-94400000D01*
X60950000Y-94700000D02*
X60950000Y-94400000D01*
X60950000Y-97200000D02*
X60950000Y-96900000D01*
X56350000Y-94400000D02*
X56350000Y-94700000D01*
X56350000Y-97200000D02*
X56350000Y-96900000D01*
D10*
X63850000Y-99300000D02*
X62250000Y-99300000D01*
X62250000Y-99300000D02*
X62250000Y-98400000D01*
X62250000Y-98400000D02*
X63850000Y-98400000D01*
X63850000Y-98400000D02*
X63850000Y-99300000D01*
D11*
X71725000Y-99675000D02*
X71725000Y-100175000D01*
X68475000Y-102925000D02*
X68475000Y-102425000D01*
X71725000Y-102925000D02*
X71725000Y-102425000D01*
X68475000Y-99675000D02*
X68975000Y-99675000D01*
X68475000Y-102925000D02*
X68975000Y-102925000D01*
X71725000Y-102925000D02*
X71225000Y-102925000D01*
X71725000Y-99675000D02*
X71225000Y-99675000D01*
D10*
X67800000Y-100600000D02*
X67800000Y-102600000D01*
X67800000Y-102600000D02*
X67000000Y-102600000D01*
X67000000Y-102600000D02*
X67000000Y-100600000D01*
X67000000Y-100600000D02*
X67800000Y-100600000D01*
D11*
X55000000Y-106800000D02*
X55000000Y-106200000D01*
X55300000Y-106800000D02*
X55000000Y-106800000D01*
X57100000Y-106800000D02*
X57100000Y-107800000D01*
X55300000Y-106800000D02*
X55300000Y-107800000D01*
X56300000Y-108400000D02*
X56100000Y-108400000D01*
X56100000Y-106200000D02*
X56300000Y-106200000D01*
D10*
X71600000Y-119950000D02*
X73200000Y-119950000D01*
X73200000Y-119950000D02*
X73200000Y-116550000D01*
X73200000Y-116550000D02*
X71600000Y-116550000D01*
X71600000Y-116550000D02*
X71600000Y-119950000D01*
X57350000Y-99700000D02*
X57350000Y-98100000D01*
X57350000Y-98100000D02*
X58250000Y-98100000D01*
X58250000Y-98100000D02*
X58250000Y-99700000D01*
X58250000Y-99700000D02*
X57350000Y-99700000D01*
D11*
X54400000Y-111500000D02*
X53625000Y-111500000D01*
X50100000Y-107200000D02*
X50875000Y-107200000D01*
X50100000Y-111500000D02*
X50875000Y-111500000D01*
X54400000Y-107200000D02*
X54400000Y-107975000D01*
X50100000Y-107200000D02*
X50100000Y-107975000D01*
X50100000Y-111500000D02*
X50100000Y-110725000D01*
X54400000Y-111500000D02*
X54400000Y-110725000D01*
D10*
X52250000Y-115700000D02*
X52250000Y-113700000D01*
X52250000Y-113700000D02*
X53050000Y-113700000D01*
X53050000Y-113700000D02*
X53050000Y-115700000D01*
X53050000Y-115700000D02*
X52250000Y-115700000D01*
X54700000Y-106700000D02*
X53100000Y-106700000D01*
X53100000Y-106700000D02*
X53100000Y-105800000D01*
X53100000Y-105800000D02*
X54700000Y-105800000D01*
X54700000Y-105800000D02*
X54700000Y-106700000D01*
X73200000Y-94350000D02*
X73200000Y-96650000D01*
X73200000Y-96650000D02*
X72000000Y-96650000D01*
X72000000Y-96650000D02*
X72000000Y-94350000D01*
X72000000Y-94350000D02*
X73200000Y-94350000D01*
X56450000Y-114900000D02*
X58450000Y-114900000D01*
X58450000Y-114900000D02*
X58450000Y-115700000D01*
X58450000Y-115700000D02*
X56450000Y-115700000D01*
X56450000Y-115700000D02*
X56450000Y-114900000D01*
D11*
X59725000Y-104425000D02*
X59725000Y-104225000D01*
X55075000Y-104425000D02*
X55075000Y-104225000D01*
X55075000Y-101175000D02*
X55075000Y-101375000D01*
X59725000Y-101175000D02*
X59725000Y-101375000D01*
X59725000Y-104425000D02*
X55075000Y-104425000D01*
X59725000Y-101175000D02*
X55075000Y-101175000D01*
X59725000Y-104225000D02*
X61075000Y-104225000D01*
D10*
X55950000Y-109000000D02*
X57950000Y-109000000D01*
X57950000Y-109000000D02*
X57950000Y-109800000D01*
X57950000Y-109800000D02*
X55950000Y-109800000D01*
X55950000Y-109800000D02*
X55950000Y-109000000D01*
D11*
X75620711Y-117725000D02*
G75*
G03X75620711Y-117725000I-70711J0D01*
G01*
D12*
X73650000Y-117500000D02*
X73650000Y-120000000D01*
X73650000Y-120000000D02*
X76450000Y-120000000D01*
X76450000Y-120000000D02*
X76450000Y-117500000D01*
X76450000Y-117500000D02*
X76450000Y-117400000D01*
X76450000Y-117400000D02*
X73650000Y-117400000D01*
X73650000Y-117400000D02*
X73650000Y-117500000D01*
D10*
X57600000Y-107600000D02*
X57600000Y-106000000D01*
X57600000Y-106000000D02*
X58500000Y-106000000D01*
X58500000Y-106000000D02*
X58500000Y-107600000D01*
X58500000Y-107600000D02*
X57600000Y-107600000D01*
X71600000Y-93250000D02*
X73200000Y-93250000D01*
X73200000Y-93250000D02*
X73200000Y-94150000D01*
X73200000Y-94150000D02*
X71600000Y-94150000D01*
X71600000Y-94150000D02*
X71600000Y-93250000D01*
X69400000Y-93300000D02*
X71400000Y-93300000D01*
X71400000Y-93300000D02*
X71400000Y-94100000D01*
X71400000Y-94100000D02*
X69400000Y-94100000D01*
X69400000Y-94100000D02*
X69400000Y-93300000D01*
X53750000Y-99200000D02*
X53750000Y-100800000D01*
X53750000Y-100800000D02*
X57150000Y-100800000D01*
X57150000Y-100800000D02*
X57150000Y-99200000D01*
X57150000Y-99200000D02*
X53750000Y-99200000D01*
D11*
X70725000Y-95550000D02*
X68275000Y-95550000D01*
X71450000Y-98850000D02*
X68275000Y-98850000D01*
D10*
X57350000Y-100000000D02*
X59350000Y-100000000D01*
X59350000Y-100000000D02*
X59350000Y-100800000D01*
X59350000Y-100800000D02*
X57350000Y-100800000D01*
X57350000Y-100800000D02*
X57350000Y-100000000D01*
X58450000Y-99700000D02*
X58450000Y-98100000D01*
X58450000Y-98100000D02*
X59350000Y-98100000D01*
X59350000Y-98100000D02*
X59350000Y-99700000D01*
X59350000Y-99700000D02*
X58450000Y-99700000D01*
X49500000Y-108800000D02*
X47500000Y-108800000D01*
X47500000Y-108800000D02*
X47500000Y-108000000D01*
X47500000Y-108000000D02*
X49500000Y-108000000D01*
X49500000Y-108000000D02*
X49500000Y-108800000D01*
X67700000Y-119700000D02*
X65700000Y-119700000D01*
X65700000Y-119700000D02*
X65700000Y-118900000D01*
X65700000Y-118900000D02*
X67700000Y-118900000D01*
X67700000Y-118900000D02*
X67700000Y-119700000D01*
X49650000Y-111900000D02*
X49650000Y-113500000D01*
X49650000Y-113500000D02*
X48750000Y-113500000D01*
X48750000Y-113500000D02*
X48750000Y-111900000D01*
X48750000Y-111900000D02*
X49650000Y-111900000D01*
X68600000Y-105600000D02*
X67000000Y-105600000D01*
X67000000Y-105600000D02*
X67000000Y-104700000D01*
X67000000Y-104700000D02*
X68600000Y-104700000D01*
X68600000Y-104700000D02*
X68600000Y-105600000D01*
X57600000Y-104750000D02*
X59600000Y-104750000D01*
X59600000Y-104750000D02*
X59600000Y-105550000D01*
X59600000Y-105550000D02*
X57600000Y-105550000D01*
X57600000Y-105550000D02*
X57600000Y-104750000D01*
X48550000Y-114100000D02*
X48550000Y-115700000D01*
X48550000Y-115700000D02*
X47650000Y-115700000D01*
X47650000Y-115700000D02*
X47650000Y-114100000D01*
X47650000Y-114100000D02*
X48550000Y-114100000D01*
X50750000Y-114100000D02*
X50750000Y-115700000D01*
X50750000Y-115700000D02*
X49850000Y-115700000D01*
X49850000Y-115700000D02*
X49850000Y-114100000D01*
X49850000Y-114100000D02*
X50750000Y-114100000D01*
X48550000Y-111900000D02*
X48550000Y-113500000D01*
X48550000Y-113500000D02*
X47650000Y-113500000D01*
X47650000Y-113500000D02*
X47650000Y-111900000D01*
X47650000Y-111900000D02*
X48550000Y-111900000D01*
D11*
X69150000Y-93325000D02*
X69150000Y-91875000D01*
X66950000Y-94050000D02*
X66950000Y-91875000D01*
D10*
X55750000Y-97900000D02*
X53750000Y-97900000D01*
X53750000Y-97900000D02*
X53750000Y-97100000D01*
X53750000Y-97100000D02*
X55750000Y-97100000D01*
X55750000Y-97100000D02*
X55750000Y-97900000D01*
X69800000Y-91300000D02*
X69800000Y-92900000D01*
X69800000Y-92900000D02*
X73200000Y-92900000D01*
X73200000Y-92900000D02*
X73200000Y-91300000D01*
X73200000Y-91300000D02*
X69800000Y-91300000D01*
X62150000Y-98200000D02*
X63750000Y-98200000D01*
X63750000Y-98200000D02*
X63750000Y-94800000D01*
X63750000Y-94800000D02*
X62150000Y-94800000D01*
X62150000Y-94800000D02*
X62150000Y-98200000D01*
X73200000Y-100200000D02*
X73200000Y-102200000D01*
X73200000Y-102200000D02*
X72400000Y-102200000D01*
X72400000Y-102200000D02*
X72400000Y-100200000D01*
X72400000Y-100200000D02*
X73200000Y-100200000D01*
X69600000Y-104400000D02*
X67600000Y-104400000D01*
X67600000Y-104400000D02*
X67600000Y-103600000D01*
X67600000Y-103600000D02*
X69600000Y-103600000D01*
X69600000Y-103600000D02*
X69600000Y-104400000D01*
X70200000Y-103600000D02*
X72200000Y-103600000D01*
X72200000Y-103600000D02*
X72200000Y-104400000D01*
X72200000Y-104400000D02*
X70200000Y-104400000D01*
X70200000Y-104400000D02*
X70200000Y-103600000D01*
X73200000Y-102400000D02*
X73200000Y-104400000D01*
X73200000Y-104400000D02*
X72400000Y-104400000D01*
X72400000Y-104400000D02*
X72400000Y-102400000D01*
X72400000Y-102400000D02*
X73200000Y-102400000D01*
X49500000Y-107800000D02*
X47500000Y-107800000D01*
X47500000Y-107800000D02*
X47500000Y-107000000D01*
X47500000Y-107000000D02*
X49500000Y-107000000D01*
X49500000Y-107000000D02*
X49500000Y-107800000D01*
X49500000Y-109800000D02*
X47500000Y-109800000D01*
X47500000Y-109800000D02*
X47500000Y-109000000D01*
X47500000Y-109000000D02*
X49500000Y-109000000D01*
X49500000Y-109000000D02*
X49500000Y-109800000D01*
X55800000Y-109000000D02*
X55800000Y-111000000D01*
X55800000Y-111000000D02*
X55000000Y-111000000D01*
X55000000Y-111000000D02*
X55000000Y-109000000D01*
X55000000Y-109000000D02*
X55800000Y-109000000D01*
X49500000Y-104400000D02*
X47500000Y-104400000D01*
X47500000Y-104400000D02*
X47500000Y-103600000D01*
X47500000Y-103600000D02*
X49500000Y-103600000D01*
X49500000Y-103600000D02*
X49500000Y-104400000D01*
X52150000Y-104600000D02*
X52150000Y-106600000D01*
X52150000Y-106600000D02*
X51350000Y-106600000D01*
X51350000Y-106600000D02*
X51350000Y-104600000D01*
X51350000Y-104600000D02*
X52150000Y-104600000D01*
X53250000Y-115700000D02*
X53250000Y-113700000D01*
X53250000Y-113700000D02*
X54050000Y-113700000D01*
X54050000Y-113700000D02*
X54050000Y-115700000D01*
X54050000Y-115700000D02*
X53250000Y-115700000D01*
X67900000Y-118900000D02*
X69900000Y-118900000D01*
X69900000Y-118900000D02*
X69900000Y-119700000D01*
X69900000Y-119700000D02*
X67900000Y-119700000D01*
X67900000Y-119700000D02*
X67900000Y-118900000D01*
X73600000Y-108900000D02*
X71600000Y-108900000D01*
X71600000Y-108900000D02*
X71600000Y-108100000D01*
X71600000Y-108100000D02*
X73600000Y-108100000D01*
X73600000Y-108100000D02*
X73600000Y-108900000D01*
X58500000Y-118900000D02*
X60500000Y-118900000D01*
X60500000Y-118900000D02*
X60500000Y-119700000D01*
X60500000Y-119700000D02*
X58500000Y-119700000D01*
X58500000Y-119700000D02*
X58500000Y-118900000D01*
X73600000Y-107900000D02*
X71600000Y-107900000D01*
X71600000Y-107900000D02*
X71600000Y-107100000D01*
X71600000Y-107100000D02*
X73600000Y-107100000D01*
X73600000Y-107100000D02*
X73600000Y-107900000D01*
X60200000Y-104750000D02*
X62200000Y-104750000D01*
X62200000Y-104750000D02*
X62200000Y-105550000D01*
X62200000Y-105550000D02*
X60200000Y-105550000D01*
X60200000Y-105550000D02*
X60200000Y-104750000D01*
X56000000Y-115900000D02*
X58000000Y-115900000D01*
X58000000Y-115900000D02*
X58000000Y-116700000D01*
X58000000Y-116700000D02*
X56000000Y-116700000D01*
X56000000Y-116700000D02*
X56000000Y-115900000D01*
X70600000Y-105700000D02*
X70600000Y-104600000D01*
X73200000Y-104600000D02*
X73200000Y-105700000D01*
X73200000Y-105700000D02*
X70600000Y-105700000D01*
X70600000Y-104600000D02*
X73200000Y-104600000D01*
D11*
X72100000Y-105150000D02*
X71650000Y-105150000D01*
X72150000Y-105400000D02*
X72150000Y-104900000D01*
X72150000Y-105150000D02*
X71900000Y-105400000D01*
X71900000Y-105400000D02*
X71900000Y-104900000D01*
X71900000Y-104900000D02*
X72150000Y-105150000D01*
D10*
X66800000Y-104600000D02*
X66800000Y-105700000D01*
X64200000Y-105700000D02*
X64200000Y-104600000D01*
X64200000Y-104600000D02*
X66800000Y-104600000D01*
X66800000Y-105700000D02*
X64200000Y-105700000D01*
D11*
X65300000Y-105150000D02*
X65750000Y-105150000D01*
X65250000Y-104900000D02*
X65250000Y-105400000D01*
X65250000Y-105150000D02*
X65500000Y-104900000D01*
X65500000Y-104900000D02*
X65500000Y-105400000D01*
X65500000Y-105400000D02*
X65250000Y-105150000D01*
D10*
X52050000Y-115700000D02*
X50950000Y-115700000D01*
X50950000Y-113100000D02*
X52050000Y-113100000D01*
X52050000Y-113100000D02*
X52050000Y-115700000D01*
X50950000Y-115700000D02*
X50950000Y-113100000D01*
D11*
X51500000Y-114200000D02*
X51500000Y-114650000D01*
X51750000Y-114150000D02*
X51250000Y-114150000D01*
X51500000Y-114150000D02*
X51750000Y-114400000D01*
X51750000Y-114400000D02*
X51250000Y-114400000D01*
X51250000Y-114400000D02*
X51500000Y-114150000D01*
D10*
X57150000Y-99000000D02*
X55550000Y-99000000D01*
X55550000Y-99000000D02*
X55550000Y-98100000D01*
X55550000Y-98100000D02*
X57150000Y-98100000D01*
X57150000Y-98100000D02*
X57150000Y-99000000D01*
X73600000Y-110100000D02*
X73600000Y-111700000D01*
X73600000Y-111700000D02*
X72700000Y-111700000D01*
X72700000Y-111700000D02*
X72700000Y-110100000D01*
X72700000Y-110100000D02*
X73600000Y-110100000D01*
X71600000Y-111700000D02*
X71600000Y-110100000D01*
X71600000Y-110100000D02*
X72500000Y-110100000D01*
X72500000Y-110100000D02*
X72500000Y-111700000D01*
X72500000Y-111700000D02*
X71600000Y-111700000D01*
X58250000Y-119900000D02*
X56650000Y-119900000D01*
X56650000Y-119900000D02*
X56650000Y-119000000D01*
X56650000Y-119000000D02*
X58250000Y-119000000D01*
X58250000Y-119000000D02*
X58250000Y-119900000D01*
X69200000Y-95250000D02*
X67600000Y-95250000D01*
X67600000Y-95250000D02*
X67600000Y-94350000D01*
X67600000Y-94350000D02*
X69200000Y-94350000D01*
X69200000Y-94350000D02*
X69200000Y-95250000D01*
X72000000Y-99100000D02*
X72000000Y-96800000D01*
X72000000Y-96800000D02*
X73200000Y-96800000D01*
X73200000Y-96800000D02*
X73200000Y-99100000D01*
X73200000Y-99100000D02*
X72000000Y-99100000D01*
X55800000Y-104700000D02*
X57400000Y-104700000D01*
X57400000Y-104700000D02*
X57400000Y-105600000D01*
X57400000Y-105600000D02*
X55800000Y-105600000D01*
X55800000Y-105600000D02*
X55800000Y-104700000D01*
X61200000Y-97400000D02*
X59600000Y-97400000D01*
X59600000Y-97400000D02*
X59600000Y-100800000D01*
X59600000Y-100800000D02*
X61200000Y-100800000D01*
X61200000Y-100800000D02*
X61200000Y-97400000D01*
X66250000Y-99300000D02*
X64650000Y-99300000D01*
X64650000Y-99300000D02*
X64650000Y-98400000D01*
X64650000Y-98400000D02*
X66250000Y-98400000D01*
X66250000Y-98400000D02*
X66250000Y-99300000D01*
X55600000Y-105600000D02*
X54000000Y-105600000D01*
X54000000Y-105600000D02*
X54000000Y-104700000D01*
X54000000Y-104700000D02*
X55600000Y-104700000D01*
X55600000Y-104700000D02*
X55600000Y-105600000D01*
D12*
X66330000Y-94210000D02*
X65940000Y-94600000D01*
X66330000Y-91590000D02*
X65940000Y-91200000D01*
X66330000Y-94210000D02*
X66330000Y-91590000D01*
X63060000Y-91200000D02*
X62670000Y-91590000D01*
X62670000Y-91590000D02*
X62670000Y-94210000D01*
X63060000Y-94600000D02*
X62670000Y-94210000D01*
X65940000Y-94600000D02*
X63060000Y-94600000D01*
X64500000Y-91200000D02*
X65940000Y-91200000D01*
X64500000Y-91200000D02*
X63060000Y-91200000D01*
D10*
X73600000Y-112400000D02*
X73600000Y-114000000D01*
X73600000Y-114000000D02*
X72700000Y-114000000D01*
X72700000Y-114000000D02*
X72700000Y-112400000D01*
X72700000Y-112400000D02*
X73600000Y-112400000D01*
X71600000Y-114000000D02*
X71600000Y-112400000D01*
X71600000Y-112400000D02*
X72500000Y-112400000D01*
X72500000Y-112400000D02*
X72500000Y-114000000D01*
X72500000Y-114000000D02*
X71600000Y-114000000D01*
X56650000Y-117900000D02*
X58250000Y-117900000D01*
X58250000Y-117900000D02*
X58250000Y-118800000D01*
X58250000Y-118800000D02*
X56650000Y-118800000D01*
X56650000Y-118800000D02*
X56650000Y-117900000D01*
X68800000Y-104700000D02*
X70400000Y-104700000D01*
X70400000Y-104700000D02*
X70400000Y-105600000D01*
X70400000Y-105600000D02*
X68800000Y-105600000D01*
X68800000Y-105600000D02*
X68800000Y-104700000D01*
X64000000Y-105600000D02*
X62400000Y-105600000D01*
X62400000Y-105600000D02*
X62400000Y-104700000D01*
X62400000Y-104700000D02*
X64000000Y-104700000D01*
X64000000Y-104700000D02*
X64000000Y-105600000D01*
X71400000Y-95250000D02*
X69800000Y-95250000D01*
X69800000Y-95250000D02*
X69800000Y-94350000D01*
X69800000Y-94350000D02*
X71400000Y-94350000D01*
X71400000Y-94350000D02*
X71400000Y-95250000D01*
X49650000Y-114100000D02*
X49650000Y-115700000D01*
X49650000Y-115700000D02*
X48750000Y-115700000D01*
X48750000Y-115700000D02*
X48750000Y-114100000D01*
X48750000Y-114100000D02*
X49650000Y-114100000D01*
X76550000Y-121300000D02*
X76550000Y-122900000D01*
X76550000Y-122900000D02*
X75650000Y-122900000D01*
X75650000Y-122900000D02*
X75650000Y-121300000D01*
X75650000Y-121300000D02*
X76550000Y-121300000D01*
X48950000Y-100100000D02*
X48950000Y-98100000D01*
X48950000Y-98100000D02*
X49750000Y-98100000D01*
X49750000Y-98100000D02*
X49750000Y-100100000D01*
X49750000Y-100100000D02*
X48950000Y-100100000D01*
X49750000Y-97900000D02*
X47750000Y-97900000D01*
X47750000Y-97900000D02*
X47750000Y-97100000D01*
X47750000Y-97100000D02*
X49750000Y-97100000D01*
X49750000Y-97100000D02*
X49750000Y-97900000D01*
X53150000Y-96500000D02*
X53150000Y-94500000D01*
X53150000Y-94500000D02*
X53950000Y-94500000D01*
X53950000Y-94500000D02*
X53950000Y-96500000D01*
X53950000Y-96500000D02*
X53150000Y-96500000D01*
X47500000Y-104600000D02*
X47500000Y-106200000D01*
X47500000Y-106200000D02*
X50900000Y-106200000D01*
X50900000Y-106200000D02*
X50900000Y-104600000D01*
X50900000Y-104600000D02*
X47500000Y-104600000D01*
X51350000Y-104400000D02*
X52950000Y-104400000D01*
X52950000Y-104400000D02*
X52950000Y-101000000D01*
X52950000Y-101000000D02*
X51350000Y-101000000D01*
X51350000Y-101000000D02*
X51350000Y-104400000D01*
X49950000Y-100800000D02*
X51550000Y-100800000D01*
X51550000Y-100800000D02*
X51550000Y-97400000D01*
X51550000Y-97400000D02*
X49950000Y-97400000D01*
X49950000Y-97400000D02*
X49950000Y-100800000D01*
X51350000Y-97200000D02*
X52950000Y-97200000D01*
X52950000Y-97200000D02*
X52950000Y-93800000D01*
X52950000Y-93800000D02*
X51350000Y-93800000D01*
X51350000Y-93800000D02*
X51350000Y-97200000D01*
X49750000Y-101100000D02*
X47750000Y-101100000D01*
X47750000Y-101100000D02*
X47750000Y-100300000D01*
X47750000Y-100300000D02*
X49750000Y-100300000D01*
X49750000Y-100300000D02*
X49750000Y-101100000D01*
D11*
X56375000Y-112320000D02*
X55225000Y-112320000D01*
X57150000Y-114570000D02*
X55225000Y-114570000D01*
X66336470Y-104354206D02*
X66336470Y-99754206D01*
X61736470Y-104354206D02*
X66336470Y-104354206D01*
X61736470Y-99754206D02*
X61736470Y-104354206D01*
X66336470Y-99754206D02*
X61736470Y-99754206D01*
D10*
X73600000Y-109900000D02*
X71600000Y-109900000D01*
X71600000Y-109900000D02*
X71600000Y-109100000D01*
X71600000Y-109100000D02*
X73600000Y-109100000D01*
X73600000Y-109100000D02*
X73600000Y-109900000D01*
X56000000Y-116900000D02*
X58000000Y-116900000D01*
X58000000Y-116900000D02*
X58000000Y-117700000D01*
X58000000Y-117700000D02*
X56000000Y-117700000D01*
X56000000Y-117700000D02*
X56000000Y-116900000D01*
X54250000Y-114900000D02*
X56250000Y-114900000D01*
X56250000Y-114900000D02*
X56250000Y-115700000D01*
X56250000Y-115700000D02*
X54250000Y-115700000D01*
X54250000Y-115700000D02*
X54250000Y-114900000D01*
D11*
X57950000Y-91800000D02*
X59350000Y-91800000D01*
X59350000Y-93400000D02*
X57950000Y-93400000D01*
X59350000Y-92600000D02*
X58650000Y-91800000D01*
X58650000Y-93400000D02*
X59350000Y-92600000D01*
X58650000Y-91800000D02*
X58650000Y-93400000D01*
X59350000Y-93400000D02*
X59350000Y-91800000D01*
X60950000Y-91200000D02*
X56350000Y-91200000D01*
X56350000Y-94000000D02*
X60950000Y-94000000D01*
X56350000Y-93700000D02*
X56350000Y-94000000D01*
X56350000Y-91200000D02*
X56350000Y-91500000D01*
X60950000Y-94000000D02*
X60950000Y-93700000D01*
X60950000Y-91200000D02*
X60950000Y-91500000D01*
D10*
X71600000Y-105950000D02*
X73200000Y-105950000D01*
X73200000Y-105950000D02*
X73200000Y-106850000D01*
X73200000Y-106850000D02*
X71600000Y-106850000D01*
X71600000Y-106850000D02*
X71600000Y-105950000D01*
D11*
X59825000Y-117475000D02*
X60900000Y-117475000D01*
X59825000Y-107125000D02*
X60900000Y-107125000D01*
X70175000Y-107125000D02*
X69100000Y-107125000D01*
X70175000Y-117475000D02*
X69100000Y-117475000D01*
X59825000Y-117475000D02*
X59825000Y-116400000D01*
X70175000Y-117475000D02*
X70175000Y-116400000D01*
X70175000Y-107125000D02*
X70175000Y-108200000D01*
X59825000Y-107125000D02*
X59825000Y-108200000D01*
X60900000Y-117475000D02*
X60900000Y-118500000D01*
X76370000Y-93970000D02*
X76370000Y-116830000D01*
X76370000Y-116830000D02*
X73830000Y-116830000D01*
X73830000Y-116830000D02*
X73830000Y-93970000D01*
X76650000Y-91150000D02*
X76650000Y-92700000D01*
X76370000Y-93970000D02*
X73830000Y-93970000D01*
X73550000Y-92700000D02*
X73550000Y-91150000D01*
X73550000Y-91150000D02*
X76650000Y-91150000D01*
M02*
