G04 #@! TF.FileFunction,Legend,Bot*
%FSLAX46Y46*%
G04 Gerber Fmt 4.6, Leading zero omitted, Abs format (unit mm)*
G04 Created by KiCad (PCBNEW 4.0.2+dfsg1-stable) date Di 23 Mai 2017 03:16:38 CEST*
%MOMM*%
G01*
G04 APERTURE LIST*
%ADD10C,0.100000*%
%ADD11C,0.200000*%
%ADD12C,0.300000*%
%ADD13C,0.150000*%
G04 APERTURE END LIST*
D10*
D11*
X74138095Y-123200000D02*
X74233333Y-123152381D01*
X74376190Y-123152381D01*
X74519048Y-123200000D01*
X74614286Y-123295238D01*
X74661905Y-123390476D01*
X74709524Y-123580952D01*
X74709524Y-123723810D01*
X74661905Y-123914286D01*
X74614286Y-124009524D01*
X74519048Y-124104762D01*
X74376190Y-124152381D01*
X74280952Y-124152381D01*
X74138095Y-124104762D01*
X74090476Y-124057143D01*
X74090476Y-123723810D01*
X74280952Y-123723810D01*
X73661905Y-124152381D02*
X73661905Y-123152381D01*
X73090476Y-124152381D01*
X73090476Y-123152381D01*
X72614286Y-124152381D02*
X72614286Y-123152381D01*
X72376191Y-123152381D01*
X72233333Y-123200000D01*
X72138095Y-123295238D01*
X72090476Y-123390476D01*
X72042857Y-123580952D01*
X72042857Y-123723810D01*
X72090476Y-123914286D01*
X72138095Y-124009524D01*
X72233333Y-124104762D01*
X72376191Y-124152381D01*
X72614286Y-124152381D01*
X57885714Y-123200000D02*
X57980952Y-123152381D01*
X58123809Y-123152381D01*
X58266667Y-123200000D01*
X58361905Y-123295238D01*
X58409524Y-123390476D01*
X58457143Y-123580952D01*
X58457143Y-123723810D01*
X58409524Y-123914286D01*
X58361905Y-124009524D01*
X58266667Y-124104762D01*
X58123809Y-124152381D01*
X58028571Y-124152381D01*
X57885714Y-124104762D01*
X57838095Y-124057143D01*
X57838095Y-123723810D01*
X58028571Y-123723810D01*
X57409524Y-124152381D02*
X57409524Y-123152381D01*
X56838095Y-124152381D01*
X56838095Y-123152381D01*
X56361905Y-124152381D02*
X56361905Y-123152381D01*
X56123810Y-123152381D01*
X55980952Y-123200000D01*
X55885714Y-123295238D01*
X55838095Y-123390476D01*
X55790476Y-123580952D01*
X55790476Y-123723810D01*
X55838095Y-123914286D01*
X55885714Y-124009524D01*
X55980952Y-124104762D01*
X56123810Y-124152381D01*
X56361905Y-124152381D01*
X57790476Y-117600000D02*
X57885714Y-117552381D01*
X58028571Y-117552381D01*
X58171429Y-117600000D01*
X58266667Y-117695238D01*
X58314286Y-117790476D01*
X58361905Y-117980952D01*
X58361905Y-118123810D01*
X58314286Y-118314286D01*
X58266667Y-118409524D01*
X58171429Y-118504762D01*
X58028571Y-118552381D01*
X57933333Y-118552381D01*
X57790476Y-118504762D01*
X57742857Y-118457143D01*
X57742857Y-118123810D01*
X57933333Y-118123810D01*
X57314286Y-118552381D02*
X57314286Y-117552381D01*
X56933333Y-117552381D01*
X56838095Y-117600000D01*
X56790476Y-117647619D01*
X56742857Y-117742857D01*
X56742857Y-117885714D01*
X56790476Y-117980952D01*
X56838095Y-118028571D01*
X56933333Y-118076190D01*
X57314286Y-118076190D01*
X56361905Y-118504762D02*
X56219048Y-118552381D01*
X55980952Y-118552381D01*
X55885714Y-118504762D01*
X55838095Y-118457143D01*
X55790476Y-118361905D01*
X55790476Y-118266667D01*
X55838095Y-118171429D01*
X55885714Y-118123810D01*
X55980952Y-118076190D01*
X56171429Y-118028571D01*
X56266667Y-117980952D01*
X56314286Y-117933333D01*
X56361905Y-117838095D01*
X56361905Y-117742857D01*
X56314286Y-117647619D01*
X56266667Y-117600000D01*
X56171429Y-117552381D01*
X55933333Y-117552381D01*
X55790476Y-117600000D01*
X59028572Y-119152381D02*
X59028572Y-119961905D01*
X58980953Y-120057143D01*
X58933334Y-120104762D01*
X58838096Y-120152381D01*
X58647619Y-120152381D01*
X58552381Y-120104762D01*
X58504762Y-120057143D01*
X58457143Y-119961905D01*
X58457143Y-119152381D01*
X58028572Y-119866667D02*
X57552381Y-119866667D01*
X58123810Y-120152381D02*
X57790477Y-119152381D01*
X57457143Y-120152381D01*
X56552381Y-120152381D02*
X56885715Y-119676190D01*
X57123810Y-120152381D02*
X57123810Y-119152381D01*
X56742857Y-119152381D01*
X56647619Y-119200000D01*
X56600000Y-119247619D01*
X56552381Y-119342857D01*
X56552381Y-119485714D01*
X56600000Y-119580952D01*
X56647619Y-119628571D01*
X56742857Y-119676190D01*
X57123810Y-119676190D01*
X56266667Y-119152381D02*
X55695238Y-119152381D01*
X55980953Y-120152381D02*
X55980953Y-119152381D01*
X50314285Y-119000000D02*
X50409523Y-118952381D01*
X50552380Y-118952381D01*
X50695238Y-119000000D01*
X50790476Y-119095238D01*
X50838095Y-119190476D01*
X50885714Y-119380952D01*
X50885714Y-119523810D01*
X50838095Y-119714286D01*
X50790476Y-119809524D01*
X50695238Y-119904762D01*
X50552380Y-119952381D01*
X50457142Y-119952381D01*
X50314285Y-119904762D01*
X50266666Y-119857143D01*
X50266666Y-119523810D01*
X50457142Y-119523810D01*
X49838095Y-119952381D02*
X49838095Y-118952381D01*
X49457142Y-118952381D01*
X49361904Y-119000000D01*
X49314285Y-119047619D01*
X49266666Y-119142857D01*
X49266666Y-119285714D01*
X49314285Y-119380952D01*
X49361904Y-119428571D01*
X49457142Y-119476190D01*
X49838095Y-119476190D01*
X48885714Y-119904762D02*
X48742857Y-119952381D01*
X48504761Y-119952381D01*
X48409523Y-119904762D01*
X48361904Y-119857143D01*
X48314285Y-119761905D01*
X48314285Y-119666667D01*
X48361904Y-119571429D01*
X48409523Y-119523810D01*
X48504761Y-119476190D01*
X48695238Y-119428571D01*
X48790476Y-119380952D01*
X48838095Y-119333333D01*
X48885714Y-119238095D01*
X48885714Y-119142857D01*
X48838095Y-119047619D01*
X48790476Y-119000000D01*
X48695238Y-118952381D01*
X48457142Y-118952381D01*
X48314285Y-119000000D01*
X67961905Y-111452381D02*
X67961905Y-110452381D01*
X67628571Y-111166667D01*
X67295238Y-110452381D01*
X67295238Y-111452381D01*
X66390476Y-111452381D02*
X66390476Y-110928571D01*
X66438095Y-110833333D01*
X66533333Y-110785714D01*
X66723810Y-110785714D01*
X66819048Y-110833333D01*
X66390476Y-111404762D02*
X66485714Y-111452381D01*
X66723810Y-111452381D01*
X66819048Y-111404762D01*
X66866667Y-111309524D01*
X66866667Y-111214286D01*
X66819048Y-111119048D01*
X66723810Y-111071429D01*
X66485714Y-111071429D01*
X66390476Y-111023810D01*
X66009524Y-110785714D02*
X65771429Y-111452381D01*
X65533333Y-110785714D02*
X65771429Y-111452381D01*
X65866667Y-111690476D01*
X65914286Y-111738095D01*
X66009524Y-111785714D01*
X68009524Y-112147619D02*
X67961905Y-112100000D01*
X67866667Y-112052381D01*
X67628571Y-112052381D01*
X67533333Y-112100000D01*
X67485714Y-112147619D01*
X67438095Y-112242857D01*
X67438095Y-112338095D01*
X67485714Y-112480952D01*
X68057143Y-113052381D01*
X67438095Y-113052381D01*
X66819048Y-112052381D02*
X66723809Y-112052381D01*
X66628571Y-112100000D01*
X66580952Y-112147619D01*
X66533333Y-112242857D01*
X66485714Y-112433333D01*
X66485714Y-112671429D01*
X66533333Y-112861905D01*
X66580952Y-112957143D01*
X66628571Y-113004762D01*
X66723809Y-113052381D01*
X66819048Y-113052381D01*
X66914286Y-113004762D01*
X66961905Y-112957143D01*
X67009524Y-112861905D01*
X67057143Y-112671429D01*
X67057143Y-112433333D01*
X67009524Y-112242857D01*
X66961905Y-112147619D01*
X66914286Y-112100000D01*
X66819048Y-112052381D01*
X65533333Y-113052381D02*
X66104762Y-113052381D01*
X65819048Y-113052381D02*
X65819048Y-112052381D01*
X65914286Y-112195238D01*
X66009524Y-112290476D01*
X66104762Y-112338095D01*
X65200000Y-112052381D02*
X64533333Y-112052381D01*
X64961905Y-113052381D01*
X76404762Y-117252381D02*
X76071429Y-118252381D01*
X75738095Y-117252381D01*
X74833333Y-118157143D02*
X74880952Y-118204762D01*
X75023809Y-118252381D01*
X75119047Y-118252381D01*
X75261905Y-118204762D01*
X75357143Y-118109524D01*
X75404762Y-118014286D01*
X75452381Y-117823810D01*
X75452381Y-117680952D01*
X75404762Y-117490476D01*
X75357143Y-117395238D01*
X75261905Y-117300000D01*
X75119047Y-117252381D01*
X75023809Y-117252381D01*
X74880952Y-117300000D01*
X74833333Y-117347619D01*
X73833333Y-118157143D02*
X73880952Y-118204762D01*
X74023809Y-118252381D01*
X74119047Y-118252381D01*
X74261905Y-118204762D01*
X74357143Y-118109524D01*
X74404762Y-118014286D01*
X74452381Y-117823810D01*
X74452381Y-117680952D01*
X74404762Y-117490476D01*
X74357143Y-117395238D01*
X74261905Y-117300000D01*
X74119047Y-117252381D01*
X74023809Y-117252381D01*
X73880952Y-117300000D01*
X73833333Y-117347619D01*
D12*
X67742857Y-103778571D02*
X67742857Y-102278571D01*
X67171429Y-102278571D01*
X67028571Y-102350000D01*
X66957143Y-102421429D01*
X66885714Y-102564286D01*
X66885714Y-102778571D01*
X66957143Y-102921429D01*
X67028571Y-102992857D01*
X67171429Y-103064286D01*
X67742857Y-103064286D01*
X65671429Y-103707143D02*
X65814286Y-103778571D01*
X66100000Y-103778571D01*
X66242857Y-103707143D01*
X66314286Y-103564286D01*
X66314286Y-102992857D01*
X66242857Y-102850000D01*
X66100000Y-102778571D01*
X65814286Y-102778571D01*
X65671429Y-102850000D01*
X65600000Y-102992857D01*
X65600000Y-103135714D01*
X66314286Y-103278571D01*
X64314286Y-103707143D02*
X64457143Y-103778571D01*
X64742857Y-103778571D01*
X64885715Y-103707143D01*
X64957143Y-103635714D01*
X65028572Y-103492857D01*
X65028572Y-103064286D01*
X64957143Y-102921429D01*
X64885715Y-102850000D01*
X64742857Y-102778571D01*
X64457143Y-102778571D01*
X64314286Y-102850000D01*
X63028572Y-103778571D02*
X63028572Y-102992857D01*
X63100001Y-102850000D01*
X63242858Y-102778571D01*
X63528572Y-102778571D01*
X63671429Y-102850000D01*
X63028572Y-103707143D02*
X63171429Y-103778571D01*
X63528572Y-103778571D01*
X63671429Y-103707143D01*
X63742858Y-103564286D01*
X63742858Y-103421429D01*
X63671429Y-103278571D01*
X63528572Y-103207143D01*
X63171429Y-103207143D01*
X63028572Y-103135714D01*
X62314286Y-102778571D02*
X62314286Y-103778571D01*
X62314286Y-102921429D02*
X62242858Y-102850000D01*
X62100000Y-102778571D01*
X61885715Y-102778571D01*
X61742858Y-102850000D01*
X61671429Y-102992857D01*
X61671429Y-103778571D01*
X67742857Y-106178571D02*
X67742857Y-104678571D01*
X67171429Y-104678571D01*
X67028571Y-104750000D01*
X66957143Y-104821429D01*
X66885714Y-104964286D01*
X66885714Y-105178571D01*
X66957143Y-105321429D01*
X67028571Y-105392857D01*
X67171429Y-105464286D01*
X67742857Y-105464286D01*
X66242857Y-106178571D02*
X66242857Y-105178571D01*
X66242857Y-104678571D02*
X66314286Y-104750000D01*
X66242857Y-104821429D01*
X66171429Y-104750000D01*
X66242857Y-104678571D01*
X66242857Y-104821429D01*
X64885714Y-106107143D02*
X65028571Y-106178571D01*
X65314285Y-106178571D01*
X65457143Y-106107143D01*
X65528571Y-106035714D01*
X65600000Y-105892857D01*
X65600000Y-105464286D01*
X65528571Y-105321429D01*
X65457143Y-105250000D01*
X65314285Y-105178571D01*
X65028571Y-105178571D01*
X64885714Y-105250000D01*
X64028571Y-106178571D02*
X64171429Y-106107143D01*
X64242857Y-106035714D01*
X64314286Y-105892857D01*
X64314286Y-105464286D01*
X64242857Y-105321429D01*
X64171429Y-105250000D01*
X64028571Y-105178571D01*
X63814286Y-105178571D01*
X63671429Y-105250000D01*
X63600000Y-105321429D01*
X63528571Y-105464286D01*
X63528571Y-105892857D01*
X63600000Y-106035714D01*
X63671429Y-106107143D01*
X63814286Y-106178571D01*
X64028571Y-106178571D01*
X61671429Y-106178571D02*
X61385714Y-106178571D01*
X61242857Y-106107143D01*
X61171429Y-106035714D01*
X61028571Y-105821429D01*
X60957143Y-105535714D01*
X60957143Y-104964286D01*
X61028571Y-104821429D01*
X61100000Y-104750000D01*
X61242857Y-104678571D01*
X61528571Y-104678571D01*
X61671429Y-104750000D01*
X61742857Y-104821429D01*
X61814286Y-104964286D01*
X61814286Y-105321429D01*
X61742857Y-105464286D01*
X61671429Y-105535714D01*
X61528571Y-105607143D01*
X61242857Y-105607143D01*
X61100000Y-105535714D01*
X61028571Y-105464286D01*
X60957143Y-105321429D01*
X59671429Y-106178571D02*
X59671429Y-105392857D01*
X59742858Y-105250000D01*
X59885715Y-105178571D01*
X60171429Y-105178571D01*
X60314286Y-105250000D01*
X59671429Y-106107143D02*
X59814286Y-106178571D01*
X60171429Y-106178571D01*
X60314286Y-106107143D01*
X60385715Y-105964286D01*
X60385715Y-105821429D01*
X60314286Y-105678571D01*
X60171429Y-105607143D01*
X59814286Y-105607143D01*
X59671429Y-105535714D01*
D11*
X53600000Y-94400000D02*
X56000000Y-96800000D01*
X70400000Y-94400000D02*
X68000000Y-96800000D01*
X56000000Y-96800000D02*
X68000000Y-96800000D01*
X51161904Y-98300000D02*
X51257142Y-98252381D01*
X51399999Y-98252381D01*
X51542857Y-98300000D01*
X51638095Y-98395238D01*
X51685714Y-98490476D01*
X51733333Y-98680952D01*
X51733333Y-98823810D01*
X51685714Y-99014286D01*
X51638095Y-99109524D01*
X51542857Y-99204762D01*
X51399999Y-99252381D01*
X51304761Y-99252381D01*
X51161904Y-99204762D01*
X51114285Y-99157143D01*
X51114285Y-98823810D01*
X51304761Y-98823810D01*
X50685714Y-99252381D02*
X50685714Y-98252381D01*
X50114285Y-99252381D01*
X50114285Y-98252381D01*
X49638095Y-99252381D02*
X49638095Y-98252381D01*
X49400000Y-98252381D01*
X49257142Y-98300000D01*
X49161904Y-98395238D01*
X49114285Y-98490476D01*
X49066666Y-98680952D01*
X49066666Y-98823810D01*
X49114285Y-99014286D01*
X49161904Y-99109524D01*
X49257142Y-99204762D01*
X49400000Y-99252381D01*
X49638095Y-99252381D01*
X67719048Y-107752381D02*
X67814286Y-107704762D01*
X67861905Y-107657143D01*
X67909524Y-107561905D01*
X67909524Y-107276190D01*
X67861905Y-107180952D01*
X67814286Y-107133333D01*
X67719048Y-107085714D01*
X67576190Y-107085714D01*
X67480952Y-107133333D01*
X67433333Y-107180952D01*
X67385714Y-107276190D01*
X67385714Y-107561905D01*
X67433333Y-107657143D01*
X67480952Y-107704762D01*
X67576190Y-107752381D01*
X67719048Y-107752381D01*
X67052381Y-107085714D02*
X66814286Y-107752381D01*
X66576190Y-107085714D01*
X65814285Y-107704762D02*
X65909523Y-107752381D01*
X66100000Y-107752381D01*
X66195238Y-107704762D01*
X66242857Y-107609524D01*
X66242857Y-107228571D01*
X66195238Y-107133333D01*
X66100000Y-107085714D01*
X65909523Y-107085714D01*
X65814285Y-107133333D01*
X65766666Y-107228571D01*
X65766666Y-107323810D01*
X66242857Y-107419048D01*
X65338095Y-107752381D02*
X65338095Y-107085714D01*
X65338095Y-107276190D02*
X65290476Y-107180952D01*
X65242857Y-107133333D01*
X65147619Y-107085714D01*
X65052380Y-107085714D01*
X64099999Y-107085714D02*
X63719047Y-107085714D01*
X63957142Y-106752381D02*
X63957142Y-107609524D01*
X63909523Y-107704762D01*
X63814285Y-107752381D01*
X63719047Y-107752381D01*
X63385713Y-107752381D02*
X63385713Y-106752381D01*
X62957141Y-107752381D02*
X62957141Y-107228571D01*
X63004760Y-107133333D01*
X63099998Y-107085714D01*
X63242856Y-107085714D01*
X63338094Y-107133333D01*
X63385713Y-107180952D01*
X62099998Y-107704762D02*
X62195236Y-107752381D01*
X62385713Y-107752381D01*
X62480951Y-107704762D01*
X62528570Y-107609524D01*
X62528570Y-107228571D01*
X62480951Y-107133333D01*
X62385713Y-107085714D01*
X62195236Y-107085714D01*
X62099998Y-107133333D01*
X62052379Y-107228571D01*
X62052379Y-107323810D01*
X62528570Y-107419048D01*
X60861903Y-107752381D02*
X60861903Y-106752381D01*
X60433331Y-107752381D02*
X60433331Y-107228571D01*
X60480950Y-107133333D01*
X60576188Y-107085714D01*
X60719046Y-107085714D01*
X60814284Y-107133333D01*
X60861903Y-107180952D01*
X59957141Y-107752381D02*
X59957141Y-107085714D01*
X59957141Y-106752381D02*
X60004760Y-106800000D01*
X59957141Y-106847619D01*
X59909522Y-106800000D01*
X59957141Y-106752381D01*
X59957141Y-106847619D01*
X59338094Y-107752381D02*
X59433332Y-107704762D01*
X59480951Y-107609524D01*
X59480951Y-106752381D01*
X58814284Y-107752381D02*
X58909522Y-107704762D01*
X58957141Y-107609524D01*
X58957141Y-106752381D01*
X58480950Y-107704762D02*
X58385712Y-107752381D01*
X58195236Y-107752381D01*
X58099997Y-107704762D01*
X58052378Y-107609524D01*
X58052378Y-107561905D01*
X58099997Y-107466667D01*
X58195236Y-107419048D01*
X58338093Y-107419048D01*
X58433331Y-107371429D01*
X58480950Y-107276190D01*
X58480950Y-107228571D01*
X58433331Y-107133333D01*
X58338093Y-107085714D01*
X58195236Y-107085714D01*
X58099997Y-107133333D01*
X70400000Y-94400000D02*
X70400000Y-91300000D01*
X70400000Y-94400000D02*
X76500000Y-94400000D01*
X53600000Y-94400000D02*
X53600000Y-91300000D01*
X53600000Y-94400000D02*
X47500000Y-94400000D01*
X73261905Y-99971429D02*
X72500000Y-99971429D01*
X72880952Y-100352381D02*
X72880952Y-99590476D01*
X72071429Y-100304762D02*
X71928572Y-100352381D01*
X71690476Y-100352381D01*
X71595238Y-100304762D01*
X71547619Y-100257143D01*
X71500000Y-100161905D01*
X71500000Y-100066667D01*
X71547619Y-99971429D01*
X71595238Y-99923810D01*
X71690476Y-99876190D01*
X71880953Y-99828571D01*
X71976191Y-99780952D01*
X72023810Y-99733333D01*
X72071429Y-99638095D01*
X72071429Y-99542857D01*
X72023810Y-99447619D01*
X71976191Y-99400000D01*
X71880953Y-99352381D01*
X71642857Y-99352381D01*
X71500000Y-99400000D01*
X70880953Y-99352381D02*
X70690476Y-99352381D01*
X70595238Y-99400000D01*
X70500000Y-99495238D01*
X70452381Y-99685714D01*
X70452381Y-100019048D01*
X70500000Y-100209524D01*
X70595238Y-100304762D01*
X70690476Y-100352381D01*
X70880953Y-100352381D01*
X70976191Y-100304762D01*
X71071429Y-100209524D01*
X71119048Y-100019048D01*
X71119048Y-99685714D01*
X71071429Y-99495238D01*
X70976191Y-99400000D01*
X70880953Y-99352381D01*
X69547619Y-100352381D02*
X70023810Y-100352381D01*
X70023810Y-99352381D01*
X73261905Y-96371429D02*
X72500000Y-96371429D01*
X72880952Y-96752381D02*
X72880952Y-95990476D01*
X71690476Y-96228571D02*
X71547619Y-96276190D01*
X71500000Y-96323810D01*
X71452381Y-96419048D01*
X71452381Y-96561905D01*
X71500000Y-96657143D01*
X71547619Y-96704762D01*
X71642857Y-96752381D01*
X72023810Y-96752381D01*
X72023810Y-95752381D01*
X71690476Y-95752381D01*
X71595238Y-95800000D01*
X71547619Y-95847619D01*
X71500000Y-95942857D01*
X71500000Y-96038095D01*
X71547619Y-96133333D01*
X71595238Y-96180952D01*
X71690476Y-96228571D01*
X72023810Y-96228571D01*
X71071429Y-96466667D02*
X70595238Y-96466667D01*
X71166667Y-96752381D02*
X70833334Y-95752381D01*
X70500000Y-96752381D01*
X70309524Y-95752381D02*
X69738095Y-95752381D01*
X70023810Y-96752381D02*
X70023810Y-95752381D01*
X76128571Y-110628571D02*
X75985714Y-110676190D01*
X75938095Y-110723810D01*
X75890476Y-110819048D01*
X75890476Y-110961905D01*
X75938095Y-111057143D01*
X75985714Y-111104762D01*
X76080952Y-111152381D01*
X76461905Y-111152381D01*
X76461905Y-110152381D01*
X76128571Y-110152381D01*
X76033333Y-110200000D01*
X75985714Y-110247619D01*
X75938095Y-110342857D01*
X75938095Y-110438095D01*
X75985714Y-110533333D01*
X76033333Y-110580952D01*
X76128571Y-110628571D01*
X76461905Y-110628571D01*
X75271429Y-110152381D02*
X75080952Y-110152381D01*
X74985714Y-110200000D01*
X74890476Y-110295238D01*
X74842857Y-110485714D01*
X74842857Y-110819048D01*
X74890476Y-111009524D01*
X74985714Y-111104762D01*
X75080952Y-111152381D01*
X75271429Y-111152381D01*
X75366667Y-111104762D01*
X75461905Y-111009524D01*
X75509524Y-110819048D01*
X75509524Y-110485714D01*
X75461905Y-110295238D01*
X75366667Y-110200000D01*
X75271429Y-110152381D01*
X74223810Y-110152381D02*
X74033333Y-110152381D01*
X73938095Y-110200000D01*
X73842857Y-110295238D01*
X73795238Y-110485714D01*
X73795238Y-110819048D01*
X73842857Y-111009524D01*
X73938095Y-111104762D01*
X74033333Y-111152381D01*
X74223810Y-111152381D01*
X74319048Y-111104762D01*
X74414286Y-111009524D01*
X74461905Y-110819048D01*
X74461905Y-110485714D01*
X74414286Y-110295238D01*
X74319048Y-110200000D01*
X74223810Y-110152381D01*
X73509524Y-110152381D02*
X72938095Y-110152381D01*
X73223810Y-111152381D02*
X73223810Y-110152381D01*
X72414286Y-110152381D02*
X72319047Y-110152381D01*
X72223809Y-110200000D01*
X72176190Y-110247619D01*
X72128571Y-110342857D01*
X72080952Y-110533333D01*
X72080952Y-110771429D01*
X72128571Y-110961905D01*
X72176190Y-111057143D01*
X72223809Y-111104762D01*
X72319047Y-111152381D01*
X72414286Y-111152381D01*
X72509524Y-111104762D01*
X72557143Y-111057143D01*
X72604762Y-110961905D01*
X72652381Y-110771429D01*
X72652381Y-110533333D01*
X72604762Y-110342857D01*
X72557143Y-110247619D01*
X72509524Y-110200000D01*
X72414286Y-110152381D01*
D13*
X57649100Y-96400000D02*
X66349100Y-96400000D01*
X66350000Y-96400000D02*
X66350000Y-91225000D01*
X66350000Y-91225000D02*
X57650000Y-91225000D01*
X57649100Y-91225000D02*
X57649100Y-96400000D01*
D10*
X67650000Y-124000000D02*
X67650000Y-122000000D01*
X67650000Y-122000000D02*
X66850000Y-122000000D01*
X66850000Y-122000000D02*
X66850000Y-124000000D01*
X66850000Y-124000000D02*
X67650000Y-124000000D01*
X70950000Y-120700000D02*
X70950000Y-118700000D01*
X70950000Y-118700000D02*
X70150000Y-118700000D01*
X70150000Y-118700000D02*
X70150000Y-120700000D01*
X70150000Y-120700000D02*
X70950000Y-120700000D01*
X72350000Y-120700000D02*
X72350000Y-118700000D01*
X72350000Y-118700000D02*
X71550000Y-118700000D01*
X71550000Y-118700000D02*
X71550000Y-120700000D01*
X71550000Y-120700000D02*
X72350000Y-120700000D01*
D13*
X73830000Y-114330000D02*
X73830000Y-116870000D01*
X73550000Y-111510000D02*
X73550000Y-113060000D01*
X73830000Y-114330000D02*
X76370000Y-114330000D01*
X76650000Y-113060000D02*
X76650000Y-111510000D01*
X76650000Y-111510000D02*
X73550000Y-111510000D01*
X76370000Y-114330000D02*
X76370000Y-116870000D01*
X76370000Y-116870000D02*
X73830000Y-116870000D01*
M02*
